M48
; DRILL file {KiCad 9.0.7} date 2026-03-09T20:19:37-0400
; FORMAT={-:-/ absolute / inch / decimal}
; #@! TF.CreationDate,2026-03-09T20:19:37-04:00
; #@! TF.GenerationSoftware,Kicad,Pcbnew,9.0.7
; #@! TF.FileFunction,Plated,1,4,PTH
FMAT,2
INCH
; #@! TA.AperFunction,Plated,PTH,ViaDrill
T1C0.0118
; #@! TA.AperFunction,Plated,PTH,ComponentDrill
T2C0.0276
; #@! TA.AperFunction,Plated,PTH,ComponentDrill
T3C0.0472
; #@! TA.AperFunction,Plated,PTH,ComponentDrill
T4C0.0787
; #@! TA.AperFunction,Plated,PTH,ComponentDrill
T5C0.1083
; #@! TA.AperFunction,Plated,PTH,ComponentDrill
T6C0.1220
; #@! TA.AperFunction,Plated,PTH,ComponentDrill
T7C0.1260
; #@! TA.AperFunction,Plated,PTH,ComponentDrill
T8C0.1661
%
G90
G05
T1
X2.125Y-2.2608
X2.1476Y-4.0886
X2.1496Y-4.4606
X2.1496Y-5.128
X2.1795Y-4.7862
X2.1843Y-3.8382
X2.1945Y-2.8453
X2.215Y-2.8594
X2.215Y-3.8382
X2.2165Y-4.7858
X2.242Y-2.582
X2.242Y-3.482
X2.3228Y-3.0315
X2.4577Y-1.9281
X2.5049Y-5.627
X2.5197Y-2.6378
X2.5197Y-3.937
X2.5197Y-4.9606
X2.5197Y-5.2756
X2.5591Y-2.4016
X2.5984Y-3.189
X2.5984Y-3.622
X2.7559Y-1.9291
X2.7559Y-2.2441
X2.7559Y-2.7165
X2.7559Y-4.0945
X2.7559Y-4.4488
X2.7559Y-4.7638
X2.7559Y-5.1181
X2.7559Y-5.4724
X2.9Y-2.88
X2.9134Y-3.189
X2.9134Y-3.5039
X2.9134Y-3.7795
X2.9528Y-2.4016
X2.9843Y-2.6476
X2.9921Y-3.0315
X2.9921Y-3.3465
X2.9921Y-3.622
X2.9921Y-3.937
X2.9921Y-4.252
X2.9921Y-4.6457
X2.9921Y-4.9606
X2.9921Y-5.2756
X3.0567Y-2.7173
X3.0866Y-3.6039
X3.1075Y-3.0929
X3.1075Y-3.2689
X3.1075Y-3.3677
X3.1075Y-3.4264
X3.1075Y-3.4858
X3.1075Y-3.5449
X3.1075Y-3.5843
X3.1075Y-3.624
X3.1496Y-1.8504
X3.1496Y-2.2441
X3.1496Y-2.8346
X3.185Y-4.38
X3.2Y-3.1811
X3.2008Y-5.1181
X3.2028Y-2.4016
X3.2028Y-4.9567
X3.2098Y-3.0524
X3.2283Y-3.7402
X3.3031Y-2.0315
X3.3138Y-3.7811
X3.3138Y-3.8295
X3.3258Y-3.3061
X3.3287Y-5.2766
X3.3386Y-2.8976
X3.345Y-4.655
X3.345Y-4.7
X3.345Y-4.75
X3.3465Y-5.6102
X3.3728Y-3.7811
X3.3728Y-3.8295
X3.3728Y-3.8787
X3.3728Y-3.928
X3.3728Y-3.9801
X3.4315Y-3.0661
X3.4323Y-3.1913
X3.4339Y-3.1323
X3.4339Y-3.3106
X3.465Y-4.38
X3.475Y-4.535
X3.5354Y-3.622
X3.5354Y-3.8504
X3.5433Y-1.8504
X3.5433Y-2.0915
X3.5433Y-2.4803
X3.5457Y-3.0547
X3.548Y-3.2654
X3.58Y-4.015
X3.58Y-4.38
X3.58Y-4.52
X3.605Y-4.655
X3.605Y-4.7
X3.605Y-4.75
X3.616Y-3.1029
X3.616Y-3.2209
X3.616Y-3.3973
X3.6163Y-3.5154
X3.62Y-4.31
X3.6417Y-5.4134
X3.6437Y-2.974
X3.6441Y-3.0016
X3.6541Y-3.5157
X3.6555Y-3.1031
X3.6559Y-3.2209
X3.6571Y-3.3976
X3.658Y-4.151
X3.6693Y-3.1762
X3.6909Y-2.9374
X3.6937Y-3.0748
X3.6941Y-3.0453
X3.6988Y-2.3159
X3.7Y-3.85
X3.7008Y-2.6998
X3.7008Y-3.622
X3.7018Y-2.6358
X3.75Y-4.95
X3.75Y-5.1
X3.7709Y-3.1185
X3.7953Y-4.6043
X3.7963Y-4.8031
X3.8386Y-5.6102
X3.8868Y-5.0541
X3.8976Y-1.8504
X3.8976Y-2.4803
X3.8976Y-3.622
X3.9Y-3.85
X3.9Y-4.2
X3.9Y-4.4
X3.9Y-4.95
X3.9006Y-2.0945
X3.9265Y-3.9961
X3.9278Y-3.9604
X3.9734Y-5.4163
X4.05Y-4.95
X4.0502Y-5.0167
X4.0945Y-3.622
X4.0945Y-4.0748
X4.0965Y-2.9374
X4.1083Y-2.3219
X4.252Y-1.8504
X4.253Y-2.4793
X4.2559Y-4.4547
X4.2559Y-4.502
X4.2559Y-4.5531
X4.3071Y-4.4545
X4.3071Y-4.502
X4.3071Y-4.5531
X4.3189Y-5.0955
X4.3273Y-4.3189
X4.3701Y-3.8976
X4.378Y-5.4774
X4.4281Y-5.0955
X4.4291Y-4.2323
X4.4409Y-2.7638
X4.4488Y-1.9685
X4.4488Y-4.0157
X4.4689Y-2.8457
X4.498Y-2.247
X4.5305Y-5.6093
X4.5665Y-2.6957
X4.5669Y-4.4094
X4.5669Y-4.6063
X4.5669Y-4.8031
X4.5669Y-4.9606
X4.5673Y-2.6346
X4.626Y-3.6063
X4.6457Y-1.8504
X4.6457Y-4.0945
X4.6919Y-5.4754
X4.7244Y-2.2441
X4.7244Y-4.9606
X4.7844Y-5.3238
X4.7933Y-1.9685
X4.813Y-4.4065
X4.813Y-4.6093
X4.813Y-4.8041
X4.8776Y-3.2909
X4.8776Y-3.3189
X4.8819Y-4.0945
X4.8819Y-4.9606
X4.8868Y-3.6063
X4.898Y-2.9374
X4.9823Y-5.3248
X4.9886Y-2.7618
X5.0Y-1.85
X5.0108Y-5.6152
X5.0394Y-4.4094
X5.0394Y-4.6063
X5.0394Y-4.8031
X5.0394Y-4.9606
X5.0744Y-2.6961
X5.0984Y-4.0945
X5.1248Y-3.1303
X5.1476Y-2.6382
X5.1969Y-1.9685
X5.2474Y-3.2907
X5.2476Y-3.2575
X5.2559Y-5.312
X5.256Y-3.692
X5.26Y-4.78
X5.26Y-5.0
X5.2618Y-5.1673
X5.315Y-4.0945
X5.315Y-4.2323
X5.32Y-4.66
X5.354Y-3.53
X5.398Y-2.9343
X5.4331Y-2.3622
X5.4331Y-2.4803
X5.4754Y-1.815
X5.5Y-4.78
X5.5Y-5.0
X5.514Y-3.645
X5.5364Y-5.6142
X5.5512Y-3.5433
X5.5512Y-3.745
X5.5886Y-3.7421
X5.5984Y-3.5433
X5.6009Y-2.036
X5.6015Y-2.065
X5.6015Y-2.0941
X5.6063Y-2.2077
X5.6102Y-5.315
X5.6201Y-1.997
X5.6299Y-3.1496
X5.6339Y-2.7661
X5.6368Y-3.7825
X5.648Y-2.037
X5.6486Y-2.065
X5.6486Y-2.0941
X5.6634Y-1.997
X5.6693Y-2.4803
X5.688Y-3.813
X5.6929Y-2.037
X5.6945Y-2.065
X5.6945Y-2.0941
X5.7077Y-1.998
X5.7087Y-4.0945
X5.7087Y-4.2913
X5.7343Y-2.0207
X5.7343Y-2.061
X5.7343Y-2.0974
X5.7352Y-3.8504
X5.749Y-2.2077
X5.76Y-4.66
X5.76Y-5.0
X5.7913Y-3.3098
X5.7953Y-2.4016
X5.8022Y-1.813
X5.8224Y-2.4006
X5.835Y-3.5433
X5.8445Y-1.8278
X5.8602Y-2.2008
X5.8661Y-2.8346
X5.878Y-2.4252
X5.878Y-3.5433
X5.8907Y-1.8386
X5.9055Y-3.489
X5.9055Y-4.0945
X5.9055Y-4.2913
X5.907Y-2.2097
X5.922Y-2.425
X5.9252Y-2.1929
X5.9268Y-2.1622
X5.9341Y-1.8524
X5.9469Y-2.1407
X5.9539Y-2.572
X5.9882Y-2.424
X5.9951Y-2.2067
X6.02Y-4.56
X6.02Y-4.78
X6.02Y-5.0
X6.0283Y-2.4323
X6.0551Y-2.2077
X6.065Y-2.4035
X6.071Y-2.578
X6.0713Y-3.5433
X6.0875Y-2.5535
X6.1024Y-3.1496
X6.1024Y-3.8386
X6.1024Y-4.0945
X6.1024Y-4.2913
X6.1073Y-2.4321
X6.1181Y-1.8533
X6.127Y-2.2067
X6.1335Y-2.5394
X6.146Y-2.51
X6.1476Y-2.439
X6.1624Y-1.8386
X6.1673Y-2.0404
X6.1683Y-2.3967
X6.2Y-4.66
X6.2077Y-1.8268
X6.2126Y-2.2096
X6.213Y-3.5433
X6.2372Y-2.4026
X6.25Y-1.812
X6.252Y-3.54
X6.26Y-5.0
X6.2992Y-4.0945
X6.2992Y-4.2913
X6.2992Y-5.315
X6.3071Y-2.2096
X6.3071Y-2.4026
X6.326Y-3.644
X6.3661Y-2.4085
X6.378Y-2.8346
X6.3789Y-2.435
X6.3868Y-2.3789
X6.3878Y-2.2291
X6.392Y-4.566
X6.3967Y-1.811
X6.5945Y-3.8386
X6.5945Y-4.9213
X6.5945Y-5.6102
X6.6142Y-2.6378
X6.6142Y-3.1496
X6.6388Y-3.6437
X6.6929Y-4.4291
X6.7431Y-2.1801
X6.7441Y-2.3789
X6.7451Y-1.811
X6.84Y-4.234
X6.8898Y-2.8346
X6.8898Y-4.1339
X6.8898Y-4.7244
X6.8898Y-5.315
X7.0217Y-3.9941
X7.028Y-4.236
X7.0433Y-3.973
X7.0669Y-3.9508
X7.0866Y-3.1496
X7.0866Y-3.8386
X7.0876Y-3.9331
X7.1407Y-1.8091
X7.1654Y-2.3228
X7.185Y-5.6102
X7.2Y-5.0
X7.219Y-2.878
X7.22Y-3.025
X7.2283Y-4.2982
X7.24Y-3.0
X7.249Y-4.2185
X7.252Y-2.878
X7.2687Y-4.1998
X7.2835Y-3.6417
X7.287Y-3.056
X7.2913Y-4.1752
X7.313Y-4.1565
X7.331Y-3.069
X7.345Y-2.97
X7.37Y-2.95
X7.4409Y-2.3228
X7.4419Y-2.7323
X7.474Y-2.104
X7.499Y-3.155
X7.5266Y-1.8071
X7.542Y-3.171
X7.5787Y-5.315
X7.5837Y-4.6939
X7.586Y-3.462
X7.6Y-4.2
X7.634Y-3.636
X7.637Y-3.272
X7.6673Y-2.313
X7.6752Y-3.0835
X7.7382Y-3.8022
X7.7461Y-2.4537
X7.748Y-2.561
X7.748Y-2.7293
X7.7589Y-5.6112
X7.8Y-5.0
X7.8307Y-2.4301
X7.8386Y-2.1378
X7.8396Y-2.1654
X7.8465Y-2.4016
X7.8563Y-2.2589
X7.8563Y-2.2854
X7.873Y-2.7825
X7.8976Y-2.3563
X7.8986Y-1.8061
X7.9173Y-3.3996
X7.9301Y-2.2018
X7.9301Y-2.3533
X7.9429Y-2.1762
X7.9685Y-2.3681
X7.9724Y-3.1496
X7.9902Y-2.3504
X7.9961Y-2.2165
X8.0128Y-2.2628
X8.0138Y-2.3071
X8.0935Y-2.2274
X8.0984Y-2.06
X8.1181Y-2.2165
X8.19Y-2.4065
X8.1978Y-4.6969
X8.2Y-4.2
X8.2224Y-2.3809
X8.2352Y-3.4026
X8.2548Y-2.3562
X8.2559Y-2.1949
X8.2677Y-5.315
X8.2756Y-1.8041
X8.2854Y-2.3297
X8.3199Y-2.3012
X8.3602Y-2.2717
X8.3669Y-4.5663
X8.4Y-3.8
X8.4Y-5.0
X8.4203Y-2.7884
X8.4203Y-3.003
X8.4304Y-4.6
X8.436Y-2.3888
X8.4705Y-4.6703
X8.4705Y-4.6969
X8.5463Y-4.75
X8.5492Y-4.7224
X8.563Y-5.6102
X8.5659Y-2.6496
X8.5925Y-2.4547
X8.6Y-3.4
X8.6033Y-2.3504
X8.6388Y-2.4695
X8.6683Y-2.4537
X8.6722Y-4.7028
X8.6772Y-4.6762
X8.7549Y-2.4557
X8.7982Y-2.7864
X8.8Y-3.0
X8.8Y-3.2
X8.8Y-4.2
X8.8209Y-2.4567
X8.8219Y-2.2933
X8.8396Y-2.2726
X8.9567Y-5.315
X9.0Y-3.8
X9.0Y-5.0
X9.0994Y-1.8907
X9.1004Y-2.2766
X9.1014Y-3.2185
X9.1033Y-2.6486
X9.1287Y-3.2079
X9.2Y-3.4
X9.2Y-4.6
X9.2736Y-3.1366
X9.3061Y-3.1358
X9.3376Y-2.2736
X9.3504Y-4.5276
X9.3504Y-5.0197
X9.3504Y-5.6102
X9.3945Y-3.0358
X9.3947Y-3.0679
X9.4045Y-3.4478
X9.4047Y-4.035
X9.4094Y-3.1496
X9.5443Y-1.8907
X9.6091Y-2.6453
X9.6094Y-3.6614
X9.6331Y-2.6673
X9.6382Y-3.6831
X9.6398Y-4.6909
X9.6673Y-4.6811
X9.7313Y-3.1486
X9.7333Y-3.4508
X9.744Y-2.451
X9.9055Y-5.3061
T2
X8.5266Y-4.6181
X8.5266Y-4.8071
X8.6959Y-4.6181
X8.6959Y-4.8071
T3
X2.1205Y-4.6882
X2.1205Y-4.885
X2.122Y-3.676
X2.122Y-3.8728
X2.1232Y-2.6658
X2.1232Y-2.8627
X2.6126Y-4.6882
X2.6126Y-4.885
X2.6142Y-3.676
X2.6142Y-3.8728
X2.6154Y-2.6658
X2.6154Y-2.8627
X9.4323Y-3.6756
X9.4323Y-3.8724
X9.4323Y-4.6878
X9.4323Y-4.8846
X9.4327Y-2.6654
X9.4327Y-2.8622
X9.9244Y-3.6756
X9.9244Y-3.8724
X9.9244Y-4.6878
X9.9244Y-4.8846
X9.9248Y-2.6654
X9.9248Y-2.8622
T4
X5.452Y-4.663
X6.578Y-4.663
T5
X5.8831Y-4.463
X5.8831Y-4.863
X6.1469Y-4.463
X6.1469Y-4.863
T6
X5.0751Y-2.3254
X5.0751Y-3.6246
X6.32Y-4.665
X6.9649Y-2.3254
X6.9649Y-3.6246
T7
X2.3691Y-5.2925
X2.3711Y-2.2579
X9.6791Y-5.2925
X9.6801Y-2.2569
T8
X2.2274Y-4.2785
X2.2293Y-3.2707
X2.2298Y-5.573
X2.2302Y-1.9769
X4.128Y-1.9744
X4.128Y-5.5724
X4.1289Y-3.7736
X6.0225Y-5.563
X6.0246Y-1.9764
X7.9203Y-3.7736
X7.9203Y-5.563
X7.9213Y-1.9754
X9.8189Y-5.5728
X9.8194Y-1.9772
X9.8209Y-4.2756
X9.8219Y-3.2717
M30
