%TF.GenerationSoftware,KiCad,Pcbnew,9.0.7*%
%TF.CreationDate,2026-03-01T15:54:43-05:00*%
%TF.ProjectId,py_dash_pcb_7,70795f64-6173-4685-9f70-63625f372e6b,rev?*%
%TF.SameCoordinates,Original*%
%TF.FileFunction,Legend,Bot*%
%TF.FilePolarity,Positive*%
%FSLAX46Y46*%
G04 Gerber Fmt 4.6, Leading zero omitted, Abs format (unit mm)*
G04 Created by KiCad (PCBNEW 9.0.7) date 2026-03-01 15:54:43*
%MOMM*%
%LPD*%
G01*
G04 APERTURE LIST*
%ADD10C,0.150000*%
%ADD11C,0.152400*%
%ADD12C,0.254000*%
G04 APERTURE END LIST*
D10*
X252108332Y-129082200D02*
X251965475Y-129129819D01*
X251965475Y-129129819D02*
X251727380Y-129129819D01*
X251727380Y-129129819D02*
X251632142Y-129082200D01*
X251632142Y-129082200D02*
X251584523Y-129034580D01*
X251584523Y-129034580D02*
X251536904Y-128939342D01*
X251536904Y-128939342D02*
X251536904Y-128844104D01*
X251536904Y-128844104D02*
X251584523Y-128748866D01*
X251584523Y-128748866D02*
X251632142Y-128701247D01*
X251632142Y-128701247D02*
X251727380Y-128653628D01*
X251727380Y-128653628D02*
X251917856Y-128606009D01*
X251917856Y-128606009D02*
X252013094Y-128558390D01*
X252013094Y-128558390D02*
X252060713Y-128510771D01*
X252060713Y-128510771D02*
X252108332Y-128415533D01*
X252108332Y-128415533D02*
X252108332Y-128320295D01*
X252108332Y-128320295D02*
X252060713Y-128225057D01*
X252060713Y-128225057D02*
X252013094Y-128177438D01*
X252013094Y-128177438D02*
X251917856Y-128129819D01*
X251917856Y-128129819D02*
X251679761Y-128129819D01*
X251679761Y-128129819D02*
X251536904Y-128177438D01*
X251203570Y-128129819D02*
X250965475Y-129129819D01*
X250965475Y-129129819D02*
X250774999Y-128415533D01*
X250774999Y-128415533D02*
X250584523Y-129129819D01*
X250584523Y-129129819D02*
X250346428Y-128129819D01*
X250060713Y-128129819D02*
X249441666Y-128129819D01*
X249441666Y-128129819D02*
X249774999Y-128510771D01*
X249774999Y-128510771D02*
X249632142Y-128510771D01*
X249632142Y-128510771D02*
X249536904Y-128558390D01*
X249536904Y-128558390D02*
X249489285Y-128606009D01*
X249489285Y-128606009D02*
X249441666Y-128701247D01*
X249441666Y-128701247D02*
X249441666Y-128939342D01*
X249441666Y-128939342D02*
X249489285Y-129034580D01*
X249489285Y-129034580D02*
X249536904Y-129082200D01*
X249536904Y-129082200D02*
X249632142Y-129129819D01*
X249632142Y-129129819D02*
X249917856Y-129129819D01*
X249917856Y-129129819D02*
X250013094Y-129082200D01*
X250013094Y-129082200D02*
X250060713Y-129034580D01*
X66503333Y-77859101D02*
X66360476Y-77906720D01*
X66360476Y-77906720D02*
X66122381Y-77906720D01*
X66122381Y-77906720D02*
X66027143Y-77859101D01*
X66027143Y-77859101D02*
X65979524Y-77811481D01*
X65979524Y-77811481D02*
X65931905Y-77716243D01*
X65931905Y-77716243D02*
X65931905Y-77621005D01*
X65931905Y-77621005D02*
X65979524Y-77525767D01*
X65979524Y-77525767D02*
X66027143Y-77478148D01*
X66027143Y-77478148D02*
X66122381Y-77430529D01*
X66122381Y-77430529D02*
X66312857Y-77382910D01*
X66312857Y-77382910D02*
X66408095Y-77335291D01*
X66408095Y-77335291D02*
X66455714Y-77287672D01*
X66455714Y-77287672D02*
X66503333Y-77192434D01*
X66503333Y-77192434D02*
X66503333Y-77097196D01*
X66503333Y-77097196D02*
X66455714Y-77001958D01*
X66455714Y-77001958D02*
X66408095Y-76954339D01*
X66408095Y-76954339D02*
X66312857Y-76906720D01*
X66312857Y-76906720D02*
X66074762Y-76906720D01*
X66074762Y-76906720D02*
X65931905Y-76954339D01*
X65598571Y-76906720D02*
X65360476Y-77906720D01*
X65360476Y-77906720D02*
X65170000Y-77192434D01*
X65170000Y-77192434D02*
X64979524Y-77906720D01*
X64979524Y-77906720D02*
X64741429Y-76906720D01*
X63931905Y-77240053D02*
X63931905Y-77906720D01*
X64170000Y-76859101D02*
X64408095Y-77573386D01*
X64408095Y-77573386D02*
X63789048Y-77573386D01*
X252083332Y-103332200D02*
X251940475Y-103379819D01*
X251940475Y-103379819D02*
X251702380Y-103379819D01*
X251702380Y-103379819D02*
X251607142Y-103332200D01*
X251607142Y-103332200D02*
X251559523Y-103284580D01*
X251559523Y-103284580D02*
X251511904Y-103189342D01*
X251511904Y-103189342D02*
X251511904Y-103094104D01*
X251511904Y-103094104D02*
X251559523Y-102998866D01*
X251559523Y-102998866D02*
X251607142Y-102951247D01*
X251607142Y-102951247D02*
X251702380Y-102903628D01*
X251702380Y-102903628D02*
X251892856Y-102856009D01*
X251892856Y-102856009D02*
X251988094Y-102808390D01*
X251988094Y-102808390D02*
X252035713Y-102760771D01*
X252035713Y-102760771D02*
X252083332Y-102665533D01*
X252083332Y-102665533D02*
X252083332Y-102570295D01*
X252083332Y-102570295D02*
X252035713Y-102475057D01*
X252035713Y-102475057D02*
X251988094Y-102427438D01*
X251988094Y-102427438D02*
X251892856Y-102379819D01*
X251892856Y-102379819D02*
X251654761Y-102379819D01*
X251654761Y-102379819D02*
X251511904Y-102427438D01*
X251178570Y-102379819D02*
X250940475Y-103379819D01*
X250940475Y-103379819D02*
X250749999Y-102665533D01*
X250749999Y-102665533D02*
X250559523Y-103379819D01*
X250559523Y-103379819D02*
X250321428Y-102379819D01*
X249988094Y-102475057D02*
X249940475Y-102427438D01*
X249940475Y-102427438D02*
X249845237Y-102379819D01*
X249845237Y-102379819D02*
X249607142Y-102379819D01*
X249607142Y-102379819D02*
X249511904Y-102427438D01*
X249511904Y-102427438D02*
X249464285Y-102475057D01*
X249464285Y-102475057D02*
X249416666Y-102570295D01*
X249416666Y-102570295D02*
X249416666Y-102665533D01*
X249416666Y-102665533D02*
X249464285Y-102808390D01*
X249464285Y-102808390D02*
X250035713Y-103379819D01*
X250035713Y-103379819D02*
X249416666Y-103379819D01*
X66323332Y-103567200D02*
X66180475Y-103614819D01*
X66180475Y-103614819D02*
X65942380Y-103614819D01*
X65942380Y-103614819D02*
X65847142Y-103567200D01*
X65847142Y-103567200D02*
X65799523Y-103519580D01*
X65799523Y-103519580D02*
X65751904Y-103424342D01*
X65751904Y-103424342D02*
X65751904Y-103329104D01*
X65751904Y-103329104D02*
X65799523Y-103233866D01*
X65799523Y-103233866D02*
X65847142Y-103186247D01*
X65847142Y-103186247D02*
X65942380Y-103138628D01*
X65942380Y-103138628D02*
X66132856Y-103091009D01*
X66132856Y-103091009D02*
X66228094Y-103043390D01*
X66228094Y-103043390D02*
X66275713Y-102995771D01*
X66275713Y-102995771D02*
X66323332Y-102900533D01*
X66323332Y-102900533D02*
X66323332Y-102805295D01*
X66323332Y-102805295D02*
X66275713Y-102710057D01*
X66275713Y-102710057D02*
X66228094Y-102662438D01*
X66228094Y-102662438D02*
X66132856Y-102614819D01*
X66132856Y-102614819D02*
X65894761Y-102614819D01*
X65894761Y-102614819D02*
X65751904Y-102662438D01*
X65418570Y-102614819D02*
X65180475Y-103614819D01*
X65180475Y-103614819D02*
X64989999Y-102900533D01*
X64989999Y-102900533D02*
X64799523Y-103614819D01*
X64799523Y-103614819D02*
X64561428Y-102614819D01*
X63704285Y-102614819D02*
X64180475Y-102614819D01*
X64180475Y-102614819D02*
X64228094Y-103091009D01*
X64228094Y-103091009D02*
X64180475Y-103043390D01*
X64180475Y-103043390D02*
X64085237Y-102995771D01*
X64085237Y-102995771D02*
X63847142Y-102995771D01*
X63847142Y-102995771D02*
X63751904Y-103043390D01*
X63751904Y-103043390D02*
X63704285Y-103091009D01*
X63704285Y-103091009D02*
X63656666Y-103186247D01*
X63656666Y-103186247D02*
X63656666Y-103424342D01*
X63656666Y-103424342D02*
X63704285Y-103519580D01*
X63704285Y-103519580D02*
X63751904Y-103567200D01*
X63751904Y-103567200D02*
X63847142Y-103614819D01*
X63847142Y-103614819D02*
X64085237Y-103614819D01*
X64085237Y-103614819D02*
X64180475Y-103567200D01*
X64180475Y-103567200D02*
X64228094Y-103519580D01*
X66253331Y-129325299D02*
X66110474Y-129372918D01*
X66110474Y-129372918D02*
X65872379Y-129372918D01*
X65872379Y-129372918D02*
X65777141Y-129325299D01*
X65777141Y-129325299D02*
X65729522Y-129277679D01*
X65729522Y-129277679D02*
X65681903Y-129182441D01*
X65681903Y-129182441D02*
X65681903Y-129087203D01*
X65681903Y-129087203D02*
X65729522Y-128991965D01*
X65729522Y-128991965D02*
X65777141Y-128944346D01*
X65777141Y-128944346D02*
X65872379Y-128896727D01*
X65872379Y-128896727D02*
X66062855Y-128849108D01*
X66062855Y-128849108D02*
X66158093Y-128801489D01*
X66158093Y-128801489D02*
X66205712Y-128753870D01*
X66205712Y-128753870D02*
X66253331Y-128658632D01*
X66253331Y-128658632D02*
X66253331Y-128563394D01*
X66253331Y-128563394D02*
X66205712Y-128468156D01*
X66205712Y-128468156D02*
X66158093Y-128420537D01*
X66158093Y-128420537D02*
X66062855Y-128372918D01*
X66062855Y-128372918D02*
X65824760Y-128372918D01*
X65824760Y-128372918D02*
X65681903Y-128420537D01*
X65348569Y-128372918D02*
X65110474Y-129372918D01*
X65110474Y-129372918D02*
X64919998Y-128658632D01*
X64919998Y-128658632D02*
X64729522Y-129372918D01*
X64729522Y-129372918D02*
X64491427Y-128372918D01*
X63681903Y-128372918D02*
X63872379Y-128372918D01*
X63872379Y-128372918D02*
X63967617Y-128420537D01*
X63967617Y-128420537D02*
X64015236Y-128468156D01*
X64015236Y-128468156D02*
X64110474Y-128611013D01*
X64110474Y-128611013D02*
X64158093Y-128801489D01*
X64158093Y-128801489D02*
X64158093Y-129182441D01*
X64158093Y-129182441D02*
X64110474Y-129277679D01*
X64110474Y-129277679D02*
X64062855Y-129325299D01*
X64062855Y-129325299D02*
X63967617Y-129372918D01*
X63967617Y-129372918D02*
X63777141Y-129372918D01*
X63777141Y-129372918D02*
X63681903Y-129325299D01*
X63681903Y-129325299D02*
X63634284Y-129277679D01*
X63634284Y-129277679D02*
X63586665Y-129182441D01*
X63586665Y-129182441D02*
X63586665Y-128944346D01*
X63586665Y-128944346D02*
X63634284Y-128849108D01*
X63634284Y-128849108D02*
X63681903Y-128801489D01*
X63681903Y-128801489D02*
X63777141Y-128753870D01*
X63777141Y-128753870D02*
X63967617Y-128753870D01*
X63967617Y-128753870D02*
X64062855Y-128801489D01*
X64062855Y-128801489D02*
X64110474Y-128849108D01*
X64110474Y-128849108D02*
X64158093Y-128944346D01*
X251983332Y-77757200D02*
X251840475Y-77804819D01*
X251840475Y-77804819D02*
X251602380Y-77804819D01*
X251602380Y-77804819D02*
X251507142Y-77757200D01*
X251507142Y-77757200D02*
X251459523Y-77709580D01*
X251459523Y-77709580D02*
X251411904Y-77614342D01*
X251411904Y-77614342D02*
X251411904Y-77519104D01*
X251411904Y-77519104D02*
X251459523Y-77423866D01*
X251459523Y-77423866D02*
X251507142Y-77376247D01*
X251507142Y-77376247D02*
X251602380Y-77328628D01*
X251602380Y-77328628D02*
X251792856Y-77281009D01*
X251792856Y-77281009D02*
X251888094Y-77233390D01*
X251888094Y-77233390D02*
X251935713Y-77185771D01*
X251935713Y-77185771D02*
X251983332Y-77090533D01*
X251983332Y-77090533D02*
X251983332Y-76995295D01*
X251983332Y-76995295D02*
X251935713Y-76900057D01*
X251935713Y-76900057D02*
X251888094Y-76852438D01*
X251888094Y-76852438D02*
X251792856Y-76804819D01*
X251792856Y-76804819D02*
X251554761Y-76804819D01*
X251554761Y-76804819D02*
X251411904Y-76852438D01*
X251078570Y-76804819D02*
X250840475Y-77804819D01*
X250840475Y-77804819D02*
X250649999Y-77090533D01*
X250649999Y-77090533D02*
X250459523Y-77804819D01*
X250459523Y-77804819D02*
X250221428Y-76804819D01*
X249316666Y-77804819D02*
X249888094Y-77804819D01*
X249602380Y-77804819D02*
X249602380Y-76804819D01*
X249602380Y-76804819D02*
X249697618Y-76947676D01*
X249697618Y-76947676D02*
X249792856Y-77042914D01*
X249792856Y-77042914D02*
X249888094Y-77090533D01*
D11*
%TO.C,SW3*%
X239703002Y-115443002D02*
X239703002Y-117889704D01*
X239703002Y-120250296D02*
X239703002Y-122889704D01*
X239703002Y-125250296D02*
X239703002Y-127696998D01*
X239703002Y-127696998D02*
X251956998Y-127696998D01*
X251956998Y-115443002D02*
X239703002Y-115443002D01*
X251956998Y-117889704D02*
X251956998Y-115443002D01*
X251956998Y-122889704D02*
X251956998Y-120250296D01*
X251956998Y-127696998D02*
X251956998Y-125250296D01*
D12*
X252207000Y-113990000D02*
G75*
G02*
X251953000Y-113990000I-127000J0D01*
G01*
X251953000Y-113990000D02*
G75*
G02*
X252207000Y-113990000I127000J0D01*
G01*
D11*
%TO.C,SW4*%
X54053003Y-64084903D02*
X54053003Y-66531605D01*
X54053003Y-68892197D02*
X54053003Y-71531605D01*
X54053003Y-73892197D02*
X54053003Y-76338899D01*
X54053003Y-76338899D02*
X66306999Y-76338899D01*
X66306999Y-64084903D02*
X54053003Y-64084903D01*
X66306999Y-66531605D02*
X66306999Y-64084903D01*
X66306999Y-71531605D02*
X66306999Y-68892197D01*
X66306999Y-76338899D02*
X66306999Y-73892197D01*
D12*
X66557001Y-62631901D02*
G75*
G02*
X66303001Y-62631901I-127000J0D01*
G01*
X66303001Y-62631901D02*
G75*
G02*
X66557001Y-62631901I127000J0D01*
G01*
D11*
%TO.C,SW2*%
X239703002Y-89733002D02*
X239703002Y-92179704D01*
X239703002Y-94540296D02*
X239703002Y-97179704D01*
X239703002Y-99540296D02*
X239703002Y-101986998D01*
X239703002Y-101986998D02*
X251956998Y-101986998D01*
X251956998Y-89733002D02*
X239703002Y-89733002D01*
X251956998Y-92179704D02*
X251956998Y-89733002D01*
X251956998Y-97179704D02*
X251956998Y-94540296D01*
X251956998Y-101986998D02*
X251956998Y-99540296D01*
D12*
X252207000Y-88280000D02*
G75*
G02*
X251953000Y-88280000I-127000J0D01*
G01*
X251953000Y-88280000D02*
G75*
G02*
X252207000Y-88280000I127000J0D01*
G01*
D11*
%TO.C,SW5*%
X54023002Y-89743002D02*
X54023002Y-92189704D01*
X54023002Y-94550296D02*
X54023002Y-97189704D01*
X54023002Y-99550296D02*
X54023002Y-101996998D01*
X54023002Y-101996998D02*
X66276998Y-101996998D01*
X66276998Y-89743002D02*
X54023002Y-89743002D01*
X66276998Y-92189704D02*
X66276998Y-89743002D01*
X66276998Y-97189704D02*
X66276998Y-94550296D01*
X66276998Y-101996998D02*
X66276998Y-99550296D01*
D12*
X66527000Y-88290000D02*
G75*
G02*
X66273000Y-88290000I-127000J0D01*
G01*
X66273000Y-88290000D02*
G75*
G02*
X66527000Y-88290000I127000J0D01*
G01*
D11*
%TO.C,SW6*%
X53983002Y-115453002D02*
X53983002Y-117899704D01*
X53983002Y-120260296D02*
X53983002Y-122899704D01*
X53983002Y-125260296D02*
X53983002Y-127706998D01*
X53983002Y-127706998D02*
X66236998Y-127706998D01*
X66236998Y-115453002D02*
X53983002Y-115453002D01*
X66236998Y-117899704D02*
X66236998Y-115453002D01*
X66236998Y-122899704D02*
X66236998Y-120260296D01*
X66236998Y-127706998D02*
X66236998Y-125260296D01*
D12*
X66487000Y-114000000D02*
G75*
G02*
X66233000Y-114000000I-127000J0D01*
G01*
X66233000Y-114000000D02*
G75*
G02*
X66487000Y-114000000I127000J0D01*
G01*
D11*
%TO.C,SW1*%
X239713002Y-64073002D02*
X239713002Y-66519704D01*
X239713002Y-68880296D02*
X239713002Y-71519704D01*
X239713002Y-73880296D02*
X239713002Y-76326998D01*
X239713002Y-76326998D02*
X251966998Y-76326998D01*
X251966998Y-64073002D02*
X239713002Y-64073002D01*
X251966998Y-66519704D02*
X251966998Y-64073002D01*
X251966998Y-71519704D02*
X251966998Y-68880296D01*
X251966998Y-76326998D02*
X251966998Y-73880296D01*
D12*
X252217000Y-62620000D02*
G75*
G02*
X251963000Y-62620000I-127000J0D01*
G01*
X251963000Y-62620000D02*
G75*
G02*
X252217000Y-62620000I127000J0D01*
G01*
%TD*%
M02*
