%TF.GenerationSoftware,KiCad,Pcbnew,9.0.7*%
%TF.CreationDate,2026-02-15T20:17:23-05:00*%
%TF.ProjectId,py_dash_pcb_7,70795f64-6173-4685-9f70-63625f372e6b,rev?*%
%TF.SameCoordinates,Original*%
%TF.FileFunction,Soldermask,Bot*%
%TF.FilePolarity,Negative*%
%FSLAX46Y46*%
G04 Gerber Fmt 4.6, Leading zero omitted, Abs format (unit mm)*
G04 Created by KiCad (PCBNEW 9.0.7) date 2026-02-15 20:17:23*
%MOMM*%
%LPD*%
G01*
G04 APERTURE LIST*
%ADD10C,0.660000*%
%ADD11O,0.580000X1.000000*%
%ADD12C,1.100000*%
%ADD13C,5.600000*%
%ADD14C,2.500000*%
%ADD15C,4.000000*%
%ADD16C,6.004000*%
%ADD17C,1.799996*%
%ADD18C,1.707896*%
G04 APERTURE END LIST*
D10*
%TO.C,J8*%
X198225000Y-114725000D03*
D11*
X198225000Y-122225000D03*
D12*
X200375000Y-116075000D03*
X196075000Y-116075000D03*
X200375000Y-120875000D03*
X196075000Y-120875000D03*
%TD*%
D13*
%TO.C,H5*%
X56730000Y-50330000D03*
%TD*%
%TO.C,H7*%
X249280000Y-141450000D03*
%TD*%
%TO.C,H8*%
X56740000Y-141462000D03*
%TD*%
%TO.C,H6*%
X249302000Y-50355400D03*
%TD*%
D14*
%TO.C,J2*%
X138481200Y-118440200D03*
D15*
X160528000Y-118491000D03*
D14*
X167081200Y-118440200D03*
D15*
X149431200Y-113360200D03*
X156131200Y-113360200D03*
X156131200Y-123520200D03*
X149431200Y-123520200D03*
%TD*%
D16*
%TO.C,U1*%
X128908000Y-59065000D03*
X176908000Y-59065000D03*
X128908000Y-92065000D03*
X176908000Y-92065000D03*
%TD*%
D17*
%TO.C,SW3*%
X245830000Y-126070000D03*
X245830000Y-117070000D03*
D18*
X252080000Y-119070000D03*
X239580000Y-119070000D03*
X252080000Y-124070000D03*
X239580000Y-124070000D03*
%TD*%
D17*
%TO.C,SW4*%
X60180001Y-74711901D03*
X60180001Y-65711901D03*
D18*
X66430001Y-67711901D03*
X53930001Y-67711901D03*
X66430001Y-72711901D03*
X53930001Y-72711901D03*
%TD*%
D17*
%TO.C,SW2*%
X245830000Y-100360000D03*
X245830000Y-91360000D03*
D18*
X252080000Y-93360000D03*
X239580000Y-93360000D03*
X252080000Y-98360000D03*
X239580000Y-98360000D03*
%TD*%
D17*
%TO.C,SW5*%
X60150000Y-100370000D03*
X60150000Y-91370000D03*
D18*
X66400000Y-93370000D03*
X53900000Y-93370000D03*
X66400000Y-98370000D03*
X53900000Y-98370000D03*
%TD*%
D17*
%TO.C,SW6*%
X60110000Y-126080000D03*
X60110000Y-117080000D03*
D18*
X66360000Y-119080000D03*
X53860000Y-119080000D03*
X66360000Y-124080000D03*
X53860000Y-124080000D03*
%TD*%
D17*
%TO.C,SW1*%
X245840000Y-74700000D03*
X245840000Y-65700000D03*
D18*
X252090000Y-67700000D03*
X239590000Y-67700000D03*
X252090000Y-72700000D03*
X239590000Y-72700000D03*
%TD*%
M02*
