%TF.GenerationSoftware,KiCad,Pcbnew,9.0.7*%
%TF.CreationDate,2026-03-01T15:54:43-05:00*%
%TF.ProjectId,py_dash_pcb_7,70795f64-6173-4685-9f70-63625f372e6b,rev?*%
%TF.SameCoordinates,Original*%
%TF.FileFunction,Soldermask,Top*%
%TF.FilePolarity,Negative*%
%FSLAX46Y46*%
G04 Gerber Fmt 4.6, Leading zero omitted, Abs format (unit mm)*
G04 Created by KiCad (PCBNEW 9.0.7) date 2026-03-01 15:54:43*
%MOMM*%
%LPD*%
G01*
G04 APERTURE LIST*
G04 Aperture macros list*
%AMRoundRect*
0 Rectangle with rounded corners*
0 $1 Rounding radius*
0 $2 $3 $4 $5 $6 $7 $8 $9 X,Y pos of 4 corners*
0 Add a 4 corners polygon primitive as box body*
4,1,4,$2,$3,$4,$5,$6,$7,$8,$9,$2,$3,0*
0 Add four circle primitives for the rounded corners*
1,1,$1+$1,$2,$3*
1,1,$1+$1,$4,$5*
1,1,$1+$1,$6,$7*
1,1,$1+$1,$8,$9*
0 Add four rect primitives between the rounded corners*
20,1,$1+$1,$2,$3,$4,$5,0*
20,1,$1+$1,$4,$5,$6,$7,0*
20,1,$1+$1,$6,$7,$8,$9,0*
20,1,$1+$1,$8,$9,$2,$3,0*%
%AMRotRect*
0 Rectangle, with rotation*
0 The origin of the aperture is its center*
0 $1 length*
0 $2 width*
0 $3 Rotation angle, in degrees counterclockwise*
0 Add horizontal line*
21,1,$1,$2,0,0,$3*%
%AMFreePoly0*
4,1,23,0.500000,-0.750000,0.000000,-0.750000,0.000000,-0.745722,-0.065263,-0.745722,-0.191342,-0.711940,-0.304381,-0.646677,-0.396677,-0.554381,-0.461940,-0.441342,-0.495722,-0.315263,-0.495722,-0.250000,-0.500000,-0.250000,-0.500000,0.250000,-0.495722,0.250000,-0.495722,0.315263,-0.461940,0.441342,-0.396677,0.554381,-0.304381,0.646677,-0.191342,0.711940,-0.065263,0.745722,0.000000,0.745722,
0.000000,0.750000,0.500000,0.750000,0.500000,-0.750000,0.500000,-0.750000,$1*%
%AMFreePoly1*
4,1,23,0.000000,0.745722,0.065263,0.745722,0.191342,0.711940,0.304381,0.646677,0.396677,0.554381,0.461940,0.441342,0.495722,0.315263,0.495722,0.250000,0.500000,0.250000,0.500000,-0.250000,0.495722,-0.250000,0.495722,-0.315263,0.461940,-0.441342,0.396677,-0.554381,0.304381,-0.646677,0.191342,-0.711940,0.065263,-0.745722,0.000000,-0.745722,0.000000,-0.750000,-0.500000,-0.750000,
-0.500000,0.750000,0.000000,0.750000,0.000000,0.745722,0.000000,0.745722,$1*%
G04 Aperture macros list end*
%ADD10RoundRect,0.102000X-0.100000X-0.350000X0.100000X-0.350000X0.100000X0.350000X-0.100000X0.350000X0*%
%ADD11C,5.504000*%
%ADD12C,1.000000*%
%ADD13RoundRect,0.250000X-0.262500X-0.450000X0.262500X-0.450000X0.262500X0.450000X-0.262500X0.450000X0*%
%ADD14RoundRect,0.250000X0.250000X0.475000X-0.250000X0.475000X-0.250000X-0.475000X0.250000X-0.475000X0*%
%ADD15C,6.200000*%
%ADD16RoundRect,0.250000X-0.250000X-0.475000X0.250000X-0.475000X0.250000X0.475000X-0.250000X0.475000X0*%
%ADD17RoundRect,0.150000X-0.150000X0.825000X-0.150000X-0.825000X0.150000X-0.825000X0.150000X0.825000X0*%
%ADD18RoundRect,0.250000X0.412500X0.925000X-0.412500X0.925000X-0.412500X-0.925000X0.412500X-0.925000X0*%
%ADD19R,1.200000X0.900000*%
%ADD20RoundRect,0.150000X0.587500X0.150000X-0.587500X0.150000X-0.587500X-0.150000X0.587500X-0.150000X0*%
%ADD21RoundRect,0.150000X0.150000X-0.587500X0.150000X0.587500X-0.150000X0.587500X-0.150000X-0.587500X0*%
%ADD22RoundRect,0.102000X-0.225000X0.100000X-0.225000X-0.100000X0.225000X-0.100000X0.225000X0.100000X0*%
%ADD23RoundRect,0.102000X-0.150000X1.400000X-0.150000X-1.400000X0.150000X-1.400000X0.150000X1.400000X0*%
%ADD24RoundRect,0.102000X-0.400000X0.150000X-0.400000X-0.150000X0.400000X-0.150000X0.400000X0.150000X0*%
%ADD25RoundRect,0.102000X-0.400000X0.200000X-0.400000X-0.200000X0.400000X-0.200000X0.400000X0.200000X0*%
%ADD26RoundRect,0.250000X-0.412500X-0.925000X0.412500X-0.925000X0.412500X0.925000X-0.412500X0.925000X0*%
%ADD27RoundRect,0.250000X0.450000X-0.262500X0.450000X0.262500X-0.450000X0.262500X-0.450000X-0.262500X0*%
%ADD28RoundRect,0.100000X0.637500X0.100000X-0.637500X0.100000X-0.637500X-0.100000X0.637500X-0.100000X0*%
%ADD29RoundRect,0.250000X0.475000X-0.250000X0.475000X0.250000X-0.475000X0.250000X-0.475000X-0.250000X0*%
%ADD30R,5.100000X2.350000*%
%ADD31R,2.440000X1.120000*%
%ADD32RoundRect,0.250000X-0.450000X0.262500X-0.450000X-0.262500X0.450000X-0.262500X0.450000X0.262500X0*%
%ADD33C,0.660000*%
%ADD34O,0.580000X1.000000*%
%ADD35R,0.850000X0.300000*%
%ADD36C,1.100000*%
%ADD37RoundRect,0.250000X-0.475000X0.250000X-0.475000X-0.250000X0.475000X-0.250000X0.475000X0.250000X0*%
%ADD38RoundRect,0.243750X-0.243750X-0.456250X0.243750X-0.456250X0.243750X0.456250X-0.243750X0.456250X0*%
%ADD39C,3.600000*%
%ADD40C,5.600000*%
%ADD41RoundRect,0.250000X0.850000X0.350000X-0.850000X0.350000X-0.850000X-0.350000X0.850000X-0.350000X0*%
%ADD42RoundRect,0.249997X2.950003X2.650003X-2.950003X2.650003X-2.950003X-2.650003X2.950003X-2.650003X0*%
%ADD43RoundRect,0.120600X0.281400X-0.966400X0.281400X0.966400X-0.281400X0.966400X-0.281400X-0.966400X0*%
%ADD44RoundRect,0.102000X1.538000X-1.205000X1.538000X1.205000X-1.538000X1.205000X-1.538000X-1.205000X0*%
%ADD45R,0.900000X1.200000*%
%ADD46R,0.300000X0.300000*%
%ADD47RoundRect,0.243750X-0.456250X0.243750X-0.456250X-0.243750X0.456250X-0.243750X0.456250X0.243750X0*%
%ADD48FreePoly0,0.000000*%
%ADD49FreePoly1,0.000000*%
%ADD50R,0.700000X1.200000*%
%ADD51R,1.000000X0.800000*%
%ADD52R,1.000000X1.200000*%
%ADD53R,1.000000X2.800000*%
%ADD54R,1.300000X1.900000*%
%ADD55C,2.500000*%
%ADD56C,4.000000*%
%ADD57RoundRect,0.150000X-0.587500X-0.150000X0.587500X-0.150000X0.587500X0.150000X-0.587500X0.150000X0*%
%ADD58RoundRect,0.250000X0.925000X-0.412500X0.925000X0.412500X-0.925000X0.412500X-0.925000X-0.412500X0*%
%ADD59RoundRect,0.102000X0.725000X0.150000X-0.725000X0.150000X-0.725000X-0.150000X0.725000X-0.150000X0*%
%ADD60RotRect,1.400000X1.200000X225.000000*%
%ADD61C,1.799996*%
%ADD62C,1.707896*%
G04 APERTURE END LIST*
D10*
%TO.C,U1*%
X160208000Y-57025000D03*
X160208000Y-60105000D03*
X159808000Y-57025000D03*
X159808000Y-60105000D03*
X159408000Y-57025000D03*
X159408000Y-60105000D03*
X159008000Y-57025000D03*
X159008000Y-60105000D03*
X158608000Y-57025000D03*
X158608000Y-60105000D03*
X158208000Y-57025000D03*
X158208000Y-60105000D03*
X157808000Y-57025000D03*
X157808000Y-60105000D03*
X157408000Y-57025000D03*
X157408000Y-60105000D03*
X157008000Y-57025000D03*
X157008000Y-60105000D03*
X156608000Y-57025000D03*
X156608000Y-60105000D03*
X156208000Y-57025000D03*
X156208000Y-60105000D03*
X155808000Y-57025000D03*
X155808000Y-60105000D03*
X155408000Y-57025000D03*
X155408000Y-60105000D03*
X155008000Y-57025000D03*
X155008000Y-60105000D03*
X154608000Y-57025000D03*
X154608000Y-60105000D03*
X154208000Y-57025000D03*
X154208000Y-60105000D03*
X153808000Y-57025000D03*
X153808000Y-60105000D03*
X153408000Y-57025000D03*
X153408000Y-60105000D03*
X153008000Y-57025000D03*
X153008000Y-60105000D03*
X152608000Y-57025000D03*
X152608000Y-60105000D03*
X152208000Y-57025000D03*
X152208000Y-60105000D03*
X151808000Y-57025000D03*
X151808000Y-60105000D03*
X151408000Y-57025000D03*
X151408000Y-60105000D03*
X151008000Y-57025000D03*
X151008000Y-60105000D03*
X150608000Y-57025000D03*
X150608000Y-60105000D03*
X150208000Y-57025000D03*
X150208000Y-60105000D03*
X149808000Y-57025000D03*
X149808000Y-60105000D03*
X149408000Y-57025000D03*
X149408000Y-60105000D03*
X149008000Y-57025000D03*
X149008000Y-60105000D03*
X148608000Y-57025000D03*
X148608000Y-60105000D03*
X148208000Y-57025000D03*
X148208000Y-60105000D03*
X147808000Y-57025000D03*
X147808000Y-60105000D03*
X147408000Y-57025000D03*
X147408000Y-60105000D03*
X147008000Y-57025000D03*
X147008000Y-60105000D03*
X146608000Y-57025000D03*
X146608000Y-60105000D03*
X146208000Y-57025000D03*
X146208000Y-60105000D03*
X145808000Y-57025000D03*
X145808000Y-60105000D03*
X145408000Y-57025000D03*
X145408000Y-60105000D03*
X145008000Y-57025000D03*
X145008000Y-60105000D03*
X144608000Y-57025000D03*
X144608000Y-60105000D03*
X144208000Y-57025000D03*
X144208000Y-60105000D03*
X143808000Y-57025000D03*
X143808000Y-60105000D03*
X143408000Y-57025000D03*
X143408000Y-60105000D03*
X143008000Y-57025000D03*
X143008000Y-60105000D03*
X142608000Y-57025000D03*
X142608000Y-60105000D03*
X142208000Y-57025000D03*
X142208000Y-60105000D03*
X141808000Y-57025000D03*
X141808000Y-60105000D03*
X141408000Y-57025000D03*
X141408000Y-60105000D03*
X141008000Y-57025000D03*
X141008000Y-60105000D03*
X140608000Y-57025000D03*
X140608000Y-60105000D03*
X160208000Y-91025000D03*
X160208000Y-94105000D03*
X159808000Y-91025000D03*
X159808000Y-94105000D03*
X159408000Y-91025000D03*
X159408000Y-94105000D03*
X159008000Y-91025000D03*
X159008000Y-94105000D03*
X158608000Y-91025000D03*
X158608000Y-94105000D03*
X158208000Y-91025000D03*
X158208000Y-94105000D03*
X157808000Y-91025000D03*
X157808000Y-94105000D03*
X157408000Y-91025000D03*
X157408000Y-94105000D03*
X157008000Y-91025000D03*
X157008000Y-94105000D03*
X156608000Y-91025000D03*
X156608000Y-94105000D03*
X156208000Y-91025000D03*
X156208000Y-94105000D03*
X155808000Y-91025000D03*
X155808000Y-94105000D03*
X155408000Y-91025000D03*
X155408000Y-94105000D03*
X155008000Y-91025000D03*
X155008000Y-94105000D03*
X154608000Y-91025000D03*
X154608000Y-94105000D03*
X154208000Y-91025000D03*
X154208000Y-94105000D03*
X153808000Y-91025000D03*
X153808000Y-94105000D03*
X153408000Y-91025000D03*
X153408000Y-94105000D03*
X153008000Y-91025000D03*
X153008000Y-94105000D03*
X152608000Y-91025000D03*
X152608000Y-94105000D03*
X152208000Y-91025000D03*
X152208000Y-94105000D03*
X151808000Y-91025000D03*
X151808000Y-94105000D03*
X151408000Y-91025000D03*
X151408000Y-94105000D03*
X151008000Y-91025000D03*
X151008000Y-94105000D03*
X150608000Y-91025000D03*
X150608000Y-94105000D03*
X150208000Y-91025000D03*
X150208000Y-94105000D03*
X149808000Y-91025000D03*
X149808000Y-94105000D03*
X149408000Y-91025000D03*
X149408000Y-94105000D03*
X149008000Y-91025000D03*
X149008000Y-94105000D03*
X148608000Y-91025000D03*
X148608000Y-94105000D03*
X148208000Y-91025000D03*
X148208000Y-94105000D03*
X147808000Y-91025000D03*
X147808000Y-94105000D03*
X147408000Y-91025000D03*
X147408000Y-94105000D03*
X147008000Y-91025000D03*
X147008000Y-94105000D03*
X146608000Y-91025000D03*
X146608000Y-94105000D03*
X146208000Y-91025000D03*
X146208000Y-94105000D03*
X145808000Y-91025000D03*
X145808000Y-94105000D03*
X145408000Y-91025000D03*
X145408000Y-94105000D03*
X145008000Y-91025000D03*
X145008000Y-94105000D03*
X144608000Y-91025000D03*
X144608000Y-94105000D03*
X144208000Y-91025000D03*
X144208000Y-94105000D03*
X143808000Y-91025000D03*
X143808000Y-94105000D03*
X143408000Y-91025000D03*
X143408000Y-94105000D03*
X143008000Y-91025000D03*
X143008000Y-94105000D03*
X142608000Y-91025000D03*
X142608000Y-94105000D03*
X142208000Y-91025000D03*
X142208000Y-94105000D03*
X141808000Y-91025000D03*
X141808000Y-94105000D03*
X141408000Y-91025000D03*
X141408000Y-94105000D03*
X141008000Y-91025000D03*
X141008000Y-94105000D03*
X140608000Y-91025000D03*
X140608000Y-94105000D03*
D11*
X128908000Y-59065000D03*
X176908000Y-59065000D03*
X128908000Y-92065000D03*
X176908000Y-92065000D03*
%TD*%
D12*
%TO.C,TP4*%
X111312500Y-109700000D03*
%TD*%
D13*
%TO.C,R3*%
X96887500Y-101500000D03*
X98712500Y-101500000D03*
%TD*%
D14*
%TO.C,C26*%
X61140000Y-68906400D03*
X59240000Y-68906400D03*
%TD*%
D15*
%TO.C,H13*%
X104850000Y-50150000D03*
%TD*%
%TO.C,H19*%
X104875000Y-95850000D03*
%TD*%
D16*
%TO.C,C22*%
X186949000Y-80137000D03*
X188849000Y-80137000D03*
%TD*%
D17*
%TO.C,U7*%
X195834000Y-85917000D03*
X194564000Y-85917000D03*
X193294000Y-85917000D03*
X192024000Y-85917000D03*
X192024000Y-90867000D03*
X193294000Y-90867000D03*
X194564000Y-90867000D03*
X195834000Y-90867000D03*
%TD*%
D15*
%TO.C,H7*%
X56575000Y-108675000D03*
%TD*%
D18*
%TO.C,C8*%
X106175000Y-114645000D03*
X103100000Y-114645000D03*
%TD*%
D19*
%TO.C,D6*%
X107100000Y-125800000D03*
X107100000Y-129100000D03*
%TD*%
D15*
%TO.C,H5*%
X56646500Y-50212000D03*
%TD*%
D20*
%TO.C,D8*%
X177086500Y-108519000D03*
X177086500Y-106619000D03*
X175211500Y-107569000D03*
%TD*%
D21*
%TO.C,Q3*%
X106125000Y-133025000D03*
X108025000Y-133025000D03*
X107075000Y-131150000D03*
%TD*%
D22*
%TO.C,U10*%
X206200000Y-57125000D03*
X206200000Y-57525000D03*
X206200000Y-57925000D03*
X206200000Y-58325000D03*
X206200000Y-58725000D03*
X206200000Y-59125000D03*
X206200000Y-59525000D03*
X206200000Y-59925000D03*
X207350000Y-59925000D03*
X207350000Y-59525000D03*
X207350000Y-59125000D03*
X207350000Y-58725000D03*
X207350000Y-58325000D03*
X207350000Y-57925000D03*
X207350000Y-57525000D03*
X207350000Y-57125000D03*
D23*
X206775000Y-58525000D03*
%TD*%
D13*
%TO.C,R19*%
X59245000Y-96982500D03*
X61070000Y-96982500D03*
%TD*%
D14*
%TO.C,C33*%
X140600000Y-48375000D03*
X138700000Y-48375000D03*
%TD*%
%TO.C,C30*%
X246670000Y-96970000D03*
X244770000Y-96970000D03*
%TD*%
D24*
%TO.C,J1*%
X79990000Y-76040000D03*
X79990000Y-76540000D03*
X79990000Y-77040000D03*
X79990000Y-77540000D03*
X79990000Y-78040000D03*
X79990000Y-78540000D03*
X79990000Y-79040000D03*
X79990000Y-79540000D03*
X79990000Y-80040000D03*
X79990000Y-80540000D03*
X79990000Y-81040000D03*
X79990000Y-81540000D03*
X79990000Y-82040000D03*
X79990000Y-82540000D03*
X79990000Y-83040000D03*
X79990000Y-83540000D03*
X79990000Y-84040000D03*
X79990000Y-84540000D03*
X79990000Y-85040000D03*
X79990000Y-85540000D03*
X79990000Y-86040000D03*
X79990000Y-86540000D03*
X79990000Y-87040000D03*
X79990000Y-87540000D03*
X79990000Y-88040000D03*
X79990000Y-88540000D03*
X79990000Y-89040000D03*
X79990000Y-89540000D03*
X79990000Y-90040000D03*
X79990000Y-90540000D03*
X79990000Y-91040000D03*
X79990000Y-91540000D03*
X79990000Y-92040000D03*
X79990000Y-92540000D03*
X79990000Y-93040000D03*
X79990000Y-93540000D03*
X79990000Y-94040000D03*
X79990000Y-94540000D03*
X79990000Y-95040000D03*
X79990000Y-95540000D03*
D25*
X77490000Y-75090000D03*
X77490000Y-96490000D03*
%TD*%
D14*
%TO.C,C29*%
X246539999Y-71220000D03*
X244639999Y-71220000D03*
%TD*%
D26*
%TO.C,C3*%
X109500000Y-125400000D03*
X112575000Y-125400000D03*
%TD*%
D27*
%TO.C,R23*%
X248660000Y-122455000D03*
X248660000Y-120630000D03*
%TD*%
%TO.C,R7*%
X110107800Y-136932800D03*
X110107800Y-135107800D03*
%TD*%
D28*
%TO.C,U8*%
X196791500Y-78363000D03*
X196791500Y-77713000D03*
X196791500Y-77063000D03*
X196791500Y-76413000D03*
X196791500Y-75763000D03*
X196791500Y-75113000D03*
X196791500Y-74463000D03*
X196791500Y-73813000D03*
X196791500Y-73163000D03*
X196791500Y-72513000D03*
X191066500Y-72513000D03*
X191066500Y-73163000D03*
X191066500Y-73813000D03*
X191066500Y-74463000D03*
X191066500Y-75113000D03*
X191066500Y-75763000D03*
X191066500Y-76413000D03*
X191066500Y-77063000D03*
X191066500Y-77713000D03*
X191066500Y-78363000D03*
%TD*%
D15*
%TO.C,H18*%
X201175000Y-141300000D03*
%TD*%
D14*
%TO.C,C19*%
X87879000Y-103299600D03*
X85979000Y-103299600D03*
%TD*%
D19*
%TO.C,D4*%
X114578200Y-133279000D03*
X114578200Y-129979000D03*
%TD*%
D29*
%TO.C,C11*%
X83185000Y-122349600D03*
X83185000Y-120449600D03*
%TD*%
D30*
%TO.C,L1*%
X84455000Y-113332600D03*
X84455000Y-109182600D03*
%TD*%
D12*
%TO.C,TP2*%
X131685500Y-138919000D03*
%TD*%
D31*
%TO.C,SW7*%
X120573800Y-63220600D03*
X111963800Y-63220600D03*
%TD*%
D14*
%TO.C,C5*%
X91575000Y-129459000D03*
X89675000Y-129459000D03*
%TD*%
D32*
%TO.C,R16*%
X63000000Y-94987500D03*
X63000000Y-96812500D03*
%TD*%
D16*
%TO.C,C25*%
X200472000Y-69469000D03*
X202372000Y-69469000D03*
%TD*%
D33*
%TO.C,J8*%
X207792500Y-115950000D03*
D34*
X207792500Y-123450000D03*
D35*
X208627500Y-116950000D03*
X208627500Y-117450000D03*
X208627500Y-117950000D03*
X208627500Y-118450000D03*
X208627500Y-118950000D03*
X208627500Y-119450000D03*
X208627500Y-119950000D03*
X208627500Y-120450000D03*
X208627500Y-120950000D03*
X208627500Y-121450000D03*
X208627500Y-121950000D03*
X208627500Y-122450000D03*
X206957500Y-122450000D03*
X206957500Y-121950000D03*
X206957500Y-121450000D03*
X206957500Y-120950000D03*
X206957500Y-120450000D03*
X206957500Y-119950000D03*
X206957500Y-119450000D03*
X206957500Y-118950000D03*
X206957500Y-118450000D03*
X206957500Y-117950000D03*
X206957500Y-117450000D03*
X206957500Y-116950000D03*
D36*
X209942500Y-117300000D03*
X205642500Y-117300000D03*
X209942500Y-122100000D03*
X205642500Y-122100000D03*
%TD*%
D32*
%TO.C,R10*%
X89281000Y-112142600D03*
X89281000Y-113967600D03*
%TD*%
D14*
%TO.C,C18*%
X87879000Y-105458600D03*
X85979000Y-105458600D03*
%TD*%
D32*
%TO.C,R6*%
X112241400Y-133279000D03*
X112241400Y-135104000D03*
%TD*%
D37*
%TO.C,C15*%
X89281000Y-108384600D03*
X89281000Y-110284600D03*
%TD*%
D38*
%TO.C,D1*%
X123637500Y-138925000D03*
X125512500Y-138925000D03*
%TD*%
D16*
%TO.C,C17*%
X82047000Y-105458600D03*
X83947000Y-105458600D03*
%TD*%
D39*
%TO.C,H1*%
X60225000Y-57350000D03*
D40*
X60225000Y-57350000D03*
%TD*%
D32*
%TO.C,R17*%
X63010000Y-120687500D03*
X63010000Y-122512500D03*
%TD*%
D41*
%TO.C,U9*%
X107600000Y-122300000D03*
D42*
X101300000Y-120020000D03*
D41*
X107600000Y-117740000D03*
%TD*%
D15*
%TO.C,H16*%
X152971500Y-141300000D03*
%TD*%
D38*
%TO.C,D2*%
X93128300Y-101495200D03*
X95003300Y-101495200D03*
%TD*%
D15*
%TO.C,H9*%
X249413000Y-50221500D03*
%TD*%
D13*
%TO.C,R20*%
X59270000Y-122638400D03*
X61095000Y-122638400D03*
%TD*%
D15*
%TO.C,H8*%
X56637000Y-141553500D03*
%TD*%
D37*
%TO.C,C35*%
X207950000Y-51875000D03*
X207950000Y-53775000D03*
%TD*%
D18*
%TO.C,C32*%
X140500000Y-51210000D03*
X137425000Y-51210000D03*
%TD*%
D29*
%TO.C,C2*%
X121233000Y-132364600D03*
X121233000Y-130464600D03*
%TD*%
D15*
%TO.C,H12*%
X249400000Y-141550000D03*
%TD*%
%TO.C,H14*%
X104850000Y-141538000D03*
%TD*%
D39*
%TO.C,H4*%
X245875000Y-57325000D03*
D40*
X245875000Y-57325000D03*
%TD*%
D37*
%TO.C,C13*%
X92837000Y-120129600D03*
X92837000Y-122029600D03*
%TD*%
D12*
%TO.C,TP1*%
X101173131Y-101465600D03*
%TD*%
D15*
%TO.C,H6*%
X56625000Y-83075000D03*
%TD*%
D43*
%TO.C,U3*%
X86741000Y-121956600D03*
X88011000Y-121956600D03*
X89281000Y-121956600D03*
X90551000Y-121956600D03*
X90551000Y-117006600D03*
X89281000Y-117006600D03*
X88011000Y-117006600D03*
X86741000Y-117006600D03*
D44*
X88646000Y-119481600D03*
%TD*%
D45*
%TO.C,D5*%
X114121000Y-135615800D03*
X117421000Y-135615800D03*
%TD*%
D15*
%TO.C,H20*%
X201175000Y-95850000D03*
%TD*%
D16*
%TO.C,C10*%
X109975000Y-117745000D03*
X111875000Y-117745000D03*
%TD*%
D29*
%TO.C,C21*%
X210075000Y-53775000D03*
X210075000Y-51875000D03*
%TD*%
D46*
%TO.C,U6*%
X201237500Y-117534178D03*
X201937500Y-117534178D03*
X201587500Y-116684178D03*
%TD*%
D27*
%TO.C,R9*%
X83185000Y-118539600D03*
X83185000Y-116714600D03*
%TD*%
D15*
%TO.C,H10*%
X249475000Y-83100000D03*
%TD*%
D47*
%TO.C,D10*%
X184200800Y-66374000D03*
X184200800Y-68249000D03*
%TD*%
D27*
%TO.C,R21*%
X248529999Y-71055000D03*
X248529999Y-69230000D03*
%TD*%
D48*
%TO.C,JP1*%
X82400000Y-73600000D03*
D49*
X83700000Y-73600000D03*
%TD*%
D32*
%TO.C,R27*%
X184200800Y-70158600D03*
X184200800Y-71983600D03*
%TD*%
D15*
%TO.C,H15*%
X153025000Y-50200000D03*
%TD*%
D14*
%TO.C,C31*%
X246700000Y-122680000D03*
X244800000Y-122680000D03*
%TD*%
D13*
%TO.C,R14*%
X187024000Y-77952600D03*
X188849000Y-77952600D03*
%TD*%
D14*
%TO.C,C7*%
X91575000Y-125141000D03*
X89675000Y-125141000D03*
%TD*%
D12*
%TO.C,TP3*%
X83675831Y-138835600D03*
%TD*%
D39*
%TO.C,H2*%
X60175000Y-134430000D03*
D40*
X60175000Y-134430000D03*
%TD*%
D20*
%TO.C,Q2*%
X107771000Y-136957000D03*
X107771000Y-135057000D03*
X105896000Y-136007000D03*
%TD*%
D39*
%TO.C,H3*%
X245850000Y-134430000D03*
D40*
X245850000Y-134430000D03*
%TD*%
D38*
%TO.C,D3*%
X103128300Y-109700000D03*
X105003300Y-109700000D03*
%TD*%
D50*
%TO.C,J5*%
X216875000Y-61025000D03*
X217975000Y-61025000D03*
X219075000Y-61025000D03*
X220175000Y-61025000D03*
X221275000Y-61025000D03*
X222375000Y-61025000D03*
X223475000Y-61025000D03*
X224575000Y-61025000D03*
X225525000Y-61025000D03*
D51*
X226475000Y-50525000D03*
D52*
X226475000Y-56725000D03*
D53*
X226475000Y-46375000D03*
D52*
X215325000Y-61025000D03*
D54*
X212975000Y-45925000D03*
%TD*%
D13*
%TO.C,R2*%
X127396700Y-138925000D03*
X129221700Y-138925000D03*
%TD*%
D27*
%TO.C,R13*%
X197866000Y-90881200D03*
X197866000Y-89056200D03*
%TD*%
D16*
%TO.C,C12*%
X85743000Y-127300000D03*
X87643000Y-127300000D03*
%TD*%
D29*
%TO.C,C23*%
X190068200Y-87934800D03*
X190068200Y-86034800D03*
%TD*%
D55*
%TO.C,J2*%
X138481200Y-118440200D03*
D56*
X160528000Y-118491000D03*
D55*
X167081200Y-118440200D03*
D56*
X149431200Y-113360200D03*
X156131200Y-113360200D03*
X156131200Y-123520200D03*
X149431200Y-123520200D03*
%TD*%
D57*
%TO.C,Q1*%
X116970400Y-131414600D03*
X116970400Y-133314600D03*
X118845400Y-132364600D03*
%TD*%
D16*
%TO.C,C16*%
X82047000Y-103299600D03*
X83947000Y-103299600D03*
%TD*%
D58*
%TO.C,C1*%
X124230200Y-132364600D03*
X124230200Y-129289600D03*
%TD*%
D32*
%TO.C,R11*%
X92837000Y-112269600D03*
X92837000Y-114094600D03*
%TD*%
D16*
%TO.C,C14*%
X85743000Y-125141000D03*
X87643000Y-125141000D03*
%TD*%
D15*
%TO.C,H11*%
X249450000Y-108600000D03*
%TD*%
D32*
%TO.C,R12*%
X92837000Y-116079600D03*
X92837000Y-117904600D03*
%TD*%
D14*
%TO.C,C28*%
X61130000Y-120530000D03*
X59230000Y-120530000D03*
%TD*%
D13*
%TO.C,R5*%
X116965800Y-129519800D03*
X118790800Y-129519800D03*
%TD*%
D59*
%TO.C,U4*%
X88444500Y-85041000D03*
X88444500Y-85541000D03*
X88444500Y-86041000D03*
X88444500Y-86541000D03*
X88444500Y-87041000D03*
X88444500Y-87541000D03*
X88444500Y-88041000D03*
X88444500Y-88541000D03*
X88444500Y-89041000D03*
X88444500Y-89541000D03*
X88444500Y-90041000D03*
X88444500Y-90541000D03*
X90294500Y-89291000D03*
X90294500Y-87791000D03*
X90294500Y-86291000D03*
%TD*%
D15*
%TO.C,H17*%
X201200000Y-50175000D03*
%TD*%
D13*
%TO.C,R18*%
X59295000Y-71180000D03*
X61120000Y-71180000D03*
%TD*%
D45*
%TO.C,D7*%
X91338400Y-133096000D03*
X94638400Y-133096000D03*
%TD*%
D13*
%TO.C,R4*%
X106887500Y-109700000D03*
X108712500Y-109700000D03*
%TD*%
%TO.C,R26*%
X244860000Y-120420000D03*
X246685000Y-120420000D03*
%TD*%
D27*
%TO.C,R22*%
X248650000Y-96835000D03*
X248650000Y-95010000D03*
%TD*%
D60*
%TO.C,Y1*%
X201453635Y-71850365D03*
X199898000Y-73406000D03*
X201100081Y-74608081D03*
X202655716Y-73052446D03*
%TD*%
D16*
%TO.C,C24*%
X200472000Y-76962000D03*
X202372000Y-76962000D03*
%TD*%
%TO.C,C4*%
X109975000Y-122345000D03*
X111875000Y-122345000D03*
%TD*%
D14*
%TO.C,C6*%
X91575000Y-127300000D03*
X89675000Y-127300000D03*
%TD*%
D59*
%TO.C,U5*%
X88450000Y-77560000D03*
X88450000Y-78060000D03*
X88450000Y-78560000D03*
X88450000Y-79060000D03*
X88450000Y-79560000D03*
X88450000Y-80060000D03*
X88450000Y-80560000D03*
X88450000Y-81060000D03*
X88450000Y-81560000D03*
X88450000Y-82060000D03*
X88450000Y-82560000D03*
X88450000Y-83060000D03*
X90300000Y-81810000D03*
X90300000Y-80310000D03*
X90300000Y-78810000D03*
%TD*%
D32*
%TO.C,R8*%
X103656200Y-133025000D03*
X103656200Y-134850000D03*
%TD*%
%TO.C,R15*%
X63130000Y-69137500D03*
X63130000Y-70962500D03*
%TD*%
D16*
%TO.C,C9*%
X85743000Y-129459000D03*
X87643000Y-129459000D03*
%TD*%
D13*
%TO.C,R24*%
X244674999Y-69020000D03*
X246499999Y-69020000D03*
%TD*%
D14*
%TO.C,C27*%
X61100000Y-94822500D03*
X59200000Y-94822500D03*
%TD*%
D13*
%TO.C,R25*%
X244825000Y-94780000D03*
X246650000Y-94780000D03*
%TD*%
D18*
%TO.C,C20*%
X84100000Y-99997600D03*
X81025000Y-99997600D03*
%TD*%
D61*
%TO.C,SW3*%
X245830000Y-126070000D03*
X245830000Y-117070000D03*
D62*
X252080000Y-119070000D03*
X239580000Y-119070000D03*
X252080000Y-124070000D03*
X239580000Y-124070000D03*
%TD*%
D61*
%TO.C,SW4*%
X60180001Y-74711901D03*
X60180001Y-65711901D03*
D62*
X66430001Y-67711901D03*
X53930001Y-67711901D03*
X66430001Y-72711901D03*
X53930001Y-72711901D03*
%TD*%
D61*
%TO.C,SW2*%
X245830000Y-100360000D03*
X245830000Y-91360000D03*
D62*
X252080000Y-93360000D03*
X239580000Y-93360000D03*
X252080000Y-98360000D03*
X239580000Y-98360000D03*
%TD*%
D61*
%TO.C,SW5*%
X60150000Y-100370000D03*
X60150000Y-91370000D03*
D62*
X66400000Y-93370000D03*
X53900000Y-93370000D03*
X66400000Y-98370000D03*
X53900000Y-98370000D03*
%TD*%
D61*
%TO.C,SW6*%
X60110000Y-126080000D03*
X60110000Y-117080000D03*
D62*
X66360000Y-119080000D03*
X53860000Y-119080000D03*
X66360000Y-124080000D03*
X53860000Y-124080000D03*
%TD*%
D61*
%TO.C,SW1*%
X245840000Y-74700000D03*
X245840000Y-65700000D03*
D62*
X252090000Y-67700000D03*
X239590000Y-67700000D03*
X252090000Y-72700000D03*
X239590000Y-72700000D03*
%TD*%
M02*
