%TF.GenerationSoftware,KiCad,Pcbnew,8.0.1*%
%TF.CreationDate,2024-04-06T20:31:56-04:00*%
%TF.ProjectId,py_dash_pcb_7,70795f64-6173-4685-9f70-63625f372e6b,rev?*%
%TF.SameCoordinates,Original*%
%TF.FileFunction,Soldermask,Top*%
%TF.FilePolarity,Negative*%
%FSLAX46Y46*%
G04 Gerber Fmt 4.6, Leading zero omitted, Abs format (unit mm)*
G04 Created by KiCad (PCBNEW 8.0.1) date 2024-04-06 20:31:56*
%MOMM*%
%LPD*%
G01*
G04 APERTURE LIST*
G04 Aperture macros list*
%AMRoundRect*
0 Rectangle with rounded corners*
0 $1 Rounding radius*
0 $2 $3 $4 $5 $6 $7 $8 $9 X,Y pos of 4 corners*
0 Add a 4 corners polygon primitive as box body*
4,1,4,$2,$3,$4,$5,$6,$7,$8,$9,$2,$3,0*
0 Add four circle primitives for the rounded corners*
1,1,$1+$1,$2,$3*
1,1,$1+$1,$4,$5*
1,1,$1+$1,$6,$7*
1,1,$1+$1,$8,$9*
0 Add four rect primitives between the rounded corners*
20,1,$1+$1,$2,$3,$4,$5,0*
20,1,$1+$1,$4,$5,$6,$7,0*
20,1,$1+$1,$6,$7,$8,$9,0*
20,1,$1+$1,$8,$9,$2,$3,0*%
%AMRotRect*
0 Rectangle, with rotation*
0 The origin of the aperture is its center*
0 $1 length*
0 $2 width*
0 $3 Rotation angle, in degrees counterclockwise*
0 Add horizontal line*
21,1,$1,$2,0,0,$3*%
%AMFreePoly0*
4,1,19,0.500000,-0.750000,0.000000,-0.750000,0.000000,-0.744911,-0.071157,-0.744911,-0.207708,-0.704816,-0.327430,-0.627875,-0.420627,-0.520320,-0.479746,-0.390866,-0.500000,-0.250000,-0.500000,0.250000,-0.479746,0.390866,-0.420627,0.520320,-0.327430,0.627875,-0.207708,0.704816,-0.071157,0.744911,0.000000,0.744911,0.000000,0.750000,0.500000,0.750000,0.500000,-0.750000,0.500000,-0.750000,
$1*%
%AMFreePoly1*
4,1,19,0.000000,0.744911,0.071157,0.744911,0.207708,0.704816,0.327430,0.627875,0.420627,0.520320,0.479746,0.390866,0.500000,0.250000,0.500000,-0.250000,0.479746,-0.390866,0.420627,-0.520320,0.327430,-0.627875,0.207708,-0.704816,0.071157,-0.744911,0.000000,-0.744911,0.000000,-0.750000,-0.500000,-0.750000,-0.500000,0.750000,0.000000,0.750000,0.000000,0.744911,0.000000,0.744911,
$1*%
G04 Aperture macros list end*
%ADD10C,0.010000*%
%ADD11C,1.000000*%
%ADD12RoundRect,0.250000X-0.262500X-0.450000X0.262500X-0.450000X0.262500X0.450000X-0.262500X0.450000X0*%
%ADD13RoundRect,0.250000X0.250000X0.475000X-0.250000X0.475000X-0.250000X-0.475000X0.250000X-0.475000X0*%
%ADD14RoundRect,0.250000X-0.250000X-0.475000X0.250000X-0.475000X0.250000X0.475000X-0.250000X0.475000X0*%
%ADD15RoundRect,0.150000X-0.150000X0.825000X-0.150000X-0.825000X0.150000X-0.825000X0.150000X0.825000X0*%
%ADD16RoundRect,0.250000X0.412500X0.925000X-0.412500X0.925000X-0.412500X-0.925000X0.412500X-0.925000X0*%
%ADD17R,1.200000X0.900000*%
%ADD18RoundRect,0.150000X0.587500X0.150000X-0.587500X0.150000X-0.587500X-0.150000X0.587500X-0.150000X0*%
%ADD19RoundRect,0.150000X0.150000X-0.587500X0.150000X0.587500X-0.150000X0.587500X-0.150000X-0.587500X0*%
%ADD20RoundRect,0.102000X-0.400000X0.150000X-0.400000X-0.150000X0.400000X-0.150000X0.400000X0.150000X0*%
%ADD21RoundRect,0.102000X-0.400000X0.200000X-0.400000X-0.200000X0.400000X-0.200000X0.400000X0.200000X0*%
%ADD22RoundRect,0.250000X-0.412500X-0.925000X0.412500X-0.925000X0.412500X0.925000X-0.412500X0.925000X0*%
%ADD23RoundRect,0.250000X0.450000X-0.262500X0.450000X0.262500X-0.450000X0.262500X-0.450000X-0.262500X0*%
%ADD24RoundRect,0.100000X0.637500X0.100000X-0.637500X0.100000X-0.637500X-0.100000X0.637500X-0.100000X0*%
%ADD25RoundRect,0.250000X0.475000X-0.250000X0.475000X0.250000X-0.475000X0.250000X-0.475000X-0.250000X0*%
%ADD26R,5.100000X2.350000*%
%ADD27R,1.120000X2.440000*%
%ADD28RoundRect,0.250000X-0.450000X0.262500X-0.450000X-0.262500X0.450000X-0.262500X0.450000X0.262500X0*%
%ADD29RoundRect,0.250000X-0.475000X0.250000X-0.475000X-0.250000X0.475000X-0.250000X0.475000X0.250000X0*%
%ADD30RoundRect,0.243750X-0.243750X-0.456250X0.243750X-0.456250X0.243750X0.456250X-0.243750X0.456250X0*%
%ADD31C,5.600000*%
%ADD32RoundRect,0.102000X-0.200000X-0.750000X0.200000X-0.750000X0.200000X0.750000X-0.200000X0.750000X0*%
%ADD33RoundRect,0.250000X0.850000X0.350000X-0.850000X0.350000X-0.850000X-0.350000X0.850000X-0.350000X0*%
%ADD34RoundRect,0.249997X2.950003X2.650003X-2.950003X2.650003X-2.950003X-2.650003X2.950003X-2.650003X0*%
%ADD35RoundRect,0.120600X0.281400X-0.966400X0.281400X0.966400X-0.281400X0.966400X-0.281400X-0.966400X0*%
%ADD36RoundRect,0.102000X1.538000X-1.205000X1.538000X1.205000X-1.538000X1.205000X-1.538000X-1.205000X0*%
%ADD37R,0.900000X1.200000*%
%ADD38RoundRect,0.087500X0.725000X0.087500X-0.725000X0.087500X-0.725000X-0.087500X0.725000X-0.087500X0*%
%ADD39R,0.300000X0.300000*%
%ADD40RoundRect,0.243750X-0.456250X0.243750X-0.456250X-0.243750X0.456250X-0.243750X0.456250X0.243750X0*%
%ADD41FreePoly0,0.000000*%
%ADD42FreePoly1,0.000000*%
%ADD43C,2.500000*%
%ADD44C,4.000000*%
%ADD45RoundRect,0.150000X-0.587500X-0.150000X0.587500X-0.150000X0.587500X0.150000X-0.587500X0.150000X0*%
%ADD46RoundRect,0.250000X0.925000X-0.412500X0.925000X0.412500X-0.925000X0.412500X-0.925000X-0.412500X0*%
%ADD47RoundRect,0.250000X0.262500X0.450000X-0.262500X0.450000X-0.262500X-0.450000X0.262500X-0.450000X0*%
%ADD48RoundRect,0.102000X0.725000X0.150000X-0.725000X0.150000X-0.725000X-0.150000X0.725000X-0.150000X0*%
%ADD49RotRect,1.400000X1.200000X225.000000*%
%ADD50RoundRect,0.102000X-0.100000X-0.350000X0.100000X-0.350000X0.100000X0.350000X-0.100000X0.350000X0*%
%ADD51C,6.004000*%
%ADD52C,1.799996*%
%ADD53C,1.707896*%
G04 APERTURE END LIST*
D10*
%TO.C,J3*%
X101892000Y-56311000D02*
X101928000Y-56314000D01*
X101965000Y-56319000D01*
X102001000Y-56325000D01*
X102036000Y-56334000D01*
X102071000Y-56344000D01*
X102106000Y-56356000D01*
X102140000Y-56371000D01*
X102173000Y-56386000D01*
X102205000Y-56404000D01*
X102236000Y-56423000D01*
X102266000Y-56444000D01*
X102296000Y-56466000D01*
X102323000Y-56490000D01*
X102350000Y-56515000D01*
X102375000Y-56542000D01*
X102399000Y-56569000D01*
X102421000Y-56599000D01*
X102442000Y-56629000D01*
X102461000Y-56660000D01*
X102479000Y-56692000D01*
X102494000Y-56725000D01*
X102509000Y-56759000D01*
X102521000Y-56794000D01*
X102531000Y-56829000D01*
X102540000Y-56864000D01*
X102546000Y-56900000D01*
X102551000Y-56937000D01*
X102554000Y-56973000D01*
X102555000Y-57010000D01*
X102555000Y-57560000D01*
X102554000Y-57597000D01*
X102551000Y-57633000D01*
X102546000Y-57670000D01*
X102540000Y-57706000D01*
X102531000Y-57741000D01*
X102521000Y-57776000D01*
X102509000Y-57811000D01*
X102494000Y-57845000D01*
X102479000Y-57878000D01*
X102461000Y-57910000D01*
X102442000Y-57941000D01*
X102421000Y-57971000D01*
X102399000Y-58001000D01*
X102375000Y-58028000D01*
X102350000Y-58055000D01*
X102323000Y-58080000D01*
X102296000Y-58104000D01*
X102266000Y-58126000D01*
X102236000Y-58147000D01*
X102205000Y-58166000D01*
X102173000Y-58184000D01*
X102140000Y-58199000D01*
X102106000Y-58214000D01*
X102071000Y-58226000D01*
X102036000Y-58236000D01*
X102001000Y-58245000D01*
X101965000Y-58251000D01*
X101928000Y-58256000D01*
X101892000Y-58259000D01*
X101855000Y-58260000D01*
X101818000Y-58259000D01*
X101782000Y-58256000D01*
X101745000Y-58251000D01*
X101709000Y-58245000D01*
X101674000Y-58236000D01*
X101639000Y-58226000D01*
X101604000Y-58214000D01*
X101570000Y-58199000D01*
X101537000Y-58184000D01*
X101505000Y-58166000D01*
X101474000Y-58147000D01*
X101444000Y-58126000D01*
X101414000Y-58104000D01*
X101387000Y-58080000D01*
X101360000Y-58055000D01*
X101335000Y-58028000D01*
X101311000Y-58001000D01*
X101289000Y-57971000D01*
X101268000Y-57941000D01*
X101249000Y-57910000D01*
X101231000Y-57878000D01*
X101216000Y-57845000D01*
X101201000Y-57811000D01*
X101189000Y-57776000D01*
X101179000Y-57741000D01*
X101170000Y-57706000D01*
X101164000Y-57670000D01*
X101159000Y-57633000D01*
X101156000Y-57597000D01*
X101155000Y-57560000D01*
X101155000Y-57010000D01*
X101156000Y-56973000D01*
X101159000Y-56937000D01*
X101164000Y-56900000D01*
X101170000Y-56864000D01*
X101179000Y-56829000D01*
X101189000Y-56794000D01*
X101201000Y-56759000D01*
X101216000Y-56725000D01*
X101231000Y-56692000D01*
X101249000Y-56660000D01*
X101268000Y-56629000D01*
X101289000Y-56599000D01*
X101311000Y-56569000D01*
X101335000Y-56542000D01*
X101360000Y-56515000D01*
X101387000Y-56490000D01*
X101414000Y-56466000D01*
X101444000Y-56444000D01*
X101474000Y-56423000D01*
X101505000Y-56404000D01*
X101537000Y-56386000D01*
X101570000Y-56371000D01*
X101604000Y-56356000D01*
X101639000Y-56344000D01*
X101674000Y-56334000D01*
X101709000Y-56325000D01*
X101745000Y-56319000D01*
X101782000Y-56314000D01*
X101818000Y-56311000D01*
X101855000Y-56310000D01*
X101892000Y-56311000D01*
G36*
X101892000Y-56311000D02*
G01*
X101928000Y-56314000D01*
X101965000Y-56319000D01*
X102001000Y-56325000D01*
X102036000Y-56334000D01*
X102071000Y-56344000D01*
X102106000Y-56356000D01*
X102140000Y-56371000D01*
X102173000Y-56386000D01*
X102205000Y-56404000D01*
X102236000Y-56423000D01*
X102266000Y-56444000D01*
X102296000Y-56466000D01*
X102323000Y-56490000D01*
X102350000Y-56515000D01*
X102375000Y-56542000D01*
X102399000Y-56569000D01*
X102421000Y-56599000D01*
X102442000Y-56629000D01*
X102461000Y-56660000D01*
X102479000Y-56692000D01*
X102494000Y-56725000D01*
X102509000Y-56759000D01*
X102521000Y-56794000D01*
X102531000Y-56829000D01*
X102540000Y-56864000D01*
X102546000Y-56900000D01*
X102551000Y-56937000D01*
X102554000Y-56973000D01*
X102555000Y-57010000D01*
X102555000Y-57560000D01*
X102554000Y-57597000D01*
X102551000Y-57633000D01*
X102546000Y-57670000D01*
X102540000Y-57706000D01*
X102531000Y-57741000D01*
X102521000Y-57776000D01*
X102509000Y-57811000D01*
X102494000Y-57845000D01*
X102479000Y-57878000D01*
X102461000Y-57910000D01*
X102442000Y-57941000D01*
X102421000Y-57971000D01*
X102399000Y-58001000D01*
X102375000Y-58028000D01*
X102350000Y-58055000D01*
X102323000Y-58080000D01*
X102296000Y-58104000D01*
X102266000Y-58126000D01*
X102236000Y-58147000D01*
X102205000Y-58166000D01*
X102173000Y-58184000D01*
X102140000Y-58199000D01*
X102106000Y-58214000D01*
X102071000Y-58226000D01*
X102036000Y-58236000D01*
X102001000Y-58245000D01*
X101965000Y-58251000D01*
X101928000Y-58256000D01*
X101892000Y-58259000D01*
X101855000Y-58260000D01*
X101818000Y-58259000D01*
X101782000Y-58256000D01*
X101745000Y-58251000D01*
X101709000Y-58245000D01*
X101674000Y-58236000D01*
X101639000Y-58226000D01*
X101604000Y-58214000D01*
X101570000Y-58199000D01*
X101537000Y-58184000D01*
X101505000Y-58166000D01*
X101474000Y-58147000D01*
X101444000Y-58126000D01*
X101414000Y-58104000D01*
X101387000Y-58080000D01*
X101360000Y-58055000D01*
X101335000Y-58028000D01*
X101311000Y-58001000D01*
X101289000Y-57971000D01*
X101268000Y-57941000D01*
X101249000Y-57910000D01*
X101231000Y-57878000D01*
X101216000Y-57845000D01*
X101201000Y-57811000D01*
X101189000Y-57776000D01*
X101179000Y-57741000D01*
X101170000Y-57706000D01*
X101164000Y-57670000D01*
X101159000Y-57633000D01*
X101156000Y-57597000D01*
X101155000Y-57560000D01*
X101155000Y-57010000D01*
X101156000Y-56973000D01*
X101159000Y-56937000D01*
X101164000Y-56900000D01*
X101170000Y-56864000D01*
X101179000Y-56829000D01*
X101189000Y-56794000D01*
X101201000Y-56759000D01*
X101216000Y-56725000D01*
X101231000Y-56692000D01*
X101249000Y-56660000D01*
X101268000Y-56629000D01*
X101289000Y-56599000D01*
X101311000Y-56569000D01*
X101335000Y-56542000D01*
X101360000Y-56515000D01*
X101387000Y-56490000D01*
X101414000Y-56466000D01*
X101444000Y-56444000D01*
X101474000Y-56423000D01*
X101505000Y-56404000D01*
X101537000Y-56386000D01*
X101570000Y-56371000D01*
X101604000Y-56356000D01*
X101639000Y-56344000D01*
X101674000Y-56334000D01*
X101709000Y-56325000D01*
X101745000Y-56319000D01*
X101782000Y-56314000D01*
X101818000Y-56311000D01*
X101855000Y-56310000D01*
X101892000Y-56311000D01*
G37*
X109042000Y-56311000D02*
X109078000Y-56314000D01*
X109115000Y-56319000D01*
X109151000Y-56325000D01*
X109186000Y-56334000D01*
X109221000Y-56344000D01*
X109256000Y-56356000D01*
X109290000Y-56371000D01*
X109323000Y-56386000D01*
X109355000Y-56404000D01*
X109386000Y-56423000D01*
X109416000Y-56444000D01*
X109446000Y-56466000D01*
X109473000Y-56490000D01*
X109500000Y-56515000D01*
X109525000Y-56542000D01*
X109549000Y-56569000D01*
X109571000Y-56599000D01*
X109592000Y-56629000D01*
X109611000Y-56660000D01*
X109629000Y-56692000D01*
X109644000Y-56725000D01*
X109659000Y-56759000D01*
X109671000Y-56794000D01*
X109681000Y-56829000D01*
X109690000Y-56864000D01*
X109696000Y-56900000D01*
X109701000Y-56937000D01*
X109704000Y-56973000D01*
X109705000Y-57010000D01*
X109705000Y-57560000D01*
X109704000Y-57597000D01*
X109701000Y-57633000D01*
X109696000Y-57670000D01*
X109690000Y-57706000D01*
X109681000Y-57741000D01*
X109671000Y-57776000D01*
X109659000Y-57811000D01*
X109644000Y-57845000D01*
X109629000Y-57878000D01*
X109611000Y-57910000D01*
X109592000Y-57941000D01*
X109571000Y-57971000D01*
X109549000Y-58001000D01*
X109525000Y-58028000D01*
X109500000Y-58055000D01*
X109473000Y-58080000D01*
X109446000Y-58104000D01*
X109416000Y-58126000D01*
X109386000Y-58147000D01*
X109355000Y-58166000D01*
X109323000Y-58184000D01*
X109290000Y-58199000D01*
X109256000Y-58214000D01*
X109221000Y-58226000D01*
X109186000Y-58236000D01*
X109151000Y-58245000D01*
X109115000Y-58251000D01*
X109078000Y-58256000D01*
X109042000Y-58259000D01*
X109005000Y-58260000D01*
X108968000Y-58259000D01*
X108932000Y-58256000D01*
X108895000Y-58251000D01*
X108859000Y-58245000D01*
X108824000Y-58236000D01*
X108789000Y-58226000D01*
X108754000Y-58214000D01*
X108720000Y-58199000D01*
X108687000Y-58184000D01*
X108655000Y-58166000D01*
X108624000Y-58147000D01*
X108594000Y-58126000D01*
X108564000Y-58104000D01*
X108537000Y-58080000D01*
X108510000Y-58055000D01*
X108485000Y-58028000D01*
X108461000Y-58001000D01*
X108439000Y-57971000D01*
X108418000Y-57941000D01*
X108399000Y-57910000D01*
X108381000Y-57878000D01*
X108366000Y-57845000D01*
X108351000Y-57811000D01*
X108339000Y-57776000D01*
X108329000Y-57741000D01*
X108320000Y-57706000D01*
X108314000Y-57670000D01*
X108309000Y-57633000D01*
X108306000Y-57597000D01*
X108305000Y-57560000D01*
X108305000Y-57010000D01*
X108306000Y-56973000D01*
X108309000Y-56937000D01*
X108314000Y-56900000D01*
X108320000Y-56864000D01*
X108329000Y-56829000D01*
X108339000Y-56794000D01*
X108351000Y-56759000D01*
X108366000Y-56725000D01*
X108381000Y-56692000D01*
X108399000Y-56660000D01*
X108418000Y-56629000D01*
X108439000Y-56599000D01*
X108461000Y-56569000D01*
X108485000Y-56542000D01*
X108510000Y-56515000D01*
X108537000Y-56490000D01*
X108564000Y-56466000D01*
X108594000Y-56444000D01*
X108624000Y-56423000D01*
X108655000Y-56404000D01*
X108687000Y-56386000D01*
X108720000Y-56371000D01*
X108754000Y-56356000D01*
X108789000Y-56344000D01*
X108824000Y-56334000D01*
X108859000Y-56325000D01*
X108895000Y-56319000D01*
X108932000Y-56314000D01*
X108968000Y-56311000D01*
X109005000Y-56310000D01*
X109042000Y-56311000D01*
G36*
X109042000Y-56311000D02*
G01*
X109078000Y-56314000D01*
X109115000Y-56319000D01*
X109151000Y-56325000D01*
X109186000Y-56334000D01*
X109221000Y-56344000D01*
X109256000Y-56356000D01*
X109290000Y-56371000D01*
X109323000Y-56386000D01*
X109355000Y-56404000D01*
X109386000Y-56423000D01*
X109416000Y-56444000D01*
X109446000Y-56466000D01*
X109473000Y-56490000D01*
X109500000Y-56515000D01*
X109525000Y-56542000D01*
X109549000Y-56569000D01*
X109571000Y-56599000D01*
X109592000Y-56629000D01*
X109611000Y-56660000D01*
X109629000Y-56692000D01*
X109644000Y-56725000D01*
X109659000Y-56759000D01*
X109671000Y-56794000D01*
X109681000Y-56829000D01*
X109690000Y-56864000D01*
X109696000Y-56900000D01*
X109701000Y-56937000D01*
X109704000Y-56973000D01*
X109705000Y-57010000D01*
X109705000Y-57560000D01*
X109704000Y-57597000D01*
X109701000Y-57633000D01*
X109696000Y-57670000D01*
X109690000Y-57706000D01*
X109681000Y-57741000D01*
X109671000Y-57776000D01*
X109659000Y-57811000D01*
X109644000Y-57845000D01*
X109629000Y-57878000D01*
X109611000Y-57910000D01*
X109592000Y-57941000D01*
X109571000Y-57971000D01*
X109549000Y-58001000D01*
X109525000Y-58028000D01*
X109500000Y-58055000D01*
X109473000Y-58080000D01*
X109446000Y-58104000D01*
X109416000Y-58126000D01*
X109386000Y-58147000D01*
X109355000Y-58166000D01*
X109323000Y-58184000D01*
X109290000Y-58199000D01*
X109256000Y-58214000D01*
X109221000Y-58226000D01*
X109186000Y-58236000D01*
X109151000Y-58245000D01*
X109115000Y-58251000D01*
X109078000Y-58256000D01*
X109042000Y-58259000D01*
X109005000Y-58260000D01*
X108968000Y-58259000D01*
X108932000Y-58256000D01*
X108895000Y-58251000D01*
X108859000Y-58245000D01*
X108824000Y-58236000D01*
X108789000Y-58226000D01*
X108754000Y-58214000D01*
X108720000Y-58199000D01*
X108687000Y-58184000D01*
X108655000Y-58166000D01*
X108624000Y-58147000D01*
X108594000Y-58126000D01*
X108564000Y-58104000D01*
X108537000Y-58080000D01*
X108510000Y-58055000D01*
X108485000Y-58028000D01*
X108461000Y-58001000D01*
X108439000Y-57971000D01*
X108418000Y-57941000D01*
X108399000Y-57910000D01*
X108381000Y-57878000D01*
X108366000Y-57845000D01*
X108351000Y-57811000D01*
X108339000Y-57776000D01*
X108329000Y-57741000D01*
X108320000Y-57706000D01*
X108314000Y-57670000D01*
X108309000Y-57633000D01*
X108306000Y-57597000D01*
X108305000Y-57560000D01*
X108305000Y-57010000D01*
X108306000Y-56973000D01*
X108309000Y-56937000D01*
X108314000Y-56900000D01*
X108320000Y-56864000D01*
X108329000Y-56829000D01*
X108339000Y-56794000D01*
X108351000Y-56759000D01*
X108366000Y-56725000D01*
X108381000Y-56692000D01*
X108399000Y-56660000D01*
X108418000Y-56629000D01*
X108439000Y-56599000D01*
X108461000Y-56569000D01*
X108485000Y-56542000D01*
X108510000Y-56515000D01*
X108537000Y-56490000D01*
X108564000Y-56466000D01*
X108594000Y-56444000D01*
X108624000Y-56423000D01*
X108655000Y-56404000D01*
X108687000Y-56386000D01*
X108720000Y-56371000D01*
X108754000Y-56356000D01*
X108789000Y-56344000D01*
X108824000Y-56334000D01*
X108859000Y-56325000D01*
X108895000Y-56319000D01*
X108932000Y-56314000D01*
X108968000Y-56311000D01*
X109005000Y-56310000D01*
X109042000Y-56311000D01*
G37*
%TD*%
D11*
%TO.C,TP4*%
X111312500Y-109700000D03*
%TD*%
D12*
%TO.C,R3*%
X96887500Y-101500000D03*
X98712500Y-101500000D03*
%TD*%
D13*
%TO.C,C26*%
X61140000Y-68906400D03*
X59240000Y-68906400D03*
%TD*%
D14*
%TO.C,C22*%
X186949000Y-80137000D03*
X188849000Y-80137000D03*
%TD*%
D15*
%TO.C,U7*%
X195834000Y-85917000D03*
X194564000Y-85917000D03*
X193294000Y-85917000D03*
X192024000Y-85917000D03*
X192024000Y-90867000D03*
X193294000Y-90867000D03*
X194564000Y-90867000D03*
X195834000Y-90867000D03*
%TD*%
D16*
%TO.C,C8*%
X106175000Y-114645000D03*
X103100000Y-114645000D03*
%TD*%
D17*
%TO.C,D6*%
X107100000Y-125800000D03*
X107100000Y-129100000D03*
%TD*%
D18*
%TO.C,D8*%
X177086500Y-108519000D03*
X177086500Y-106619000D03*
X175211500Y-107569000D03*
%TD*%
D19*
%TO.C,Q3*%
X103279100Y-135636000D03*
X105179100Y-135636000D03*
X104229100Y-133761000D03*
%TD*%
D12*
%TO.C,R19*%
X59245000Y-96982500D03*
X61070000Y-96982500D03*
%TD*%
D14*
%TO.C,C33*%
X145770000Y-50630000D03*
X147670000Y-50630000D03*
%TD*%
D13*
%TO.C,C30*%
X246670000Y-96970000D03*
X244770000Y-96970000D03*
%TD*%
D20*
%TO.C,J1*%
X79990000Y-76040000D03*
X79990000Y-76540000D03*
X79990000Y-77040000D03*
X79990000Y-77540000D03*
X79990000Y-78040000D03*
X79990000Y-78540000D03*
X79990000Y-79040000D03*
X79990000Y-79540000D03*
X79990000Y-80040000D03*
X79990000Y-80540000D03*
X79990000Y-81040000D03*
X79990000Y-81540000D03*
X79990000Y-82040000D03*
X79990000Y-82540000D03*
X79990000Y-83040000D03*
X79990000Y-83540000D03*
X79990000Y-84040000D03*
X79990000Y-84540000D03*
X79990000Y-85040000D03*
X79990000Y-85540000D03*
X79990000Y-86040000D03*
X79990000Y-86540000D03*
X79990000Y-87040000D03*
X79990000Y-87540000D03*
X79990000Y-88040000D03*
X79990000Y-88540000D03*
X79990000Y-89040000D03*
X79990000Y-89540000D03*
X79990000Y-90040000D03*
X79990000Y-90540000D03*
X79990000Y-91040000D03*
X79990000Y-91540000D03*
X79990000Y-92040000D03*
X79990000Y-92540000D03*
X79990000Y-93040000D03*
X79990000Y-93540000D03*
X79990000Y-94040000D03*
X79990000Y-94540000D03*
X79990000Y-95040000D03*
X79990000Y-95540000D03*
D21*
X77490000Y-75090000D03*
X77490000Y-96490000D03*
%TD*%
D13*
%TO.C,C29*%
X246539999Y-71220000D03*
X244639999Y-71220000D03*
%TD*%
D22*
%TO.C,C3*%
X109500000Y-125400000D03*
X112575000Y-125400000D03*
%TD*%
D23*
%TO.C,R23*%
X248660000Y-122455000D03*
X248660000Y-120630000D03*
%TD*%
%TO.C,R7*%
X107261900Y-139543800D03*
X107261900Y-137718800D03*
%TD*%
D24*
%TO.C,U8*%
X196791500Y-78363000D03*
X196791500Y-77713000D03*
X196791500Y-77063000D03*
X196791500Y-76413000D03*
X196791500Y-75763000D03*
X196791500Y-75113000D03*
X196791500Y-74463000D03*
X196791500Y-73813000D03*
X196791500Y-73163000D03*
X196791500Y-72513000D03*
X191066500Y-72513000D03*
X191066500Y-73163000D03*
X191066500Y-73813000D03*
X191066500Y-74463000D03*
X191066500Y-75113000D03*
X191066500Y-75763000D03*
X191066500Y-76413000D03*
X191066500Y-77063000D03*
X191066500Y-77713000D03*
X191066500Y-78363000D03*
%TD*%
D13*
%TO.C,C19*%
X87879000Y-103299600D03*
X85979000Y-103299600D03*
%TD*%
D17*
%TO.C,D4*%
X111732300Y-135890000D03*
X111732300Y-132590000D03*
%TD*%
D25*
%TO.C,C11*%
X83185000Y-122349600D03*
X83185000Y-120449600D03*
%TD*%
D26*
%TO.C,L1*%
X84455000Y-113332600D03*
X84455000Y-109182600D03*
%TD*%
D23*
%TO.C,R28*%
X111300000Y-64900000D03*
X111300000Y-63075000D03*
%TD*%
D11*
%TO.C,TP2*%
X128188800Y-140694000D03*
%TD*%
D27*
%TO.C,SW7*%
X120000000Y-62305000D03*
X120000000Y-53695000D03*
%TD*%
D13*
%TO.C,C5*%
X91575000Y-129459000D03*
X89675000Y-129459000D03*
%TD*%
D28*
%TO.C,R16*%
X63000000Y-94987500D03*
X63000000Y-96812500D03*
%TD*%
D14*
%TO.C,C25*%
X200472000Y-69469000D03*
X202372000Y-69469000D03*
%TD*%
D28*
%TO.C,R10*%
X89281000Y-112142600D03*
X89281000Y-113967600D03*
%TD*%
D13*
%TO.C,C18*%
X87879000Y-105458600D03*
X85979000Y-105458600D03*
%TD*%
D28*
%TO.C,R6*%
X109395500Y-135890000D03*
X109395500Y-137715000D03*
%TD*%
D29*
%TO.C,C15*%
X89281000Y-108384600D03*
X89281000Y-110284600D03*
%TD*%
D30*
%TO.C,D1*%
X120140800Y-140700000D03*
X122015800Y-140700000D03*
%TD*%
D14*
%TO.C,C17*%
X82047000Y-105458600D03*
X83947000Y-105458600D03*
%TD*%
D31*
%TO.C,H5*%
X56730000Y-50330000D03*
%TD*%
D32*
%TO.C,J3*%
X104130000Y-56395000D03*
X104780000Y-56395000D03*
X105430000Y-56395000D03*
X106080000Y-56395000D03*
X106730000Y-56395000D03*
%TD*%
D28*
%TO.C,R17*%
X63010000Y-120687500D03*
X63010000Y-122512500D03*
%TD*%
D33*
%TO.C,U9*%
X107600000Y-122300000D03*
D34*
X101300000Y-120020000D03*
D33*
X107600000Y-117740000D03*
%TD*%
D30*
%TO.C,D2*%
X93128300Y-101495200D03*
X95003300Y-101495200D03*
%TD*%
D12*
%TO.C,R20*%
X59270000Y-122638400D03*
X61095000Y-122638400D03*
%TD*%
D16*
%TO.C,C32*%
X140500000Y-51210000D03*
X137425000Y-51210000D03*
%TD*%
D25*
%TO.C,C2*%
X118387100Y-134975600D03*
X118387100Y-133075600D03*
%TD*%
D29*
%TO.C,C13*%
X92837000Y-120129600D03*
X92837000Y-122029600D03*
%TD*%
D11*
%TO.C,TP1*%
X101173131Y-101465600D03*
%TD*%
D35*
%TO.C,U3*%
X86741000Y-121956600D03*
X88011000Y-121956600D03*
X89281000Y-121956600D03*
X90551000Y-121956600D03*
X90551000Y-117006600D03*
X89281000Y-117006600D03*
X88011000Y-117006600D03*
X86741000Y-117006600D03*
D36*
X88646000Y-119481600D03*
%TD*%
D37*
%TO.C,D5*%
X111275100Y-138226800D03*
X114575100Y-138226800D03*
%TD*%
D14*
%TO.C,C10*%
X109975000Y-117745000D03*
X111875000Y-117745000D03*
%TD*%
D38*
%TO.C,U2*%
X111400000Y-72800000D03*
X111400000Y-72300000D03*
X111400000Y-71800000D03*
X111400000Y-71300000D03*
X111400000Y-70800000D03*
X107175000Y-70800000D03*
X107175000Y-71300000D03*
X107175000Y-71800000D03*
X107175000Y-72300000D03*
X107175000Y-72800000D03*
%TD*%
D39*
%TO.C,U6*%
X108350000Y-65350000D03*
X109050000Y-65350000D03*
X108700000Y-64500000D03*
%TD*%
D23*
%TO.C,R9*%
X83185000Y-118539600D03*
X83185000Y-116714600D03*
%TD*%
D13*
%TO.C,C34*%
X115200000Y-74700000D03*
X113300000Y-74700000D03*
%TD*%
D31*
%TO.C,H7*%
X249280000Y-141450000D03*
%TD*%
D40*
%TO.C,D10*%
X184200800Y-66374000D03*
X184200800Y-68249000D03*
%TD*%
D23*
%TO.C,R21*%
X248529999Y-71055000D03*
X248529999Y-69230000D03*
%TD*%
D41*
%TO.C,JP1*%
X82400000Y-73600000D03*
D42*
X83700000Y-73600000D03*
%TD*%
D28*
%TO.C,R27*%
X184200800Y-70158600D03*
X184200800Y-71983600D03*
%TD*%
D13*
%TO.C,C31*%
X246700000Y-122680000D03*
X244800000Y-122680000D03*
%TD*%
D12*
%TO.C,R14*%
X187024000Y-77952600D03*
X188849000Y-77952600D03*
%TD*%
D31*
%TO.C,H8*%
X56740000Y-141462000D03*
%TD*%
D13*
%TO.C,C7*%
X91575000Y-125141000D03*
X89675000Y-125141000D03*
%TD*%
D11*
%TO.C,TP3*%
X120310831Y-117017569D03*
%TD*%
D31*
%TO.C,H6*%
X249302000Y-50355400D03*
%TD*%
D18*
%TO.C,Q2*%
X104925100Y-139568000D03*
X104925100Y-137668000D03*
X103050100Y-138618000D03*
%TD*%
D30*
%TO.C,D3*%
X103128300Y-109700000D03*
X105003300Y-109700000D03*
%TD*%
D12*
%TO.C,R2*%
X123900000Y-140700000D03*
X125725000Y-140700000D03*
%TD*%
D23*
%TO.C,R13*%
X197866000Y-90881200D03*
X197866000Y-89056200D03*
%TD*%
D14*
%TO.C,C12*%
X85743000Y-127300000D03*
X87643000Y-127300000D03*
%TD*%
D25*
%TO.C,C23*%
X190068200Y-87934800D03*
X190068200Y-86034800D03*
%TD*%
D43*
%TO.C,J2*%
X138481200Y-118440200D03*
D44*
X160528000Y-118491000D03*
D43*
X167081200Y-118440200D03*
D44*
X149431200Y-113360200D03*
X156131200Y-113360200D03*
X156131200Y-123520200D03*
X149431200Y-123520200D03*
%TD*%
D45*
%TO.C,Q1*%
X114124500Y-134025600D03*
X114124500Y-135925600D03*
X115999500Y-134975600D03*
%TD*%
D14*
%TO.C,C16*%
X82047000Y-103299600D03*
X83947000Y-103299600D03*
%TD*%
D46*
%TO.C,C1*%
X121384300Y-134975600D03*
X121384300Y-131900600D03*
%TD*%
D28*
%TO.C,R11*%
X92837000Y-112269600D03*
X92837000Y-114094600D03*
%TD*%
D47*
%TO.C,R29*%
X113125000Y-66800000D03*
X111300000Y-66800000D03*
%TD*%
D14*
%TO.C,C14*%
X85743000Y-125141000D03*
X87643000Y-125141000D03*
%TD*%
D28*
%TO.C,R12*%
X92837000Y-116079600D03*
X92837000Y-117904600D03*
%TD*%
D13*
%TO.C,C28*%
X61130000Y-120530000D03*
X59230000Y-120530000D03*
%TD*%
D12*
%TO.C,R5*%
X114119900Y-132130800D03*
X115944900Y-132130800D03*
%TD*%
D48*
%TO.C,U4*%
X88444500Y-85041000D03*
X88444500Y-85541000D03*
X88444500Y-86041000D03*
X88444500Y-86541000D03*
X88444500Y-87041000D03*
X88444500Y-87541000D03*
X88444500Y-88041000D03*
X88444500Y-88541000D03*
X88444500Y-89041000D03*
X88444500Y-89541000D03*
X88444500Y-90041000D03*
X88444500Y-90541000D03*
X90294500Y-89291000D03*
X90294500Y-87791000D03*
X90294500Y-86291000D03*
%TD*%
D12*
%TO.C,R18*%
X59295000Y-71180000D03*
X61120000Y-71180000D03*
%TD*%
D37*
%TO.C,D7*%
X91338400Y-133096000D03*
X94638400Y-133096000D03*
%TD*%
D12*
%TO.C,R4*%
X106887500Y-109700000D03*
X108712500Y-109700000D03*
%TD*%
%TO.C,R26*%
X244860000Y-120420000D03*
X246685000Y-120420000D03*
%TD*%
D23*
%TO.C,R22*%
X248650000Y-96835000D03*
X248650000Y-95010000D03*
%TD*%
D49*
%TO.C,Y1*%
X201453635Y-71850365D03*
X199898000Y-73406000D03*
X201100081Y-74608081D03*
X202655716Y-73052446D03*
%TD*%
D14*
%TO.C,C24*%
X200472000Y-76962000D03*
X202372000Y-76962000D03*
%TD*%
%TO.C,C4*%
X109975000Y-122345000D03*
X111875000Y-122345000D03*
%TD*%
D13*
%TO.C,C6*%
X91575000Y-127300000D03*
X89675000Y-127300000D03*
%TD*%
D48*
%TO.C,U5*%
X88450000Y-77560000D03*
X88450000Y-78060000D03*
X88450000Y-78560000D03*
X88450000Y-79060000D03*
X88450000Y-79560000D03*
X88450000Y-80060000D03*
X88450000Y-80560000D03*
X88450000Y-81060000D03*
X88450000Y-81560000D03*
X88450000Y-82060000D03*
X88450000Y-82560000D03*
X88450000Y-83060000D03*
X90300000Y-81810000D03*
X90300000Y-80310000D03*
X90300000Y-78810000D03*
%TD*%
D28*
%TO.C,R8*%
X100810300Y-135636000D03*
X100810300Y-137461000D03*
%TD*%
%TO.C,R15*%
X63130000Y-69137500D03*
X63130000Y-70962500D03*
%TD*%
D14*
%TO.C,C9*%
X85743000Y-129459000D03*
X87643000Y-129459000D03*
%TD*%
D12*
%TO.C,R24*%
X244674999Y-69020000D03*
X246499999Y-69020000D03*
%TD*%
D50*
%TO.C,U1*%
X160208000Y-57025000D03*
X160208000Y-60105000D03*
X159808000Y-57025000D03*
X159808000Y-60105000D03*
X159408000Y-57025000D03*
X159408000Y-60105000D03*
X159008000Y-57025000D03*
X159008000Y-60105000D03*
X158608000Y-57025000D03*
X158608000Y-60105000D03*
X158208000Y-57025000D03*
X158208000Y-60105000D03*
X157808000Y-57025000D03*
X157808000Y-60105000D03*
X157408000Y-57025000D03*
X157408000Y-60105000D03*
X157008000Y-57025000D03*
X157008000Y-60105000D03*
X156608000Y-57025000D03*
X156608000Y-60105000D03*
X156208000Y-57025000D03*
X156208000Y-60105000D03*
X155808000Y-57025000D03*
X155808000Y-60105000D03*
X155408000Y-57025000D03*
X155408000Y-60105000D03*
X155008000Y-57025000D03*
X155008000Y-60105000D03*
X154608000Y-57025000D03*
X154608000Y-60105000D03*
X154208000Y-57025000D03*
X154208000Y-60105000D03*
X153808000Y-57025000D03*
X153808000Y-60105000D03*
X153408000Y-57025000D03*
X153408000Y-60105000D03*
X153008000Y-57025000D03*
X153008000Y-60105000D03*
X152608000Y-57025000D03*
X152608000Y-60105000D03*
X152208000Y-57025000D03*
X152208000Y-60105000D03*
X151808000Y-57025000D03*
X151808000Y-60105000D03*
X151408000Y-57025000D03*
X151408000Y-60105000D03*
X151008000Y-57025000D03*
X151008000Y-60105000D03*
X150608000Y-57025000D03*
X150608000Y-60105000D03*
X150208000Y-57025000D03*
X150208000Y-60105000D03*
X149808000Y-57025000D03*
X149808000Y-60105000D03*
X149408000Y-57025000D03*
X149408000Y-60105000D03*
X149008000Y-57025000D03*
X149008000Y-60105000D03*
X148608000Y-57025000D03*
X148608000Y-60105000D03*
X148208000Y-57025000D03*
X148208000Y-60105000D03*
X147808000Y-57025000D03*
X147808000Y-60105000D03*
X147408000Y-57025000D03*
X147408000Y-60105000D03*
X147008000Y-57025000D03*
X147008000Y-60105000D03*
X146608000Y-57025000D03*
X146608000Y-60105000D03*
X146208000Y-57025000D03*
X146208000Y-60105000D03*
X145808000Y-57025000D03*
X145808000Y-60105000D03*
X145408000Y-57025000D03*
X145408000Y-60105000D03*
X145008000Y-57025000D03*
X145008000Y-60105000D03*
X144608000Y-57025000D03*
X144608000Y-60105000D03*
X144208000Y-57025000D03*
X144208000Y-60105000D03*
X143808000Y-57025000D03*
X143808000Y-60105000D03*
X143408000Y-57025000D03*
X143408000Y-60105000D03*
X143008000Y-57025000D03*
X143008000Y-60105000D03*
X142608000Y-57025000D03*
X142608000Y-60105000D03*
X142208000Y-57025000D03*
X142208000Y-60105000D03*
X141808000Y-57025000D03*
X141808000Y-60105000D03*
X141408000Y-57025000D03*
X141408000Y-60105000D03*
X141008000Y-57025000D03*
X141008000Y-60105000D03*
X140608000Y-57025000D03*
X140608000Y-60105000D03*
X160208000Y-91025000D03*
X160208000Y-94105000D03*
X159808000Y-91025000D03*
X159808000Y-94105000D03*
X159408000Y-91025000D03*
X159408000Y-94105000D03*
X159008000Y-91025000D03*
X159008000Y-94105000D03*
X158608000Y-91025000D03*
X158608000Y-94105000D03*
X158208000Y-91025000D03*
X158208000Y-94105000D03*
X157808000Y-91025000D03*
X157808000Y-94105000D03*
X157408000Y-91025000D03*
X157408000Y-94105000D03*
X157008000Y-91025000D03*
X157008000Y-94105000D03*
X156608000Y-91025000D03*
X156608000Y-94105000D03*
X156208000Y-91025000D03*
X156208000Y-94105000D03*
X155808000Y-91025000D03*
X155808000Y-94105000D03*
X155408000Y-91025000D03*
X155408000Y-94105000D03*
X155008000Y-91025000D03*
X155008000Y-94105000D03*
X154608000Y-91025000D03*
X154608000Y-94105000D03*
X154208000Y-91025000D03*
X154208000Y-94105000D03*
X153808000Y-91025000D03*
X153808000Y-94105000D03*
X153408000Y-91025000D03*
X153408000Y-94105000D03*
X153008000Y-91025000D03*
X153008000Y-94105000D03*
X152608000Y-91025000D03*
X152608000Y-94105000D03*
X152208000Y-91025000D03*
X152208000Y-94105000D03*
X151808000Y-91025000D03*
X151808000Y-94105000D03*
X151408000Y-91025000D03*
X151408000Y-94105000D03*
X151008000Y-91025000D03*
X151008000Y-94105000D03*
X150608000Y-91025000D03*
X150608000Y-94105000D03*
X150208000Y-91025000D03*
X150208000Y-94105000D03*
X149808000Y-91025000D03*
X149808000Y-94105000D03*
X149408000Y-91025000D03*
X149408000Y-94105000D03*
X149008000Y-91025000D03*
X149008000Y-94105000D03*
X148608000Y-91025000D03*
X148608000Y-94105000D03*
X148208000Y-91025000D03*
X148208000Y-94105000D03*
X147808000Y-91025000D03*
X147808000Y-94105000D03*
X147408000Y-91025000D03*
X147408000Y-94105000D03*
X147008000Y-91025000D03*
X147008000Y-94105000D03*
X146608000Y-91025000D03*
X146608000Y-94105000D03*
X146208000Y-91025000D03*
X146208000Y-94105000D03*
X145808000Y-91025000D03*
X145808000Y-94105000D03*
X145408000Y-91025000D03*
X145408000Y-94105000D03*
X145008000Y-91025000D03*
X145008000Y-94105000D03*
X144608000Y-91025000D03*
X144608000Y-94105000D03*
X144208000Y-91025000D03*
X144208000Y-94105000D03*
X143808000Y-91025000D03*
X143808000Y-94105000D03*
X143408000Y-91025000D03*
X143408000Y-94105000D03*
X143008000Y-91025000D03*
X143008000Y-94105000D03*
X142608000Y-91025000D03*
X142608000Y-94105000D03*
X142208000Y-91025000D03*
X142208000Y-94105000D03*
X141808000Y-91025000D03*
X141808000Y-94105000D03*
X141408000Y-91025000D03*
X141408000Y-94105000D03*
X141008000Y-91025000D03*
X141008000Y-94105000D03*
X140608000Y-91025000D03*
X140608000Y-94105000D03*
D51*
X128908000Y-59065000D03*
X176908000Y-59065000D03*
X128908000Y-92065000D03*
X176908000Y-92065000D03*
%TD*%
D13*
%TO.C,C27*%
X61100000Y-94822500D03*
X59200000Y-94822500D03*
%TD*%
D12*
%TO.C,R25*%
X244825000Y-94780000D03*
X246650000Y-94780000D03*
%TD*%
D16*
%TO.C,C20*%
X84100000Y-99997600D03*
X81025000Y-99997600D03*
%TD*%
D52*
%TO.C,SW6*%
X245830000Y-126070000D03*
X245830000Y-117070000D03*
D53*
X252080000Y-119070000D03*
X239580000Y-119070000D03*
X252080000Y-124070000D03*
X239580000Y-124070000D03*
%TD*%
D52*
%TO.C,SW1*%
X60180001Y-74711901D03*
X60180001Y-65711901D03*
D53*
X66430001Y-67711901D03*
X53930001Y-67711901D03*
X66430001Y-72711901D03*
X53930001Y-72711901D03*
%TD*%
D52*
%TO.C,SW5*%
X245830000Y-100360000D03*
X245830000Y-91360000D03*
D53*
X252080000Y-93360000D03*
X239580000Y-93360000D03*
X252080000Y-98360000D03*
X239580000Y-98360000D03*
%TD*%
D52*
%TO.C,SW2*%
X60150000Y-100370000D03*
X60150000Y-91370000D03*
D53*
X66400000Y-93370000D03*
X53900000Y-93370000D03*
X66400000Y-98370000D03*
X53900000Y-98370000D03*
%TD*%
D52*
%TO.C,SW3*%
X60110000Y-126080000D03*
X60110000Y-117080000D03*
D53*
X66360000Y-119080000D03*
X53860000Y-119080000D03*
X66360000Y-124080000D03*
X53860000Y-124080000D03*
%TD*%
D52*
%TO.C,SW4*%
X245840000Y-74700000D03*
X245840000Y-65700000D03*
D53*
X252090000Y-67700000D03*
X239590000Y-67700000D03*
X252090000Y-72700000D03*
X239590000Y-72700000D03*
%TD*%
M02*
