%TF.GenerationSoftware,KiCad,Pcbnew,8.0.1*%
%TF.CreationDate,2024-04-06T20:31:55-04:00*%
%TF.ProjectId,py_dash_pcb_7,70795f64-6173-4685-9f70-63625f372e6b,rev?*%
%TF.SameCoordinates,Original*%
%TF.FileFunction,Paste,Top*%
%TF.FilePolarity,Positive*%
%FSLAX46Y46*%
G04 Gerber Fmt 4.6, Leading zero omitted, Abs format (unit mm)*
G04 Created by KiCad (PCBNEW 8.0.1) date 2024-04-06 20:31:55*
%MOMM*%
%LPD*%
G01*
G04 APERTURE LIST*
G04 Aperture macros list*
%AMRoundRect*
0 Rectangle with rounded corners*
0 $1 Rounding radius*
0 $2 $3 $4 $5 $6 $7 $8 $9 X,Y pos of 4 corners*
0 Add a 4 corners polygon primitive as box body*
4,1,4,$2,$3,$4,$5,$6,$7,$8,$9,$2,$3,0*
0 Add four circle primitives for the rounded corners*
1,1,$1+$1,$2,$3*
1,1,$1+$1,$4,$5*
1,1,$1+$1,$6,$7*
1,1,$1+$1,$8,$9*
0 Add four rect primitives between the rounded corners*
20,1,$1+$1,$2,$3,$4,$5,0*
20,1,$1+$1,$4,$5,$6,$7,0*
20,1,$1+$1,$6,$7,$8,$9,0*
20,1,$1+$1,$8,$9,$2,$3,0*%
%AMRotRect*
0 Rectangle, with rotation*
0 The origin of the aperture is its center*
0 $1 length*
0 $2 width*
0 $3 Rotation angle, in degrees counterclockwise*
0 Add horizontal line*
21,1,$1,$2,0,0,$3*%
G04 Aperture macros list end*
%ADD10C,0.010000*%
%ADD11RoundRect,0.250000X-0.262500X-0.450000X0.262500X-0.450000X0.262500X0.450000X-0.262500X0.450000X0*%
%ADD12RoundRect,0.250000X0.250000X0.475000X-0.250000X0.475000X-0.250000X-0.475000X0.250000X-0.475000X0*%
%ADD13RoundRect,0.250000X-0.250000X-0.475000X0.250000X-0.475000X0.250000X0.475000X-0.250000X0.475000X0*%
%ADD14RoundRect,0.150000X-0.150000X0.825000X-0.150000X-0.825000X0.150000X-0.825000X0.150000X0.825000X0*%
%ADD15RoundRect,0.250000X0.412500X0.925000X-0.412500X0.925000X-0.412500X-0.925000X0.412500X-0.925000X0*%
%ADD16R,1.200000X0.900000*%
%ADD17RoundRect,0.150000X0.587500X0.150000X-0.587500X0.150000X-0.587500X-0.150000X0.587500X-0.150000X0*%
%ADD18RoundRect,0.150000X0.150000X-0.587500X0.150000X0.587500X-0.150000X0.587500X-0.150000X-0.587500X0*%
%ADD19R,0.800000X0.300000*%
%ADD20R,0.800000X0.400000*%
%ADD21RoundRect,0.250000X-0.412500X-0.925000X0.412500X-0.925000X0.412500X0.925000X-0.412500X0.925000X0*%
%ADD22RoundRect,0.250000X0.450000X-0.262500X0.450000X0.262500X-0.450000X0.262500X-0.450000X-0.262500X0*%
%ADD23RoundRect,0.100000X0.637500X0.100000X-0.637500X0.100000X-0.637500X-0.100000X0.637500X-0.100000X0*%
%ADD24RoundRect,0.250000X0.475000X-0.250000X0.475000X0.250000X-0.475000X0.250000X-0.475000X-0.250000X0*%
%ADD25R,5.100000X2.350000*%
%ADD26R,1.120000X2.440000*%
%ADD27RoundRect,0.250000X-0.450000X0.262500X-0.450000X-0.262500X0.450000X-0.262500X0.450000X0.262500X0*%
%ADD28RoundRect,0.250000X-0.475000X0.250000X-0.475000X-0.250000X0.475000X-0.250000X0.475000X0.250000X0*%
%ADD29RoundRect,0.243750X-0.243750X-0.456250X0.243750X-0.456250X0.243750X0.456250X-0.243750X0.456250X0*%
%ADD30R,0.400000X1.500000*%
%ADD31RoundRect,0.250000X0.850000X0.350000X-0.850000X0.350000X-0.850000X-0.350000X0.850000X-0.350000X0*%
%ADD32RoundRect,0.250000X1.275000X1.125000X-1.275000X1.125000X-1.275000X-1.125000X1.275000X-1.125000X0*%
%ADD33RoundRect,0.090000X0.210000X-0.895000X0.210000X0.895000X-0.210000X0.895000X-0.210000X-0.895000X0*%
%ADD34R,0.900000X1.200000*%
%ADD35RoundRect,0.087500X0.725000X0.087500X-0.725000X0.087500X-0.725000X-0.087500X0.725000X-0.087500X0*%
%ADD36R,0.300000X0.300000*%
%ADD37RoundRect,0.243750X-0.456250X0.243750X-0.456250X-0.243750X0.456250X-0.243750X0.456250X0.243750X0*%
%ADD38RoundRect,0.150000X-0.587500X-0.150000X0.587500X-0.150000X0.587500X0.150000X-0.587500X0.150000X0*%
%ADD39RoundRect,0.250000X0.925000X-0.412500X0.925000X0.412500X-0.925000X0.412500X-0.925000X-0.412500X0*%
%ADD40RoundRect,0.250000X0.262500X0.450000X-0.262500X0.450000X-0.262500X-0.450000X0.262500X-0.450000X0*%
%ADD41RotRect,1.400000X1.200000X225.000000*%
%ADD42R,0.200000X0.700000*%
G04 APERTURE END LIST*
D10*
%TO.C,U3*%
X89726000Y-120332600D02*
X87566000Y-120332600D01*
X87566000Y-118630600D01*
X89726000Y-118630600D01*
X89726000Y-120332600D01*
G36*
X89726000Y-120332600D02*
G01*
X87566000Y-120332600D01*
X87566000Y-118630600D01*
X89726000Y-118630600D01*
X89726000Y-120332600D01*
G37*
%TO.C,U4*%
X89144500Y-85166000D02*
X87744500Y-85166000D01*
X87744500Y-84916000D01*
X89144500Y-84916000D01*
X89144500Y-85166000D01*
G36*
X89144500Y-85166000D02*
G01*
X87744500Y-85166000D01*
X87744500Y-84916000D01*
X89144500Y-84916000D01*
X89144500Y-85166000D01*
G37*
X89144500Y-85666000D02*
X87744500Y-85666000D01*
X87744500Y-85416000D01*
X89144500Y-85416000D01*
X89144500Y-85666000D01*
G36*
X89144500Y-85666000D02*
G01*
X87744500Y-85666000D01*
X87744500Y-85416000D01*
X89144500Y-85416000D01*
X89144500Y-85666000D01*
G37*
X89144500Y-86166000D02*
X87744500Y-86166000D01*
X87744500Y-85916000D01*
X89144500Y-85916000D01*
X89144500Y-86166000D01*
G36*
X89144500Y-86166000D02*
G01*
X87744500Y-86166000D01*
X87744500Y-85916000D01*
X89144500Y-85916000D01*
X89144500Y-86166000D01*
G37*
X89144500Y-86666000D02*
X87744500Y-86666000D01*
X87744500Y-86416000D01*
X89144500Y-86416000D01*
X89144500Y-86666000D01*
G36*
X89144500Y-86666000D02*
G01*
X87744500Y-86666000D01*
X87744500Y-86416000D01*
X89144500Y-86416000D01*
X89144500Y-86666000D01*
G37*
X89144500Y-87166000D02*
X87744500Y-87166000D01*
X87744500Y-86916000D01*
X89144500Y-86916000D01*
X89144500Y-87166000D01*
G36*
X89144500Y-87166000D02*
G01*
X87744500Y-87166000D01*
X87744500Y-86916000D01*
X89144500Y-86916000D01*
X89144500Y-87166000D01*
G37*
X89144500Y-87666000D02*
X87744500Y-87666000D01*
X87744500Y-87416000D01*
X89144500Y-87416000D01*
X89144500Y-87666000D01*
G36*
X89144500Y-87666000D02*
G01*
X87744500Y-87666000D01*
X87744500Y-87416000D01*
X89144500Y-87416000D01*
X89144500Y-87666000D01*
G37*
X89144500Y-88166000D02*
X87744500Y-88166000D01*
X87744500Y-87916000D01*
X89144500Y-87916000D01*
X89144500Y-88166000D01*
G36*
X89144500Y-88166000D02*
G01*
X87744500Y-88166000D01*
X87744500Y-87916000D01*
X89144500Y-87916000D01*
X89144500Y-88166000D01*
G37*
X89144500Y-88666000D02*
X87744500Y-88666000D01*
X87744500Y-88416000D01*
X89144500Y-88416000D01*
X89144500Y-88666000D01*
G36*
X89144500Y-88666000D02*
G01*
X87744500Y-88666000D01*
X87744500Y-88416000D01*
X89144500Y-88416000D01*
X89144500Y-88666000D01*
G37*
X89144500Y-89166000D02*
X87744500Y-89166000D01*
X87744500Y-88916000D01*
X89144500Y-88916000D01*
X89144500Y-89166000D01*
G36*
X89144500Y-89166000D02*
G01*
X87744500Y-89166000D01*
X87744500Y-88916000D01*
X89144500Y-88916000D01*
X89144500Y-89166000D01*
G37*
X89144500Y-89666000D02*
X87744500Y-89666000D01*
X87744500Y-89416000D01*
X89144500Y-89416000D01*
X89144500Y-89666000D01*
G36*
X89144500Y-89666000D02*
G01*
X87744500Y-89666000D01*
X87744500Y-89416000D01*
X89144500Y-89416000D01*
X89144500Y-89666000D01*
G37*
X89144500Y-90166000D02*
X87744500Y-90166000D01*
X87744500Y-89916000D01*
X89144500Y-89916000D01*
X89144500Y-90166000D01*
G36*
X89144500Y-90166000D02*
G01*
X87744500Y-90166000D01*
X87744500Y-89916000D01*
X89144500Y-89916000D01*
X89144500Y-90166000D01*
G37*
X89144500Y-90666000D02*
X87744500Y-90666000D01*
X87744500Y-90416000D01*
X89144500Y-90416000D01*
X89144500Y-90666000D01*
G36*
X89144500Y-90666000D02*
G01*
X87744500Y-90666000D01*
X87744500Y-90416000D01*
X89144500Y-90416000D01*
X89144500Y-90666000D01*
G37*
X90994500Y-86416000D02*
X89594500Y-86416000D01*
X89594500Y-86166000D01*
X90994500Y-86166000D01*
X90994500Y-86416000D01*
G36*
X90994500Y-86416000D02*
G01*
X89594500Y-86416000D01*
X89594500Y-86166000D01*
X90994500Y-86166000D01*
X90994500Y-86416000D01*
G37*
X90994500Y-87916000D02*
X89594500Y-87916000D01*
X89594500Y-87666000D01*
X90994500Y-87666000D01*
X90994500Y-87916000D01*
G36*
X90994500Y-87916000D02*
G01*
X89594500Y-87916000D01*
X89594500Y-87666000D01*
X90994500Y-87666000D01*
X90994500Y-87916000D01*
G37*
X90994500Y-89416000D02*
X89594500Y-89416000D01*
X89594500Y-89166000D01*
X90994500Y-89166000D01*
X90994500Y-89416000D01*
G36*
X90994500Y-89416000D02*
G01*
X89594500Y-89416000D01*
X89594500Y-89166000D01*
X90994500Y-89166000D01*
X90994500Y-89416000D01*
G37*
%TO.C,U5*%
X89150000Y-77685000D02*
X87750000Y-77685000D01*
X87750000Y-77435000D01*
X89150000Y-77435000D01*
X89150000Y-77685000D01*
G36*
X89150000Y-77685000D02*
G01*
X87750000Y-77685000D01*
X87750000Y-77435000D01*
X89150000Y-77435000D01*
X89150000Y-77685000D01*
G37*
X89150000Y-78185000D02*
X87750000Y-78185000D01*
X87750000Y-77935000D01*
X89150000Y-77935000D01*
X89150000Y-78185000D01*
G36*
X89150000Y-78185000D02*
G01*
X87750000Y-78185000D01*
X87750000Y-77935000D01*
X89150000Y-77935000D01*
X89150000Y-78185000D01*
G37*
X89150000Y-78685000D02*
X87750000Y-78685000D01*
X87750000Y-78435000D01*
X89150000Y-78435000D01*
X89150000Y-78685000D01*
G36*
X89150000Y-78685000D02*
G01*
X87750000Y-78685000D01*
X87750000Y-78435000D01*
X89150000Y-78435000D01*
X89150000Y-78685000D01*
G37*
X89150000Y-79185000D02*
X87750000Y-79185000D01*
X87750000Y-78935000D01*
X89150000Y-78935000D01*
X89150000Y-79185000D01*
G36*
X89150000Y-79185000D02*
G01*
X87750000Y-79185000D01*
X87750000Y-78935000D01*
X89150000Y-78935000D01*
X89150000Y-79185000D01*
G37*
X89150000Y-79685000D02*
X87750000Y-79685000D01*
X87750000Y-79435000D01*
X89150000Y-79435000D01*
X89150000Y-79685000D01*
G36*
X89150000Y-79685000D02*
G01*
X87750000Y-79685000D01*
X87750000Y-79435000D01*
X89150000Y-79435000D01*
X89150000Y-79685000D01*
G37*
X89150000Y-80185000D02*
X87750000Y-80185000D01*
X87750000Y-79935000D01*
X89150000Y-79935000D01*
X89150000Y-80185000D01*
G36*
X89150000Y-80185000D02*
G01*
X87750000Y-80185000D01*
X87750000Y-79935000D01*
X89150000Y-79935000D01*
X89150000Y-80185000D01*
G37*
X89150000Y-80685000D02*
X87750000Y-80685000D01*
X87750000Y-80435000D01*
X89150000Y-80435000D01*
X89150000Y-80685000D01*
G36*
X89150000Y-80685000D02*
G01*
X87750000Y-80685000D01*
X87750000Y-80435000D01*
X89150000Y-80435000D01*
X89150000Y-80685000D01*
G37*
X89150000Y-81185000D02*
X87750000Y-81185000D01*
X87750000Y-80935000D01*
X89150000Y-80935000D01*
X89150000Y-81185000D01*
G36*
X89150000Y-81185000D02*
G01*
X87750000Y-81185000D01*
X87750000Y-80935000D01*
X89150000Y-80935000D01*
X89150000Y-81185000D01*
G37*
X89150000Y-81685000D02*
X87750000Y-81685000D01*
X87750000Y-81435000D01*
X89150000Y-81435000D01*
X89150000Y-81685000D01*
G36*
X89150000Y-81685000D02*
G01*
X87750000Y-81685000D01*
X87750000Y-81435000D01*
X89150000Y-81435000D01*
X89150000Y-81685000D01*
G37*
X89150000Y-82185000D02*
X87750000Y-82185000D01*
X87750000Y-81935000D01*
X89150000Y-81935000D01*
X89150000Y-82185000D01*
G36*
X89150000Y-82185000D02*
G01*
X87750000Y-82185000D01*
X87750000Y-81935000D01*
X89150000Y-81935000D01*
X89150000Y-82185000D01*
G37*
X89150000Y-82685000D02*
X87750000Y-82685000D01*
X87750000Y-82435000D01*
X89150000Y-82435000D01*
X89150000Y-82685000D01*
G36*
X89150000Y-82685000D02*
G01*
X87750000Y-82685000D01*
X87750000Y-82435000D01*
X89150000Y-82435000D01*
X89150000Y-82685000D01*
G37*
X89150000Y-83185000D02*
X87750000Y-83185000D01*
X87750000Y-82935000D01*
X89150000Y-82935000D01*
X89150000Y-83185000D01*
G36*
X89150000Y-83185000D02*
G01*
X87750000Y-83185000D01*
X87750000Y-82935000D01*
X89150000Y-82935000D01*
X89150000Y-83185000D01*
G37*
X91000000Y-78935000D02*
X89600000Y-78935000D01*
X89600000Y-78685000D01*
X91000000Y-78685000D01*
X91000000Y-78935000D01*
G36*
X91000000Y-78935000D02*
G01*
X89600000Y-78935000D01*
X89600000Y-78685000D01*
X91000000Y-78685000D01*
X91000000Y-78935000D01*
G37*
X91000000Y-80435000D02*
X89600000Y-80435000D01*
X89600000Y-80185000D01*
X91000000Y-80185000D01*
X91000000Y-80435000D01*
G36*
X91000000Y-80435000D02*
G01*
X89600000Y-80435000D01*
X89600000Y-80185000D01*
X91000000Y-80185000D01*
X91000000Y-80435000D01*
G37*
X91000000Y-81935000D02*
X89600000Y-81935000D01*
X89600000Y-81685000D01*
X91000000Y-81685000D01*
X91000000Y-81935000D01*
G36*
X91000000Y-81935000D02*
G01*
X89600000Y-81935000D01*
X89600000Y-81685000D01*
X91000000Y-81685000D01*
X91000000Y-81935000D01*
G37*
%TD*%
D11*
%TO.C,R3*%
X96887500Y-101500000D03*
X98712500Y-101500000D03*
%TD*%
D12*
%TO.C,C26*%
X61140000Y-68906400D03*
X59240000Y-68906400D03*
%TD*%
D13*
%TO.C,C22*%
X186949000Y-80137000D03*
X188849000Y-80137000D03*
%TD*%
D14*
%TO.C,U7*%
X195834000Y-85917000D03*
X194564000Y-85917000D03*
X193294000Y-85917000D03*
X192024000Y-85917000D03*
X192024000Y-90867000D03*
X193294000Y-90867000D03*
X194564000Y-90867000D03*
X195834000Y-90867000D03*
%TD*%
D15*
%TO.C,C8*%
X106175000Y-114645000D03*
X103100000Y-114645000D03*
%TD*%
D16*
%TO.C,D6*%
X107100000Y-125800000D03*
X107100000Y-129100000D03*
%TD*%
D17*
%TO.C,D8*%
X177086500Y-108519000D03*
X177086500Y-106619000D03*
X175211500Y-107569000D03*
%TD*%
D18*
%TO.C,Q3*%
X103279100Y-135636000D03*
X105179100Y-135636000D03*
X104229100Y-133761000D03*
%TD*%
D11*
%TO.C,R19*%
X59245000Y-96982500D03*
X61070000Y-96982500D03*
%TD*%
D13*
%TO.C,C33*%
X145770000Y-50630000D03*
X147670000Y-50630000D03*
%TD*%
D12*
%TO.C,C30*%
X246670000Y-96970000D03*
X244770000Y-96970000D03*
%TD*%
D19*
%TO.C,J1*%
X79990000Y-76040000D03*
X79990000Y-76540000D03*
X79990000Y-77040000D03*
X79990000Y-77540000D03*
X79990000Y-78040000D03*
X79990000Y-78540000D03*
X79990000Y-79040000D03*
X79990000Y-79540000D03*
X79990000Y-80040000D03*
X79990000Y-80540000D03*
X79990000Y-81040000D03*
X79990000Y-81540000D03*
X79990000Y-82040000D03*
X79990000Y-82540000D03*
X79990000Y-83040000D03*
X79990000Y-83540000D03*
X79990000Y-84040000D03*
X79990000Y-84540000D03*
X79990000Y-85040000D03*
X79990000Y-85540000D03*
X79990000Y-86040000D03*
X79990000Y-86540000D03*
X79990000Y-87040000D03*
X79990000Y-87540000D03*
X79990000Y-88040000D03*
X79990000Y-88540000D03*
X79990000Y-89040000D03*
X79990000Y-89540000D03*
X79990000Y-90040000D03*
X79990000Y-90540000D03*
X79990000Y-91040000D03*
X79990000Y-91540000D03*
X79990000Y-92040000D03*
X79990000Y-92540000D03*
X79990000Y-93040000D03*
X79990000Y-93540000D03*
X79990000Y-94040000D03*
X79990000Y-94540000D03*
X79990000Y-95040000D03*
X79990000Y-95540000D03*
D20*
X77490000Y-75090000D03*
X77490000Y-96490000D03*
%TD*%
D12*
%TO.C,C29*%
X246539999Y-71220000D03*
X244639999Y-71220000D03*
%TD*%
D21*
%TO.C,C3*%
X109500000Y-125400000D03*
X112575000Y-125400000D03*
%TD*%
D22*
%TO.C,R23*%
X248660000Y-122455000D03*
X248660000Y-120630000D03*
%TD*%
%TO.C,R7*%
X107261900Y-139543800D03*
X107261900Y-137718800D03*
%TD*%
D23*
%TO.C,U8*%
X196791500Y-78363000D03*
X196791500Y-77713000D03*
X196791500Y-77063000D03*
X196791500Y-76413000D03*
X196791500Y-75763000D03*
X196791500Y-75113000D03*
X196791500Y-74463000D03*
X196791500Y-73813000D03*
X196791500Y-73163000D03*
X196791500Y-72513000D03*
X191066500Y-72513000D03*
X191066500Y-73163000D03*
X191066500Y-73813000D03*
X191066500Y-74463000D03*
X191066500Y-75113000D03*
X191066500Y-75763000D03*
X191066500Y-76413000D03*
X191066500Y-77063000D03*
X191066500Y-77713000D03*
X191066500Y-78363000D03*
%TD*%
D12*
%TO.C,C19*%
X87879000Y-103299600D03*
X85979000Y-103299600D03*
%TD*%
D16*
%TO.C,D4*%
X111732300Y-135890000D03*
X111732300Y-132590000D03*
%TD*%
D24*
%TO.C,C11*%
X83185000Y-122349600D03*
X83185000Y-120449600D03*
%TD*%
D25*
%TO.C,L1*%
X84455000Y-113332600D03*
X84455000Y-109182600D03*
%TD*%
D22*
%TO.C,R28*%
X111300000Y-64900000D03*
X111300000Y-63075000D03*
%TD*%
D26*
%TO.C,SW7*%
X120000000Y-62305000D03*
X120000000Y-53695000D03*
%TD*%
D12*
%TO.C,C5*%
X91575000Y-129459000D03*
X89675000Y-129459000D03*
%TD*%
D27*
%TO.C,R16*%
X63000000Y-94987500D03*
X63000000Y-96812500D03*
%TD*%
D13*
%TO.C,C25*%
X200472000Y-69469000D03*
X202372000Y-69469000D03*
%TD*%
D27*
%TO.C,R10*%
X89281000Y-112142600D03*
X89281000Y-113967600D03*
%TD*%
D12*
%TO.C,C18*%
X87879000Y-105458600D03*
X85979000Y-105458600D03*
%TD*%
D27*
%TO.C,R6*%
X109395500Y-135890000D03*
X109395500Y-137715000D03*
%TD*%
D28*
%TO.C,C15*%
X89281000Y-108384600D03*
X89281000Y-110284600D03*
%TD*%
D29*
%TO.C,D1*%
X120140800Y-140700000D03*
X122015800Y-140700000D03*
%TD*%
D13*
%TO.C,C17*%
X82047000Y-105458600D03*
X83947000Y-105458600D03*
%TD*%
D30*
%TO.C,J3*%
X104130000Y-56395000D03*
X104780000Y-56395000D03*
X105430000Y-56395000D03*
X106080000Y-56395000D03*
X106730000Y-56395000D03*
%TD*%
D27*
%TO.C,R17*%
X63010000Y-120687500D03*
X63010000Y-122512500D03*
%TD*%
D31*
%TO.C,U9*%
X107600000Y-122300000D03*
D32*
X102975000Y-121545000D03*
X102975000Y-118495000D03*
X99625000Y-121545000D03*
X99625000Y-118495000D03*
D31*
X107600000Y-117740000D03*
%TD*%
D29*
%TO.C,D2*%
X93128300Y-101495200D03*
X95003300Y-101495200D03*
%TD*%
D11*
%TO.C,R20*%
X59270000Y-122638400D03*
X61095000Y-122638400D03*
%TD*%
D15*
%TO.C,C32*%
X140500000Y-51210000D03*
X137425000Y-51210000D03*
%TD*%
D24*
%TO.C,C2*%
X118387100Y-134975600D03*
X118387100Y-133075600D03*
%TD*%
D28*
%TO.C,C13*%
X92837000Y-120129600D03*
X92837000Y-122029600D03*
%TD*%
D33*
%TO.C,U3*%
X86741000Y-121956600D03*
X88011000Y-121956600D03*
X89281000Y-121956600D03*
X90551000Y-121956600D03*
X90551000Y-117006600D03*
X89281000Y-117006600D03*
X88011000Y-117006600D03*
X86741000Y-117006600D03*
%TD*%
D34*
%TO.C,D5*%
X111275100Y-138226800D03*
X114575100Y-138226800D03*
%TD*%
D13*
%TO.C,C10*%
X109975000Y-117745000D03*
X111875000Y-117745000D03*
%TD*%
D35*
%TO.C,U2*%
X111400000Y-72800000D03*
X111400000Y-72300000D03*
X111400000Y-71800000D03*
X111400000Y-71300000D03*
X111400000Y-70800000D03*
X107175000Y-70800000D03*
X107175000Y-71300000D03*
X107175000Y-71800000D03*
X107175000Y-72300000D03*
X107175000Y-72800000D03*
%TD*%
D36*
%TO.C,U6*%
X108350000Y-65350000D03*
X109050000Y-65350000D03*
X108700000Y-64500000D03*
%TD*%
D22*
%TO.C,R9*%
X83185000Y-118539600D03*
X83185000Y-116714600D03*
%TD*%
D12*
%TO.C,C34*%
X115200000Y-74700000D03*
X113300000Y-74700000D03*
%TD*%
D37*
%TO.C,D10*%
X184200800Y-66374000D03*
X184200800Y-68249000D03*
%TD*%
D22*
%TO.C,R21*%
X248529999Y-71055000D03*
X248529999Y-69230000D03*
%TD*%
D27*
%TO.C,R27*%
X184200800Y-70158600D03*
X184200800Y-71983600D03*
%TD*%
D12*
%TO.C,C31*%
X246700000Y-122680000D03*
X244800000Y-122680000D03*
%TD*%
D11*
%TO.C,R14*%
X187024000Y-77952600D03*
X188849000Y-77952600D03*
%TD*%
D12*
%TO.C,C7*%
X91575000Y-125141000D03*
X89675000Y-125141000D03*
%TD*%
D17*
%TO.C,Q2*%
X104925100Y-139568000D03*
X104925100Y-137668000D03*
X103050100Y-138618000D03*
%TD*%
D29*
%TO.C,D3*%
X103128300Y-109700000D03*
X105003300Y-109700000D03*
%TD*%
D11*
%TO.C,R2*%
X123900000Y-140700000D03*
X125725000Y-140700000D03*
%TD*%
D22*
%TO.C,R13*%
X197866000Y-90881200D03*
X197866000Y-89056200D03*
%TD*%
D13*
%TO.C,C12*%
X85743000Y-127300000D03*
X87643000Y-127300000D03*
%TD*%
D24*
%TO.C,C23*%
X190068200Y-87934800D03*
X190068200Y-86034800D03*
%TD*%
D38*
%TO.C,Q1*%
X114124500Y-134025600D03*
X114124500Y-135925600D03*
X115999500Y-134975600D03*
%TD*%
D13*
%TO.C,C16*%
X82047000Y-103299600D03*
X83947000Y-103299600D03*
%TD*%
D39*
%TO.C,C1*%
X121384300Y-134975600D03*
X121384300Y-131900600D03*
%TD*%
D27*
%TO.C,R11*%
X92837000Y-112269600D03*
X92837000Y-114094600D03*
%TD*%
D40*
%TO.C,R29*%
X113125000Y-66800000D03*
X111300000Y-66800000D03*
%TD*%
D13*
%TO.C,C14*%
X85743000Y-125141000D03*
X87643000Y-125141000D03*
%TD*%
D27*
%TO.C,R12*%
X92837000Y-116079600D03*
X92837000Y-117904600D03*
%TD*%
D12*
%TO.C,C28*%
X61130000Y-120530000D03*
X59230000Y-120530000D03*
%TD*%
D11*
%TO.C,R5*%
X114119900Y-132130800D03*
X115944900Y-132130800D03*
%TD*%
%TO.C,R18*%
X59295000Y-71180000D03*
X61120000Y-71180000D03*
%TD*%
D34*
%TO.C,D7*%
X91338400Y-133096000D03*
X94638400Y-133096000D03*
%TD*%
D11*
%TO.C,R4*%
X106887500Y-109700000D03*
X108712500Y-109700000D03*
%TD*%
%TO.C,R26*%
X244860000Y-120420000D03*
X246685000Y-120420000D03*
%TD*%
D22*
%TO.C,R22*%
X248650000Y-96835000D03*
X248650000Y-95010000D03*
%TD*%
D41*
%TO.C,Y1*%
X201453635Y-71850365D03*
X199898000Y-73406000D03*
X201100081Y-74608081D03*
X202655716Y-73052446D03*
%TD*%
D13*
%TO.C,C24*%
X200472000Y-76962000D03*
X202372000Y-76962000D03*
%TD*%
%TO.C,C4*%
X109975000Y-122345000D03*
X111875000Y-122345000D03*
%TD*%
D12*
%TO.C,C6*%
X91575000Y-127300000D03*
X89675000Y-127300000D03*
%TD*%
D27*
%TO.C,R8*%
X100810300Y-135636000D03*
X100810300Y-137461000D03*
%TD*%
%TO.C,R15*%
X63130000Y-69137500D03*
X63130000Y-70962500D03*
%TD*%
D13*
%TO.C,C9*%
X85743000Y-129459000D03*
X87643000Y-129459000D03*
%TD*%
D11*
%TO.C,R24*%
X244674999Y-69020000D03*
X246499999Y-69020000D03*
%TD*%
D42*
%TO.C,U1*%
X160208000Y-57025000D03*
X160208000Y-60105000D03*
X159808000Y-57025000D03*
X159808000Y-60105000D03*
X159408000Y-57025000D03*
X159408000Y-60105000D03*
X159008000Y-57025000D03*
X159008000Y-60105000D03*
X158608000Y-57025000D03*
X158608000Y-60105000D03*
X158208000Y-57025000D03*
X158208000Y-60105000D03*
X157808000Y-57025000D03*
X157808000Y-60105000D03*
X157408000Y-57025000D03*
X157408000Y-60105000D03*
X157008000Y-57025000D03*
X157008000Y-60105000D03*
X156608000Y-57025000D03*
X156608000Y-60105000D03*
X156208000Y-57025000D03*
X156208000Y-60105000D03*
X155808000Y-57025000D03*
X155808000Y-60105000D03*
X155408000Y-57025000D03*
X155408000Y-60105000D03*
X155008000Y-57025000D03*
X155008000Y-60105000D03*
X154608000Y-57025000D03*
X154608000Y-60105000D03*
X154208000Y-57025000D03*
X154208000Y-60105000D03*
X153808000Y-57025000D03*
X153808000Y-60105000D03*
X153408000Y-57025000D03*
X153408000Y-60105000D03*
X153008000Y-57025000D03*
X153008000Y-60105000D03*
X152608000Y-57025000D03*
X152608000Y-60105000D03*
X152208000Y-57025000D03*
X152208000Y-60105000D03*
X151808000Y-57025000D03*
X151808000Y-60105000D03*
X151408000Y-57025000D03*
X151408000Y-60105000D03*
X151008000Y-57025000D03*
X151008000Y-60105000D03*
X150608000Y-57025000D03*
X150608000Y-60105000D03*
X150208000Y-57025000D03*
X150208000Y-60105000D03*
X149808000Y-57025000D03*
X149808000Y-60105000D03*
X149408000Y-57025000D03*
X149408000Y-60105000D03*
X149008000Y-57025000D03*
X149008000Y-60105000D03*
X148608000Y-57025000D03*
X148608000Y-60105000D03*
X148208000Y-57025000D03*
X148208000Y-60105000D03*
X147808000Y-57025000D03*
X147808000Y-60105000D03*
X147408000Y-57025000D03*
X147408000Y-60105000D03*
X147008000Y-57025000D03*
X147008000Y-60105000D03*
X146608000Y-57025000D03*
X146608000Y-60105000D03*
X146208000Y-57025000D03*
X146208000Y-60105000D03*
X145808000Y-57025000D03*
X145808000Y-60105000D03*
X145408000Y-57025000D03*
X145408000Y-60105000D03*
X145008000Y-57025000D03*
X145008000Y-60105000D03*
X144608000Y-57025000D03*
X144608000Y-60105000D03*
X144208000Y-57025000D03*
X144208000Y-60105000D03*
X143808000Y-57025000D03*
X143808000Y-60105000D03*
X143408000Y-57025000D03*
X143408000Y-60105000D03*
X143008000Y-57025000D03*
X143008000Y-60105000D03*
X142608000Y-57025000D03*
X142608000Y-60105000D03*
X142208000Y-57025000D03*
X142208000Y-60105000D03*
X141808000Y-57025000D03*
X141808000Y-60105000D03*
X141408000Y-57025000D03*
X141408000Y-60105000D03*
X141008000Y-57025000D03*
X141008000Y-60105000D03*
X140608000Y-57025000D03*
X140608000Y-60105000D03*
X160208000Y-91025000D03*
X160208000Y-94105000D03*
X159808000Y-91025000D03*
X159808000Y-94105000D03*
X159408000Y-91025000D03*
X159408000Y-94105000D03*
X159008000Y-91025000D03*
X159008000Y-94105000D03*
X158608000Y-91025000D03*
X158608000Y-94105000D03*
X158208000Y-91025000D03*
X158208000Y-94105000D03*
X157808000Y-91025000D03*
X157808000Y-94105000D03*
X157408000Y-91025000D03*
X157408000Y-94105000D03*
X157008000Y-91025000D03*
X157008000Y-94105000D03*
X156608000Y-91025000D03*
X156608000Y-94105000D03*
X156208000Y-91025000D03*
X156208000Y-94105000D03*
X155808000Y-91025000D03*
X155808000Y-94105000D03*
X155408000Y-91025000D03*
X155408000Y-94105000D03*
X155008000Y-91025000D03*
X155008000Y-94105000D03*
X154608000Y-91025000D03*
X154608000Y-94105000D03*
X154208000Y-91025000D03*
X154208000Y-94105000D03*
X153808000Y-91025000D03*
X153808000Y-94105000D03*
X153408000Y-91025000D03*
X153408000Y-94105000D03*
X153008000Y-91025000D03*
X153008000Y-94105000D03*
X152608000Y-91025000D03*
X152608000Y-94105000D03*
X152208000Y-91025000D03*
X152208000Y-94105000D03*
X151808000Y-91025000D03*
X151808000Y-94105000D03*
X151408000Y-91025000D03*
X151408000Y-94105000D03*
X151008000Y-91025000D03*
X151008000Y-94105000D03*
X150608000Y-91025000D03*
X150608000Y-94105000D03*
X150208000Y-91025000D03*
X150208000Y-94105000D03*
X149808000Y-91025000D03*
X149808000Y-94105000D03*
X149408000Y-91025000D03*
X149408000Y-94105000D03*
X149008000Y-91025000D03*
X149008000Y-94105000D03*
X148608000Y-91025000D03*
X148608000Y-94105000D03*
X148208000Y-91025000D03*
X148208000Y-94105000D03*
X147808000Y-91025000D03*
X147808000Y-94105000D03*
X147408000Y-91025000D03*
X147408000Y-94105000D03*
X147008000Y-91025000D03*
X147008000Y-94105000D03*
X146608000Y-91025000D03*
X146608000Y-94105000D03*
X146208000Y-91025000D03*
X146208000Y-94105000D03*
X145808000Y-91025000D03*
X145808000Y-94105000D03*
X145408000Y-91025000D03*
X145408000Y-94105000D03*
X145008000Y-91025000D03*
X145008000Y-94105000D03*
X144608000Y-91025000D03*
X144608000Y-94105000D03*
X144208000Y-91025000D03*
X144208000Y-94105000D03*
X143808000Y-91025000D03*
X143808000Y-94105000D03*
X143408000Y-91025000D03*
X143408000Y-94105000D03*
X143008000Y-91025000D03*
X143008000Y-94105000D03*
X142608000Y-91025000D03*
X142608000Y-94105000D03*
X142208000Y-91025000D03*
X142208000Y-94105000D03*
X141808000Y-91025000D03*
X141808000Y-94105000D03*
X141408000Y-91025000D03*
X141408000Y-94105000D03*
X141008000Y-91025000D03*
X141008000Y-94105000D03*
X140608000Y-91025000D03*
X140608000Y-94105000D03*
%TD*%
D12*
%TO.C,C27*%
X61100000Y-94822500D03*
X59200000Y-94822500D03*
%TD*%
D11*
%TO.C,R25*%
X244825000Y-94780000D03*
X246650000Y-94780000D03*
%TD*%
D15*
%TO.C,C20*%
X84100000Y-99997600D03*
X81025000Y-99997600D03*
%TD*%
M02*
