M48
; DRILL file {KiCad 8.0.1} date 2024-04-06T20:32:01-0400
; FORMAT={-:-/ absolute / inch / decimal}
; #@! TF.CreationDate,2024-04-06T20:32:01-04:00
; #@! TF.GenerationSoftware,Kicad,Pcbnew,8.0.1
; #@! TF.FileFunction,Plated,1,4,PTH
FMAT,2
INCH
; #@! TA.AperFunction,Plated,PTH,ViaDrill
T1C0.0118
; #@! TA.AperFunction,Plated,PTH,ComponentDrill
T2C0.0236
; #@! TA.AperFunction,Plated,PTH,ComponentDrill
T3C0.0472
; #@! TA.AperFunction,Plated,PTH,ComponentDrill
T4C0.0787
; #@! TA.AperFunction,Plated,PTH,ComponentDrill
T5C0.1063
; #@! TA.AperFunction,Plated,PTH,ComponentDrill
T6C0.1083
; #@! TA.AperFunction,Plated,PTH,ComponentDrill
T7C0.1220
; #@! TA.AperFunction,Plated,PTH,ComponentDrill
T8C0.1260
%
G90
G05
T1
X2.1795Y-4.7862
X2.1843Y-3.8382
X2.1945Y-2.8453
X2.215Y-2.8594
X2.215Y-3.8382
X2.2165Y-4.7858
X2.242Y-2.582
X2.242Y-3.482
X2.2835Y-3.3465
X2.3228Y-2.2441
X2.3228Y-3.0315
X2.3228Y-4.0945
X2.3228Y-5.1181
X2.5197Y-2.6378
X2.5197Y-3.937
X2.5197Y-4.9606
X2.5197Y-5.2756
X2.5591Y-2.4016
X2.5984Y-3.189
X2.5984Y-3.622
X2.7559Y-1.9291
X2.7559Y-2.2441
X2.7559Y-2.7165
X2.7559Y-4.0945
X2.7559Y-4.4488
X2.7559Y-4.7638
X2.7559Y-5.1181
X2.7559Y-5.4724
X2.9Y-2.88
X2.9134Y-3.189
X2.9134Y-3.5039
X2.9134Y-3.7795
X2.9528Y-2.4016
X2.9579Y-2.6067
X2.9831Y-2.6457
X2.9921Y-3.0315
X2.9921Y-3.3465
X2.9921Y-3.622
X2.9921Y-3.937
X2.9921Y-4.252
X2.9921Y-4.6457
X2.9921Y-4.9606
X2.9921Y-5.2756
X3.0413Y-2.6657
X3.0567Y-2.7173
X3.0866Y-3.6039
X3.1075Y-3.0929
X3.1075Y-3.2689
X3.1075Y-3.3677
X3.1075Y-3.4264
X3.1075Y-3.4858
X3.1075Y-3.5449
X3.1075Y-3.5843
X3.1075Y-3.624
X3.1248Y-2.726
X3.1496Y-1.8504
X3.1496Y-2.2441
X3.1496Y-2.8346
X3.185Y-4.38
X3.2Y-3.1811
X3.2028Y-2.4016
X3.2098Y-3.0524
X3.2283Y-3.7402
X3.248Y-5.315
X3.3071Y-2.0079
X3.3138Y-3.7811
X3.3138Y-3.8295
X3.3386Y-2.8976
X3.345Y-4.655
X3.345Y-4.7
X3.345Y-4.75
X3.3465Y-5.6102
X3.3728Y-3.7811
X3.3728Y-3.8295
X3.3728Y-3.8787
X3.3728Y-3.928
X3.3728Y-3.9801
X3.4315Y-3.0661
X3.4323Y-3.1913
X3.4339Y-3.1323
X3.4339Y-3.3106
X3.435Y-3.2508
X3.465Y-4.38
X3.475Y-4.535
X3.5354Y-3.622
X3.5354Y-3.8504
X3.5433Y-1.8504
X3.5433Y-2.2441
X3.5433Y-2.4803
X3.5457Y-3.0547
X3.548Y-3.2654
X3.58Y-4.015
X3.58Y-4.38
X3.58Y-4.52
X3.605Y-4.655
X3.605Y-4.7
X3.605Y-4.75
X3.616Y-3.1029
X3.616Y-3.2209
X3.616Y-3.3973
X3.6163Y-3.5154
X3.62Y-4.31
X3.6417Y-5.4134
X3.6437Y-2.974
X3.6441Y-3.0016
X3.6541Y-3.5157
X3.6555Y-3.1031
X3.6559Y-3.2209
X3.6571Y-3.3976
X3.658Y-4.151
X3.6909Y-2.9374
X3.6937Y-3.0748
X3.6941Y-3.0453
X3.7Y-3.85
X3.7008Y-1.9685
X3.7008Y-3.622
X3.75Y-4.95
X3.75Y-5.1
X3.7709Y-3.1185
X3.7709Y-3.1768
X3.8386Y-5.6102
X3.8976Y-1.8504
X3.8976Y-2.4803
X3.8976Y-3.622
X3.9Y-3.85
X3.9Y-4.2
X3.9Y-4.4
X3.9Y-4.95
X3.9Y-5.1
X3.9265Y-3.9961
X3.9278Y-3.9604
X4.05Y-4.95
X4.05Y-5.1
X4.0551Y-1.9685
X4.0945Y-3.622
X4.0945Y-3.8504
X4.0945Y-4.0748
X4.0965Y-2.9374
X4.202Y-2.1614
X4.2154Y-2.2906
X4.252Y-1.8504
X4.2559Y-4.4547
X4.2559Y-4.502
X4.2559Y-4.5531
X4.2795Y-2.5094
X4.3071Y-4.4545
X4.3071Y-4.502
X4.3071Y-4.5531
X4.3273Y-4.3189
X4.3701Y-3.8976
X4.3937Y-2.9488
X4.4045Y-2.9179
X4.4094Y-5.1181
X4.4291Y-4.2323
X4.4409Y-2.7638
X4.4488Y-1.9685
X4.4488Y-2.2441
X4.4488Y-4.0157
X4.4689Y-2.8457
X4.5276Y-5.6102
X4.5665Y-2.6957
X4.5669Y-2.4803
X4.5669Y-4.4094
X4.5669Y-4.6063
X4.5669Y-4.8031
X4.5669Y-4.9606
X4.5669Y-5.1181
X4.5673Y-2.6346
X4.626Y-3.5433
X4.6457Y-1.8504
X4.6457Y-4.0945
X4.6457Y-4.2323
X4.7244Y-2.2441
X4.7244Y-4.4094
X4.7244Y-4.9606
X4.7244Y-5.1181
X4.7933Y-1.9685
X4.8228Y-3.6417
X4.8228Y-5.4134
X4.8776Y-3.2909
X4.8776Y-3.3189
X4.8819Y-4.0945
X4.8819Y-4.2323
X4.8819Y-4.4094
X4.8819Y-4.8031
X4.8819Y-4.9606
X4.8819Y-5.1181
X4.898Y-2.9374
X4.9886Y-2.7618
X4.9894Y-2.726
X5.0Y-1.85
X5.0394Y-4.4094
X5.0394Y-4.6063
X5.0394Y-4.8031
X5.0394Y-4.9606
X5.0394Y-5.1181
X5.0744Y-2.6657
X5.0744Y-2.6961
X5.0984Y-4.0945
X5.0984Y-4.2323
X5.1248Y-3.1303
X5.1476Y-2.6067
X5.1476Y-2.6382
X5.1969Y-1.9685
X5.2165Y-5.6102
X5.2474Y-3.2907
X5.2476Y-3.2575
X5.256Y-3.692
X5.26Y-4.78
X5.26Y-5.0
X5.315Y-4.0945
X5.315Y-4.2323
X5.32Y-4.66
X5.354Y-3.53
X5.398Y-2.9343
X5.4Y-1.85
X5.4331Y-2.3622
X5.4331Y-2.4803
X5.4965Y-2.8661
X5.4965Y-2.8984
X5.5Y-4.78
X5.5Y-5.0
X5.514Y-3.645
X5.5512Y-3.5433
X5.5512Y-3.745
X5.5906Y-3.745
X5.5984Y-3.5433
X5.6009Y-2.036
X5.6015Y-2.065
X5.6015Y-2.0941
X5.6102Y-5.315
X5.6299Y-3.1496
X5.6339Y-2.7661
X5.6378Y-3.7874
X5.6469Y-2.037
X5.6475Y-2.065
X5.6475Y-2.0941
X5.6693Y-2.4803
X5.685Y-3.8346
X5.6929Y-2.037
X5.6945Y-2.065
X5.6945Y-2.0941
X5.7087Y-4.0945
X5.7087Y-4.2913
X5.7323Y-3.8976
X5.756Y-2.2
X5.76Y-4.66
X5.76Y-5.0
X5.7913Y-3.3098
X5.8Y-1.85
X5.804Y-2.2
X5.835Y-3.5433
X5.8661Y-2.8346
X5.8681Y-2.174
X5.8681Y-2.2
X5.878Y-2.4252
X5.878Y-3.5433
X5.9055Y-3.489
X5.9055Y-4.0945
X5.9055Y-4.2913
X5.9055Y-5.6102
X5.922Y-2.425
X5.9268Y-2.1622
X5.9272Y-2.1291
X5.9539Y-2.572
X5.9882Y-2.424
X5.9898Y-2.2
X6.0Y-2.0
X6.02Y-4.56
X6.02Y-4.78
X6.02Y-5.0
X6.0283Y-2.4323
X6.04Y-2.2
X6.065Y-2.4035
X6.071Y-2.578
X6.0713Y-3.5433
X6.0875Y-2.5535
X6.1024Y-3.1496
X6.1024Y-3.8386
X6.1024Y-4.0945
X6.1024Y-4.2913
X6.107Y-2.424
X6.1335Y-2.5394
X6.134Y-2.2
X6.146Y-2.51
X6.1512Y-2.4232
X6.166Y-2.207
X6.2Y-1.85
X6.2Y-4.66
X6.213Y-3.5433
X6.214Y-2.2
X6.252Y-3.54
X6.26Y-2.2
X6.26Y-5.0
X6.2992Y-4.0945
X6.2992Y-4.2913
X6.2992Y-5.315
X6.308Y-2.2
X6.326Y-3.644
X6.3374Y-3.5287
X6.3717Y-3.5287
X6.378Y-2.3622
X6.378Y-2.8346
X6.392Y-4.566
X6.4Y-2.0
X6.4197Y-2.2291
X6.42Y-2.2
X6.5945Y-3.8386
X6.5945Y-4.9213
X6.5945Y-5.6102
X6.6Y-1.85
X6.6142Y-2.6378
X6.6142Y-3.1496
X6.6929Y-3.6417
X6.6929Y-4.4291
X6.7323Y-2.3622
X6.8Y-2.0
X6.84Y-4.234
X6.8898Y-2.8346
X6.8898Y-4.1339
X6.8898Y-4.7244
X6.8898Y-5.315
X7.0Y-1.85
X7.028Y-4.236
X7.0866Y-3.1496
X7.0866Y-3.8386
X7.1654Y-2.3228
X7.185Y-5.6102
X7.2Y-2.0
X7.2Y-5.0
X7.219Y-2.878
X7.22Y-3.025
X7.24Y-3.0
X7.252Y-2.878
X7.2835Y-3.6417
X7.2835Y-4.2323
X7.287Y-3.056
X7.331Y-3.069
X7.345Y-2.97
X7.37Y-2.95
X7.4Y-1.85
X7.4Y-4.6
X7.4016Y-2.8346
X7.4409Y-2.3228
X7.474Y-2.104
X7.499Y-3.155
X7.542Y-3.171
X7.5787Y-5.315
X7.586Y-3.462
X7.6Y-2.0
X7.6Y-4.2
X7.634Y-3.636
X7.637Y-3.272
X7.6752Y-3.0835
X7.696Y-2.478
X7.696Y-2.51
X7.748Y-2.561
X7.749Y-2.592
X7.7559Y-2.1654
X7.8Y-1.85
X7.8Y-3.8
X7.8Y-5.0
X7.873Y-2.7825
X7.874Y-5.6102
X7.9528Y-2.3228
X7.9724Y-3.1496
X7.9724Y-3.4449
X7.9724Y-3.7402
X8.0Y-2.0
X8.0Y-4.6
X8.1102Y-2.1654
X8.1102Y-2.4409
X8.2Y-1.85
X8.2Y-3.4
X8.2Y-4.2
X8.2677Y-5.315
X8.3858Y-2.1654
X8.3858Y-2.4409
X8.4Y-2.0
X8.4Y-2.8
X8.4Y-3.0
X8.4Y-3.8
X8.4Y-5.0
X8.4992Y-2.3217
X8.563Y-5.6102
X8.6Y-1.85
X8.6Y-3.4
X8.6Y-4.6
X8.8Y-2.0
X8.8Y-3.0
X8.8Y-3.2
X8.8Y-4.2
X8.8583Y-2.1654
X8.8764Y-2.8425
X8.9567Y-5.315
X8.9697Y-2.7177
X9.0Y-3.8
X9.0Y-5.0
X9.0291Y-2.3906
X9.1953Y-2.6043
X9.2Y-3.4
X9.2Y-4.6
X9.2913Y-2.2835
X9.3307Y-1.8898
X9.3504Y-3.4449
X9.3504Y-4.5276
X9.3504Y-5.0197
X9.3504Y-5.6102
X9.4047Y-4.035
X9.4094Y-3.1496
X9.6091Y-2.6453
X9.6094Y-3.6614
X9.6169Y-4.6724
X9.6331Y-2.6673
X9.6382Y-3.6831
X9.6398Y-4.6909
X9.6487Y-5.315
X9.7244Y-2.2835
X9.744Y-2.451
X9.7638Y-3.1496
T3
X2.1205Y-4.6882
X2.1205Y-4.885
X2.122Y-3.676
X2.122Y-3.8728
X2.1232Y-2.6658
X2.1232Y-2.8627
X2.6126Y-4.6882
X2.6126Y-4.885
X2.6142Y-3.676
X2.6142Y-3.8728
X2.6154Y-2.6658
X2.6154Y-2.8627
X9.4323Y-3.6756
X9.4323Y-3.8724
X9.4323Y-4.6878
X9.4323Y-4.8846
X9.4327Y-2.6654
X9.4327Y-2.8622
X9.9244Y-3.6756
X9.9244Y-3.8724
X9.9244Y-4.6878
X9.9244Y-4.8846
X9.9248Y-2.6654
X9.9248Y-2.8622
T4
X5.452Y-4.663
X6.578Y-4.663
T5
X5.0751Y-2.3254
X5.0751Y-3.6246
X6.9649Y-2.3254
X6.9649Y-3.6246
T6
X5.8831Y-4.463
X5.8831Y-4.863
X6.1469Y-4.463
X6.1469Y-4.863
T7
X6.32Y-4.665
T8
X2.2335Y-1.9815
X2.2339Y-5.5694
X9.8142Y-5.5689
X9.815Y-1.9825
T2
G00X4.01Y-2.2445
M15
G01X4.01Y-2.2661
M16
G05
G00X4.2915Y-2.2445
M15
G01X4.2915Y-2.2661
M16
G05
M30
