%TF.GenerationSoftware,KiCad,Pcbnew,8.0.1*%
%TF.CreationDate,2024-04-06T20:31:56-04:00*%
%TF.ProjectId,py_dash_pcb_7,70795f64-6173-4685-9f70-63625f372e6b,rev?*%
%TF.SameCoordinates,Original*%
%TF.FileFunction,Soldermask,Bot*%
%TF.FilePolarity,Negative*%
%FSLAX46Y46*%
G04 Gerber Fmt 4.6, Leading zero omitted, Abs format (unit mm)*
G04 Created by KiCad (PCBNEW 8.0.1) date 2024-04-06 20:31:56*
%MOMM*%
%LPD*%
G01*
G04 APERTURE LIST*
%ADD10C,0.010000*%
%ADD11C,5.600000*%
%ADD12C,2.500000*%
%ADD13C,4.000000*%
%ADD14C,6.004000*%
%ADD15C,1.799996*%
%ADD16C,1.707896*%
G04 APERTURE END LIST*
D10*
%TO.C,J3*%
X101892000Y-56311000D02*
X101928000Y-56314000D01*
X101965000Y-56319000D01*
X102001000Y-56325000D01*
X102036000Y-56334000D01*
X102071000Y-56344000D01*
X102106000Y-56356000D01*
X102140000Y-56371000D01*
X102173000Y-56386000D01*
X102205000Y-56404000D01*
X102236000Y-56423000D01*
X102266000Y-56444000D01*
X102296000Y-56466000D01*
X102323000Y-56490000D01*
X102350000Y-56515000D01*
X102375000Y-56542000D01*
X102399000Y-56569000D01*
X102421000Y-56599000D01*
X102442000Y-56629000D01*
X102461000Y-56660000D01*
X102479000Y-56692000D01*
X102494000Y-56725000D01*
X102509000Y-56759000D01*
X102521000Y-56794000D01*
X102531000Y-56829000D01*
X102540000Y-56864000D01*
X102546000Y-56900000D01*
X102551000Y-56937000D01*
X102554000Y-56973000D01*
X102555000Y-57010000D01*
X102555000Y-57560000D01*
X102554000Y-57597000D01*
X102551000Y-57633000D01*
X102546000Y-57670000D01*
X102540000Y-57706000D01*
X102531000Y-57741000D01*
X102521000Y-57776000D01*
X102509000Y-57811000D01*
X102494000Y-57845000D01*
X102479000Y-57878000D01*
X102461000Y-57910000D01*
X102442000Y-57941000D01*
X102421000Y-57971000D01*
X102399000Y-58001000D01*
X102375000Y-58028000D01*
X102350000Y-58055000D01*
X102323000Y-58080000D01*
X102296000Y-58104000D01*
X102266000Y-58126000D01*
X102236000Y-58147000D01*
X102205000Y-58166000D01*
X102173000Y-58184000D01*
X102140000Y-58199000D01*
X102106000Y-58214000D01*
X102071000Y-58226000D01*
X102036000Y-58236000D01*
X102001000Y-58245000D01*
X101965000Y-58251000D01*
X101928000Y-58256000D01*
X101892000Y-58259000D01*
X101855000Y-58260000D01*
X101818000Y-58259000D01*
X101782000Y-58256000D01*
X101745000Y-58251000D01*
X101709000Y-58245000D01*
X101674000Y-58236000D01*
X101639000Y-58226000D01*
X101604000Y-58214000D01*
X101570000Y-58199000D01*
X101537000Y-58184000D01*
X101505000Y-58166000D01*
X101474000Y-58147000D01*
X101444000Y-58126000D01*
X101414000Y-58104000D01*
X101387000Y-58080000D01*
X101360000Y-58055000D01*
X101335000Y-58028000D01*
X101311000Y-58001000D01*
X101289000Y-57971000D01*
X101268000Y-57941000D01*
X101249000Y-57910000D01*
X101231000Y-57878000D01*
X101216000Y-57845000D01*
X101201000Y-57811000D01*
X101189000Y-57776000D01*
X101179000Y-57741000D01*
X101170000Y-57706000D01*
X101164000Y-57670000D01*
X101159000Y-57633000D01*
X101156000Y-57597000D01*
X101155000Y-57560000D01*
X101155000Y-57010000D01*
X101156000Y-56973000D01*
X101159000Y-56937000D01*
X101164000Y-56900000D01*
X101170000Y-56864000D01*
X101179000Y-56829000D01*
X101189000Y-56794000D01*
X101201000Y-56759000D01*
X101216000Y-56725000D01*
X101231000Y-56692000D01*
X101249000Y-56660000D01*
X101268000Y-56629000D01*
X101289000Y-56599000D01*
X101311000Y-56569000D01*
X101335000Y-56542000D01*
X101360000Y-56515000D01*
X101387000Y-56490000D01*
X101414000Y-56466000D01*
X101444000Y-56444000D01*
X101474000Y-56423000D01*
X101505000Y-56404000D01*
X101537000Y-56386000D01*
X101570000Y-56371000D01*
X101604000Y-56356000D01*
X101639000Y-56344000D01*
X101674000Y-56334000D01*
X101709000Y-56325000D01*
X101745000Y-56319000D01*
X101782000Y-56314000D01*
X101818000Y-56311000D01*
X101855000Y-56310000D01*
X101892000Y-56311000D01*
G36*
X101892000Y-56311000D02*
G01*
X101928000Y-56314000D01*
X101965000Y-56319000D01*
X102001000Y-56325000D01*
X102036000Y-56334000D01*
X102071000Y-56344000D01*
X102106000Y-56356000D01*
X102140000Y-56371000D01*
X102173000Y-56386000D01*
X102205000Y-56404000D01*
X102236000Y-56423000D01*
X102266000Y-56444000D01*
X102296000Y-56466000D01*
X102323000Y-56490000D01*
X102350000Y-56515000D01*
X102375000Y-56542000D01*
X102399000Y-56569000D01*
X102421000Y-56599000D01*
X102442000Y-56629000D01*
X102461000Y-56660000D01*
X102479000Y-56692000D01*
X102494000Y-56725000D01*
X102509000Y-56759000D01*
X102521000Y-56794000D01*
X102531000Y-56829000D01*
X102540000Y-56864000D01*
X102546000Y-56900000D01*
X102551000Y-56937000D01*
X102554000Y-56973000D01*
X102555000Y-57010000D01*
X102555000Y-57560000D01*
X102554000Y-57597000D01*
X102551000Y-57633000D01*
X102546000Y-57670000D01*
X102540000Y-57706000D01*
X102531000Y-57741000D01*
X102521000Y-57776000D01*
X102509000Y-57811000D01*
X102494000Y-57845000D01*
X102479000Y-57878000D01*
X102461000Y-57910000D01*
X102442000Y-57941000D01*
X102421000Y-57971000D01*
X102399000Y-58001000D01*
X102375000Y-58028000D01*
X102350000Y-58055000D01*
X102323000Y-58080000D01*
X102296000Y-58104000D01*
X102266000Y-58126000D01*
X102236000Y-58147000D01*
X102205000Y-58166000D01*
X102173000Y-58184000D01*
X102140000Y-58199000D01*
X102106000Y-58214000D01*
X102071000Y-58226000D01*
X102036000Y-58236000D01*
X102001000Y-58245000D01*
X101965000Y-58251000D01*
X101928000Y-58256000D01*
X101892000Y-58259000D01*
X101855000Y-58260000D01*
X101818000Y-58259000D01*
X101782000Y-58256000D01*
X101745000Y-58251000D01*
X101709000Y-58245000D01*
X101674000Y-58236000D01*
X101639000Y-58226000D01*
X101604000Y-58214000D01*
X101570000Y-58199000D01*
X101537000Y-58184000D01*
X101505000Y-58166000D01*
X101474000Y-58147000D01*
X101444000Y-58126000D01*
X101414000Y-58104000D01*
X101387000Y-58080000D01*
X101360000Y-58055000D01*
X101335000Y-58028000D01*
X101311000Y-58001000D01*
X101289000Y-57971000D01*
X101268000Y-57941000D01*
X101249000Y-57910000D01*
X101231000Y-57878000D01*
X101216000Y-57845000D01*
X101201000Y-57811000D01*
X101189000Y-57776000D01*
X101179000Y-57741000D01*
X101170000Y-57706000D01*
X101164000Y-57670000D01*
X101159000Y-57633000D01*
X101156000Y-57597000D01*
X101155000Y-57560000D01*
X101155000Y-57010000D01*
X101156000Y-56973000D01*
X101159000Y-56937000D01*
X101164000Y-56900000D01*
X101170000Y-56864000D01*
X101179000Y-56829000D01*
X101189000Y-56794000D01*
X101201000Y-56759000D01*
X101216000Y-56725000D01*
X101231000Y-56692000D01*
X101249000Y-56660000D01*
X101268000Y-56629000D01*
X101289000Y-56599000D01*
X101311000Y-56569000D01*
X101335000Y-56542000D01*
X101360000Y-56515000D01*
X101387000Y-56490000D01*
X101414000Y-56466000D01*
X101444000Y-56444000D01*
X101474000Y-56423000D01*
X101505000Y-56404000D01*
X101537000Y-56386000D01*
X101570000Y-56371000D01*
X101604000Y-56356000D01*
X101639000Y-56344000D01*
X101674000Y-56334000D01*
X101709000Y-56325000D01*
X101745000Y-56319000D01*
X101782000Y-56314000D01*
X101818000Y-56311000D01*
X101855000Y-56310000D01*
X101892000Y-56311000D01*
G37*
X109042000Y-56311000D02*
X109078000Y-56314000D01*
X109115000Y-56319000D01*
X109151000Y-56325000D01*
X109186000Y-56334000D01*
X109221000Y-56344000D01*
X109256000Y-56356000D01*
X109290000Y-56371000D01*
X109323000Y-56386000D01*
X109355000Y-56404000D01*
X109386000Y-56423000D01*
X109416000Y-56444000D01*
X109446000Y-56466000D01*
X109473000Y-56490000D01*
X109500000Y-56515000D01*
X109525000Y-56542000D01*
X109549000Y-56569000D01*
X109571000Y-56599000D01*
X109592000Y-56629000D01*
X109611000Y-56660000D01*
X109629000Y-56692000D01*
X109644000Y-56725000D01*
X109659000Y-56759000D01*
X109671000Y-56794000D01*
X109681000Y-56829000D01*
X109690000Y-56864000D01*
X109696000Y-56900000D01*
X109701000Y-56937000D01*
X109704000Y-56973000D01*
X109705000Y-57010000D01*
X109705000Y-57560000D01*
X109704000Y-57597000D01*
X109701000Y-57633000D01*
X109696000Y-57670000D01*
X109690000Y-57706000D01*
X109681000Y-57741000D01*
X109671000Y-57776000D01*
X109659000Y-57811000D01*
X109644000Y-57845000D01*
X109629000Y-57878000D01*
X109611000Y-57910000D01*
X109592000Y-57941000D01*
X109571000Y-57971000D01*
X109549000Y-58001000D01*
X109525000Y-58028000D01*
X109500000Y-58055000D01*
X109473000Y-58080000D01*
X109446000Y-58104000D01*
X109416000Y-58126000D01*
X109386000Y-58147000D01*
X109355000Y-58166000D01*
X109323000Y-58184000D01*
X109290000Y-58199000D01*
X109256000Y-58214000D01*
X109221000Y-58226000D01*
X109186000Y-58236000D01*
X109151000Y-58245000D01*
X109115000Y-58251000D01*
X109078000Y-58256000D01*
X109042000Y-58259000D01*
X109005000Y-58260000D01*
X108968000Y-58259000D01*
X108932000Y-58256000D01*
X108895000Y-58251000D01*
X108859000Y-58245000D01*
X108824000Y-58236000D01*
X108789000Y-58226000D01*
X108754000Y-58214000D01*
X108720000Y-58199000D01*
X108687000Y-58184000D01*
X108655000Y-58166000D01*
X108624000Y-58147000D01*
X108594000Y-58126000D01*
X108564000Y-58104000D01*
X108537000Y-58080000D01*
X108510000Y-58055000D01*
X108485000Y-58028000D01*
X108461000Y-58001000D01*
X108439000Y-57971000D01*
X108418000Y-57941000D01*
X108399000Y-57910000D01*
X108381000Y-57878000D01*
X108366000Y-57845000D01*
X108351000Y-57811000D01*
X108339000Y-57776000D01*
X108329000Y-57741000D01*
X108320000Y-57706000D01*
X108314000Y-57670000D01*
X108309000Y-57633000D01*
X108306000Y-57597000D01*
X108305000Y-57560000D01*
X108305000Y-57010000D01*
X108306000Y-56973000D01*
X108309000Y-56937000D01*
X108314000Y-56900000D01*
X108320000Y-56864000D01*
X108329000Y-56829000D01*
X108339000Y-56794000D01*
X108351000Y-56759000D01*
X108366000Y-56725000D01*
X108381000Y-56692000D01*
X108399000Y-56660000D01*
X108418000Y-56629000D01*
X108439000Y-56599000D01*
X108461000Y-56569000D01*
X108485000Y-56542000D01*
X108510000Y-56515000D01*
X108537000Y-56490000D01*
X108564000Y-56466000D01*
X108594000Y-56444000D01*
X108624000Y-56423000D01*
X108655000Y-56404000D01*
X108687000Y-56386000D01*
X108720000Y-56371000D01*
X108754000Y-56356000D01*
X108789000Y-56344000D01*
X108824000Y-56334000D01*
X108859000Y-56325000D01*
X108895000Y-56319000D01*
X108932000Y-56314000D01*
X108968000Y-56311000D01*
X109005000Y-56310000D01*
X109042000Y-56311000D01*
G36*
X109042000Y-56311000D02*
G01*
X109078000Y-56314000D01*
X109115000Y-56319000D01*
X109151000Y-56325000D01*
X109186000Y-56334000D01*
X109221000Y-56344000D01*
X109256000Y-56356000D01*
X109290000Y-56371000D01*
X109323000Y-56386000D01*
X109355000Y-56404000D01*
X109386000Y-56423000D01*
X109416000Y-56444000D01*
X109446000Y-56466000D01*
X109473000Y-56490000D01*
X109500000Y-56515000D01*
X109525000Y-56542000D01*
X109549000Y-56569000D01*
X109571000Y-56599000D01*
X109592000Y-56629000D01*
X109611000Y-56660000D01*
X109629000Y-56692000D01*
X109644000Y-56725000D01*
X109659000Y-56759000D01*
X109671000Y-56794000D01*
X109681000Y-56829000D01*
X109690000Y-56864000D01*
X109696000Y-56900000D01*
X109701000Y-56937000D01*
X109704000Y-56973000D01*
X109705000Y-57010000D01*
X109705000Y-57560000D01*
X109704000Y-57597000D01*
X109701000Y-57633000D01*
X109696000Y-57670000D01*
X109690000Y-57706000D01*
X109681000Y-57741000D01*
X109671000Y-57776000D01*
X109659000Y-57811000D01*
X109644000Y-57845000D01*
X109629000Y-57878000D01*
X109611000Y-57910000D01*
X109592000Y-57941000D01*
X109571000Y-57971000D01*
X109549000Y-58001000D01*
X109525000Y-58028000D01*
X109500000Y-58055000D01*
X109473000Y-58080000D01*
X109446000Y-58104000D01*
X109416000Y-58126000D01*
X109386000Y-58147000D01*
X109355000Y-58166000D01*
X109323000Y-58184000D01*
X109290000Y-58199000D01*
X109256000Y-58214000D01*
X109221000Y-58226000D01*
X109186000Y-58236000D01*
X109151000Y-58245000D01*
X109115000Y-58251000D01*
X109078000Y-58256000D01*
X109042000Y-58259000D01*
X109005000Y-58260000D01*
X108968000Y-58259000D01*
X108932000Y-58256000D01*
X108895000Y-58251000D01*
X108859000Y-58245000D01*
X108824000Y-58236000D01*
X108789000Y-58226000D01*
X108754000Y-58214000D01*
X108720000Y-58199000D01*
X108687000Y-58184000D01*
X108655000Y-58166000D01*
X108624000Y-58147000D01*
X108594000Y-58126000D01*
X108564000Y-58104000D01*
X108537000Y-58080000D01*
X108510000Y-58055000D01*
X108485000Y-58028000D01*
X108461000Y-58001000D01*
X108439000Y-57971000D01*
X108418000Y-57941000D01*
X108399000Y-57910000D01*
X108381000Y-57878000D01*
X108366000Y-57845000D01*
X108351000Y-57811000D01*
X108339000Y-57776000D01*
X108329000Y-57741000D01*
X108320000Y-57706000D01*
X108314000Y-57670000D01*
X108309000Y-57633000D01*
X108306000Y-57597000D01*
X108305000Y-57560000D01*
X108305000Y-57010000D01*
X108306000Y-56973000D01*
X108309000Y-56937000D01*
X108314000Y-56900000D01*
X108320000Y-56864000D01*
X108329000Y-56829000D01*
X108339000Y-56794000D01*
X108351000Y-56759000D01*
X108366000Y-56725000D01*
X108381000Y-56692000D01*
X108399000Y-56660000D01*
X108418000Y-56629000D01*
X108439000Y-56599000D01*
X108461000Y-56569000D01*
X108485000Y-56542000D01*
X108510000Y-56515000D01*
X108537000Y-56490000D01*
X108564000Y-56466000D01*
X108594000Y-56444000D01*
X108624000Y-56423000D01*
X108655000Y-56404000D01*
X108687000Y-56386000D01*
X108720000Y-56371000D01*
X108754000Y-56356000D01*
X108789000Y-56344000D01*
X108824000Y-56334000D01*
X108859000Y-56325000D01*
X108895000Y-56319000D01*
X108932000Y-56314000D01*
X108968000Y-56311000D01*
X109005000Y-56310000D01*
X109042000Y-56311000D01*
G37*
%TD*%
D11*
%TO.C,H5*%
X56730000Y-50330000D03*
%TD*%
%TO.C,H7*%
X249280000Y-141450000D03*
%TD*%
%TO.C,H8*%
X56740000Y-141462000D03*
%TD*%
%TO.C,H6*%
X249302000Y-50355400D03*
%TD*%
D12*
%TO.C,J2*%
X138481200Y-118440200D03*
D13*
X160528000Y-118491000D03*
D12*
X167081200Y-118440200D03*
D13*
X149431200Y-113360200D03*
X156131200Y-113360200D03*
X156131200Y-123520200D03*
X149431200Y-123520200D03*
%TD*%
D14*
%TO.C,U1*%
X128908000Y-59065000D03*
X176908000Y-59065000D03*
X128908000Y-92065000D03*
X176908000Y-92065000D03*
%TD*%
D15*
%TO.C,SW6*%
X245830000Y-126070000D03*
X245830000Y-117070000D03*
D16*
X252080000Y-119070000D03*
X239580000Y-119070000D03*
X252080000Y-124070000D03*
X239580000Y-124070000D03*
%TD*%
D15*
%TO.C,SW1*%
X60180001Y-74711901D03*
X60180001Y-65711901D03*
D16*
X66430001Y-67711901D03*
X53930001Y-67711901D03*
X66430001Y-72711901D03*
X53930001Y-72711901D03*
%TD*%
D15*
%TO.C,SW5*%
X245830000Y-100360000D03*
X245830000Y-91360000D03*
D16*
X252080000Y-93360000D03*
X239580000Y-93360000D03*
X252080000Y-98360000D03*
X239580000Y-98360000D03*
%TD*%
D15*
%TO.C,SW2*%
X60150000Y-100370000D03*
X60150000Y-91370000D03*
D16*
X66400000Y-93370000D03*
X53900000Y-93370000D03*
X66400000Y-98370000D03*
X53900000Y-98370000D03*
%TD*%
D15*
%TO.C,SW3*%
X60110000Y-126080000D03*
X60110000Y-117080000D03*
D16*
X66360000Y-119080000D03*
X53860000Y-119080000D03*
X66360000Y-124080000D03*
X53860000Y-124080000D03*
%TD*%
D15*
%TO.C,SW4*%
X245840000Y-74700000D03*
X245840000Y-65700000D03*
D16*
X252090000Y-67700000D03*
X239590000Y-67700000D03*
X252090000Y-72700000D03*
X239590000Y-72700000D03*
%TD*%
M02*
