%TF.GenerationSoftware,KiCad,Pcbnew,8.0.1*%
%TF.CreationDate,2024-04-06T20:31:55-04:00*%
%TF.ProjectId,py_dash_pcb_7,70795f64-6173-4685-9f70-63625f372e6b,rev?*%
%TF.SameCoordinates,Original*%
%TF.FileFunction,Copper,L2,Inr*%
%TF.FilePolarity,Positive*%
%FSLAX46Y46*%
G04 Gerber Fmt 4.6, Leading zero omitted, Abs format (unit mm)*
G04 Created by KiCad (PCBNEW 8.0.1) date 2024-04-06 20:31:55*
%MOMM*%
%LPD*%
G01*
G04 APERTURE LIST*
%TA.AperFunction,ComponentPad*%
%ADD10C,5.600000*%
%TD*%
%TA.AperFunction,ComponentPad*%
%ADD11O,1.400000X2.800000*%
%TD*%
%TA.AperFunction,ComponentPad*%
%ADD12C,2.500000*%
%TD*%
%TA.AperFunction,ComponentPad*%
%ADD13C,4.000000*%
%TD*%
%TA.AperFunction,ComponentPad*%
%ADD14C,5.800000*%
%TD*%
%TA.AperFunction,ComponentPad*%
%ADD15C,1.707896*%
%TD*%
%TA.AperFunction,ViaPad*%
%ADD16C,0.450000*%
%TD*%
G04 APERTURE END LIST*
D10*
%TO.N,N/C*%
%TO.C,H5*%
X56730000Y-50330000D03*
%TD*%
D11*
%TO.N,N/C*%
%TO.C,J3*%
X101855000Y-57285000D03*
X109005000Y-57285000D03*
%TD*%
D10*
%TO.N,N/C*%
%TO.C,H7*%
X249280000Y-141450000D03*
%TD*%
%TO.N,N/C*%
%TO.C,H8*%
X56740000Y-141462000D03*
%TD*%
%TO.N,N/C*%
%TO.C,H6*%
X249302000Y-50355400D03*
%TD*%
D12*
%TO.N,*%
%TO.C,J2*%
X138481200Y-118440200D03*
D13*
X160528000Y-118491000D03*
D12*
X167081200Y-118440200D03*
D13*
%TO.N,+12V*%
X149431200Y-113360200D03*
%TO.N,CAN_L*%
X156131200Y-113360200D03*
%TO.N,CAN_H*%
X156131200Y-123520200D03*
%TO.N,GND*%
X149431200Y-123520200D03*
%TD*%
D14*
%TO.N,N/C*%
%TO.C,U1*%
X128908000Y-59065000D03*
X176908000Y-59065000D03*
X128908000Y-92065000D03*
X176908000Y-92065000D03*
%TD*%
D15*
%TO.N,Net-(R23-Pad2)*%
%TO.C,SW6*%
X252080000Y-119070000D03*
%TO.N,N/C*%
X239580000Y-119070000D03*
%TO.N,GND*%
X252080000Y-124070000D03*
%TO.N,N/C*%
X239580000Y-124070000D03*
%TD*%
%TO.N,Net-(R15-Pad2)*%
%TO.C,SW1*%
X66430001Y-67711901D03*
%TO.N,N/C*%
X53930001Y-67711901D03*
%TO.N,GND*%
X66430001Y-72711901D03*
%TO.N,N/C*%
X53930001Y-72711901D03*
%TD*%
%TO.N,Net-(R22-Pad2)*%
%TO.C,SW5*%
X252080000Y-93360000D03*
%TO.N,N/C*%
X239580000Y-93360000D03*
%TO.N,GND*%
X252080000Y-98360000D03*
%TO.N,N/C*%
X239580000Y-98360000D03*
%TD*%
%TO.N,Net-(R16-Pad2)*%
%TO.C,SW2*%
X66400000Y-93370000D03*
%TO.N,N/C*%
X53900000Y-93370000D03*
%TO.N,GND*%
X66400000Y-98370000D03*
%TO.N,N/C*%
X53900000Y-98370000D03*
%TD*%
%TO.N,Net-(R17-Pad2)*%
%TO.C,SW3*%
X66360000Y-119080000D03*
%TO.N,N/C*%
X53860000Y-119080000D03*
%TO.N,GND*%
X66360000Y-124080000D03*
%TO.N,N/C*%
X53860000Y-124080000D03*
%TD*%
%TO.N,Net-(R21-Pad2)*%
%TO.C,SW4*%
X252090000Y-67700000D03*
%TO.N,N/C*%
X239590000Y-67700000D03*
%TO.N,GND*%
X252090000Y-72700000D03*
%TO.N,N/C*%
X239590000Y-72700000D03*
%TD*%
D16*
%TO.N,btn_L1*%
X75130000Y-66210000D03*
X130750000Y-66210000D03*
%TO.N,btn_L2*%
X128890000Y-67710000D03*
X77250000Y-67710000D03*
%TO.N,btn_L3*%
X126730000Y-69240000D03*
X79370000Y-69240000D03*
%TO.N,dispBL_en*%
X150540000Y-54920000D03*
X92560000Y-76240000D03*
%TO.N,GND*%
X145000000Y-109000000D03*
X80000000Y-47000000D03*
X116000000Y-117000000D03*
X116000000Y-130000000D03*
X223520000Y-106680000D03*
X111600000Y-74900000D03*
X92550000Y-75540000D03*
X217500000Y-142500000D03*
X142500000Y-135000000D03*
X161840000Y-89630000D03*
X112500000Y-107500000D03*
X55740000Y-72270000D03*
X88011000Y-111252000D03*
X75000000Y-61000000D03*
X239000000Y-80000000D03*
X185089800Y-77622400D03*
X167500000Y-125000000D03*
X210000000Y-135000000D03*
X64000000Y-126000000D03*
X129500000Y-107500000D03*
X168000000Y-80000000D03*
X142000000Y-95123000D03*
X129500000Y-104000000D03*
X139700000Y-121412000D03*
X146304000Y-127000000D03*
X116000000Y-63000000D03*
X59000000Y-130000000D03*
X99000000Y-47000000D03*
X70000000Y-113000000D03*
X124000000Y-126000000D03*
X93980000Y-97790000D03*
X229340000Y-60720000D03*
X150000000Y-88620600D03*
X140055600Y-92583000D03*
X94000000Y-50000000D03*
X156240000Y-61550000D03*
X124000000Y-104000000D03*
X213000000Y-62000000D03*
X144000000Y-63000000D03*
X233680000Y-86360000D03*
X173736000Y-107543600D03*
X144400000Y-97400000D03*
X91948000Y-109474000D03*
X80000000Y-72000000D03*
X195478400Y-62941200D03*
X88265000Y-115189000D03*
X76000000Y-77000000D03*
X218440000Y-86360000D03*
X115990000Y-68470000D03*
X152908000Y-121412000D03*
X70000000Y-104000000D03*
X91567000Y-120650000D03*
X170000000Y-92500000D03*
X152400000Y-50800000D03*
X76000000Y-134000000D03*
X175000000Y-120000000D03*
X92913200Y-105435400D03*
X238880000Y-102490000D03*
X227500000Y-135000000D03*
X237000000Y-48000000D03*
X104050000Y-74610000D03*
X66000000Y-92000000D03*
X128000000Y-112000000D03*
X90932000Y-111252000D03*
X189000000Y-59000000D03*
X99060000Y-111760000D03*
X141000000Y-90000000D03*
X247000000Y-58000000D03*
X154050000Y-61050000D03*
X154203400Y-65480000D03*
X147421600Y-55880000D03*
X157480000Y-118364000D03*
X244270000Y-118680000D03*
X87220000Y-79560000D03*
X160000000Y-109000000D03*
X244080000Y-93000000D03*
X82500000Y-135000000D03*
X122500000Y-92500000D03*
X128890000Y-68480000D03*
X223520000Y-81280000D03*
X118000000Y-107500000D03*
X137110000Y-74530000D03*
X59000000Y-104000000D03*
X56946800Y-88442800D03*
X84963000Y-119380000D03*
X227830000Y-69030000D03*
X225000000Y-55000000D03*
X133502400Y-93776800D03*
X160680400Y-92557600D03*
X64000000Y-134000000D03*
X139610000Y-73620000D03*
X90932000Y-114808000D03*
X73660000Y-73152000D03*
X118000000Y-104000000D03*
X133604000Y-127000000D03*
X171000000Y-60000000D03*
X150550000Y-54080000D03*
X150000000Y-104000000D03*
X192500000Y-135000000D03*
X113000000Y-102000000D03*
X151230000Y-65330000D03*
X58000000Y-85000000D03*
X76000000Y-92000000D03*
X84963000Y-120650000D03*
X244069999Y-67190000D03*
X127000000Y-46990000D03*
X89800000Y-92000000D03*
X116000000Y-122000000D03*
X159004000Y-127000000D03*
X237500000Y-127500000D03*
X155803600Y-55880000D03*
X130750000Y-67010000D03*
X93820000Y-78100000D03*
X99000000Y-63000000D03*
X80899000Y-111252000D03*
X208280000Y-86360000D03*
X198120000Y-127000000D03*
X112800000Y-70200000D03*
X76000000Y-85000000D03*
X182880000Y-127000000D03*
X81350000Y-61000000D03*
X120000000Y-57000000D03*
X74000000Y-96000000D03*
X128000000Y-126000000D03*
X245078000Y-135000000D03*
X213360000Y-76200000D03*
X122500000Y-137500000D03*
X102870000Y-129540000D03*
X123890000Y-84300000D03*
X162560000Y-50800000D03*
X55360000Y-121570000D03*
X78930000Y-90040000D03*
X90060000Y-77590000D03*
X150000000Y-109000000D03*
X194950000Y-78320000D03*
X237500000Y-142500000D03*
X213360000Y-96520000D03*
X92860000Y-81810000D03*
X158800800Y-89916000D03*
X193040000Y-50800000D03*
X167640000Y-46990000D03*
X120000000Y-126000000D03*
X155790000Y-64500000D03*
X84963000Y-118237000D03*
X142200000Y-90000000D03*
X55480000Y-97490000D03*
X64000000Y-67000000D03*
X78930000Y-87030000D03*
X157480000Y-46990000D03*
X233560000Y-66150000D03*
X84000000Y-51000000D03*
X113510000Y-72280000D03*
X223520000Y-76200000D03*
X90000000Y-63000000D03*
X187960000Y-46990000D03*
X170000000Y-112500000D03*
X188000000Y-72000000D03*
X237500000Y-87500000D03*
X149000000Y-72000000D03*
X146304000Y-118364000D03*
X81280000Y-80800000D03*
X103000000Y-50000000D03*
X90120000Y-82940000D03*
X148209000Y-90000000D03*
X87180000Y-81060000D03*
X112000000Y-130000000D03*
X107070000Y-58180000D03*
X95250000Y-129540000D03*
X208280000Y-106680000D03*
X92500000Y-137500000D03*
X78930000Y-92050000D03*
X200000000Y-142500000D03*
X247497600Y-62255400D03*
X152140000Y-55880000D03*
X90000000Y-47000000D03*
X187960000Y-116840000D03*
X198120000Y-96520000D03*
X132500000Y-142500000D03*
X155117800Y-61569600D03*
X206000000Y-62000000D03*
X155000000Y-104000000D03*
X223520000Y-50800000D03*
X70000000Y-57000000D03*
X97500000Y-142500000D03*
X82000000Y-95000000D03*
X208280000Y-46990000D03*
X95250000Y-125730000D03*
X133604000Y-121412000D03*
X126710000Y-70150000D03*
X128000000Y-122000000D03*
X76000000Y-100000000D03*
X149050000Y-55880000D03*
X78930000Y-85540000D03*
X215880000Y-58970000D03*
X160223200Y-55880000D03*
X59000000Y-57000000D03*
X106730000Y-54900000D03*
X92889500Y-86300000D03*
X147100000Y-84070000D03*
X147320000Y-46990000D03*
X120000000Y-112000000D03*
X104000000Y-97800000D03*
X206000000Y-55000000D03*
X143200000Y-96200000D03*
X146202400Y-55880000D03*
X183362600Y-73101200D03*
X76000000Y-108000000D03*
X180000000Y-97500000D03*
X113000000Y-50000000D03*
X154210000Y-90000000D03*
X162356800Y-115976400D03*
X218440000Y-46990000D03*
X78930000Y-83030000D03*
X124000000Y-122000000D03*
X99060000Y-97790000D03*
X92850000Y-78820000D03*
X168000000Y-67000000D03*
X159004000Y-55880000D03*
X177800000Y-46990000D03*
X180000000Y-80000000D03*
X56946800Y-65582800D03*
X143100000Y-70260000D03*
X153416000Y-55880000D03*
X124410000Y-74610000D03*
X167500000Y-97500000D03*
X236000000Y-58000000D03*
X160000000Y-135000000D03*
X124000000Y-130000000D03*
X193979800Y-83108800D03*
X77640000Y-69020000D03*
X237500000Y-115000000D03*
X213360000Y-50800000D03*
X95780000Y-79210000D03*
X59000000Y-77000000D03*
X135991600Y-89662000D03*
X116000000Y-126000000D03*
X99060000Y-129540000D03*
X228600000Y-96520000D03*
X228600000Y-127000000D03*
X92814500Y-89300000D03*
X99000000Y-92000000D03*
X78930000Y-88540000D03*
X145000000Y-104000000D03*
X111000000Y-99000000D03*
X172720000Y-50800000D03*
X155000000Y-97500000D03*
X99060000Y-125730000D03*
X113000000Y-57000000D03*
X87160000Y-77880000D03*
X152908000Y-127000000D03*
X115000000Y-142500000D03*
X132000000Y-50000000D03*
X203200000Y-116840000D03*
X162000000Y-72000000D03*
X141000000Y-95123000D03*
X248000000Y-80000000D03*
X152100000Y-61570000D03*
X137160000Y-46990000D03*
X91567000Y-119380000D03*
X185000000Y-92500000D03*
X150000000Y-142500000D03*
X95780000Y-80690000D03*
X74000000Y-81000000D03*
X80000000Y-57000000D03*
X152908000Y-115824000D03*
X128000000Y-117000000D03*
X108700000Y-63740000D03*
X160000000Y-104000000D03*
X120000000Y-130000000D03*
X202500000Y-80000000D03*
X193040000Y-106680000D03*
X87250000Y-82570000D03*
X116000000Y-112000000D03*
X65000000Y-61000000D03*
X102870000Y-125730000D03*
X225460000Y-72200000D03*
X81530000Y-77530000D03*
X118000000Y-47000000D03*
X157810200Y-90000000D03*
X70000000Y-69000000D03*
X145600000Y-99000000D03*
X202500000Y-95000000D03*
X108000000Y-47000000D03*
X182000000Y-59000000D03*
X91567000Y-118237000D03*
X202500000Y-87500000D03*
X64000000Y-100000000D03*
X175000000Y-135000000D03*
X76000000Y-126000000D03*
X124000000Y-107500000D03*
X85000000Y-142500000D03*
X143000000Y-80000000D03*
X213000000Y-55000000D03*
X104000000Y-103500000D03*
X128000000Y-130000000D03*
X202000000Y-59000000D03*
X149300000Y-90000000D03*
X155000000Y-80000000D03*
X70000000Y-139000000D03*
X191566800Y-80543400D03*
X90000000Y-57000000D03*
X135000000Y-104000000D03*
X138000000Y-60000000D03*
X155000000Y-109000000D03*
X78400000Y-91540000D03*
X70000000Y-49000000D03*
X153120000Y-61780000D03*
X213360000Y-127000000D03*
X66000000Y-81000000D03*
X198120000Y-46990000D03*
X163060000Y-56620000D03*
X213360000Y-71120000D03*
X189839600Y-53441600D03*
X175000000Y-105000000D03*
X182500000Y-142500000D03*
X162000000Y-60000000D03*
X78930000Y-91040000D03*
X187198000Y-74930000D03*
X99060000Y-106680000D03*
X135128000Y-118364000D03*
X135000000Y-107500000D03*
X89800000Y-97800000D03*
X178511200Y-107594400D03*
X203200000Y-50800000D03*
X76000000Y-118000000D03*
X90932000Y-101981000D03*
X104000000Y-92000000D03*
X124000000Y-112000000D03*
X121750000Y-50000000D03*
X75770000Y-67200000D03*
X130170000Y-79510000D03*
X149300000Y-61600000D03*
X185000000Y-107500000D03*
X150418800Y-61595000D03*
X175000000Y-72000000D03*
X167500000Y-142500000D03*
X218440000Y-116840000D03*
X133290000Y-82740000D03*
X78930000Y-78560000D03*
X138000000Y-63000000D03*
X99765800Y-100595200D03*
X94000000Y-92000000D03*
X70000000Y-121000000D03*
X196799200Y-65049400D03*
X116010000Y-66920000D03*
X157835600Y-55880000D03*
X139700000Y-127000000D03*
X233680000Y-116840000D03*
X74000000Y-89000000D03*
X87220000Y-84090000D03*
X93750000Y-74610000D03*
X197000000Y-55000000D03*
X193903600Y-92354400D03*
X182880000Y-50800000D03*
X183896000Y-76200000D03*
X117500000Y-90000000D03*
X70000000Y-130000000D03*
%TO.N,CEC*%
X123890000Y-83590000D03*
X133285000Y-83585000D03*
%TO.N,+3.3V*%
X108100000Y-114350000D03*
X91845500Y-78814500D03*
X56260000Y-97490000D03*
X111875000Y-74115000D03*
X108100000Y-115650000D03*
X244679999Y-67750000D03*
X108100000Y-113150000D03*
X244810000Y-93550000D03*
X244850000Y-119150000D03*
X56260000Y-72630000D03*
%TO.N,+5V*%
X85670000Y-101095000D03*
X84800000Y-73600000D03*
X84170000Y-97270000D03*
X85670000Y-97270000D03*
X85670000Y-99770000D03*
X85670000Y-96040000D03*
X84170000Y-96040000D03*
X85670000Y-98520000D03*
%TO.N,OSC_GND*%
X199975000Y-70675000D03*
%TO.N,dispBL_PWM*%
X149050000Y-55220000D03*
X93830000Y-77350000D03*
%TO.N,USB_OTG*%
X139610000Y-72800000D03*
X160970000Y-89630000D03*
%TD*%
%TA.AperFunction,Conductor*%
%TO.N,GND*%
G36*
X253593875Y-44827768D02*
G01*
X253768790Y-44841533D01*
X253784123Y-44843962D01*
X253950943Y-44884012D01*
X253965710Y-44888810D01*
X254124206Y-44954462D01*
X254138035Y-44961508D01*
X254284317Y-45051148D01*
X254296877Y-45060274D01*
X254316455Y-45076995D01*
X254427326Y-45171689D01*
X254438310Y-45182673D01*
X254549722Y-45313118D01*
X254558852Y-45325685D01*
X254648488Y-45471958D01*
X254655540Y-45485799D01*
X254721187Y-45644285D01*
X254725988Y-45659060D01*
X254766036Y-45825870D01*
X254768466Y-45841214D01*
X254782230Y-46016123D01*
X254782535Y-46023890D01*
X254782500Y-145743172D01*
X254782195Y-145750939D01*
X254768467Y-145925379D01*
X254766037Y-145940723D01*
X254725989Y-146107537D01*
X254721188Y-146122311D01*
X254655543Y-146280794D01*
X254648491Y-146294636D01*
X254558853Y-146440913D01*
X254549721Y-146453481D01*
X254438315Y-146583921D01*
X254427331Y-146594906D01*
X254296879Y-146706323D01*
X254284311Y-146715454D01*
X254138051Y-146805083D01*
X254138049Y-146805084D01*
X254124207Y-146812137D01*
X253965715Y-146877787D01*
X253950940Y-146882588D01*
X253784129Y-146922636D01*
X253768786Y-146925066D01*
X253610284Y-146937540D01*
X253593963Y-146938825D01*
X253586197Y-146939130D01*
X52447297Y-146939130D01*
X52439530Y-146938825D01*
X52264620Y-146925060D01*
X52249276Y-146922630D01*
X52082466Y-146882583D01*
X52067692Y-146877782D01*
X51909205Y-146812135D01*
X51895363Y-146805083D01*
X51749092Y-146715449D01*
X51736523Y-146706317D01*
X51606078Y-146594905D01*
X51595094Y-146583921D01*
X51527918Y-146505269D01*
X51483679Y-146453472D01*
X51474553Y-146440912D01*
X51384913Y-146294630D01*
X51377864Y-146280794D01*
X51312217Y-146122307D01*
X51307416Y-146107533D01*
X51302141Y-146085559D01*
X51267367Y-145940716D01*
X51264940Y-145925384D01*
X51251175Y-145750468D01*
X51250870Y-145742702D01*
X51250870Y-141462000D01*
X53734415Y-141462000D01*
X53754738Y-141810929D01*
X53815430Y-142155133D01*
X53815430Y-142155134D01*
X53912081Y-142477971D01*
X53915674Y-142489971D01*
X54054111Y-142810904D01*
X54228870Y-143113596D01*
X54437588Y-143393953D01*
X54677442Y-143648183D01*
X54945189Y-143872849D01*
X55237207Y-144064913D01*
X55549549Y-144221777D01*
X55877989Y-144341319D01*
X55877992Y-144341319D01*
X55877993Y-144341320D01*
X56218075Y-144421921D01*
X56218080Y-144421921D01*
X56218086Y-144421923D01*
X56565241Y-144462500D01*
X56565244Y-144462500D01*
X56914756Y-144462500D01*
X56914759Y-144462500D01*
X57261914Y-144421923D01*
X57261920Y-144421921D01*
X57261924Y-144421921D01*
X57488645Y-144368187D01*
X57602011Y-144341319D01*
X57930451Y-144221777D01*
X58242793Y-144064913D01*
X58534811Y-143872849D01*
X58802558Y-143648183D01*
X59042412Y-143393953D01*
X59251130Y-143113596D01*
X59425889Y-142810904D01*
X59564326Y-142489971D01*
X59664569Y-142155136D01*
X59725262Y-141810927D01*
X59745585Y-141462000D01*
X59744886Y-141450000D01*
X246274415Y-141450000D01*
X246294738Y-141798929D01*
X246355430Y-142143133D01*
X246355430Y-142143134D01*
X246455672Y-142477965D01*
X246455674Y-142477972D01*
X246588118Y-142785012D01*
X246594111Y-142798904D01*
X246768870Y-143101596D01*
X246977588Y-143381953D01*
X247217442Y-143636183D01*
X247485189Y-143860849D01*
X247777207Y-144052913D01*
X248089549Y-144209777D01*
X248417989Y-144329319D01*
X248417992Y-144329319D01*
X248417993Y-144329320D01*
X248758075Y-144409921D01*
X248758080Y-144409921D01*
X248758086Y-144409923D01*
X249105241Y-144450500D01*
X249105244Y-144450500D01*
X249454756Y-144450500D01*
X249454759Y-144450500D01*
X249801914Y-144409923D01*
X249801920Y-144409921D01*
X249801924Y-144409921D01*
X250028645Y-144356187D01*
X250142011Y-144329319D01*
X250470451Y-144209777D01*
X250782793Y-144052913D01*
X251074811Y-143860849D01*
X251342558Y-143636183D01*
X251582412Y-143381953D01*
X251791130Y-143101596D01*
X251965889Y-142798904D01*
X252104326Y-142477971D01*
X252204569Y-142143136D01*
X252265262Y-141798927D01*
X252285585Y-141450000D01*
X252265262Y-141101073D01*
X252204569Y-140756864D01*
X252104326Y-140422029D01*
X251965889Y-140101096D01*
X251791130Y-139798404D01*
X251582412Y-139518047D01*
X251342558Y-139263817D01*
X251074811Y-139039151D01*
X250980157Y-138976896D01*
X250782794Y-138847087D01*
X250470453Y-138690224D01*
X250470452Y-138690223D01*
X250470451Y-138690223D01*
X250174981Y-138582681D01*
X250142006Y-138570679D01*
X249801924Y-138490078D01*
X249689089Y-138476889D01*
X249454759Y-138449500D01*
X249105241Y-138449500D01*
X248913950Y-138471858D01*
X248758075Y-138490078D01*
X248417993Y-138570679D01*
X248221191Y-138642309D01*
X248089549Y-138690223D01*
X248089548Y-138690223D01*
X248089546Y-138690224D01*
X247777205Y-138847087D01*
X247485190Y-139039150D01*
X247217443Y-139263815D01*
X246977591Y-139518043D01*
X246768871Y-139798402D01*
X246768869Y-139798405D01*
X246594111Y-140101095D01*
X246594108Y-140101102D01*
X246455674Y-140422027D01*
X246455672Y-140422034D01*
X246355430Y-140756865D01*
X246355430Y-140756866D01*
X246294738Y-141101070D01*
X246274415Y-141450000D01*
X59744886Y-141450000D01*
X59725262Y-141113073D01*
X59664569Y-140768864D01*
X59564326Y-140434029D01*
X59425889Y-140113096D01*
X59251130Y-139810404D01*
X59042412Y-139530047D01*
X58802558Y-139275817D01*
X58534811Y-139051151D01*
X58440157Y-138988896D01*
X58242794Y-138859087D01*
X57930453Y-138702224D01*
X57930452Y-138702223D01*
X57930451Y-138702223D01*
X57602011Y-138582681D01*
X57602012Y-138582681D01*
X57602006Y-138582679D01*
X57261924Y-138502078D01*
X57149089Y-138488889D01*
X56914759Y-138461500D01*
X56565241Y-138461500D01*
X56373950Y-138483858D01*
X56218075Y-138502078D01*
X55877993Y-138582679D01*
X55681191Y-138654309D01*
X55549549Y-138702223D01*
X55549548Y-138702223D01*
X55549546Y-138702224D01*
X55237205Y-138859087D01*
X54945190Y-139051150D01*
X54677443Y-139275815D01*
X54437591Y-139530043D01*
X54228871Y-139810402D01*
X54228869Y-139810405D01*
X54054111Y-140113095D01*
X54054108Y-140113102D01*
X53915674Y-140434027D01*
X53915672Y-140434034D01*
X53815430Y-140768865D01*
X53815430Y-140768866D01*
X53754738Y-141113070D01*
X53734415Y-141462000D01*
X51250870Y-141462000D01*
X51250870Y-126170864D01*
X58955502Y-126170864D01*
X58983928Y-126350341D01*
X59040085Y-126523173D01*
X59117489Y-126675089D01*
X59122585Y-126685089D01*
X59229398Y-126832105D01*
X59357895Y-126960602D01*
X59504911Y-127067415D01*
X59666827Y-127149915D01*
X59839654Y-127206070D01*
X59839655Y-127206070D01*
X59839658Y-127206071D01*
X60019136Y-127234498D01*
X60019139Y-127234498D01*
X60200864Y-127234498D01*
X60380341Y-127206071D01*
X60380342Y-127206070D01*
X60380346Y-127206070D01*
X60553173Y-127149915D01*
X60715089Y-127067415D01*
X60862105Y-126960602D01*
X60990602Y-126832105D01*
X61097415Y-126685089D01*
X61179915Y-126523173D01*
X61236070Y-126350346D01*
X61264498Y-126170861D01*
X61264498Y-126160864D01*
X244675502Y-126160864D01*
X244703928Y-126340341D01*
X244707179Y-126350346D01*
X244760085Y-126513173D01*
X244842585Y-126675089D01*
X244949398Y-126822105D01*
X245077895Y-126950602D01*
X245224911Y-127057415D01*
X245386827Y-127139915D01*
X245559654Y-127196070D01*
X245559655Y-127196070D01*
X245559658Y-127196071D01*
X245739136Y-127224498D01*
X245739139Y-127224498D01*
X245920864Y-127224498D01*
X246100341Y-127196071D01*
X246100342Y-127196070D01*
X246100346Y-127196070D01*
X246273173Y-127139915D01*
X246435089Y-127057415D01*
X246582105Y-126950602D01*
X246710602Y-126822105D01*
X246817415Y-126675089D01*
X246899915Y-126513173D01*
X246956070Y-126340346D01*
X246982914Y-126170864D01*
X246984498Y-126160864D01*
X246984498Y-125979135D01*
X246956071Y-125799658D01*
X246956070Y-125799654D01*
X246899915Y-125626827D01*
X246817415Y-125464911D01*
X246710602Y-125317895D01*
X246582105Y-125189398D01*
X246435089Y-125082585D01*
X246435088Y-125082584D01*
X246435086Y-125082583D01*
X246273173Y-125000085D01*
X246100341Y-124943928D01*
X245920864Y-124915502D01*
X245920861Y-124915502D01*
X245739139Y-124915502D01*
X245739136Y-124915502D01*
X245559658Y-124943928D01*
X245386826Y-125000085D01*
X245224913Y-125082583D01*
X245160269Y-125129550D01*
X245077895Y-125189398D01*
X244949398Y-125317895D01*
X244942133Y-125327895D01*
X244842583Y-125464913D01*
X244760085Y-125626826D01*
X244703928Y-125799658D01*
X244675502Y-125979135D01*
X244675502Y-126160864D01*
X61264498Y-126160864D01*
X61264498Y-125989139D01*
X61264498Y-125989135D01*
X61236071Y-125809658D01*
X61232822Y-125799658D01*
X61179915Y-125636827D01*
X61167831Y-125613110D01*
X148752501Y-125613110D01*
X148860568Y-125649793D01*
X149143428Y-125706058D01*
X149431200Y-125724920D01*
X149718971Y-125706058D01*
X150001830Y-125649794D01*
X150109896Y-125613110D01*
X149428429Y-124931643D01*
X149416099Y-124939881D01*
X149412293Y-124951596D01*
X149402204Y-124963409D01*
X148752502Y-125613110D01*
X148752501Y-125613110D01*
X61167831Y-125613110D01*
X61097415Y-125474911D01*
X60990602Y-125327895D01*
X60862105Y-125199398D01*
X60715089Y-125092585D01*
X60715088Y-125092584D01*
X60715086Y-125092583D01*
X60553173Y-125010085D01*
X60380341Y-124953928D01*
X60200864Y-124925502D01*
X60200861Y-124925502D01*
X60019139Y-124925502D01*
X60019136Y-124925502D01*
X59839658Y-124953928D01*
X59666826Y-125010085D01*
X59504913Y-125092583D01*
X59468289Y-125119192D01*
X59357895Y-125199398D01*
X59229398Y-125327895D01*
X59175991Y-125401403D01*
X59122583Y-125474913D01*
X59040085Y-125636826D01*
X58983928Y-125809658D01*
X58955502Y-125989135D01*
X58955502Y-126170864D01*
X51250870Y-126170864D01*
X51250870Y-124080003D01*
X52800450Y-124080003D01*
X52820807Y-124286703D01*
X52820808Y-124286708D01*
X52881103Y-124485472D01*
X52881105Y-124485477D01*
X52979008Y-124668642D01*
X52979014Y-124668651D01*
X52979016Y-124668654D01*
X53033963Y-124735607D01*
X53110780Y-124829210D01*
X53110789Y-124829219D01*
X53185671Y-124890672D01*
X53271346Y-124960984D01*
X53271350Y-124960986D01*
X53271357Y-124960991D01*
X53435817Y-125048896D01*
X53454528Y-125058897D01*
X53581812Y-125097508D01*
X53653291Y-125119191D01*
X53653296Y-125119192D01*
X53859997Y-125139550D01*
X53860000Y-125139550D01*
X53860003Y-125139550D01*
X54066703Y-125119192D01*
X54066708Y-125119191D01*
X54072629Y-125117395D01*
X54265472Y-125058897D01*
X54356793Y-125010085D01*
X54448642Y-124960991D01*
X54448645Y-124960988D01*
X54448654Y-124960984D01*
X54609215Y-124829215D01*
X54740984Y-124668654D01*
X54740988Y-124668645D01*
X54740991Y-124668642D01*
X54831857Y-124498642D01*
X54838897Y-124485472D01*
X54899191Y-124286708D01*
X54899192Y-124286703D01*
X54919550Y-124080003D01*
X54919550Y-124080000D01*
X65201108Y-124080000D01*
X65220840Y-124292945D01*
X65279366Y-124498642D01*
X65334884Y-124610139D01*
X65765543Y-124179479D01*
X65800937Y-124311571D01*
X65879922Y-124448377D01*
X65991623Y-124560078D01*
X66128429Y-124639063D01*
X66260517Y-124674455D01*
X65827465Y-125107508D01*
X65843432Y-125117395D01*
X65843436Y-125117397D01*
X66042856Y-125194652D01*
X66253071Y-125233948D01*
X66466929Y-125233948D01*
X66677143Y-125194652D01*
X66876562Y-125117397D01*
X66876564Y-125117397D01*
X66892533Y-125107508D01*
X66459481Y-124674456D01*
X66591571Y-124639063D01*
X66728377Y-124560078D01*
X66840078Y-124448377D01*
X66919063Y-124311571D01*
X66954456Y-124179481D01*
X67385114Y-124610139D01*
X67440633Y-124498642D01*
X67499159Y-124292945D01*
X67518891Y-124080000D01*
X67499159Y-123867054D01*
X67440633Y-123661357D01*
X67385114Y-123549859D01*
X66954455Y-123980517D01*
X66919063Y-123848429D01*
X66840078Y-123711623D01*
X66728377Y-123599922D01*
X66591571Y-123520937D01*
X66588820Y-123520200D01*
X147226480Y-123520200D01*
X147245341Y-123807971D01*
X147301604Y-124090824D01*
X147338288Y-124198896D01*
X147908769Y-123628415D01*
X148056200Y-123628415D01*
X148090057Y-123842180D01*
X148156937Y-124048017D01*
X148255194Y-124240857D01*
X148382409Y-124415953D01*
X148535447Y-124568991D01*
X148710543Y-124696206D01*
X148903383Y-124794463D01*
X149109220Y-124861343D01*
X149322985Y-124895200D01*
X149539415Y-124895200D01*
X149753180Y-124861343D01*
X149959017Y-124794463D01*
X150151857Y-124696206D01*
X150326953Y-124568991D01*
X150479991Y-124415953D01*
X150607206Y-124240857D01*
X150705463Y-124048017D01*
X150772343Y-123842180D01*
X150806200Y-123628415D01*
X150806200Y-123517429D01*
X150842643Y-123517429D01*
X151524110Y-124198896D01*
X151560794Y-124090830D01*
X151617058Y-123807971D01*
X151635920Y-123520200D01*
X153925978Y-123520200D01*
X153944843Y-123808036D01*
X154001120Y-124090959D01*
X154093840Y-124364100D01*
X154093845Y-124364111D01*
X154221422Y-124622811D01*
X154381677Y-124862650D01*
X154381687Y-124862663D01*
X154545010Y-125048896D01*
X154571873Y-125079527D01*
X154571881Y-125079534D01*
X154571882Y-125079535D01*
X154788736Y-125269712D01*
X154788743Y-125269717D01*
X154788746Y-125269720D01*
X155028589Y-125429978D01*
X155287298Y-125557559D01*
X155416859Y-125601539D01*
X155560440Y-125650279D01*
X155560442Y-125650279D01*
X155560447Y-125650281D01*
X155843361Y-125706556D01*
X156131200Y-125725422D01*
X156419039Y-125706556D01*
X156701953Y-125650281D01*
X156975102Y-125557559D01*
X157233811Y-125429978D01*
X157473654Y-125269720D01*
X157690527Y-125079527D01*
X157880720Y-124862654D01*
X158040978Y-124622811D01*
X158168559Y-124364102D01*
X158261281Y-124090953D01*
X158265448Y-124070003D01*
X238520450Y-124070003D01*
X238540807Y-124276703D01*
X238540808Y-124276708D01*
X238601103Y-124475472D01*
X238601105Y-124475477D01*
X238699008Y-124658642D01*
X238699014Y-124658651D01*
X238699016Y-124658654D01*
X238707223Y-124668654D01*
X238830780Y-124819210D01*
X238830789Y-124819219D01*
X238905671Y-124880672D01*
X238991346Y-124950984D01*
X238991350Y-124950986D01*
X238991357Y-124950991D01*
X239174522Y-125048894D01*
X239174528Y-125048897D01*
X239312997Y-125090900D01*
X239373291Y-125109191D01*
X239373296Y-125109192D01*
X239579997Y-125129550D01*
X239580000Y-125129550D01*
X239580003Y-125129550D01*
X239786703Y-125109192D01*
X239786708Y-125109191D01*
X239792629Y-125107395D01*
X239985472Y-125048897D01*
X240145409Y-124963409D01*
X240168642Y-124950991D01*
X240168645Y-124950988D01*
X240168654Y-124950984D01*
X240329215Y-124819215D01*
X240460984Y-124658654D01*
X240460988Y-124658645D01*
X240460991Y-124658642D01*
X240558894Y-124475477D01*
X240558897Y-124475472D01*
X240619191Y-124276708D01*
X240619192Y-124276703D01*
X240639550Y-124070003D01*
X240639550Y-124070000D01*
X250921108Y-124070000D01*
X250940840Y-124282945D01*
X250999366Y-124488642D01*
X251054884Y-124600139D01*
X251485543Y-124169479D01*
X251520937Y-124301571D01*
X251599922Y-124438377D01*
X251711623Y-124550078D01*
X251848429Y-124629063D01*
X251980517Y-124664455D01*
X251547465Y-125097508D01*
X251563432Y-125107395D01*
X251563436Y-125107397D01*
X251762856Y-125184652D01*
X251973071Y-125223948D01*
X252186929Y-125223948D01*
X252397143Y-125184652D01*
X252596562Y-125107397D01*
X252596564Y-125107397D01*
X252612533Y-125097508D01*
X252179481Y-124664456D01*
X252311571Y-124629063D01*
X252448377Y-124550078D01*
X252560078Y-124438377D01*
X252639063Y-124301571D01*
X252674456Y-124169481D01*
X253105114Y-124600139D01*
X253160633Y-124488642D01*
X253219159Y-124282945D01*
X253238891Y-124070000D01*
X253219159Y-123857054D01*
X253160633Y-123651357D01*
X253105114Y-123539859D01*
X252674455Y-123970517D01*
X252639063Y-123838429D01*
X252560078Y-123701623D01*
X252448377Y-123589922D01*
X252311571Y-123510937D01*
X252179479Y-123475543D01*
X252612533Y-123042490D01*
X252596566Y-123032603D01*
X252397143Y-122955347D01*
X252186929Y-122916052D01*
X251973071Y-122916052D01*
X251762856Y-122955347D01*
X251563437Y-123032601D01*
X251563429Y-123032605D01*
X251547465Y-123042490D01*
X251980518Y-123475543D01*
X251848429Y-123510937D01*
X251711623Y-123589922D01*
X251599922Y-123701623D01*
X251520937Y-123838429D01*
X251485543Y-123970518D01*
X251054884Y-123539859D01*
X251054883Y-123539859D01*
X250999367Y-123651352D01*
X250940840Y-123857054D01*
X250921108Y-124070000D01*
X240639550Y-124070000D01*
X240639550Y-124069996D01*
X240619192Y-123863296D01*
X240619191Y-123863291D01*
X240573183Y-123711623D01*
X240558897Y-123664528D01*
X240557202Y-123661357D01*
X240460991Y-123481357D01*
X240460986Y-123481350D01*
X240460984Y-123481346D01*
X240390672Y-123395671D01*
X240329219Y-123320789D01*
X240329210Y-123320780D01*
X240221470Y-123232361D01*
X240168654Y-123189016D01*
X240168651Y-123189014D01*
X240168642Y-123189008D01*
X239985477Y-123091105D01*
X239985472Y-123091103D01*
X239786708Y-123030808D01*
X239786703Y-123030807D01*
X239580003Y-123010450D01*
X239579997Y-123010450D01*
X239373296Y-123030807D01*
X239373291Y-123030808D01*
X239174527Y-123091103D01*
X239174522Y-123091105D01*
X238991357Y-123189008D01*
X238991347Y-123189015D01*
X238830789Y-123320780D01*
X238830780Y-123320789D01*
X238699015Y-123481347D01*
X238699008Y-123481357D01*
X238601105Y-123664522D01*
X238601103Y-123664527D01*
X238540808Y-123863291D01*
X238540807Y-123863296D01*
X238520450Y-124069996D01*
X238520450Y-124070003D01*
X158265448Y-124070003D01*
X158317556Y-123808039D01*
X158336422Y-123520200D01*
X158334521Y-123491204D01*
X158317556Y-123232363D01*
X158310923Y-123199015D01*
X158261281Y-122949447D01*
X158253339Y-122926052D01*
X158168559Y-122676299D01*
X158168554Y-122676288D01*
X158067519Y-122471409D01*
X158040978Y-122417589D01*
X157880720Y-122177746D01*
X157880717Y-122177743D01*
X157880712Y-122177736D01*
X157690535Y-121960882D01*
X157690534Y-121960881D01*
X157690527Y-121960873D01*
X157690517Y-121960864D01*
X157473663Y-121770687D01*
X157473650Y-121770677D01*
X157233811Y-121610422D01*
X156975111Y-121482845D01*
X156975100Y-121482840D01*
X156701959Y-121390120D01*
X156419036Y-121333843D01*
X156131200Y-121314978D01*
X155843363Y-121333843D01*
X155560440Y-121390120D01*
X155287299Y-121482840D01*
X155287288Y-121482845D01*
X155028588Y-121610422D01*
X154788749Y-121770677D01*
X154788736Y-121770687D01*
X154571882Y-121960864D01*
X154571864Y-121960882D01*
X154381687Y-122177736D01*
X154381677Y-122177749D01*
X154221422Y-122417588D01*
X154093845Y-122676288D01*
X154093840Y-122676299D01*
X154001120Y-122949440D01*
X153944843Y-123232363D01*
X153925978Y-123520199D01*
X153925978Y-123520200D01*
X151635920Y-123520200D01*
X151635920Y-123520199D01*
X151617058Y-123232428D01*
X151560793Y-122949568D01*
X151524110Y-122841502D01*
X150874409Y-123491204D01*
X150852814Y-123502206D01*
X150842643Y-123517429D01*
X150806200Y-123517429D01*
X150806200Y-123411985D01*
X150772343Y-123198220D01*
X150705463Y-122992383D01*
X150607206Y-122799543D01*
X150479991Y-122624447D01*
X150326953Y-122471409D01*
X150151857Y-122344194D01*
X149959017Y-122245937D01*
X149753180Y-122179057D01*
X149539415Y-122145200D01*
X149322985Y-122145200D01*
X149109220Y-122179057D01*
X148903383Y-122245937D01*
X148710543Y-122344194D01*
X148535447Y-122471409D01*
X148382409Y-122624447D01*
X148255194Y-122799543D01*
X148156937Y-122992383D01*
X148090057Y-123198220D01*
X148056200Y-123411985D01*
X148056200Y-123628415D01*
X147908769Y-123628415D01*
X148016985Y-123520199D01*
X147338288Y-122841502D01*
X147301604Y-122949575D01*
X147245341Y-123232428D01*
X147226480Y-123520199D01*
X147226480Y-123520200D01*
X66588820Y-123520200D01*
X66459479Y-123485543D01*
X66892533Y-123052490D01*
X66876566Y-123042603D01*
X66677143Y-122965347D01*
X66466929Y-122926052D01*
X66253071Y-122926052D01*
X66042856Y-122965347D01*
X65843437Y-123042601D01*
X65843429Y-123042605D01*
X65827465Y-123052490D01*
X66260518Y-123485543D01*
X66128429Y-123520937D01*
X65991623Y-123599922D01*
X65879922Y-123711623D01*
X65800937Y-123848429D01*
X65765543Y-123980518D01*
X65334884Y-123549859D01*
X65334883Y-123549859D01*
X65279367Y-123661352D01*
X65220840Y-123867054D01*
X65201108Y-124080000D01*
X54919550Y-124080000D01*
X54919550Y-124079996D01*
X54899192Y-123873296D01*
X54899191Y-123873291D01*
X54879376Y-123807971D01*
X54838897Y-123674528D01*
X54833552Y-123664528D01*
X54740991Y-123491357D01*
X54740986Y-123491350D01*
X54740984Y-123491346D01*
X54670672Y-123405671D01*
X54609219Y-123330789D01*
X54609210Y-123330780D01*
X54515607Y-123253963D01*
X54448654Y-123199016D01*
X54448651Y-123199014D01*
X54448642Y-123199008D01*
X54265477Y-123101105D01*
X54265472Y-123101103D01*
X54066708Y-123040808D01*
X54066703Y-123040807D01*
X53860003Y-123020450D01*
X53859997Y-123020450D01*
X53653296Y-123040807D01*
X53653291Y-123040808D01*
X53454527Y-123101103D01*
X53454522Y-123101105D01*
X53271357Y-123199008D01*
X53271347Y-123199015D01*
X53110789Y-123330780D01*
X53110780Y-123330789D01*
X52979015Y-123491347D01*
X52979008Y-123491357D01*
X52881105Y-123674522D01*
X52881103Y-123674527D01*
X52820808Y-123873291D01*
X52820807Y-123873296D01*
X52800450Y-124079996D01*
X52800450Y-124080003D01*
X51250870Y-124080003D01*
X51250870Y-121560000D01*
X55890458Y-121560000D01*
X55910502Y-121686554D01*
X55910504Y-121686561D01*
X55968671Y-121800718D01*
X55968674Y-121800723D01*
X56059277Y-121891326D01*
X56059279Y-121891327D01*
X56059281Y-121891328D01*
X56173438Y-121949495D01*
X56173440Y-121949495D01*
X56173445Y-121949498D01*
X56300000Y-121969542D01*
X56426555Y-121949498D01*
X56540723Y-121891326D01*
X56631326Y-121800723D01*
X56689498Y-121686555D01*
X56709542Y-121560000D01*
X56689498Y-121433445D01*
X56689495Y-121433440D01*
X56689495Y-121433438D01*
X56686361Y-121427288D01*
X148752502Y-121427288D01*
X149431199Y-122105985D01*
X150109896Y-121427288D01*
X150001824Y-121390604D01*
X149718971Y-121334341D01*
X149431200Y-121315480D01*
X149143428Y-121334341D01*
X148860575Y-121390604D01*
X148752502Y-121427288D01*
X56686361Y-121427288D01*
X56631328Y-121319281D01*
X56631327Y-121319279D01*
X56631326Y-121319277D01*
X56540723Y-121228674D01*
X56540720Y-121228672D01*
X56540718Y-121228671D01*
X56426561Y-121170504D01*
X56426556Y-121170502D01*
X56426555Y-121170502D01*
X56300000Y-121150458D01*
X56173445Y-121170502D01*
X56173438Y-121170504D01*
X56059281Y-121228671D01*
X56059279Y-121228672D01*
X55968672Y-121319279D01*
X55968671Y-121319281D01*
X55910504Y-121433438D01*
X55910502Y-121433445D01*
X55890458Y-121559999D01*
X55890458Y-121560000D01*
X51250870Y-121560000D01*
X51250870Y-119080003D01*
X52800450Y-119080003D01*
X52820807Y-119286703D01*
X52820808Y-119286708D01*
X52881103Y-119485472D01*
X52881105Y-119485477D01*
X52979008Y-119668642D01*
X52979014Y-119668651D01*
X52979016Y-119668654D01*
X53033963Y-119735607D01*
X53110780Y-119829210D01*
X53110789Y-119829219D01*
X53137493Y-119851134D01*
X53271346Y-119960984D01*
X53271350Y-119960986D01*
X53271357Y-119960991D01*
X53454522Y-120058894D01*
X53454528Y-120058897D01*
X53592997Y-120100900D01*
X53653291Y-120119191D01*
X53653296Y-120119192D01*
X53859997Y-120139550D01*
X53860000Y-120139550D01*
X53860003Y-120139550D01*
X54066703Y-120119192D01*
X54066708Y-120119191D01*
X54265472Y-120058897D01*
X54331146Y-120023793D01*
X54448642Y-119960991D01*
X54448645Y-119960988D01*
X54448654Y-119960984D01*
X54609215Y-119829215D01*
X54740984Y-119668654D01*
X54740988Y-119668645D01*
X54740991Y-119668642D01*
X54803793Y-119551146D01*
X54838897Y-119485472D01*
X54899191Y-119286708D01*
X54899192Y-119286703D01*
X54919550Y-119080003D01*
X65300450Y-119080003D01*
X65320807Y-119286703D01*
X65320808Y-119286708D01*
X65381103Y-119485472D01*
X65381105Y-119485477D01*
X65479008Y-119668642D01*
X65479014Y-119668651D01*
X65479016Y-119668654D01*
X65533963Y-119735607D01*
X65610780Y-119829210D01*
X65610789Y-119829219D01*
X65637493Y-119851134D01*
X65771346Y-119960984D01*
X65771350Y-119960986D01*
X65771357Y-119960991D01*
X65954522Y-120058894D01*
X65954528Y-120058897D01*
X66092997Y-120100900D01*
X66153291Y-120119191D01*
X66153296Y-120119192D01*
X66359997Y-120139550D01*
X66360000Y-120139550D01*
X66360003Y-120139550D01*
X66566703Y-120119192D01*
X66566708Y-120119191D01*
X66765472Y-120058897D01*
X66831146Y-120023793D01*
X66948642Y-119960991D01*
X66948645Y-119960988D01*
X66948654Y-119960984D01*
X67109215Y-119829215D01*
X67240984Y-119668654D01*
X67240988Y-119668645D01*
X67240991Y-119668642D01*
X67303793Y-119551146D01*
X67338897Y-119485472D01*
X67399191Y-119286708D01*
X67399192Y-119286703D01*
X67419550Y-119080003D01*
X67419550Y-119079996D01*
X67399192Y-118873296D01*
X67399191Y-118873291D01*
X67358843Y-118740282D01*
X67338897Y-118674528D01*
X67333552Y-118664528D01*
X67240991Y-118491357D01*
X67240986Y-118491350D01*
X67240984Y-118491346D01*
X67199009Y-118440200D01*
X137025729Y-118440200D01*
X137045579Y-118679761D01*
X137045579Y-118679762D01*
X137100536Y-118896782D01*
X137104590Y-118912791D01*
X137150243Y-119016870D01*
X137201150Y-119132927D01*
X137201153Y-119132932D01*
X137332625Y-119334164D01*
X137332627Y-119334166D01*
X137332629Y-119334169D01*
X137495436Y-119511025D01*
X137685133Y-119658672D01*
X137896544Y-119773082D01*
X138123903Y-119851134D01*
X138361008Y-119890700D01*
X138601392Y-119890700D01*
X138838497Y-119851134D01*
X139065856Y-119773082D01*
X139277267Y-119658672D01*
X139466964Y-119511025D01*
X139629771Y-119334169D01*
X139761249Y-119132928D01*
X139857810Y-118912791D01*
X139916820Y-118679763D01*
X139932462Y-118491000D01*
X158322778Y-118491000D01*
X158341643Y-118778836D01*
X158397920Y-119061759D01*
X158490640Y-119334900D01*
X158490645Y-119334911D01*
X158618222Y-119593611D01*
X158778477Y-119833450D01*
X158778487Y-119833463D01*
X158881551Y-119950984D01*
X158968673Y-120050327D01*
X158968681Y-120050334D01*
X158968682Y-120050335D01*
X159185536Y-120240512D01*
X159185543Y-120240517D01*
X159185546Y-120240520D01*
X159425389Y-120400778D01*
X159684098Y-120528359D01*
X159813659Y-120572339D01*
X159957240Y-120621079D01*
X159957242Y-120621079D01*
X159957247Y-120621081D01*
X160240161Y-120677356D01*
X160528000Y-120696222D01*
X160815839Y-120677356D01*
X161098753Y-120621081D01*
X161371902Y-120528359D01*
X161630611Y-120400778D01*
X161870454Y-120240520D01*
X162087327Y-120050327D01*
X162277520Y-119833454D01*
X162437778Y-119593611D01*
X162565359Y-119334902D01*
X162653319Y-119075779D01*
X162658079Y-119061759D01*
X162658079Y-119061758D01*
X162658081Y-119061753D01*
X162714356Y-118778839D01*
X162733222Y-118491000D01*
X162729892Y-118440200D01*
X165625729Y-118440200D01*
X165645579Y-118679761D01*
X165645579Y-118679762D01*
X165700536Y-118896782D01*
X165704590Y-118912791D01*
X165750243Y-119016870D01*
X165801150Y-119132927D01*
X165801153Y-119132932D01*
X165932625Y-119334164D01*
X165932627Y-119334166D01*
X165932629Y-119334169D01*
X166095436Y-119511025D01*
X166285133Y-119658672D01*
X166496544Y-119773082D01*
X166723903Y-119851134D01*
X166961008Y-119890700D01*
X167201392Y-119890700D01*
X167438497Y-119851134D01*
X167665856Y-119773082D01*
X167877267Y-119658672D01*
X168066964Y-119511025D01*
X168229771Y-119334169D01*
X168361249Y-119132928D01*
X168388850Y-119070003D01*
X238520450Y-119070003D01*
X238540807Y-119276703D01*
X238540808Y-119276708D01*
X238601103Y-119475472D01*
X238601105Y-119475477D01*
X238699008Y-119658642D01*
X238699014Y-119658651D01*
X238699016Y-119658654D01*
X238707223Y-119668654D01*
X238830780Y-119819210D01*
X238830789Y-119819219D01*
X238848130Y-119833450D01*
X238991346Y-119950984D01*
X238991350Y-119950986D01*
X238991357Y-119950991D01*
X239174522Y-120048894D01*
X239174528Y-120048897D01*
X239312997Y-120090900D01*
X239373291Y-120109191D01*
X239373296Y-120109192D01*
X239579997Y-120129550D01*
X239580000Y-120129550D01*
X239580003Y-120129550D01*
X239786703Y-120109192D01*
X239786708Y-120109191D01*
X239985472Y-120048897D01*
X240051146Y-120013793D01*
X240168642Y-119950991D01*
X240168645Y-119950988D01*
X240168654Y-119950984D01*
X240329215Y-119819215D01*
X240460984Y-119658654D01*
X240460988Y-119658645D01*
X240460991Y-119658642D01*
X240558894Y-119475477D01*
X240558897Y-119475472D01*
X240619191Y-119276708D01*
X240619192Y-119276703D01*
X240631671Y-119150000D01*
X244419196Y-119150000D01*
X244440281Y-119283127D01*
X244440282Y-119283129D01*
X244501470Y-119403217D01*
X244501472Y-119403220D01*
X244596780Y-119498528D01*
X244716874Y-119559719D01*
X244850000Y-119580804D01*
X244983126Y-119559719D01*
X245103220Y-119498528D01*
X245198528Y-119403220D01*
X245259719Y-119283126D01*
X245280804Y-119150000D01*
X245268134Y-119070003D01*
X251020450Y-119070003D01*
X251040807Y-119276703D01*
X251040808Y-119276708D01*
X251101103Y-119475472D01*
X251101105Y-119475477D01*
X251199008Y-119658642D01*
X251199014Y-119658651D01*
X251199016Y-119658654D01*
X251207223Y-119668654D01*
X251330780Y-119819210D01*
X251330789Y-119819219D01*
X251348130Y-119833450D01*
X251491346Y-119950984D01*
X251491350Y-119950986D01*
X251491357Y-119950991D01*
X251674522Y-120048894D01*
X251674528Y-120048897D01*
X251812997Y-120090900D01*
X251873291Y-120109191D01*
X251873296Y-120109192D01*
X252079997Y-120129550D01*
X252080000Y-120129550D01*
X252080003Y-120129550D01*
X252286703Y-120109192D01*
X252286708Y-120109191D01*
X252485472Y-120048897D01*
X252551146Y-120013793D01*
X252668642Y-119950991D01*
X252668645Y-119950988D01*
X252668654Y-119950984D01*
X252829215Y-119819215D01*
X252960984Y-119658654D01*
X252960988Y-119658645D01*
X252960991Y-119658642D01*
X253058894Y-119475477D01*
X253058897Y-119475472D01*
X253119191Y-119276708D01*
X253119192Y-119276703D01*
X253139550Y-119070003D01*
X253139550Y-119069996D01*
X253119192Y-118863296D01*
X253119191Y-118863291D01*
X253093572Y-118778836D01*
X253058897Y-118664528D01*
X253058894Y-118664522D01*
X252960991Y-118481357D01*
X252960986Y-118481350D01*
X252960984Y-118481346D01*
X252890672Y-118395671D01*
X252829219Y-118320789D01*
X252829210Y-118320780D01*
X252711889Y-118224498D01*
X252668654Y-118189016D01*
X252668651Y-118189014D01*
X252668642Y-118189008D01*
X252485477Y-118091105D01*
X252485472Y-118091103D01*
X252286708Y-118030808D01*
X252286703Y-118030807D01*
X252080003Y-118010450D01*
X252079997Y-118010450D01*
X251873296Y-118030807D01*
X251873291Y-118030808D01*
X251674527Y-118091103D01*
X251674522Y-118091105D01*
X251491357Y-118189008D01*
X251491347Y-118189015D01*
X251330789Y-118320780D01*
X251330780Y-118320789D01*
X251199015Y-118481347D01*
X251199008Y-118481357D01*
X251101105Y-118664522D01*
X251101103Y-118664527D01*
X251040808Y-118863291D01*
X251040807Y-118863296D01*
X251020450Y-119069996D01*
X251020450Y-119070003D01*
X245268134Y-119070003D01*
X245259719Y-119016874D01*
X245198528Y-118896780D01*
X245103220Y-118801472D01*
X245103217Y-118801470D01*
X244983129Y-118740282D01*
X244983127Y-118740281D01*
X244850000Y-118719196D01*
X244716872Y-118740281D01*
X244716870Y-118740282D01*
X244596782Y-118801470D01*
X244501470Y-118896782D01*
X244440282Y-119016870D01*
X244440281Y-119016872D01*
X244419196Y-119149999D01*
X244419196Y-119150000D01*
X240631671Y-119150000D01*
X240639550Y-119070003D01*
X240639550Y-119069996D01*
X240619192Y-118863296D01*
X240619191Y-118863291D01*
X240593572Y-118778836D01*
X240558897Y-118664528D01*
X240558894Y-118664522D01*
X240460991Y-118481357D01*
X240460986Y-118481350D01*
X240460984Y-118481346D01*
X240390672Y-118395671D01*
X240329219Y-118320789D01*
X240329210Y-118320780D01*
X240211889Y-118224498D01*
X240168654Y-118189016D01*
X240168651Y-118189014D01*
X240168642Y-118189008D01*
X239985477Y-118091105D01*
X239985472Y-118091103D01*
X239786708Y-118030808D01*
X239786703Y-118030807D01*
X239580003Y-118010450D01*
X239579997Y-118010450D01*
X239373296Y-118030807D01*
X239373291Y-118030808D01*
X239174527Y-118091103D01*
X239174522Y-118091105D01*
X238991357Y-118189008D01*
X238991347Y-118189015D01*
X238830789Y-118320780D01*
X238830780Y-118320789D01*
X238699015Y-118481347D01*
X238699008Y-118481357D01*
X238601105Y-118664522D01*
X238601103Y-118664527D01*
X238540808Y-118863291D01*
X238540807Y-118863296D01*
X238520450Y-119069996D01*
X238520450Y-119070003D01*
X168388850Y-119070003D01*
X168457810Y-118912791D01*
X168516820Y-118679763D01*
X168536671Y-118440200D01*
X168516820Y-118200637D01*
X168457810Y-117967609D01*
X168361249Y-117747472D01*
X168229771Y-117546231D01*
X168066964Y-117369375D01*
X167877267Y-117221728D01*
X167783279Y-117170864D01*
X167764801Y-117160864D01*
X244675502Y-117160864D01*
X244703928Y-117340341D01*
X244760085Y-117513173D01*
X244828317Y-117647088D01*
X244842585Y-117675089D01*
X244949398Y-117822105D01*
X245077895Y-117950602D01*
X245224911Y-118057415D01*
X245386827Y-118139915D01*
X245559654Y-118196070D01*
X245559655Y-118196070D01*
X245559658Y-118196071D01*
X245739136Y-118224498D01*
X245739139Y-118224498D01*
X245920864Y-118224498D01*
X246100341Y-118196071D01*
X246100342Y-118196070D01*
X246100346Y-118196070D01*
X246273173Y-118139915D01*
X246435089Y-118057415D01*
X246582105Y-117950602D01*
X246710602Y-117822105D01*
X246817415Y-117675089D01*
X246899915Y-117513173D01*
X246956070Y-117340346D01*
X246956071Y-117340341D01*
X246984498Y-117160864D01*
X246984498Y-116979135D01*
X246956071Y-116799658D01*
X246903164Y-116636827D01*
X246899915Y-116626827D01*
X246817415Y-116464911D01*
X246710602Y-116317895D01*
X246582105Y-116189398D01*
X246435089Y-116082585D01*
X246435088Y-116082584D01*
X246435086Y-116082583D01*
X246273173Y-116000085D01*
X246100341Y-115943928D01*
X245920864Y-115915502D01*
X245920861Y-115915502D01*
X245739139Y-115915502D01*
X245739136Y-115915502D01*
X245559658Y-115943928D01*
X245386826Y-116000085D01*
X245224913Y-116082583D01*
X245211147Y-116092585D01*
X245077895Y-116189398D01*
X244949398Y-116317895D01*
X244918139Y-116360920D01*
X244842583Y-116464913D01*
X244760085Y-116626826D01*
X244703928Y-116799658D01*
X244675502Y-116979135D01*
X244675502Y-117160864D01*
X167764801Y-117160864D01*
X167665859Y-117107319D01*
X167648996Y-117101530D01*
X167438497Y-117029266D01*
X167438494Y-117029265D01*
X167438493Y-117029265D01*
X167201392Y-116989700D01*
X166961008Y-116989700D01*
X166723906Y-117029265D01*
X166496540Y-117107319D01*
X166285132Y-117221728D01*
X166285129Y-117221730D01*
X166095439Y-117369372D01*
X166095436Y-117369374D01*
X166095436Y-117369375D01*
X166025661Y-117445170D01*
X165932625Y-117546235D01*
X165801153Y-117747467D01*
X165801150Y-117747472D01*
X165704588Y-117967614D01*
X165645579Y-118200637D01*
X165645579Y-118200638D01*
X165625729Y-118440200D01*
X162729892Y-118440200D01*
X162714356Y-118203161D01*
X162658081Y-117920247D01*
X162624766Y-117822106D01*
X162609339Y-117776659D01*
X162565359Y-117647098D01*
X162437778Y-117388389D01*
X162277520Y-117148546D01*
X162277517Y-117148543D01*
X162277512Y-117148536D01*
X162087335Y-116931682D01*
X162087334Y-116931681D01*
X162087327Y-116931673D01*
X162087317Y-116931664D01*
X161870463Y-116741487D01*
X161870450Y-116741477D01*
X161630611Y-116581222D01*
X161371911Y-116453645D01*
X161371900Y-116453640D01*
X161098759Y-116360920D01*
X160815836Y-116304643D01*
X160528000Y-116285778D01*
X160240163Y-116304643D01*
X159957240Y-116360920D01*
X159684099Y-116453640D01*
X159684088Y-116453645D01*
X159425388Y-116581222D01*
X159185549Y-116741477D01*
X159185536Y-116741487D01*
X158968682Y-116931664D01*
X158968664Y-116931682D01*
X158778487Y-117148536D01*
X158778477Y-117148549D01*
X158618222Y-117388388D01*
X158490645Y-117647088D01*
X158490640Y-117647099D01*
X158397920Y-117920240D01*
X158341643Y-118203163D01*
X158322778Y-118490999D01*
X158322778Y-118491000D01*
X139932462Y-118491000D01*
X139936671Y-118440200D01*
X139916820Y-118200637D01*
X139857810Y-117967609D01*
X139761249Y-117747472D01*
X139629771Y-117546231D01*
X139466964Y-117369375D01*
X139277267Y-117221728D01*
X139183279Y-117170864D01*
X139065859Y-117107319D01*
X139048996Y-117101530D01*
X138838497Y-117029266D01*
X138838494Y-117029265D01*
X138838493Y-117029265D01*
X138601392Y-116989700D01*
X138361008Y-116989700D01*
X138123906Y-117029265D01*
X137896540Y-117107319D01*
X137685132Y-117221728D01*
X137685129Y-117221730D01*
X137495439Y-117369372D01*
X137495436Y-117369374D01*
X137495436Y-117369375D01*
X137425661Y-117445170D01*
X137332625Y-117546235D01*
X137201153Y-117747467D01*
X137201150Y-117747472D01*
X137104588Y-117967614D01*
X137045579Y-118200637D01*
X137045579Y-118200638D01*
X137025729Y-118440200D01*
X67199009Y-118440200D01*
X67170672Y-118405671D01*
X67109219Y-118330789D01*
X67109210Y-118330780D01*
X66991889Y-118234498D01*
X66948654Y-118199016D01*
X66948651Y-118199014D01*
X66948642Y-118199008D01*
X66765477Y-118101105D01*
X66765472Y-118101103D01*
X66566708Y-118040808D01*
X66566703Y-118040807D01*
X66360003Y-118020450D01*
X66359997Y-118020450D01*
X66153296Y-118040807D01*
X66153291Y-118040808D01*
X65954527Y-118101103D01*
X65954522Y-118101105D01*
X65771357Y-118199008D01*
X65771347Y-118199015D01*
X65610789Y-118330780D01*
X65610780Y-118330789D01*
X65479015Y-118491347D01*
X65479008Y-118491357D01*
X65381105Y-118674522D01*
X65381103Y-118674527D01*
X65320808Y-118873291D01*
X65320807Y-118873296D01*
X65300450Y-119079996D01*
X65300450Y-119080003D01*
X54919550Y-119080003D01*
X54919550Y-119079996D01*
X54899192Y-118873296D01*
X54899191Y-118873291D01*
X54858843Y-118740282D01*
X54838897Y-118674528D01*
X54833552Y-118664528D01*
X54740991Y-118491357D01*
X54740986Y-118491350D01*
X54740984Y-118491346D01*
X54670672Y-118405671D01*
X54609219Y-118330789D01*
X54609210Y-118330780D01*
X54491889Y-118234498D01*
X54448654Y-118199016D01*
X54448651Y-118199014D01*
X54448642Y-118199008D01*
X54265477Y-118101105D01*
X54265472Y-118101103D01*
X54066708Y-118040808D01*
X54066703Y-118040807D01*
X53860003Y-118020450D01*
X53859997Y-118020450D01*
X53653296Y-118040807D01*
X53653291Y-118040808D01*
X53454527Y-118101103D01*
X53454522Y-118101105D01*
X53271357Y-118199008D01*
X53271347Y-118199015D01*
X53110789Y-118330780D01*
X53110780Y-118330789D01*
X52979015Y-118491347D01*
X52979008Y-118491357D01*
X52881105Y-118674522D01*
X52881103Y-118674527D01*
X52820808Y-118873291D01*
X52820807Y-118873296D01*
X52800450Y-119079996D01*
X52800450Y-119080003D01*
X51250870Y-119080003D01*
X51250870Y-117170864D01*
X58955502Y-117170864D01*
X58983928Y-117350341D01*
X59040085Y-117523173D01*
X59117489Y-117675089D01*
X59122585Y-117685089D01*
X59229398Y-117832105D01*
X59357895Y-117960602D01*
X59504911Y-118067415D01*
X59666827Y-118149915D01*
X59839654Y-118206070D01*
X59839655Y-118206070D01*
X59839658Y-118206071D01*
X60019136Y-118234498D01*
X60019139Y-118234498D01*
X60200864Y-118234498D01*
X60380341Y-118206071D01*
X60380342Y-118206070D01*
X60380346Y-118206070D01*
X60553173Y-118149915D01*
X60715089Y-118067415D01*
X60862105Y-117960602D01*
X60990602Y-117832105D01*
X61097415Y-117685089D01*
X61179915Y-117523173D01*
X61236070Y-117350346D01*
X61256441Y-117221730D01*
X61264498Y-117170864D01*
X61264498Y-116989135D01*
X61236071Y-116809658D01*
X61232822Y-116799658D01*
X61179915Y-116636827D01*
X61097415Y-116474911D01*
X60990602Y-116327895D01*
X60862105Y-116199398D01*
X60715089Y-116092585D01*
X60715088Y-116092584D01*
X60715086Y-116092583D01*
X60553173Y-116010085D01*
X60380341Y-115953928D01*
X60200864Y-115925502D01*
X60200861Y-115925502D01*
X60019139Y-115925502D01*
X60019136Y-115925502D01*
X59839658Y-115953928D01*
X59666826Y-116010085D01*
X59504913Y-116092583D01*
X59431403Y-116145991D01*
X59357895Y-116199398D01*
X59229398Y-116327895D01*
X59205405Y-116360919D01*
X59122583Y-116474913D01*
X59040085Y-116636826D01*
X58983928Y-116809658D01*
X58955502Y-116989135D01*
X58955502Y-117170864D01*
X51250870Y-117170864D01*
X51250870Y-115650000D01*
X107669196Y-115650000D01*
X107690281Y-115783127D01*
X107690282Y-115783129D01*
X107745104Y-115890723D01*
X107751472Y-115903220D01*
X107846780Y-115998528D01*
X107966874Y-116059719D01*
X108100000Y-116080804D01*
X108233126Y-116059719D01*
X108353220Y-115998528D01*
X108448528Y-115903220D01*
X108509719Y-115783126D01*
X108530804Y-115650000D01*
X108990458Y-115650000D01*
X109010502Y-115776554D01*
X109010504Y-115776561D01*
X109068671Y-115890718D01*
X109068674Y-115890723D01*
X109159277Y-115981326D01*
X109159279Y-115981327D01*
X109159281Y-115981328D01*
X109273438Y-116039495D01*
X109273440Y-116039495D01*
X109273445Y-116039498D01*
X109400000Y-116059542D01*
X109526555Y-116039498D01*
X109640723Y-115981326D01*
X109731326Y-115890723D01*
X109789498Y-115776555D01*
X109809542Y-115650000D01*
X109789498Y-115523445D01*
X109789495Y-115523440D01*
X109789495Y-115523438D01*
X109731328Y-115409281D01*
X109731327Y-115409279D01*
X109731326Y-115409277D01*
X109640723Y-115318674D01*
X109640720Y-115318672D01*
X109640718Y-115318671D01*
X109526561Y-115260504D01*
X109526556Y-115260502D01*
X109526555Y-115260502D01*
X109400000Y-115240458D01*
X109273445Y-115260502D01*
X109273438Y-115260504D01*
X109159281Y-115318671D01*
X109159279Y-115318672D01*
X109068672Y-115409279D01*
X109068671Y-115409281D01*
X109010504Y-115523438D01*
X109010502Y-115523445D01*
X108990458Y-115649999D01*
X108990458Y-115650000D01*
X108530804Y-115650000D01*
X108509719Y-115516874D01*
X108448528Y-115396780D01*
X108353220Y-115301472D01*
X108353217Y-115301470D01*
X108233129Y-115240282D01*
X108233127Y-115240281D01*
X108100000Y-115219196D01*
X107966872Y-115240281D01*
X107966870Y-115240282D01*
X107846782Y-115301470D01*
X107751470Y-115396782D01*
X107690282Y-115516870D01*
X107690281Y-115516872D01*
X107669196Y-115649999D01*
X107669196Y-115650000D01*
X51250870Y-115650000D01*
X51250870Y-114350000D01*
X107669196Y-114350000D01*
X107690281Y-114483127D01*
X107690282Y-114483129D01*
X107745104Y-114590723D01*
X107751472Y-114603220D01*
X107846780Y-114698528D01*
X107966874Y-114759719D01*
X108100000Y-114780804D01*
X108233126Y-114759719D01*
X108353220Y-114698528D01*
X108448528Y-114603220D01*
X108509719Y-114483126D01*
X108530804Y-114350000D01*
X108990458Y-114350000D01*
X109010502Y-114476554D01*
X109010504Y-114476561D01*
X109068671Y-114590718D01*
X109068674Y-114590723D01*
X109159277Y-114681326D01*
X109159279Y-114681327D01*
X109159281Y-114681328D01*
X109273438Y-114739495D01*
X109273440Y-114739495D01*
X109273445Y-114739498D01*
X109400000Y-114759542D01*
X109526555Y-114739498D01*
X109640723Y-114681326D01*
X109731326Y-114590723D01*
X109789498Y-114476555D01*
X109809542Y-114350000D01*
X109789498Y-114223445D01*
X109789495Y-114223440D01*
X109789495Y-114223438D01*
X109731328Y-114109281D01*
X109731327Y-114109279D01*
X109731326Y-114109277D01*
X109640723Y-114018674D01*
X109640720Y-114018672D01*
X109640718Y-114018671D01*
X109526561Y-113960504D01*
X109526556Y-113960502D01*
X109526555Y-113960502D01*
X109400000Y-113940458D01*
X109273445Y-113960502D01*
X109273438Y-113960504D01*
X109159281Y-114018671D01*
X109159279Y-114018672D01*
X109068672Y-114109279D01*
X109068671Y-114109281D01*
X109010504Y-114223438D01*
X109010502Y-114223445D01*
X108990458Y-114349999D01*
X108990458Y-114350000D01*
X108530804Y-114350000D01*
X108509719Y-114216874D01*
X108448528Y-114096780D01*
X108353220Y-114001472D01*
X108353217Y-114001470D01*
X108233129Y-113940282D01*
X108233127Y-113940281D01*
X108100000Y-113919196D01*
X107966872Y-113940281D01*
X107966870Y-113940282D01*
X107846782Y-114001470D01*
X107751470Y-114096782D01*
X107690282Y-114216870D01*
X107690281Y-114216872D01*
X107669196Y-114349999D01*
X107669196Y-114350000D01*
X51250870Y-114350000D01*
X51250870Y-113150000D01*
X107669196Y-113150000D01*
X107690281Y-113283127D01*
X107690282Y-113283129D01*
X107742149Y-113384923D01*
X107751472Y-113403220D01*
X107846780Y-113498528D01*
X107966874Y-113559719D01*
X108100000Y-113580804D01*
X108233126Y-113559719D01*
X108353220Y-113498528D01*
X108448528Y-113403220D01*
X108509719Y-113283126D01*
X108530804Y-113150000D01*
X108529885Y-113144200D01*
X108990458Y-113144200D01*
X109010502Y-113270754D01*
X109010504Y-113270761D01*
X109068671Y-113384918D01*
X109068674Y-113384923D01*
X109159277Y-113475526D01*
X109159279Y-113475527D01*
X109159281Y-113475528D01*
X109273438Y-113533695D01*
X109273440Y-113533695D01*
X109273445Y-113533698D01*
X109400000Y-113553742D01*
X109526555Y-113533698D01*
X109640723Y-113475526D01*
X109731326Y-113384923D01*
X109743923Y-113360200D01*
X147225978Y-113360200D01*
X147244843Y-113648036D01*
X147301120Y-113930959D01*
X147393840Y-114204100D01*
X147393845Y-114204111D01*
X147521422Y-114462811D01*
X147681677Y-114702650D01*
X147681687Y-114702663D01*
X147871864Y-114919517D01*
X147871873Y-114919527D01*
X147871881Y-114919534D01*
X147871882Y-114919535D01*
X148088736Y-115109712D01*
X148088743Y-115109717D01*
X148088746Y-115109720D01*
X148328589Y-115269978D01*
X148587298Y-115397559D01*
X148621830Y-115409281D01*
X148860440Y-115490279D01*
X148860442Y-115490279D01*
X148860447Y-115490281D01*
X149143361Y-115546556D01*
X149431200Y-115565422D01*
X149719039Y-115546556D01*
X150001953Y-115490281D01*
X150275102Y-115397559D01*
X150533811Y-115269978D01*
X150773654Y-115109720D01*
X150990527Y-114919527D01*
X151180720Y-114702654D01*
X151340978Y-114462811D01*
X151468559Y-114204102D01*
X151561281Y-113930953D01*
X151617556Y-113648039D01*
X151636422Y-113360200D01*
X153925978Y-113360200D01*
X153944843Y-113648036D01*
X154001120Y-113930959D01*
X154093840Y-114204100D01*
X154093845Y-114204111D01*
X154221422Y-114462811D01*
X154381677Y-114702650D01*
X154381687Y-114702663D01*
X154571864Y-114919517D01*
X154571873Y-114919527D01*
X154571881Y-114919534D01*
X154571882Y-114919535D01*
X154788736Y-115109712D01*
X154788743Y-115109717D01*
X154788746Y-115109720D01*
X155028589Y-115269978D01*
X155287298Y-115397559D01*
X155321830Y-115409281D01*
X155560440Y-115490279D01*
X155560442Y-115490279D01*
X155560447Y-115490281D01*
X155843361Y-115546556D01*
X156131200Y-115565422D01*
X156419039Y-115546556D01*
X156701953Y-115490281D01*
X156975102Y-115397559D01*
X157233811Y-115269978D01*
X157473654Y-115109720D01*
X157690527Y-114919527D01*
X157880720Y-114702654D01*
X158040978Y-114462811D01*
X158168559Y-114204102D01*
X158261281Y-113930953D01*
X158317556Y-113648039D01*
X158336422Y-113360200D01*
X158331370Y-113283129D01*
X158322265Y-113144200D01*
X158317556Y-113072361D01*
X158261281Y-112789447D01*
X158249487Y-112754704D01*
X158168559Y-112516299D01*
X158168554Y-112516288D01*
X158040978Y-112257589D01*
X157880720Y-112017746D01*
X157880717Y-112017743D01*
X157880712Y-112017736D01*
X157690535Y-111800882D01*
X157690534Y-111800881D01*
X157690527Y-111800873D01*
X157690517Y-111800864D01*
X157473663Y-111610687D01*
X157473650Y-111610677D01*
X157233811Y-111450422D01*
X156975111Y-111322845D01*
X156975100Y-111322840D01*
X156701959Y-111230120D01*
X156419036Y-111173843D01*
X156131200Y-111154978D01*
X155843363Y-111173843D01*
X155560440Y-111230120D01*
X155287299Y-111322840D01*
X155287288Y-111322845D01*
X155028588Y-111450422D01*
X154788749Y-111610677D01*
X154788736Y-111610687D01*
X154571882Y-111800864D01*
X154571864Y-111800882D01*
X154381687Y-112017736D01*
X154381677Y-112017749D01*
X154221422Y-112257588D01*
X154093845Y-112516288D01*
X154093840Y-112516299D01*
X154001120Y-112789440D01*
X153944843Y-113072363D01*
X153925978Y-113360199D01*
X153925978Y-113360200D01*
X151636422Y-113360200D01*
X151631370Y-113283129D01*
X151622265Y-113144200D01*
X151617556Y-113072361D01*
X151561281Y-112789447D01*
X151549487Y-112754704D01*
X151468559Y-112516299D01*
X151468554Y-112516288D01*
X151340978Y-112257589D01*
X151180720Y-112017746D01*
X151180717Y-112017743D01*
X151180712Y-112017736D01*
X150990535Y-111800882D01*
X150990534Y-111800881D01*
X150990527Y-111800873D01*
X150990517Y-111800864D01*
X150773663Y-111610687D01*
X150773650Y-111610677D01*
X150533811Y-111450422D01*
X150275111Y-111322845D01*
X150275100Y-111322840D01*
X150001959Y-111230120D01*
X149719036Y-111173843D01*
X149431200Y-111154978D01*
X149143363Y-111173843D01*
X148860440Y-111230120D01*
X148587299Y-111322840D01*
X148587288Y-111322845D01*
X148328588Y-111450422D01*
X148088749Y-111610677D01*
X148088736Y-111610687D01*
X147871882Y-111800864D01*
X147871864Y-111800882D01*
X147681687Y-112017736D01*
X147681677Y-112017749D01*
X147521422Y-112257588D01*
X147393845Y-112516288D01*
X147393840Y-112516299D01*
X147301120Y-112789440D01*
X147244843Y-113072363D01*
X147225978Y-113360199D01*
X147225978Y-113360200D01*
X109743923Y-113360200D01*
X109789498Y-113270755D01*
X109809542Y-113144200D01*
X109789498Y-113017645D01*
X109789495Y-113017640D01*
X109789495Y-113017638D01*
X109731328Y-112903481D01*
X109731327Y-112903479D01*
X109731326Y-112903477D01*
X109640723Y-112812874D01*
X109640720Y-112812872D01*
X109640718Y-112812871D01*
X109526561Y-112754704D01*
X109526556Y-112754702D01*
X109526555Y-112754702D01*
X109400000Y-112734658D01*
X109273445Y-112754702D01*
X109273438Y-112754704D01*
X109159281Y-112812871D01*
X109159279Y-112812872D01*
X109068672Y-112903479D01*
X109068671Y-112903481D01*
X109010504Y-113017638D01*
X109010502Y-113017645D01*
X108990458Y-113144199D01*
X108990458Y-113144200D01*
X108529885Y-113144200D01*
X108509719Y-113016874D01*
X108448528Y-112896780D01*
X108353220Y-112801472D01*
X108353217Y-112801470D01*
X108233129Y-112740282D01*
X108233127Y-112740281D01*
X108100000Y-112719196D01*
X107966872Y-112740281D01*
X107966870Y-112740282D01*
X107846782Y-112801470D01*
X107751470Y-112896782D01*
X107690282Y-113016870D01*
X107690281Y-113016872D01*
X107669196Y-113149999D01*
X107669196Y-113150000D01*
X51250870Y-113150000D01*
X51250870Y-109700000D01*
X109502958Y-109700000D01*
X109523002Y-109826554D01*
X109523004Y-109826561D01*
X109581171Y-109940718D01*
X109581174Y-109940723D01*
X109671777Y-110031326D01*
X109671779Y-110031327D01*
X109671781Y-110031328D01*
X109785938Y-110089495D01*
X109785940Y-110089495D01*
X109785945Y-110089498D01*
X109912500Y-110109542D01*
X110039055Y-110089498D01*
X110153223Y-110031326D01*
X110243826Y-109940723D01*
X110301998Y-109826555D01*
X110322042Y-109700000D01*
X110301998Y-109573445D01*
X110301995Y-109573440D01*
X110301995Y-109573438D01*
X110243828Y-109459281D01*
X110243827Y-109459279D01*
X110243826Y-109459277D01*
X110153223Y-109368674D01*
X110153220Y-109368672D01*
X110153218Y-109368671D01*
X110039061Y-109310504D01*
X110039056Y-109310502D01*
X110039055Y-109310502D01*
X109912500Y-109290458D01*
X109785945Y-109310502D01*
X109785938Y-109310504D01*
X109671781Y-109368671D01*
X109671779Y-109368672D01*
X109581172Y-109459279D01*
X109581171Y-109459281D01*
X109523004Y-109573438D01*
X109523002Y-109573445D01*
X109502958Y-109699999D01*
X109502958Y-109700000D01*
X51250870Y-109700000D01*
X51250870Y-100460864D01*
X58995502Y-100460864D01*
X59023928Y-100640341D01*
X59080085Y-100813173D01*
X59157489Y-100965089D01*
X59162585Y-100975089D01*
X59269398Y-101122105D01*
X59397895Y-101250602D01*
X59544911Y-101357415D01*
X59706827Y-101439915D01*
X59879654Y-101496070D01*
X59879655Y-101496070D01*
X59879658Y-101496071D01*
X60059136Y-101524498D01*
X60059139Y-101524498D01*
X60240864Y-101524498D01*
X60420341Y-101496071D01*
X60420342Y-101496070D01*
X60420346Y-101496070D01*
X60593173Y-101439915D01*
X60755089Y-101357415D01*
X60902105Y-101250602D01*
X61030602Y-101122105D01*
X61050295Y-101095000D01*
X85239196Y-101095000D01*
X85260281Y-101228127D01*
X85260282Y-101228129D01*
X85321062Y-101347416D01*
X85321472Y-101348220D01*
X85416780Y-101443528D01*
X85536874Y-101504719D01*
X85670000Y-101525804D01*
X85803126Y-101504719D01*
X85812388Y-101500000D01*
X99322758Y-101500000D01*
X99342802Y-101626554D01*
X99342804Y-101626561D01*
X99400971Y-101740718D01*
X99400974Y-101740723D01*
X99491577Y-101831326D01*
X99491579Y-101831327D01*
X99491581Y-101831328D01*
X99605738Y-101889495D01*
X99605740Y-101889495D01*
X99605745Y-101889498D01*
X99732300Y-101909542D01*
X99858855Y-101889498D01*
X99973023Y-101831326D01*
X100063626Y-101740723D01*
X100121798Y-101626555D01*
X100141842Y-101500000D01*
X100121798Y-101373445D01*
X100121795Y-101373440D01*
X100121795Y-101373438D01*
X100063628Y-101259281D01*
X100063627Y-101259279D01*
X100063626Y-101259277D01*
X99973023Y-101168674D01*
X99973020Y-101168672D01*
X99973018Y-101168671D01*
X99858861Y-101110504D01*
X99858856Y-101110502D01*
X99858855Y-101110502D01*
X99732300Y-101090458D01*
X99605745Y-101110502D01*
X99605738Y-101110504D01*
X99491581Y-101168671D01*
X99491579Y-101168672D01*
X99400972Y-101259279D01*
X99400971Y-101259281D01*
X99342804Y-101373438D01*
X99342802Y-101373445D01*
X99322758Y-101499999D01*
X99322758Y-101500000D01*
X85812388Y-101500000D01*
X85923220Y-101443528D01*
X86018528Y-101348220D01*
X86079719Y-101228126D01*
X86100804Y-101095000D01*
X86079719Y-100961874D01*
X86018528Y-100841780D01*
X85923220Y-100746472D01*
X85923217Y-100746470D01*
X85803129Y-100685282D01*
X85803127Y-100685281D01*
X85670000Y-100664196D01*
X85536872Y-100685281D01*
X85536870Y-100685282D01*
X85416782Y-100746470D01*
X85321470Y-100841782D01*
X85260282Y-100961870D01*
X85260281Y-100961872D01*
X85239196Y-101094999D01*
X85239196Y-101095000D01*
X61050295Y-101095000D01*
X61137415Y-100975089D01*
X61219915Y-100813173D01*
X61276070Y-100640346D01*
X61304498Y-100460861D01*
X61304498Y-100450864D01*
X244675502Y-100450864D01*
X244703928Y-100630341D01*
X244760085Y-100803173D01*
X244840946Y-100961874D01*
X244842585Y-100965089D01*
X244949398Y-101112105D01*
X245077895Y-101240602D01*
X245224911Y-101347415D01*
X245386827Y-101429915D01*
X245559654Y-101486070D01*
X245559655Y-101486070D01*
X245559658Y-101486071D01*
X245739136Y-101514498D01*
X245739139Y-101514498D01*
X245920864Y-101514498D01*
X246100341Y-101486071D01*
X246100342Y-101486070D01*
X246100346Y-101486070D01*
X246273173Y-101429915D01*
X246435089Y-101347415D01*
X246582105Y-101240602D01*
X246710602Y-101112105D01*
X246817415Y-100965089D01*
X246899915Y-100803173D01*
X246956070Y-100630346D01*
X246982914Y-100460864D01*
X246984498Y-100450864D01*
X246984498Y-100269135D01*
X246956071Y-100089658D01*
X246903164Y-99926827D01*
X246899915Y-99916827D01*
X246817415Y-99754911D01*
X246710602Y-99607895D01*
X246582105Y-99479398D01*
X246435089Y-99372585D01*
X246435088Y-99372584D01*
X246435086Y-99372583D01*
X246273173Y-99290085D01*
X246100341Y-99233928D01*
X245920864Y-99205502D01*
X245920861Y-99205502D01*
X245739139Y-99205502D01*
X245739136Y-99205502D01*
X245559658Y-99233928D01*
X245386826Y-99290085D01*
X245224913Y-99372583D01*
X245160269Y-99419550D01*
X245077895Y-99479398D01*
X244949398Y-99607895D01*
X244942133Y-99617895D01*
X244842583Y-99754913D01*
X244760085Y-99916826D01*
X244703928Y-100089658D01*
X244675502Y-100269135D01*
X244675502Y-100450864D01*
X61304498Y-100450864D01*
X61304498Y-100279139D01*
X61304498Y-100279135D01*
X61276071Y-100099658D01*
X61272822Y-100089658D01*
X61219915Y-99926827D01*
X61140008Y-99770000D01*
X85239196Y-99770000D01*
X85260281Y-99903127D01*
X85260282Y-99903129D01*
X85272357Y-99926827D01*
X85321472Y-100023220D01*
X85416780Y-100118528D01*
X85536874Y-100179719D01*
X85670000Y-100200804D01*
X85803126Y-100179719D01*
X85923220Y-100118528D01*
X86018528Y-100023220D01*
X86079719Y-99903126D01*
X86100804Y-99770000D01*
X86098414Y-99754913D01*
X86096835Y-99744945D01*
X86079719Y-99636874D01*
X86018528Y-99516780D01*
X85923220Y-99421472D01*
X85923217Y-99421470D01*
X85803129Y-99360282D01*
X85803127Y-99360281D01*
X85670000Y-99339196D01*
X85536872Y-99360281D01*
X85536870Y-99360282D01*
X85416782Y-99421470D01*
X85321470Y-99516782D01*
X85260282Y-99636870D01*
X85260281Y-99636872D01*
X85239196Y-99769999D01*
X85239196Y-99770000D01*
X61140008Y-99770000D01*
X61137415Y-99764911D01*
X61030602Y-99617895D01*
X60902105Y-99489398D01*
X60755089Y-99382585D01*
X60755088Y-99382584D01*
X60755086Y-99382583D01*
X60593173Y-99300085D01*
X60420341Y-99243928D01*
X60240864Y-99215502D01*
X60240861Y-99215502D01*
X60059139Y-99215502D01*
X60059136Y-99215502D01*
X59879658Y-99243928D01*
X59706826Y-99300085D01*
X59544913Y-99382583D01*
X59508289Y-99409192D01*
X59397895Y-99489398D01*
X59269398Y-99617895D01*
X59255609Y-99636874D01*
X59162583Y-99764913D01*
X59080085Y-99926826D01*
X59023928Y-100099658D01*
X58995502Y-100279135D01*
X58995502Y-100460864D01*
X51250870Y-100460864D01*
X51250870Y-98370003D01*
X52840450Y-98370003D01*
X52860807Y-98576703D01*
X52860808Y-98576708D01*
X52921103Y-98775472D01*
X52921105Y-98775477D01*
X53019008Y-98958642D01*
X53019014Y-98958651D01*
X53019016Y-98958654D01*
X53028285Y-98969948D01*
X53150780Y-99119210D01*
X53150789Y-99119219D01*
X53225671Y-99180672D01*
X53311346Y-99250984D01*
X53311350Y-99250986D01*
X53311357Y-99250991D01*
X53494522Y-99348894D01*
X53494528Y-99348897D01*
X53621812Y-99387508D01*
X53693291Y-99409191D01*
X53693296Y-99409192D01*
X53899997Y-99429550D01*
X53900000Y-99429550D01*
X53900003Y-99429550D01*
X54106703Y-99409192D01*
X54106708Y-99409191D01*
X54112629Y-99407395D01*
X54305472Y-99348897D01*
X54396793Y-99300085D01*
X54488642Y-99250991D01*
X54488645Y-99250988D01*
X54488654Y-99250984D01*
X54649215Y-99119215D01*
X54780984Y-98958654D01*
X54780988Y-98958645D01*
X54780991Y-98958642D01*
X54871857Y-98788642D01*
X54878897Y-98775472D01*
X54939191Y-98576708D01*
X54939192Y-98576703D01*
X54959550Y-98370003D01*
X54959550Y-98370000D01*
X65241108Y-98370000D01*
X65260840Y-98582945D01*
X65319366Y-98788642D01*
X65374884Y-98900139D01*
X65805543Y-98469479D01*
X65840937Y-98601571D01*
X65919922Y-98738377D01*
X66031623Y-98850078D01*
X66168429Y-98929063D01*
X66300517Y-98964455D01*
X65867465Y-99397508D01*
X65883432Y-99407395D01*
X65883436Y-99407397D01*
X66082856Y-99484652D01*
X66293071Y-99523948D01*
X66506929Y-99523948D01*
X66717143Y-99484652D01*
X66916562Y-99407397D01*
X66916564Y-99407397D01*
X66932533Y-99397508D01*
X66499481Y-98964456D01*
X66631571Y-98929063D01*
X66768377Y-98850078D01*
X66880078Y-98738377D01*
X66959063Y-98601571D01*
X66994456Y-98469481D01*
X67425114Y-98900139D01*
X67480633Y-98788642D01*
X67539159Y-98582945D01*
X67544992Y-98520000D01*
X85239196Y-98520000D01*
X85260281Y-98653127D01*
X85260282Y-98653129D01*
X85321470Y-98773217D01*
X85321472Y-98773220D01*
X85416780Y-98868528D01*
X85416782Y-98868529D01*
X85535586Y-98929063D01*
X85536874Y-98929719D01*
X85670000Y-98950804D01*
X85803126Y-98929719D01*
X85923220Y-98868528D01*
X86018528Y-98773220D01*
X86079719Y-98653126D01*
X86100804Y-98520000D01*
X86079719Y-98386874D01*
X86066027Y-98360003D01*
X238520450Y-98360003D01*
X238540807Y-98566703D01*
X238540808Y-98566708D01*
X238601103Y-98765472D01*
X238601105Y-98765477D01*
X238699008Y-98948642D01*
X238699014Y-98948651D01*
X238699016Y-98948654D01*
X238707223Y-98958654D01*
X238830780Y-99109210D01*
X238830789Y-99109219D01*
X238905671Y-99170672D01*
X238991346Y-99240984D01*
X238991350Y-99240986D01*
X238991357Y-99240991D01*
X239174522Y-99338894D01*
X239174528Y-99338897D01*
X239312997Y-99380900D01*
X239373291Y-99399191D01*
X239373296Y-99399192D01*
X239579997Y-99419550D01*
X239580000Y-99419550D01*
X239580003Y-99419550D01*
X239786703Y-99399192D01*
X239786708Y-99399191D01*
X239792629Y-99397395D01*
X239985472Y-99338897D01*
X240076793Y-99290085D01*
X240168642Y-99240991D01*
X240168645Y-99240988D01*
X240168654Y-99240984D01*
X240329215Y-99109215D01*
X240460984Y-98948654D01*
X240460988Y-98948645D01*
X240460991Y-98948642D01*
X240553552Y-98775472D01*
X240558897Y-98765472D01*
X240619191Y-98566708D01*
X240619192Y-98566703D01*
X240639550Y-98360003D01*
X240639550Y-98360000D01*
X250921108Y-98360000D01*
X250940840Y-98572945D01*
X250999366Y-98778642D01*
X251054884Y-98890139D01*
X251485543Y-98459479D01*
X251520937Y-98591571D01*
X251599922Y-98728377D01*
X251711623Y-98840078D01*
X251848429Y-98919063D01*
X251980517Y-98954455D01*
X251547465Y-99387508D01*
X251563432Y-99397395D01*
X251563436Y-99397397D01*
X251762856Y-99474652D01*
X251973071Y-99513948D01*
X252186929Y-99513948D01*
X252397143Y-99474652D01*
X252596562Y-99397397D01*
X252596564Y-99397397D01*
X252612533Y-99387508D01*
X252179481Y-98954456D01*
X252311571Y-98919063D01*
X252448377Y-98840078D01*
X252560078Y-98728377D01*
X252639063Y-98591571D01*
X252674456Y-98459481D01*
X253105114Y-98890139D01*
X253160633Y-98778642D01*
X253219159Y-98572945D01*
X253238891Y-98360000D01*
X253219159Y-98147054D01*
X253160633Y-97941357D01*
X253105114Y-97829859D01*
X252674455Y-98260517D01*
X252639063Y-98128429D01*
X252560078Y-97991623D01*
X252448377Y-97879922D01*
X252311571Y-97800937D01*
X252179479Y-97765543D01*
X252612533Y-97332490D01*
X252596566Y-97322603D01*
X252397143Y-97245347D01*
X252186929Y-97206052D01*
X251973071Y-97206052D01*
X251762856Y-97245347D01*
X251563437Y-97322601D01*
X251563429Y-97322605D01*
X251547465Y-97332490D01*
X251980518Y-97765543D01*
X251848429Y-97800937D01*
X251711623Y-97879922D01*
X251599922Y-97991623D01*
X251520937Y-98128429D01*
X251485543Y-98260518D01*
X251054884Y-97829859D01*
X251054883Y-97829859D01*
X250999367Y-97941352D01*
X250940840Y-98147054D01*
X250921108Y-98360000D01*
X240639550Y-98360000D01*
X240639550Y-98359996D01*
X240619192Y-98153296D01*
X240619191Y-98153291D01*
X240573183Y-98001623D01*
X240558897Y-97954528D01*
X240557202Y-97951357D01*
X240460991Y-97771357D01*
X240460986Y-97771350D01*
X240460984Y-97771346D01*
X240385786Y-97679717D01*
X240329219Y-97610789D01*
X240329210Y-97610780D01*
X240222513Y-97523217D01*
X240168654Y-97479016D01*
X240168651Y-97479014D01*
X240168642Y-97479008D01*
X239985477Y-97381105D01*
X239985472Y-97381103D01*
X239786708Y-97320808D01*
X239786703Y-97320807D01*
X239580003Y-97300450D01*
X239579997Y-97300450D01*
X239373296Y-97320807D01*
X239373291Y-97320808D01*
X239174527Y-97381103D01*
X239174522Y-97381105D01*
X238991357Y-97479008D01*
X238991347Y-97479015D01*
X238830789Y-97610780D01*
X238830780Y-97610789D01*
X238699015Y-97771347D01*
X238699008Y-97771357D01*
X238601105Y-97954522D01*
X238601103Y-97954527D01*
X238540808Y-98153291D01*
X238540807Y-98153296D01*
X238520450Y-98359996D01*
X238520450Y-98360003D01*
X86066027Y-98360003D01*
X86066025Y-98359999D01*
X86018529Y-98266782D01*
X86018528Y-98266780D01*
X85923220Y-98171472D01*
X85923217Y-98171470D01*
X85803129Y-98110282D01*
X85803127Y-98110281D01*
X85670000Y-98089196D01*
X85536872Y-98110281D01*
X85536870Y-98110282D01*
X85416782Y-98171470D01*
X85321470Y-98266782D01*
X85260282Y-98386870D01*
X85260281Y-98386872D01*
X85239196Y-98519999D01*
X85239196Y-98520000D01*
X67544992Y-98520000D01*
X67558891Y-98370000D01*
X67539159Y-98157054D01*
X67480633Y-97951357D01*
X67425114Y-97839859D01*
X66994455Y-98270517D01*
X66959063Y-98138429D01*
X66880078Y-98001623D01*
X66768377Y-97889922D01*
X66631571Y-97810937D01*
X66499479Y-97775543D01*
X66932533Y-97342490D01*
X66916566Y-97332603D01*
X66754967Y-97270000D01*
X83739196Y-97270000D01*
X83760281Y-97403127D01*
X83760282Y-97403129D01*
X83821470Y-97523217D01*
X83821472Y-97523220D01*
X83916780Y-97618528D01*
X84036874Y-97679719D01*
X84170000Y-97700804D01*
X84303126Y-97679719D01*
X84423220Y-97618528D01*
X84518528Y-97523220D01*
X84579719Y-97403126D01*
X84600804Y-97270000D01*
X85239196Y-97270000D01*
X85260281Y-97403127D01*
X85260282Y-97403129D01*
X85321470Y-97523217D01*
X85321472Y-97523220D01*
X85416780Y-97618528D01*
X85536874Y-97679719D01*
X85670000Y-97700804D01*
X85803126Y-97679719D01*
X85923220Y-97618528D01*
X86018528Y-97523220D01*
X86079719Y-97403126D01*
X86100804Y-97270000D01*
X86079719Y-97136874D01*
X86018528Y-97016780D01*
X85923220Y-96921472D01*
X85923217Y-96921470D01*
X85803129Y-96860282D01*
X85803127Y-96860281D01*
X85670000Y-96839196D01*
X85536872Y-96860281D01*
X85536870Y-96860282D01*
X85416782Y-96921470D01*
X85321470Y-97016782D01*
X85260282Y-97136870D01*
X85260281Y-97136872D01*
X85239196Y-97269999D01*
X85239196Y-97270000D01*
X84600804Y-97270000D01*
X84579719Y-97136874D01*
X84518528Y-97016780D01*
X84423220Y-96921472D01*
X84423217Y-96921470D01*
X84303129Y-96860282D01*
X84303127Y-96860281D01*
X84170000Y-96839196D01*
X84036872Y-96860281D01*
X84036870Y-96860282D01*
X83916782Y-96921470D01*
X83821470Y-97016782D01*
X83760282Y-97136870D01*
X83760281Y-97136872D01*
X83739196Y-97269999D01*
X83739196Y-97270000D01*
X66754967Y-97270000D01*
X66717143Y-97255347D01*
X66506929Y-97216052D01*
X66293071Y-97216052D01*
X66082856Y-97255347D01*
X65883437Y-97332601D01*
X65883429Y-97332605D01*
X65867465Y-97342490D01*
X66300518Y-97775543D01*
X66168429Y-97810937D01*
X66031623Y-97889922D01*
X65919922Y-98001623D01*
X65840937Y-98138429D01*
X65805543Y-98270518D01*
X65374884Y-97839859D01*
X65374883Y-97839859D01*
X65319367Y-97951352D01*
X65260840Y-98157054D01*
X65241108Y-98370000D01*
X54959550Y-98370000D01*
X54959550Y-98369996D01*
X54939192Y-98163296D01*
X54939191Y-98163291D01*
X54916714Y-98089196D01*
X54878897Y-97964528D01*
X54873552Y-97954528D01*
X54780991Y-97781357D01*
X54780986Y-97781350D01*
X54780984Y-97781346D01*
X54651139Y-97623129D01*
X54649219Y-97620789D01*
X54649210Y-97620780D01*
X54555607Y-97543963D01*
X54489853Y-97490000D01*
X55829196Y-97490000D01*
X55850281Y-97623127D01*
X55850282Y-97623129D01*
X55911470Y-97743217D01*
X55911472Y-97743220D01*
X56006780Y-97838528D01*
X56126874Y-97899719D01*
X56260000Y-97920804D01*
X56393126Y-97899719D01*
X56513220Y-97838528D01*
X56608528Y-97743220D01*
X56669719Y-97623126D01*
X56690804Y-97490000D01*
X56669719Y-97356874D01*
X56608528Y-97236780D01*
X56513220Y-97141472D01*
X56513217Y-97141470D01*
X56393129Y-97080282D01*
X56393127Y-97080281D01*
X56260000Y-97059196D01*
X56126872Y-97080281D01*
X56126870Y-97080282D01*
X56006782Y-97141470D01*
X55911470Y-97236782D01*
X55850282Y-97356870D01*
X55850281Y-97356872D01*
X55829196Y-97489999D01*
X55829196Y-97490000D01*
X54489853Y-97490000D01*
X54488654Y-97489016D01*
X54488651Y-97489014D01*
X54488642Y-97489008D01*
X54305477Y-97391105D01*
X54305472Y-97391103D01*
X54106708Y-97330808D01*
X54106703Y-97330807D01*
X53900003Y-97310450D01*
X53899997Y-97310450D01*
X53693296Y-97330807D01*
X53693291Y-97330808D01*
X53494527Y-97391103D01*
X53494522Y-97391105D01*
X53311357Y-97489008D01*
X53311347Y-97489015D01*
X53150789Y-97620780D01*
X53150780Y-97620789D01*
X53019015Y-97781347D01*
X53019008Y-97781357D01*
X52921105Y-97964522D01*
X52921103Y-97964527D01*
X52860808Y-98163291D01*
X52860807Y-98163296D01*
X52840450Y-98369996D01*
X52840450Y-98370003D01*
X51250870Y-98370003D01*
X51250870Y-96750579D01*
X68522378Y-96750579D01*
X68549336Y-96868687D01*
X68549338Y-96868693D01*
X68601898Y-96977836D01*
X68601900Y-96977839D01*
X68601901Y-96977840D01*
X68601902Y-96977842D01*
X68677438Y-97072562D01*
X68772158Y-97148098D01*
X68772159Y-97148098D01*
X68772160Y-97148099D01*
X68772163Y-97148101D01*
X68869225Y-97194843D01*
X68881310Y-97200663D01*
X68999423Y-97227622D01*
X68999426Y-97227622D01*
X69100107Y-97227622D01*
X69100665Y-97227557D01*
X71918949Y-97227440D01*
X71920558Y-97227622D01*
X71930898Y-97227622D01*
X72000983Y-97227622D01*
X72001008Y-97227620D01*
X72020574Y-97227620D01*
X72138687Y-97200662D01*
X72247840Y-97148097D01*
X72342559Y-97072561D01*
X72342560Y-97072559D01*
X72342562Y-97072558D01*
X72342563Y-97072556D01*
X72387042Y-97016782D01*
X72418096Y-96977842D01*
X72470661Y-96868689D01*
X72497620Y-96750577D01*
X72497620Y-96690001D01*
X72497620Y-96660900D01*
X72497620Y-96040000D01*
X83739196Y-96040000D01*
X83760281Y-96173127D01*
X83760282Y-96173129D01*
X83821470Y-96293217D01*
X83821472Y-96293220D01*
X83916780Y-96388528D01*
X84036874Y-96449719D01*
X84170000Y-96470804D01*
X84303126Y-96449719D01*
X84423220Y-96388528D01*
X84518528Y-96293220D01*
X84579719Y-96173126D01*
X84600804Y-96040000D01*
X85239196Y-96040000D01*
X85260281Y-96173127D01*
X85260282Y-96173129D01*
X85321470Y-96293217D01*
X85321472Y-96293220D01*
X85416780Y-96388528D01*
X85536874Y-96449719D01*
X85670000Y-96470804D01*
X85803126Y-96449719D01*
X85923220Y-96388528D01*
X86018528Y-96293220D01*
X86079719Y-96173126D01*
X86100804Y-96040000D01*
X86079719Y-95906874D01*
X86018528Y-95786780D01*
X85923220Y-95691472D01*
X85923217Y-95691470D01*
X85803129Y-95630282D01*
X85803127Y-95630281D01*
X85670000Y-95609196D01*
X85536872Y-95630281D01*
X85536870Y-95630282D01*
X85416782Y-95691470D01*
X85321470Y-95786782D01*
X85260282Y-95906870D01*
X85260281Y-95906872D01*
X85239196Y-96039999D01*
X85239196Y-96040000D01*
X84600804Y-96040000D01*
X84579719Y-95906874D01*
X84518528Y-95786780D01*
X84423220Y-95691472D01*
X84423217Y-95691470D01*
X84303129Y-95630282D01*
X84303127Y-95630281D01*
X84170000Y-95609196D01*
X84036872Y-95630281D01*
X84036870Y-95630282D01*
X83916782Y-95691470D01*
X83821470Y-95786782D01*
X83760282Y-95906870D01*
X83760281Y-95906872D01*
X83739196Y-96039999D01*
X83739196Y-96040000D01*
X72497620Y-96040000D01*
X72497620Y-92065004D01*
X125802615Y-92065004D01*
X125822139Y-92412683D01*
X125822142Y-92412703D01*
X125880472Y-92756011D01*
X125976878Y-93090642D01*
X126110146Y-93412380D01*
X126278592Y-93717159D01*
X126278595Y-93717164D01*
X126480112Y-94001176D01*
X126712161Y-94260839D01*
X126971824Y-94492888D01*
X127255836Y-94694405D01*
X127255840Y-94694407D01*
X127560620Y-94862853D01*
X127560619Y-94862853D01*
X127560624Y-94862855D01*
X127882356Y-94996121D01*
X128216987Y-95092527D01*
X128560307Y-95150859D01*
X128560310Y-95150859D01*
X128560316Y-95150860D01*
X128907995Y-95170385D01*
X128908000Y-95170385D01*
X128908005Y-95170385D01*
X129255683Y-95150860D01*
X129255687Y-95150859D01*
X129255693Y-95150859D01*
X129599013Y-95092527D01*
X129933644Y-94996121D01*
X130255376Y-94862855D01*
X130560164Y-94694405D01*
X130844176Y-94492888D01*
X131103839Y-94260839D01*
X131335888Y-94001176D01*
X131537405Y-93717164D01*
X131705855Y-93412376D01*
X131839121Y-93090644D01*
X131935527Y-92756013D01*
X131993859Y-92412693D01*
X131995072Y-92391105D01*
X132013385Y-92065004D01*
X173802615Y-92065004D01*
X173822139Y-92412683D01*
X173822142Y-92412703D01*
X173880472Y-92756011D01*
X173976878Y-93090642D01*
X174110146Y-93412380D01*
X174278592Y-93717159D01*
X174278595Y-93717164D01*
X174480112Y-94001176D01*
X174712161Y-94260839D01*
X174971824Y-94492888D01*
X175255836Y-94694405D01*
X175255840Y-94694407D01*
X175560620Y-94862853D01*
X175560619Y-94862853D01*
X175560624Y-94862855D01*
X175882356Y-94996121D01*
X176216987Y-95092527D01*
X176560307Y-95150859D01*
X176560310Y-95150859D01*
X176560316Y-95150860D01*
X176907995Y-95170385D01*
X176908000Y-95170385D01*
X176908005Y-95170385D01*
X177255683Y-95150860D01*
X177255687Y-95150859D01*
X177255693Y-95150859D01*
X177599013Y-95092527D01*
X177933644Y-94996121D01*
X178255376Y-94862855D01*
X178560164Y-94694405D01*
X178844176Y-94492888D01*
X179103839Y-94260839D01*
X179335888Y-94001176D01*
X179537405Y-93717164D01*
X179705855Y-93412376D01*
X179727549Y-93360003D01*
X238520450Y-93360003D01*
X238540807Y-93566703D01*
X238540808Y-93566708D01*
X238601103Y-93765472D01*
X238601105Y-93765477D01*
X238699008Y-93948642D01*
X238699014Y-93948651D01*
X238699016Y-93948654D01*
X238742120Y-94001176D01*
X238830780Y-94109210D01*
X238830789Y-94109219D01*
X238905671Y-94170672D01*
X238991346Y-94240984D01*
X238991350Y-94240986D01*
X238991357Y-94240991D01*
X239174522Y-94338894D01*
X239174528Y-94338897D01*
X239312997Y-94380900D01*
X239373291Y-94399191D01*
X239373296Y-94399192D01*
X239579997Y-94419550D01*
X239580000Y-94419550D01*
X239580003Y-94419550D01*
X239786703Y-94399192D01*
X239786708Y-94399191D01*
X239985472Y-94338897D01*
X240051146Y-94303793D01*
X240168642Y-94240991D01*
X240168645Y-94240988D01*
X240168654Y-94240984D01*
X240329215Y-94109215D01*
X240460984Y-93948654D01*
X240460988Y-93948645D01*
X240460991Y-93948642D01*
X240558894Y-93765477D01*
X240558897Y-93765472D01*
X240619191Y-93566708D01*
X240619192Y-93566703D01*
X240620837Y-93550000D01*
X244379196Y-93550000D01*
X244400281Y-93683127D01*
X244400282Y-93683129D01*
X244447336Y-93775477D01*
X244461472Y-93803220D01*
X244556780Y-93898528D01*
X244676874Y-93959719D01*
X244810000Y-93980804D01*
X244943126Y-93959719D01*
X245063220Y-93898528D01*
X245158528Y-93803220D01*
X245219719Y-93683126D01*
X245240804Y-93550000D01*
X245219719Y-93416874D01*
X245195835Y-93370000D01*
X245190741Y-93360003D01*
X251020450Y-93360003D01*
X251040807Y-93566703D01*
X251040808Y-93566708D01*
X251101103Y-93765472D01*
X251101105Y-93765477D01*
X251199008Y-93948642D01*
X251199014Y-93948651D01*
X251199016Y-93948654D01*
X251242120Y-94001176D01*
X251330780Y-94109210D01*
X251330789Y-94109219D01*
X251405671Y-94170672D01*
X251491346Y-94240984D01*
X251491350Y-94240986D01*
X251491357Y-94240991D01*
X251674522Y-94338894D01*
X251674528Y-94338897D01*
X251812997Y-94380900D01*
X251873291Y-94399191D01*
X251873296Y-94399192D01*
X252079997Y-94419550D01*
X252080000Y-94419550D01*
X252080003Y-94419550D01*
X252286703Y-94399192D01*
X252286708Y-94399191D01*
X252485472Y-94338897D01*
X252551146Y-94303793D01*
X252668642Y-94240991D01*
X252668645Y-94240988D01*
X252668654Y-94240984D01*
X252829215Y-94109215D01*
X252960984Y-93948654D01*
X252960988Y-93948645D01*
X252960991Y-93948642D01*
X253058894Y-93765477D01*
X253058897Y-93765472D01*
X253119191Y-93566708D01*
X253119192Y-93566703D01*
X253139550Y-93360003D01*
X253139550Y-93359996D01*
X253119192Y-93153296D01*
X253119191Y-93153291D01*
X253061930Y-92964528D01*
X253058897Y-92954528D01*
X253058894Y-92954522D01*
X252960991Y-92771357D01*
X252960986Y-92771350D01*
X252960984Y-92771346D01*
X252890672Y-92685671D01*
X252829219Y-92610789D01*
X252829210Y-92610780D01*
X252711889Y-92514498D01*
X252668654Y-92479016D01*
X252668651Y-92479014D01*
X252668642Y-92479008D01*
X252485477Y-92381105D01*
X252485472Y-92381103D01*
X252286708Y-92320808D01*
X252286703Y-92320807D01*
X252080003Y-92300450D01*
X252079997Y-92300450D01*
X251873296Y-92320807D01*
X251873291Y-92320808D01*
X251674527Y-92381103D01*
X251674522Y-92381105D01*
X251491357Y-92479008D01*
X251491347Y-92479015D01*
X251330789Y-92610780D01*
X251330780Y-92610789D01*
X251199015Y-92771347D01*
X251199008Y-92771357D01*
X251101105Y-92954522D01*
X251101103Y-92954527D01*
X251040808Y-93153291D01*
X251040807Y-93153296D01*
X251020450Y-93359996D01*
X251020450Y-93360003D01*
X245190741Y-93360003D01*
X245158529Y-93296782D01*
X245158528Y-93296780D01*
X245063220Y-93201472D01*
X245063217Y-93201470D01*
X244943129Y-93140282D01*
X244943127Y-93140281D01*
X244810000Y-93119196D01*
X244676872Y-93140281D01*
X244676870Y-93140282D01*
X244556782Y-93201470D01*
X244461470Y-93296782D01*
X244400282Y-93416870D01*
X244400281Y-93416872D01*
X244379196Y-93549999D01*
X244379196Y-93550000D01*
X240620837Y-93550000D01*
X240639550Y-93360003D01*
X240639550Y-93359996D01*
X240619192Y-93153296D01*
X240619191Y-93153291D01*
X240561930Y-92964528D01*
X240558897Y-92954528D01*
X240558894Y-92954522D01*
X240460991Y-92771357D01*
X240460986Y-92771350D01*
X240460984Y-92771346D01*
X240390672Y-92685671D01*
X240329219Y-92610789D01*
X240329210Y-92610780D01*
X240211889Y-92514498D01*
X240168654Y-92479016D01*
X240168651Y-92479014D01*
X240168642Y-92479008D01*
X239985477Y-92381105D01*
X239985472Y-92381103D01*
X239786708Y-92320808D01*
X239786703Y-92320807D01*
X239580003Y-92300450D01*
X239579997Y-92300450D01*
X239373296Y-92320807D01*
X239373291Y-92320808D01*
X239174527Y-92381103D01*
X239174522Y-92381105D01*
X238991357Y-92479008D01*
X238991347Y-92479015D01*
X238830789Y-92610780D01*
X238830780Y-92610789D01*
X238699015Y-92771347D01*
X238699008Y-92771357D01*
X238601105Y-92954522D01*
X238601103Y-92954527D01*
X238540808Y-93153291D01*
X238540807Y-93153296D01*
X238520450Y-93359996D01*
X238520450Y-93360003D01*
X179727549Y-93360003D01*
X179839121Y-93090644D01*
X179935527Y-92756013D01*
X179993859Y-92412693D01*
X179995072Y-92391105D01*
X180013385Y-92065004D01*
X180013385Y-92064995D01*
X179993860Y-91717316D01*
X179993857Y-91717296D01*
X179948589Y-91450864D01*
X244675502Y-91450864D01*
X244703928Y-91630341D01*
X244707179Y-91640346D01*
X244760085Y-91803173D01*
X244842585Y-91965089D01*
X244949398Y-92112105D01*
X245077895Y-92240602D01*
X245224911Y-92347415D01*
X245386827Y-92429915D01*
X245559654Y-92486070D01*
X245559655Y-92486070D01*
X245559658Y-92486071D01*
X245739136Y-92514498D01*
X245739139Y-92514498D01*
X245920864Y-92514498D01*
X246100341Y-92486071D01*
X246100342Y-92486070D01*
X246100346Y-92486070D01*
X246273173Y-92429915D01*
X246435089Y-92347415D01*
X246582105Y-92240602D01*
X246710602Y-92112105D01*
X246817415Y-91965089D01*
X246899915Y-91803173D01*
X246956070Y-91630346D01*
X246982914Y-91460864D01*
X246984498Y-91450864D01*
X246984498Y-91269135D01*
X246956071Y-91089658D01*
X246903164Y-90926827D01*
X246899915Y-90916827D01*
X246817415Y-90754911D01*
X246710602Y-90607895D01*
X246582105Y-90479398D01*
X246435089Y-90372585D01*
X246435088Y-90372584D01*
X246435086Y-90372583D01*
X246273173Y-90290085D01*
X246100341Y-90233928D01*
X245920864Y-90205502D01*
X245920861Y-90205502D01*
X245739139Y-90205502D01*
X245739136Y-90205502D01*
X245559658Y-90233928D01*
X245386826Y-90290085D01*
X245224913Y-90372583D01*
X245151403Y-90425991D01*
X245077895Y-90479398D01*
X244949398Y-90607895D01*
X244942133Y-90617895D01*
X244842583Y-90754913D01*
X244760085Y-90916826D01*
X244703928Y-91089658D01*
X244675502Y-91269135D01*
X244675502Y-91450864D01*
X179948589Y-91450864D01*
X179935527Y-91373988D01*
X179908202Y-91279139D01*
X179839121Y-91039356D01*
X179705855Y-90717624D01*
X179705853Y-90717619D01*
X179537407Y-90412840D01*
X179537405Y-90412836D01*
X179335888Y-90128824D01*
X179103839Y-89869161D01*
X178844176Y-89637112D01*
X178560164Y-89435595D01*
X178527534Y-89417561D01*
X178255379Y-89267146D01*
X178255380Y-89267146D01*
X177933642Y-89133878D01*
X177599011Y-89037472D01*
X177255703Y-88979142D01*
X177255683Y-88979139D01*
X176908005Y-88959615D01*
X176907995Y-88959615D01*
X176560316Y-88979139D01*
X176560296Y-88979142D01*
X176216988Y-89037472D01*
X175882357Y-89133878D01*
X175560619Y-89267146D01*
X175255840Y-89435592D01*
X175255836Y-89435595D01*
X174971824Y-89637112D01*
X174923275Y-89680498D01*
X174712168Y-89869154D01*
X174712154Y-89869168D01*
X174614425Y-89978528D01*
X174480112Y-90128824D01*
X174480110Y-90128827D01*
X174278592Y-90412840D01*
X174110146Y-90717619D01*
X173976878Y-91039357D01*
X173880472Y-91373988D01*
X173822142Y-91717296D01*
X173822139Y-91717316D01*
X173802615Y-92064995D01*
X173802615Y-92065004D01*
X132013385Y-92065004D01*
X132013385Y-92064995D01*
X131993860Y-91717316D01*
X131993857Y-91717296D01*
X131935527Y-91373988D01*
X131908202Y-91279139D01*
X131839121Y-91039356D01*
X131705855Y-90717624D01*
X131705853Y-90717619D01*
X131537407Y-90412840D01*
X131537405Y-90412836D01*
X131335888Y-90128824D01*
X131103839Y-89869161D01*
X130844176Y-89637112D01*
X130834153Y-89630000D01*
X160539196Y-89630000D01*
X160560281Y-89763127D01*
X160560282Y-89763129D01*
X160614312Y-89869168D01*
X160621472Y-89883220D01*
X160716780Y-89978528D01*
X160836874Y-90039719D01*
X160970000Y-90060804D01*
X161103126Y-90039719D01*
X161223220Y-89978528D01*
X161318528Y-89883220D01*
X161379719Y-89763126D01*
X161400804Y-89630000D01*
X161379719Y-89496874D01*
X161318528Y-89376780D01*
X161223220Y-89281472D01*
X161223217Y-89281470D01*
X161103129Y-89220282D01*
X161103127Y-89220281D01*
X160970000Y-89199196D01*
X160836872Y-89220281D01*
X160836870Y-89220282D01*
X160716782Y-89281470D01*
X160621470Y-89376782D01*
X160560282Y-89496870D01*
X160560281Y-89496872D01*
X160539196Y-89629999D01*
X160539196Y-89630000D01*
X130834153Y-89630000D01*
X130560164Y-89435595D01*
X130527534Y-89417561D01*
X130255379Y-89267146D01*
X130255380Y-89267146D01*
X129933642Y-89133878D01*
X129599011Y-89037472D01*
X129255703Y-88979142D01*
X129255683Y-88979139D01*
X128908005Y-88959615D01*
X128907995Y-88959615D01*
X128560316Y-88979139D01*
X128560296Y-88979142D01*
X128216988Y-89037472D01*
X127882357Y-89133878D01*
X127560619Y-89267146D01*
X127255840Y-89435592D01*
X127255836Y-89435595D01*
X126971824Y-89637112D01*
X126923275Y-89680498D01*
X126712168Y-89869154D01*
X126712154Y-89869168D01*
X126614425Y-89978528D01*
X126480112Y-90128824D01*
X126480110Y-90128827D01*
X126278592Y-90412840D01*
X126110146Y-90717619D01*
X125976878Y-91039357D01*
X125880472Y-91373988D01*
X125822142Y-91717296D01*
X125822139Y-91717316D01*
X125802615Y-92064995D01*
X125802615Y-92065004D01*
X72497620Y-92065004D01*
X72497620Y-89291000D01*
X91443958Y-89291000D01*
X91464002Y-89417554D01*
X91464004Y-89417561D01*
X91504415Y-89496870D01*
X91522174Y-89531723D01*
X91612777Y-89622326D01*
X91612779Y-89622327D01*
X91612781Y-89622328D01*
X91726938Y-89680495D01*
X91726940Y-89680495D01*
X91726945Y-89680498D01*
X91853500Y-89700542D01*
X91980055Y-89680498D01*
X92094223Y-89622326D01*
X92184826Y-89531723D01*
X92242998Y-89417555D01*
X92263042Y-89291000D01*
X92242998Y-89164445D01*
X92242995Y-89164440D01*
X92242995Y-89164438D01*
X92184828Y-89050281D01*
X92184827Y-89050279D01*
X92184826Y-89050277D01*
X92094223Y-88959674D01*
X92094220Y-88959672D01*
X92094218Y-88959671D01*
X91980061Y-88901504D01*
X91980056Y-88901502D01*
X91980055Y-88901502D01*
X91853500Y-88881458D01*
X91726945Y-88901502D01*
X91726938Y-88901504D01*
X91612781Y-88959671D01*
X91612779Y-88959672D01*
X91522172Y-89050279D01*
X91522171Y-89050281D01*
X91464004Y-89164438D01*
X91464002Y-89164445D01*
X91443958Y-89290999D01*
X91443958Y-89291000D01*
X72497620Y-89291000D01*
X72497620Y-87934800D01*
X192274858Y-87934800D01*
X192294902Y-88061354D01*
X192294904Y-88061361D01*
X192353071Y-88175518D01*
X192353074Y-88175523D01*
X192443677Y-88266126D01*
X192443679Y-88266127D01*
X192443681Y-88266128D01*
X192557838Y-88324295D01*
X192557840Y-88324295D01*
X192557845Y-88324298D01*
X192684400Y-88344342D01*
X192810955Y-88324298D01*
X192925123Y-88266126D01*
X193015726Y-88175523D01*
X193073898Y-88061355D01*
X193093942Y-87934800D01*
X193073898Y-87808245D01*
X193073895Y-87808240D01*
X193073895Y-87808238D01*
X193015728Y-87694081D01*
X193015727Y-87694079D01*
X193015726Y-87694077D01*
X192925123Y-87603474D01*
X192925120Y-87603472D01*
X192925118Y-87603471D01*
X192810961Y-87545304D01*
X192810956Y-87545302D01*
X192810955Y-87545302D01*
X192684400Y-87525258D01*
X192557845Y-87545302D01*
X192557838Y-87545304D01*
X192443681Y-87603471D01*
X192443679Y-87603472D01*
X192353072Y-87694079D01*
X192353071Y-87694081D01*
X192294904Y-87808238D01*
X192294902Y-87808245D01*
X192274858Y-87934799D01*
X192274858Y-87934800D01*
X72497620Y-87934800D01*
X72497620Y-86291000D01*
X91435958Y-86291000D01*
X91456002Y-86417554D01*
X91456004Y-86417561D01*
X91514171Y-86531718D01*
X91514174Y-86531723D01*
X91604777Y-86622326D01*
X91604779Y-86622327D01*
X91604781Y-86622328D01*
X91718938Y-86680495D01*
X91718940Y-86680495D01*
X91718945Y-86680498D01*
X91845500Y-86700542D01*
X91972055Y-86680498D01*
X92086223Y-86622326D01*
X92176826Y-86531723D01*
X92234998Y-86417555D01*
X92255042Y-86291000D01*
X92234998Y-86164445D01*
X92234995Y-86164440D01*
X92234995Y-86164438D01*
X92176828Y-86050281D01*
X92176827Y-86050279D01*
X92176826Y-86050277D01*
X92086223Y-85959674D01*
X92086220Y-85959672D01*
X92086218Y-85959671D01*
X91972061Y-85901504D01*
X91972056Y-85901502D01*
X91972055Y-85901502D01*
X91845500Y-85881458D01*
X91718945Y-85901502D01*
X91718938Y-85901504D01*
X91604781Y-85959671D01*
X91604779Y-85959672D01*
X91514172Y-86050279D01*
X91514171Y-86050281D01*
X91456004Y-86164438D01*
X91456002Y-86164445D01*
X91435958Y-86290999D01*
X91435958Y-86291000D01*
X72497620Y-86291000D01*
X72497620Y-83590000D01*
X123459196Y-83590000D01*
X123480281Y-83723127D01*
X123480282Y-83723129D01*
X123538924Y-83838220D01*
X123541472Y-83843220D01*
X123636780Y-83938528D01*
X123756874Y-83999719D01*
X123890000Y-84020804D01*
X124023126Y-83999719D01*
X124143220Y-83938528D01*
X124238528Y-83843220D01*
X124299719Y-83723126D01*
X124320804Y-83590000D01*
X124320012Y-83585000D01*
X132854196Y-83585000D01*
X132875281Y-83718127D01*
X132875282Y-83718129D01*
X132877829Y-83723127D01*
X132936472Y-83838220D01*
X133031780Y-83933528D01*
X133151874Y-83994719D01*
X133285000Y-84015804D01*
X133418126Y-83994719D01*
X133538220Y-83933528D01*
X133633528Y-83838220D01*
X133694719Y-83718126D01*
X133715804Y-83585000D01*
X133694719Y-83451874D01*
X133633528Y-83331780D01*
X133538220Y-83236472D01*
X133538217Y-83236470D01*
X133418129Y-83175282D01*
X133418127Y-83175281D01*
X133285000Y-83154196D01*
X133151872Y-83175281D01*
X133151870Y-83175282D01*
X133031782Y-83236470D01*
X132936470Y-83331782D01*
X132875282Y-83451870D01*
X132875281Y-83451872D01*
X132854196Y-83584999D01*
X132854196Y-83585000D01*
X124320012Y-83585000D01*
X124299719Y-83456874D01*
X124238528Y-83336780D01*
X124143220Y-83241472D01*
X124143217Y-83241470D01*
X124023129Y-83180282D01*
X124023127Y-83180281D01*
X123890000Y-83159196D01*
X123756872Y-83180281D01*
X123756870Y-83180282D01*
X123636782Y-83241470D01*
X123541470Y-83336782D01*
X123480282Y-83456870D01*
X123480281Y-83456872D01*
X123459196Y-83589999D01*
X123459196Y-83590000D01*
X72497620Y-83590000D01*
X72497620Y-81810000D01*
X91435958Y-81810000D01*
X91456002Y-81936554D01*
X91456004Y-81936561D01*
X91514171Y-82050718D01*
X91514174Y-82050723D01*
X91604777Y-82141326D01*
X91604779Y-82141327D01*
X91604781Y-82141328D01*
X91718938Y-82199495D01*
X91718940Y-82199495D01*
X91718945Y-82199498D01*
X91845500Y-82219542D01*
X91972055Y-82199498D01*
X92086223Y-82141326D01*
X92176826Y-82050723D01*
X92234998Y-81936555D01*
X92255042Y-81810000D01*
X92234998Y-81683445D01*
X92234995Y-81683440D01*
X92234995Y-81683438D01*
X92176828Y-81569281D01*
X92176827Y-81569279D01*
X92176826Y-81569277D01*
X92086223Y-81478674D01*
X92086220Y-81478672D01*
X92086218Y-81478671D01*
X91972061Y-81420504D01*
X91972056Y-81420502D01*
X91972055Y-81420502D01*
X91845500Y-81400458D01*
X91718945Y-81420502D01*
X91718938Y-81420504D01*
X91604781Y-81478671D01*
X91604779Y-81478672D01*
X91514172Y-81569279D01*
X91514171Y-81569281D01*
X91456004Y-81683438D01*
X91456002Y-81683445D01*
X91435958Y-81809999D01*
X91435958Y-81810000D01*
X72497620Y-81810000D01*
X72497620Y-80137000D01*
X190065058Y-80137000D01*
X190085102Y-80263554D01*
X190085104Y-80263561D01*
X190143271Y-80377718D01*
X190143274Y-80377723D01*
X190233877Y-80468326D01*
X190233879Y-80468327D01*
X190233881Y-80468328D01*
X190348038Y-80526495D01*
X190348040Y-80526495D01*
X190348045Y-80526498D01*
X190474600Y-80546542D01*
X190601155Y-80526498D01*
X190715323Y-80468326D01*
X190805926Y-80377723D01*
X190864098Y-80263555D01*
X190884142Y-80137000D01*
X190864098Y-80010445D01*
X190864095Y-80010440D01*
X190864095Y-80010438D01*
X190805928Y-79896281D01*
X190805927Y-79896279D01*
X190805926Y-79896277D01*
X190715323Y-79805674D01*
X190715320Y-79805672D01*
X190715318Y-79805671D01*
X190601161Y-79747504D01*
X190601156Y-79747502D01*
X190601155Y-79747502D01*
X190474600Y-79727458D01*
X190348045Y-79747502D01*
X190348038Y-79747504D01*
X190233881Y-79805671D01*
X190233879Y-79805672D01*
X190143272Y-79896279D01*
X190143271Y-79896281D01*
X190085104Y-80010438D01*
X190085102Y-80010445D01*
X190065058Y-80136999D01*
X190065058Y-80137000D01*
X72497620Y-80137000D01*
X72497620Y-78814500D01*
X91414696Y-78814500D01*
X91435781Y-78947627D01*
X91435782Y-78947629D01*
X91496970Y-79067717D01*
X91496972Y-79067720D01*
X91592280Y-79163028D01*
X91712374Y-79224219D01*
X91845500Y-79245304D01*
X91978626Y-79224219D01*
X92098720Y-79163028D01*
X92194028Y-79067720D01*
X92255219Y-78947626D01*
X92276304Y-78814500D01*
X92255219Y-78681374D01*
X92194028Y-78561280D01*
X92098720Y-78465972D01*
X92098717Y-78465970D01*
X91978629Y-78404782D01*
X91978627Y-78404781D01*
X91845500Y-78383696D01*
X91712372Y-78404781D01*
X91712370Y-78404782D01*
X91592282Y-78465970D01*
X91496970Y-78561282D01*
X91435782Y-78681370D01*
X91435781Y-78681372D01*
X91414696Y-78814499D01*
X91414696Y-78814500D01*
X72497620Y-78814500D01*
X72497620Y-77952600D01*
X185797858Y-77952600D01*
X185817902Y-78079154D01*
X185817904Y-78079161D01*
X185876071Y-78193318D01*
X185876074Y-78193323D01*
X185966677Y-78283926D01*
X185966679Y-78283927D01*
X185966681Y-78283928D01*
X186080838Y-78342095D01*
X186080840Y-78342095D01*
X186080845Y-78342098D01*
X186207400Y-78362142D01*
X186333955Y-78342098D01*
X186448123Y-78283926D01*
X186538726Y-78193323D01*
X186596898Y-78079155D01*
X186616942Y-77952600D01*
X186596898Y-77826045D01*
X186596895Y-77826040D01*
X186596895Y-77826038D01*
X186538728Y-77711881D01*
X186538727Y-77711879D01*
X186538726Y-77711877D01*
X186448123Y-77621274D01*
X186448120Y-77621272D01*
X186448118Y-77621271D01*
X186333961Y-77563104D01*
X186333956Y-77563102D01*
X186333955Y-77563102D01*
X186207400Y-77543058D01*
X186080845Y-77563102D01*
X186080838Y-77563104D01*
X185966681Y-77621271D01*
X185966679Y-77621272D01*
X185876072Y-77711879D01*
X185876071Y-77711881D01*
X185817904Y-77826038D01*
X185817902Y-77826045D01*
X185797858Y-77952599D01*
X185797858Y-77952600D01*
X72497620Y-77952600D01*
X72497620Y-77350000D01*
X93399196Y-77350000D01*
X93420281Y-77483127D01*
X93420282Y-77483129D01*
X93481470Y-77603217D01*
X93481472Y-77603220D01*
X93576780Y-77698528D01*
X93696874Y-77759719D01*
X93830000Y-77780804D01*
X93963126Y-77759719D01*
X94083220Y-77698528D01*
X94178528Y-77603220D01*
X94239719Y-77483126D01*
X94260804Y-77350000D01*
X94239719Y-77216874D01*
X94213963Y-77166326D01*
X94178529Y-77096782D01*
X94178528Y-77096780D01*
X94083220Y-77001472D01*
X94083217Y-77001470D01*
X93963129Y-76940282D01*
X93963127Y-76940281D01*
X93830000Y-76919196D01*
X93696872Y-76940281D01*
X93696870Y-76940282D01*
X93576782Y-77001470D01*
X93481470Y-77096782D01*
X93420282Y-77216870D01*
X93420281Y-77216872D01*
X93399196Y-77349999D01*
X93399196Y-77350000D01*
X72497620Y-77350000D01*
X72497620Y-76835000D01*
X182978458Y-76835000D01*
X182998502Y-76961554D01*
X182998504Y-76961561D01*
X183056671Y-77075718D01*
X183056674Y-77075723D01*
X183147277Y-77166326D01*
X183147279Y-77166327D01*
X183147281Y-77166328D01*
X183261438Y-77224495D01*
X183261440Y-77224495D01*
X183261445Y-77224498D01*
X183388000Y-77244542D01*
X183514555Y-77224498D01*
X183628723Y-77166326D01*
X183719326Y-77075723D01*
X183777498Y-76961555D01*
X183797542Y-76835000D01*
X183777498Y-76708445D01*
X183777495Y-76708440D01*
X183777495Y-76708438D01*
X183719328Y-76594281D01*
X183719327Y-76594279D01*
X183719326Y-76594277D01*
X183628723Y-76503674D01*
X183628720Y-76503672D01*
X183628718Y-76503671D01*
X183514561Y-76445504D01*
X183514556Y-76445502D01*
X183514555Y-76445502D01*
X183388000Y-76425458D01*
X183261445Y-76445502D01*
X183261438Y-76445504D01*
X183147281Y-76503671D01*
X183147279Y-76503672D01*
X183056672Y-76594279D01*
X183056671Y-76594281D01*
X182998504Y-76708438D01*
X182998502Y-76708445D01*
X182978458Y-76834999D01*
X182978458Y-76835000D01*
X72497620Y-76835000D01*
X72497620Y-76240000D01*
X92129196Y-76240000D01*
X92150281Y-76373127D01*
X92150282Y-76373129D01*
X92187158Y-76445502D01*
X92211472Y-76493220D01*
X92306780Y-76588528D01*
X92426874Y-76649719D01*
X92560000Y-76670804D01*
X92693126Y-76649719D01*
X92813220Y-76588528D01*
X92908528Y-76493220D01*
X92969719Y-76373126D01*
X92990804Y-76240000D01*
X92969719Y-76106874D01*
X92908528Y-75986780D01*
X92813220Y-75891472D01*
X92813217Y-75891470D01*
X92693129Y-75830282D01*
X92693127Y-75830281D01*
X92560000Y-75809196D01*
X92426872Y-75830281D01*
X92426870Y-75830282D01*
X92306782Y-75891470D01*
X92211470Y-75986782D01*
X92150282Y-76106870D01*
X92150281Y-76106872D01*
X92129196Y-76239999D01*
X92129196Y-76240000D01*
X72497620Y-76240000D01*
X72497620Y-75438000D01*
X186153458Y-75438000D01*
X186170392Y-75544922D01*
X186173502Y-75564554D01*
X186173504Y-75564561D01*
X186231671Y-75678718D01*
X186231674Y-75678723D01*
X186322277Y-75769326D01*
X186322279Y-75769327D01*
X186322281Y-75769328D01*
X186436438Y-75827495D01*
X186436440Y-75827495D01*
X186436445Y-75827498D01*
X186563000Y-75847542D01*
X186689555Y-75827498D01*
X186803723Y-75769326D01*
X186894326Y-75678723D01*
X186952498Y-75564555D01*
X186972542Y-75438000D01*
X186952498Y-75311445D01*
X186952495Y-75311440D01*
X186952495Y-75311438D01*
X186894328Y-75197281D01*
X186894327Y-75197279D01*
X186894326Y-75197277D01*
X186803723Y-75106674D01*
X186803720Y-75106672D01*
X186803718Y-75106671D01*
X186689561Y-75048504D01*
X186689556Y-75048502D01*
X186689555Y-75048502D01*
X186563000Y-75028458D01*
X186436445Y-75048502D01*
X186436438Y-75048504D01*
X186322281Y-75106671D01*
X186322279Y-75106672D01*
X186231672Y-75197279D01*
X186231671Y-75197281D01*
X186173504Y-75311438D01*
X186173502Y-75311445D01*
X186153458Y-75438000D01*
X72497620Y-75438000D01*
X72497620Y-74878673D01*
X72497622Y-74878658D01*
X72497622Y-74870911D01*
X72497641Y-74870849D01*
X72497639Y-74829875D01*
X72497640Y-74829875D01*
X72497637Y-74769299D01*
X72470674Y-74651187D01*
X72418105Y-74542035D01*
X72342566Y-74447317D01*
X72247844Y-74371782D01*
X72193267Y-74345500D01*
X72138691Y-74319218D01*
X72020576Y-74292260D01*
X71996884Y-74292260D01*
X71996875Y-74292259D01*
X71985356Y-74292259D01*
X71960769Y-74292259D01*
X71960766Y-74292260D01*
X71922931Y-74292260D01*
X71922913Y-74292261D01*
X69059222Y-74292378D01*
X68999420Y-74292378D01*
X68881312Y-74319336D01*
X68881306Y-74319338D01*
X68772163Y-74371898D01*
X68772160Y-74371900D01*
X68677440Y-74447436D01*
X68677436Y-74447440D01*
X68601900Y-74542160D01*
X68601898Y-74542163D01*
X68549338Y-74651306D01*
X68549336Y-74651312D01*
X68522378Y-74769420D01*
X68522378Y-96750579D01*
X51250870Y-96750579D01*
X51250870Y-93370003D01*
X52840450Y-93370003D01*
X52860807Y-93576703D01*
X52860808Y-93576708D01*
X52921103Y-93775472D01*
X52921105Y-93775477D01*
X53019008Y-93958642D01*
X53019014Y-93958651D01*
X53019016Y-93958654D01*
X53037194Y-93980804D01*
X53150780Y-94119210D01*
X53150789Y-94119219D01*
X53225671Y-94180672D01*
X53311346Y-94250984D01*
X53311350Y-94250986D01*
X53311357Y-94250991D01*
X53475817Y-94338896D01*
X53494528Y-94348897D01*
X53632997Y-94390900D01*
X53693291Y-94409191D01*
X53693296Y-94409192D01*
X53899997Y-94429550D01*
X53900000Y-94429550D01*
X53900003Y-94429550D01*
X54106703Y-94409192D01*
X54106708Y-94409191D01*
X54305472Y-94348897D01*
X54371146Y-94313793D01*
X54488642Y-94250991D01*
X54488645Y-94250988D01*
X54488654Y-94250984D01*
X54649215Y-94119215D01*
X54780984Y-93958654D01*
X54780988Y-93958645D01*
X54780991Y-93958642D01*
X54878894Y-93775477D01*
X54878897Y-93775472D01*
X54939191Y-93576708D01*
X54939192Y-93576703D01*
X54959550Y-93370003D01*
X65340450Y-93370003D01*
X65360807Y-93576703D01*
X65360808Y-93576708D01*
X65421103Y-93775472D01*
X65421105Y-93775477D01*
X65519008Y-93958642D01*
X65519014Y-93958651D01*
X65519016Y-93958654D01*
X65537194Y-93980804D01*
X65650780Y-94119210D01*
X65650789Y-94119219D01*
X65725671Y-94180672D01*
X65811346Y-94250984D01*
X65811350Y-94250986D01*
X65811357Y-94250991D01*
X65975817Y-94338896D01*
X65994528Y-94348897D01*
X66132997Y-94390900D01*
X66193291Y-94409191D01*
X66193296Y-94409192D01*
X66399997Y-94429550D01*
X66400000Y-94429550D01*
X66400003Y-94429550D01*
X66606703Y-94409192D01*
X66606708Y-94409191D01*
X66805472Y-94348897D01*
X66871146Y-94313793D01*
X66988642Y-94250991D01*
X66988645Y-94250988D01*
X66988654Y-94250984D01*
X67149215Y-94119215D01*
X67280984Y-93958654D01*
X67280988Y-93958645D01*
X67280991Y-93958642D01*
X67378894Y-93775477D01*
X67378897Y-93775472D01*
X67439191Y-93576708D01*
X67439192Y-93576703D01*
X67459550Y-93370003D01*
X67459550Y-93369996D01*
X67439192Y-93163296D01*
X67439191Y-93163291D01*
X67417153Y-93090642D01*
X67378897Y-92964528D01*
X67373552Y-92954528D01*
X67280991Y-92781357D01*
X67280986Y-92781350D01*
X67280984Y-92781346D01*
X67210672Y-92695671D01*
X67149219Y-92620789D01*
X67149210Y-92620780D01*
X67031889Y-92524498D01*
X66988654Y-92489016D01*
X66988651Y-92489014D01*
X66988642Y-92489008D01*
X66805477Y-92391105D01*
X66805472Y-92391103D01*
X66606708Y-92330808D01*
X66606703Y-92330807D01*
X66400003Y-92310450D01*
X66399997Y-92310450D01*
X66193296Y-92330807D01*
X66193291Y-92330808D01*
X65994527Y-92391103D01*
X65994522Y-92391105D01*
X65811357Y-92489008D01*
X65811347Y-92489015D01*
X65650789Y-92620780D01*
X65650780Y-92620789D01*
X65519015Y-92781347D01*
X65519008Y-92781357D01*
X65421105Y-92964522D01*
X65421103Y-92964527D01*
X65360808Y-93163291D01*
X65360807Y-93163296D01*
X65340450Y-93369996D01*
X65340450Y-93370003D01*
X54959550Y-93370003D01*
X54959550Y-93369996D01*
X54939192Y-93163296D01*
X54939191Y-93163291D01*
X54917153Y-93090642D01*
X54878897Y-92964528D01*
X54873552Y-92954528D01*
X54780991Y-92781357D01*
X54780986Y-92781350D01*
X54780984Y-92781346D01*
X54710672Y-92695671D01*
X54649219Y-92620789D01*
X54649210Y-92620780D01*
X54531889Y-92524498D01*
X54488654Y-92489016D01*
X54488651Y-92489014D01*
X54488642Y-92489008D01*
X54305477Y-92391105D01*
X54305472Y-92391103D01*
X54106708Y-92330808D01*
X54106703Y-92330807D01*
X53900003Y-92310450D01*
X53899997Y-92310450D01*
X53693296Y-92330807D01*
X53693291Y-92330808D01*
X53494527Y-92391103D01*
X53494522Y-92391105D01*
X53311357Y-92489008D01*
X53311347Y-92489015D01*
X53150789Y-92620780D01*
X53150780Y-92620789D01*
X53019015Y-92781347D01*
X53019008Y-92781357D01*
X52921105Y-92964522D01*
X52921103Y-92964527D01*
X52860808Y-93163291D01*
X52860807Y-93163296D01*
X52840450Y-93369996D01*
X52840450Y-93370003D01*
X51250870Y-93370003D01*
X51250870Y-91460864D01*
X58995502Y-91460864D01*
X59023928Y-91640341D01*
X59080085Y-91813173D01*
X59157489Y-91965089D01*
X59162585Y-91975089D01*
X59269398Y-92122105D01*
X59397895Y-92250602D01*
X59544911Y-92357415D01*
X59706827Y-92439915D01*
X59879654Y-92496070D01*
X59879655Y-92496070D01*
X59879658Y-92496071D01*
X60059136Y-92524498D01*
X60059139Y-92524498D01*
X60240864Y-92524498D01*
X60420341Y-92496071D01*
X60420342Y-92496070D01*
X60420346Y-92496070D01*
X60593173Y-92439915D01*
X60755089Y-92357415D01*
X60902105Y-92250602D01*
X61030602Y-92122105D01*
X61137415Y-91975089D01*
X61219915Y-91813173D01*
X61276070Y-91640346D01*
X61304498Y-91460861D01*
X61304498Y-91279139D01*
X61304498Y-91279135D01*
X61276071Y-91099658D01*
X61272822Y-91089658D01*
X61219915Y-90926827D01*
X61137415Y-90764911D01*
X61030602Y-90617895D01*
X60902105Y-90489398D01*
X60755089Y-90382585D01*
X60755088Y-90382584D01*
X60755086Y-90382583D01*
X60593173Y-90300085D01*
X60420341Y-90243928D01*
X60240864Y-90215502D01*
X60240861Y-90215502D01*
X60059139Y-90215502D01*
X60059136Y-90215502D01*
X59879658Y-90243928D01*
X59706826Y-90300085D01*
X59544913Y-90382583D01*
X59503274Y-90412836D01*
X59397895Y-90489398D01*
X59269398Y-90617895D01*
X59215991Y-90691403D01*
X59162583Y-90764913D01*
X59080085Y-90926826D01*
X59023928Y-91099658D01*
X58995502Y-91279135D01*
X58995502Y-91460864D01*
X51250870Y-91460864D01*
X51250870Y-74802765D01*
X59025503Y-74802765D01*
X59053929Y-74982242D01*
X59110086Y-75155074D01*
X59189760Y-75311445D01*
X59192586Y-75316990D01*
X59299399Y-75464006D01*
X59427896Y-75592503D01*
X59574912Y-75699316D01*
X59736828Y-75781816D01*
X59909655Y-75837971D01*
X59909656Y-75837971D01*
X59909659Y-75837972D01*
X60089137Y-75866399D01*
X60089140Y-75866399D01*
X60270865Y-75866399D01*
X60450342Y-75837972D01*
X60450343Y-75837971D01*
X60450347Y-75837971D01*
X60623174Y-75781816D01*
X60785090Y-75699316D01*
X60932106Y-75592503D01*
X61060603Y-75464006D01*
X61167416Y-75316990D01*
X61249916Y-75155074D01*
X61306071Y-74982247D01*
X61323715Y-74870849D01*
X61334499Y-74802765D01*
X61334499Y-74621036D01*
X61306072Y-74441559D01*
X61283439Y-74371902D01*
X61249916Y-74268728D01*
X61171588Y-74115000D01*
X111444196Y-74115000D01*
X111465281Y-74248127D01*
X111465282Y-74248129D01*
X111501565Y-74319338D01*
X111526472Y-74368220D01*
X111621780Y-74463528D01*
X111741874Y-74524719D01*
X111875000Y-74545804D01*
X112008126Y-74524719D01*
X112128220Y-74463528D01*
X112223528Y-74368220D01*
X112284719Y-74248126D01*
X112305804Y-74115000D01*
X112304507Y-74106814D01*
X112299708Y-74076514D01*
X112284719Y-73981874D01*
X112237703Y-73889600D01*
X195831700Y-73889600D01*
X195836396Y-73933281D01*
X195847782Y-73985623D01*
X195849675Y-73993371D01*
X195850270Y-73995804D01*
X195893278Y-74076514D01*
X195893281Y-74076518D01*
X195926624Y-74114999D01*
X195939772Y-74130172D01*
X195957365Y-74148127D01*
X196037183Y-74192774D01*
X196105304Y-74212776D01*
X196124602Y-74215550D01*
X196163196Y-74221100D01*
X196163200Y-74221100D01*
X198095472Y-74221100D01*
X198153663Y-74240007D01*
X198165476Y-74250096D01*
X199460303Y-75544922D01*
X199488080Y-75599439D01*
X199489299Y-75614926D01*
X199489299Y-77470960D01*
X199489301Y-77471011D01*
X199490149Y-77489633D01*
X199490150Y-77489642D01*
X199492230Y-77512442D01*
X199513435Y-77586390D01*
X199545433Y-77649767D01*
X199578958Y-77697699D01*
X199578962Y-77697703D01*
X199578965Y-77697707D01*
X200269538Y-78434319D01*
X200269540Y-78434321D01*
X200269546Y-78434327D01*
X200287960Y-78451689D01*
X200311761Y-78471510D01*
X200385371Y-78510774D01*
X200453492Y-78530776D01*
X200472790Y-78533550D01*
X200511384Y-78539100D01*
X200511388Y-78539100D01*
X203605011Y-78539100D01*
X203606073Y-78539042D01*
X203626973Y-78537923D01*
X203653756Y-78535044D01*
X203730281Y-78511083D01*
X203730284Y-78511080D01*
X203730287Y-78511080D01*
X203745955Y-78502523D01*
X203792593Y-78477057D01*
X203839415Y-78442005D01*
X204324405Y-77957015D01*
X204339102Y-77940655D01*
X204356005Y-77919681D01*
X204393174Y-77848627D01*
X204413176Y-77780506D01*
X204416743Y-77755693D01*
X204421500Y-77722614D01*
X204421500Y-74790864D01*
X244685502Y-74790864D01*
X244713928Y-74970341D01*
X244713930Y-74970346D01*
X244770085Y-75143173D01*
X244852585Y-75305089D01*
X244959398Y-75452105D01*
X245087895Y-75580602D01*
X245234911Y-75687415D01*
X245396827Y-75769915D01*
X245569654Y-75826070D01*
X245569655Y-75826070D01*
X245569658Y-75826071D01*
X245749136Y-75854498D01*
X245749139Y-75854498D01*
X245930864Y-75854498D01*
X246110341Y-75826071D01*
X246110342Y-75826070D01*
X246110346Y-75826070D01*
X246283173Y-75769915D01*
X246445089Y-75687415D01*
X246592105Y-75580602D01*
X246720602Y-75452105D01*
X246827415Y-75305089D01*
X246909915Y-75143173D01*
X246966070Y-74970346D01*
X246980592Y-74878658D01*
X246994498Y-74790864D01*
X246994498Y-74609135D01*
X246966071Y-74429658D01*
X246947305Y-74371902D01*
X246909915Y-74256827D01*
X246827415Y-74094911D01*
X246720602Y-73947895D01*
X246592105Y-73819398D01*
X246445089Y-73712585D01*
X246445088Y-73712584D01*
X246445086Y-73712583D01*
X246283173Y-73630085D01*
X246110341Y-73573928D01*
X245930864Y-73545502D01*
X245930861Y-73545502D01*
X245749139Y-73545502D01*
X245749136Y-73545502D01*
X245569658Y-73573928D01*
X245396826Y-73630085D01*
X245234913Y-73712583D01*
X245181910Y-73751092D01*
X245087895Y-73819398D01*
X244959398Y-73947895D01*
X244924591Y-73995803D01*
X244852583Y-74094913D01*
X244770085Y-74256826D01*
X244713928Y-74429658D01*
X244685502Y-74609135D01*
X244685502Y-74790864D01*
X204421500Y-74790864D01*
X204421500Y-72700003D01*
X238530450Y-72700003D01*
X238550807Y-72906703D01*
X238550808Y-72906708D01*
X238611103Y-73105472D01*
X238611105Y-73105477D01*
X238709008Y-73288642D01*
X238709014Y-73288651D01*
X238709016Y-73288654D01*
X238718783Y-73300555D01*
X238840780Y-73449210D01*
X238840789Y-73449219D01*
X238891331Y-73490697D01*
X239001346Y-73580984D01*
X239001350Y-73580986D01*
X239001357Y-73580991D01*
X239184522Y-73678894D01*
X239184528Y-73678897D01*
X239322997Y-73720900D01*
X239383291Y-73739191D01*
X239383296Y-73739192D01*
X239589997Y-73759550D01*
X239590000Y-73759550D01*
X239590003Y-73759550D01*
X239796703Y-73739192D01*
X239796708Y-73739191D01*
X239816698Y-73733127D01*
X239995472Y-73678897D01*
X240061146Y-73643793D01*
X240178642Y-73580991D01*
X240178645Y-73580988D01*
X240178654Y-73580984D01*
X240339215Y-73449215D01*
X240470984Y-73288654D01*
X240470988Y-73288645D01*
X240470991Y-73288642D01*
X240534836Y-73169196D01*
X240568897Y-73105472D01*
X240629191Y-72906708D01*
X240629192Y-72906703D01*
X240649550Y-72700003D01*
X240649550Y-72700000D01*
X250931108Y-72700000D01*
X250950840Y-72912945D01*
X251009366Y-73118642D01*
X251064884Y-73230139D01*
X251495543Y-72799479D01*
X251530937Y-72931571D01*
X251609922Y-73068377D01*
X251721623Y-73180078D01*
X251858429Y-73259063D01*
X251990517Y-73294455D01*
X251557465Y-73727508D01*
X251573432Y-73737395D01*
X251573436Y-73737397D01*
X251772856Y-73814652D01*
X251983071Y-73853948D01*
X252196929Y-73853948D01*
X252407143Y-73814652D01*
X252606562Y-73737397D01*
X252606564Y-73737397D01*
X252622533Y-73727508D01*
X252189481Y-73294456D01*
X252321571Y-73259063D01*
X252458377Y-73180078D01*
X252570078Y-73068377D01*
X252649063Y-72931571D01*
X252684456Y-72799481D01*
X253115114Y-73230139D01*
X253170633Y-73118642D01*
X253229159Y-72912945D01*
X253248891Y-72700000D01*
X253229159Y-72487054D01*
X253170633Y-72281357D01*
X253115114Y-72169859D01*
X252684455Y-72600517D01*
X252649063Y-72468429D01*
X252570078Y-72331623D01*
X252458377Y-72219922D01*
X252321571Y-72140937D01*
X252189479Y-72105543D01*
X252622533Y-71672490D01*
X252606566Y-71662603D01*
X252407143Y-71585347D01*
X252196929Y-71546052D01*
X251983071Y-71546052D01*
X251772856Y-71585347D01*
X251573437Y-71662601D01*
X251573429Y-71662605D01*
X251557465Y-71672490D01*
X251990518Y-72105543D01*
X251858429Y-72140937D01*
X251721623Y-72219922D01*
X251609922Y-72331623D01*
X251530937Y-72468429D01*
X251495543Y-72600518D01*
X251064884Y-72169859D01*
X251064883Y-72169859D01*
X251009367Y-72281352D01*
X250950840Y-72487054D01*
X250931108Y-72700000D01*
X240649550Y-72700000D01*
X240649550Y-72699996D01*
X240629192Y-72493296D01*
X240629191Y-72493291D01*
X240593848Y-72376782D01*
X240568897Y-72294528D01*
X240568218Y-72293258D01*
X240470991Y-72111357D01*
X240470986Y-72111350D01*
X240470984Y-72111346D01*
X240400672Y-72025671D01*
X240339219Y-71950789D01*
X240339210Y-71950780D01*
X240193154Y-71830916D01*
X240178654Y-71819016D01*
X240178651Y-71819014D01*
X240178642Y-71819008D01*
X239995477Y-71721105D01*
X239995472Y-71721103D01*
X239796708Y-71660808D01*
X239796703Y-71660807D01*
X239590003Y-71640450D01*
X239589997Y-71640450D01*
X239383296Y-71660807D01*
X239383291Y-71660808D01*
X239184527Y-71721103D01*
X239184522Y-71721105D01*
X239001357Y-71819008D01*
X239001347Y-71819015D01*
X238840789Y-71950780D01*
X238840780Y-71950789D01*
X238709015Y-72111347D01*
X238709008Y-72111357D01*
X238611105Y-72294522D01*
X238611103Y-72294527D01*
X238550808Y-72493291D01*
X238550807Y-72493296D01*
X238530450Y-72699996D01*
X238530450Y-72700003D01*
X204421500Y-72700003D01*
X204421500Y-68835389D01*
X204421226Y-68830281D01*
X204420323Y-68813427D01*
X204417444Y-68786644D01*
X204402586Y-68739191D01*
X204393485Y-68710124D01*
X204393480Y-68710112D01*
X204359460Y-68647813D01*
X204359459Y-68647810D01*
X204324409Y-68600990D01*
X204324407Y-68600988D01*
X204324405Y-68600985D01*
X203737815Y-68014395D01*
X203737805Y-68014386D01*
X203737799Y-68014380D01*
X203721460Y-67999702D01*
X203721440Y-67999685D01*
X203700490Y-67982801D01*
X203700477Y-67982792D01*
X203629427Y-67945625D01*
X203561307Y-67925624D01*
X203561303Y-67925623D01*
X203503414Y-67917300D01*
X203503410Y-67917300D01*
X200356590Y-67917300D01*
X200356589Y-67917300D01*
X200334627Y-67918477D01*
X200334614Y-67918478D01*
X200307844Y-67921356D01*
X200307842Y-67921356D01*
X200231324Y-67945314D01*
X200231312Y-67945319D01*
X200169013Y-67979339D01*
X200169010Y-67979340D01*
X200122190Y-68014390D01*
X200122185Y-68014394D01*
X200122185Y-68014395D01*
X199586395Y-68550185D01*
X199586388Y-68550192D01*
X199586380Y-68550200D01*
X199571702Y-68566539D01*
X199571685Y-68566559D01*
X199554801Y-68587509D01*
X199554792Y-68587522D01*
X199517625Y-68658572D01*
X199497624Y-68726692D01*
X199497623Y-68726696D01*
X199489300Y-68784585D01*
X199489300Y-71451072D01*
X199470393Y-71509263D01*
X199460304Y-71521076D01*
X198267076Y-72714304D01*
X198212559Y-72742081D01*
X198197072Y-72743300D01*
X196163200Y-72743300D01*
X196126799Y-72747213D01*
X196119518Y-72747996D01*
X196107036Y-72750711D01*
X196067177Y-72759382D01*
X196061860Y-72760681D01*
X196056995Y-72761870D01*
X195976285Y-72804878D01*
X195976281Y-72804881D01*
X195922630Y-72851369D01*
X195904674Y-72868963D01*
X195860026Y-72948782D01*
X195840023Y-73016906D01*
X195831700Y-73074795D01*
X195831700Y-73074800D01*
X195831700Y-73889600D01*
X112237703Y-73889600D01*
X112223528Y-73861780D01*
X112128220Y-73766472D01*
X112128217Y-73766470D01*
X112008129Y-73705282D01*
X112008127Y-73705281D01*
X111875000Y-73684196D01*
X111741872Y-73705281D01*
X111741870Y-73705282D01*
X111621782Y-73766470D01*
X111526470Y-73861782D01*
X111465282Y-73981870D01*
X111465281Y-73981872D01*
X111444196Y-74114999D01*
X111444196Y-74115000D01*
X61171588Y-74115000D01*
X61167416Y-74106812D01*
X61060603Y-73959796D01*
X60932106Y-73831299D01*
X60785090Y-73724486D01*
X60785089Y-73724485D01*
X60785087Y-73724484D01*
X60623174Y-73641986D01*
X60450342Y-73585829D01*
X60270865Y-73557403D01*
X60270862Y-73557403D01*
X60089140Y-73557403D01*
X60089137Y-73557403D01*
X59909659Y-73585829D01*
X59736827Y-73641986D01*
X59574914Y-73724484D01*
X59538290Y-73751093D01*
X59427896Y-73831299D01*
X59299399Y-73959796D01*
X59263129Y-74009718D01*
X59192584Y-74106814D01*
X59110086Y-74268727D01*
X59053929Y-74441559D01*
X59025503Y-74621036D01*
X59025503Y-74802765D01*
X51250870Y-74802765D01*
X51250870Y-72711904D01*
X52870451Y-72711904D01*
X52890808Y-72918604D01*
X52890809Y-72918609D01*
X52951104Y-73117373D01*
X52951106Y-73117378D01*
X53049009Y-73300543D01*
X53049015Y-73300552D01*
X53049017Y-73300555D01*
X53082967Y-73341923D01*
X53180781Y-73461111D01*
X53180790Y-73461120D01*
X53241255Y-73510742D01*
X53341347Y-73592885D01*
X53341351Y-73592887D01*
X53341358Y-73592892D01*
X53524523Y-73690795D01*
X53524529Y-73690798D01*
X53662998Y-73732801D01*
X53723292Y-73751092D01*
X53723297Y-73751093D01*
X53929998Y-73771451D01*
X53930001Y-73771451D01*
X53930004Y-73771451D01*
X54136704Y-73751093D01*
X54136709Y-73751092D01*
X54142630Y-73749296D01*
X54335473Y-73690798D01*
X54449059Y-73630085D01*
X54518643Y-73592892D01*
X54518646Y-73592889D01*
X54518655Y-73592885D01*
X54679216Y-73461116D01*
X54810985Y-73300555D01*
X54810989Y-73300546D01*
X54810992Y-73300543D01*
X54901858Y-73130543D01*
X54908898Y-73117373D01*
X54969192Y-72918609D01*
X54969193Y-72918604D01*
X54989551Y-72711904D01*
X54989551Y-72711897D01*
X54981485Y-72630000D01*
X55829196Y-72630000D01*
X55850281Y-72763127D01*
X55850282Y-72763129D01*
X55911470Y-72883217D01*
X55911472Y-72883220D01*
X56006780Y-72978528D01*
X56126874Y-73039719D01*
X56260000Y-73060804D01*
X56393126Y-73039719D01*
X56513220Y-72978528D01*
X56608528Y-72883220D01*
X56669719Y-72763126D01*
X56677832Y-72711901D01*
X65271109Y-72711901D01*
X65290841Y-72924846D01*
X65349367Y-73130543D01*
X65404885Y-73242040D01*
X65835544Y-72811380D01*
X65870938Y-72943472D01*
X65949923Y-73080278D01*
X66061624Y-73191979D01*
X66198430Y-73270964D01*
X66330518Y-73306356D01*
X65897466Y-73739409D01*
X65913433Y-73749296D01*
X65913437Y-73749298D01*
X66112857Y-73826553D01*
X66323072Y-73865849D01*
X66536930Y-73865849D01*
X66747144Y-73826553D01*
X66946563Y-73749298D01*
X66946565Y-73749298D01*
X66962534Y-73739409D01*
X66823125Y-73600000D01*
X84369196Y-73600000D01*
X84390281Y-73733127D01*
X84390282Y-73733129D01*
X84451470Y-73853217D01*
X84451472Y-73853220D01*
X84546780Y-73948528D01*
X84666874Y-74009719D01*
X84800000Y-74030804D01*
X84933126Y-74009719D01*
X85053220Y-73948528D01*
X85148528Y-73853220D01*
X85209719Y-73733126D01*
X85230804Y-73600000D01*
X85209719Y-73466874D01*
X85148528Y-73346780D01*
X85053220Y-73251472D01*
X85053217Y-73251470D01*
X84933129Y-73190282D01*
X84933127Y-73190281D01*
X84800000Y-73169196D01*
X84666872Y-73190281D01*
X84666870Y-73190282D01*
X84546782Y-73251470D01*
X84451470Y-73346782D01*
X84390282Y-73466870D01*
X84390281Y-73466872D01*
X84369196Y-73599999D01*
X84369196Y-73600000D01*
X66823125Y-73600000D01*
X66529482Y-73306357D01*
X66661572Y-73270964D01*
X66798378Y-73191979D01*
X66910079Y-73080278D01*
X66989064Y-72943472D01*
X67024457Y-72811382D01*
X67455115Y-73242040D01*
X67510634Y-73130543D01*
X67569160Y-72924846D01*
X67580729Y-72800000D01*
X139179196Y-72800000D01*
X139200281Y-72933127D01*
X139200282Y-72933129D01*
X139261470Y-73053217D01*
X139261472Y-73053220D01*
X139356780Y-73148528D01*
X139476874Y-73209719D01*
X139610000Y-73230804D01*
X139743126Y-73209719D01*
X139863220Y-73148528D01*
X139910548Y-73101200D01*
X183791258Y-73101200D01*
X183808445Y-73209719D01*
X183811302Y-73227754D01*
X183811304Y-73227761D01*
X183854150Y-73311849D01*
X183869474Y-73341923D01*
X183960077Y-73432526D01*
X183960079Y-73432527D01*
X183960081Y-73432528D01*
X184074238Y-73490695D01*
X184074240Y-73490695D01*
X184074245Y-73490698D01*
X184200800Y-73510742D01*
X184327355Y-73490698D01*
X184441523Y-73432526D01*
X184532126Y-73341923D01*
X184590298Y-73227755D01*
X184610342Y-73101200D01*
X184590298Y-72974645D01*
X184590295Y-72974640D01*
X184590295Y-72974638D01*
X184532128Y-72860481D01*
X184532127Y-72860479D01*
X184532126Y-72860477D01*
X184441523Y-72769874D01*
X184441520Y-72769872D01*
X184441518Y-72769871D01*
X184327361Y-72711704D01*
X184327356Y-72711702D01*
X184327355Y-72711702D01*
X184200800Y-72691658D01*
X184074245Y-72711702D01*
X184074238Y-72711704D01*
X183960081Y-72769871D01*
X183960079Y-72769872D01*
X183869472Y-72860479D01*
X183869471Y-72860481D01*
X183811304Y-72974638D01*
X183811302Y-72974645D01*
X183796457Y-73068377D01*
X183791258Y-73101200D01*
X139910548Y-73101200D01*
X139958528Y-73053220D01*
X140019719Y-72933126D01*
X140040804Y-72800000D01*
X140039360Y-72790886D01*
X140036835Y-72774945D01*
X140019719Y-72666874D01*
X139958528Y-72546780D01*
X139863220Y-72451472D01*
X139863217Y-72451470D01*
X139743129Y-72390282D01*
X139743127Y-72390281D01*
X139610000Y-72369196D01*
X139476872Y-72390281D01*
X139476870Y-72390282D01*
X139356782Y-72451470D01*
X139261470Y-72546782D01*
X139200282Y-72666870D01*
X139200281Y-72666872D01*
X139179196Y-72799999D01*
X139179196Y-72800000D01*
X67580729Y-72800000D01*
X67588892Y-72711901D01*
X67569160Y-72498955D01*
X67510634Y-72293258D01*
X67455115Y-72181760D01*
X67024456Y-72612418D01*
X66989064Y-72480330D01*
X66910079Y-72343524D01*
X66798378Y-72231823D01*
X66661572Y-72152838D01*
X66529480Y-72117444D01*
X66962534Y-71684391D01*
X66946567Y-71674504D01*
X66747144Y-71597248D01*
X66536930Y-71557953D01*
X66323072Y-71557953D01*
X66112857Y-71597248D01*
X65913438Y-71674502D01*
X65913430Y-71674506D01*
X65897466Y-71684391D01*
X66330519Y-72117444D01*
X66198430Y-72152838D01*
X66061624Y-72231823D01*
X65949923Y-72343524D01*
X65870938Y-72480330D01*
X65835544Y-72612419D01*
X65404885Y-72181760D01*
X65404884Y-72181760D01*
X65349368Y-72293253D01*
X65290841Y-72498955D01*
X65271109Y-72711901D01*
X56677832Y-72711901D01*
X56690804Y-72630000D01*
X56669719Y-72496874D01*
X56646584Y-72451470D01*
X56608529Y-72376782D01*
X56608528Y-72376780D01*
X56513220Y-72281472D01*
X56513217Y-72281470D01*
X56393129Y-72220282D01*
X56393127Y-72220281D01*
X56260000Y-72199196D01*
X56126872Y-72220281D01*
X56126870Y-72220282D01*
X56006782Y-72281470D01*
X55911470Y-72376782D01*
X55850282Y-72496870D01*
X55850281Y-72496872D01*
X55829196Y-72629999D01*
X55829196Y-72630000D01*
X54981485Y-72630000D01*
X54969193Y-72505197D01*
X54969192Y-72505192D01*
X54930239Y-72376782D01*
X54908898Y-72306429D01*
X54902537Y-72294528D01*
X54810992Y-72123258D01*
X54810987Y-72123251D01*
X54810985Y-72123247D01*
X54740673Y-72037572D01*
X54679220Y-71962690D01*
X54679211Y-71962681D01*
X54585608Y-71885864D01*
X54518655Y-71830917D01*
X54518652Y-71830915D01*
X54518643Y-71830909D01*
X54335478Y-71733006D01*
X54335473Y-71733004D01*
X54136709Y-71672709D01*
X54136704Y-71672708D01*
X53930004Y-71652351D01*
X53929998Y-71652351D01*
X53723297Y-71672708D01*
X53723292Y-71672709D01*
X53524528Y-71733004D01*
X53524523Y-71733006D01*
X53341358Y-71830909D01*
X53341348Y-71830916D01*
X53180790Y-71962681D01*
X53180781Y-71962690D01*
X53049016Y-72123248D01*
X53049009Y-72123258D01*
X52951106Y-72306423D01*
X52951104Y-72306428D01*
X52890809Y-72505192D01*
X52890808Y-72505197D01*
X52870451Y-72711897D01*
X52870451Y-72711904D01*
X51250870Y-72711904D01*
X51250870Y-69240000D01*
X78939196Y-69240000D01*
X78960281Y-69373127D01*
X78960282Y-69373129D01*
X79021470Y-69493217D01*
X79021472Y-69493220D01*
X79116780Y-69588528D01*
X79236874Y-69649719D01*
X79370000Y-69670804D01*
X79503126Y-69649719D01*
X79623220Y-69588528D01*
X79718528Y-69493220D01*
X79779719Y-69373126D01*
X79800804Y-69240000D01*
X126299196Y-69240000D01*
X126320281Y-69373127D01*
X126320282Y-69373129D01*
X126381470Y-69493217D01*
X126381472Y-69493220D01*
X126476780Y-69588528D01*
X126596874Y-69649719D01*
X126730000Y-69670804D01*
X126863126Y-69649719D01*
X126983220Y-69588528D01*
X127078528Y-69493220D01*
X127139719Y-69373126D01*
X127160804Y-69240000D01*
X127139719Y-69106874D01*
X127078528Y-68986780D01*
X126983220Y-68891472D01*
X126983217Y-68891470D01*
X126863129Y-68830282D01*
X126863127Y-68830281D01*
X126730000Y-68809196D01*
X126596872Y-68830281D01*
X126596870Y-68830282D01*
X126476782Y-68891470D01*
X126381470Y-68986782D01*
X126320282Y-69106870D01*
X126320281Y-69106872D01*
X126299196Y-69239999D01*
X126299196Y-69240000D01*
X79800804Y-69240000D01*
X79779719Y-69106874D01*
X79718528Y-68986780D01*
X79623220Y-68891472D01*
X79623217Y-68891470D01*
X79503129Y-68830282D01*
X79503127Y-68830281D01*
X79370000Y-68809196D01*
X79236872Y-68830281D01*
X79236870Y-68830282D01*
X79116782Y-68891470D01*
X79021470Y-68986782D01*
X78960282Y-69106870D01*
X78960281Y-69106872D01*
X78939196Y-69239999D01*
X78939196Y-69240000D01*
X51250870Y-69240000D01*
X51250870Y-67711904D01*
X52870451Y-67711904D01*
X52890808Y-67918604D01*
X52890809Y-67918609D01*
X52951104Y-68117373D01*
X52951106Y-68117378D01*
X53049009Y-68300543D01*
X53049015Y-68300552D01*
X53049017Y-68300555D01*
X53103964Y-68367508D01*
X53180781Y-68461111D01*
X53180790Y-68461120D01*
X53255672Y-68522573D01*
X53341347Y-68592885D01*
X53341351Y-68592887D01*
X53341358Y-68592892D01*
X53524523Y-68690795D01*
X53524529Y-68690798D01*
X53642863Y-68726694D01*
X53723292Y-68751092D01*
X53723297Y-68751093D01*
X53929998Y-68771451D01*
X53930001Y-68771451D01*
X53930004Y-68771451D01*
X54136704Y-68751093D01*
X54136709Y-68751092D01*
X54175938Y-68739192D01*
X54335473Y-68690798D01*
X54415903Y-68647807D01*
X54518643Y-68592892D01*
X54518646Y-68592889D01*
X54518655Y-68592885D01*
X54679216Y-68461116D01*
X54810985Y-68300555D01*
X54810989Y-68300546D01*
X54810992Y-68300543D01*
X54874993Y-68180804D01*
X54908898Y-68117373D01*
X54969192Y-67918609D01*
X54969193Y-67918604D01*
X54989551Y-67711904D01*
X65370451Y-67711904D01*
X65390808Y-67918604D01*
X65390809Y-67918609D01*
X65451104Y-68117373D01*
X65451106Y-68117378D01*
X65549009Y-68300543D01*
X65549015Y-68300552D01*
X65549017Y-68300555D01*
X65603964Y-68367508D01*
X65680781Y-68461111D01*
X65680790Y-68461120D01*
X65755672Y-68522573D01*
X65841347Y-68592885D01*
X65841351Y-68592887D01*
X65841358Y-68592892D01*
X66024523Y-68690795D01*
X66024529Y-68690798D01*
X66142863Y-68726694D01*
X66223292Y-68751092D01*
X66223297Y-68751093D01*
X66429998Y-68771451D01*
X66430001Y-68771451D01*
X66430004Y-68771451D01*
X66636704Y-68751093D01*
X66636709Y-68751092D01*
X66675938Y-68739192D01*
X66835473Y-68690798D01*
X66915903Y-68647807D01*
X67018643Y-68592892D01*
X67018646Y-68592889D01*
X67018655Y-68592885D01*
X67179216Y-68461116D01*
X67310985Y-68300555D01*
X67310989Y-68300546D01*
X67310992Y-68300543D01*
X67374993Y-68180804D01*
X67408898Y-68117373D01*
X67469192Y-67918609D01*
X67469193Y-67918604D01*
X67489551Y-67711904D01*
X67489551Y-67711897D01*
X67489364Y-67710000D01*
X76819196Y-67710000D01*
X76840281Y-67843127D01*
X76840282Y-67843129D01*
X76892507Y-67945626D01*
X76901472Y-67963220D01*
X76996780Y-68058528D01*
X76996782Y-68058529D01*
X77112279Y-68117378D01*
X77116874Y-68119719D01*
X77250000Y-68140804D01*
X77383126Y-68119719D01*
X77503220Y-68058528D01*
X77598528Y-67963220D01*
X77659719Y-67843126D01*
X77680804Y-67710000D01*
X128459196Y-67710000D01*
X128480281Y-67843127D01*
X128480282Y-67843129D01*
X128532507Y-67945626D01*
X128541472Y-67963220D01*
X128636780Y-68058528D01*
X128636782Y-68058529D01*
X128752279Y-68117378D01*
X128756874Y-68119719D01*
X128890000Y-68140804D01*
X129023126Y-68119719D01*
X129143220Y-68058528D01*
X129238528Y-67963220D01*
X129299719Y-67843126D01*
X129320804Y-67710000D01*
X129319221Y-67700003D01*
X238530450Y-67700003D01*
X238550807Y-67906703D01*
X238550808Y-67906708D01*
X238611103Y-68105472D01*
X238611105Y-68105477D01*
X238709008Y-68288642D01*
X238709014Y-68288651D01*
X238709016Y-68288654D01*
X238718783Y-68300555D01*
X238840780Y-68449210D01*
X238840789Y-68449219D01*
X238855280Y-68461111D01*
X239001346Y-68580984D01*
X239001350Y-68580986D01*
X239001357Y-68580991D01*
X239184522Y-68678894D01*
X239184528Y-68678897D01*
X239322997Y-68720900D01*
X239383291Y-68739191D01*
X239383296Y-68739192D01*
X239589997Y-68759550D01*
X239590000Y-68759550D01*
X239590003Y-68759550D01*
X239796703Y-68739192D01*
X239796708Y-68739191D01*
X239995472Y-68678897D01*
X240061146Y-68643793D01*
X240178642Y-68580991D01*
X240178645Y-68580988D01*
X240178654Y-68580984D01*
X240339215Y-68449215D01*
X240470984Y-68288654D01*
X240470988Y-68288645D01*
X240470991Y-68288642D01*
X240539902Y-68159717D01*
X240568897Y-68105472D01*
X240629191Y-67906708D01*
X240629192Y-67906703D01*
X240644626Y-67750000D01*
X244249195Y-67750000D01*
X244270280Y-67883127D01*
X244270281Y-67883129D01*
X244329676Y-67999698D01*
X244331471Y-68003220D01*
X244426779Y-68098528D01*
X244546873Y-68159719D01*
X244679999Y-68180804D01*
X244813125Y-68159719D01*
X244933219Y-68098528D01*
X245028527Y-68003220D01*
X245089718Y-67883126D01*
X245110803Y-67750000D01*
X245102884Y-67700003D01*
X251030450Y-67700003D01*
X251050807Y-67906703D01*
X251050808Y-67906708D01*
X251111103Y-68105472D01*
X251111105Y-68105477D01*
X251209008Y-68288642D01*
X251209014Y-68288651D01*
X251209016Y-68288654D01*
X251218783Y-68300555D01*
X251340780Y-68449210D01*
X251340789Y-68449219D01*
X251355280Y-68461111D01*
X251501346Y-68580984D01*
X251501350Y-68580986D01*
X251501357Y-68580991D01*
X251684522Y-68678894D01*
X251684528Y-68678897D01*
X251822997Y-68720900D01*
X251883291Y-68739191D01*
X251883296Y-68739192D01*
X252089997Y-68759550D01*
X252090000Y-68759550D01*
X252090003Y-68759550D01*
X252296703Y-68739192D01*
X252296708Y-68739191D01*
X252495472Y-68678897D01*
X252561146Y-68643793D01*
X252678642Y-68580991D01*
X252678645Y-68580988D01*
X252678654Y-68580984D01*
X252839215Y-68449215D01*
X252970984Y-68288654D01*
X252970988Y-68288645D01*
X252970991Y-68288642D01*
X253039902Y-68159717D01*
X253068897Y-68105472D01*
X253129191Y-67906708D01*
X253129192Y-67906703D01*
X253149550Y-67700003D01*
X253149550Y-67699996D01*
X253129192Y-67493296D01*
X253129191Y-67493291D01*
X253082776Y-67340282D01*
X253068897Y-67294528D01*
X253060702Y-67279196D01*
X252970991Y-67111357D01*
X252970986Y-67111350D01*
X252970984Y-67111346D01*
X252900672Y-67025671D01*
X252839219Y-66950789D01*
X252839210Y-66950780D01*
X252721889Y-66854498D01*
X252678654Y-66819016D01*
X252678651Y-66819014D01*
X252678642Y-66819008D01*
X252495477Y-66721105D01*
X252495472Y-66721103D01*
X252296708Y-66660808D01*
X252296703Y-66660807D01*
X252090003Y-66640450D01*
X252089997Y-66640450D01*
X251883296Y-66660807D01*
X251883291Y-66660808D01*
X251684527Y-66721103D01*
X251684522Y-66721105D01*
X251501357Y-66819008D01*
X251501347Y-66819015D01*
X251340789Y-66950780D01*
X251340780Y-66950789D01*
X251209015Y-67111347D01*
X251209008Y-67111357D01*
X251111105Y-67294522D01*
X251111103Y-67294527D01*
X251050808Y-67493291D01*
X251050807Y-67493296D01*
X251030450Y-67699996D01*
X251030450Y-67700003D01*
X245102884Y-67700003D01*
X245089718Y-67616874D01*
X245028527Y-67496780D01*
X244933219Y-67401472D01*
X244933216Y-67401470D01*
X244813128Y-67340282D01*
X244813126Y-67340281D01*
X244679999Y-67319196D01*
X244546871Y-67340281D01*
X244546869Y-67340282D01*
X244426781Y-67401470D01*
X244331469Y-67496782D01*
X244270281Y-67616870D01*
X244270280Y-67616872D01*
X244249195Y-67749999D01*
X244249195Y-67750000D01*
X240644626Y-67750000D01*
X240649550Y-67700003D01*
X240649550Y-67699996D01*
X240629192Y-67493296D01*
X240629191Y-67493291D01*
X240582776Y-67340282D01*
X240568897Y-67294528D01*
X240560702Y-67279196D01*
X240470991Y-67111357D01*
X240470986Y-67111350D01*
X240470984Y-67111346D01*
X240400672Y-67025671D01*
X240339219Y-66950789D01*
X240339210Y-66950780D01*
X240221889Y-66854498D01*
X240178654Y-66819016D01*
X240178651Y-66819014D01*
X240178642Y-66819008D01*
X239995477Y-66721105D01*
X239995472Y-66721103D01*
X239796708Y-66660808D01*
X239796703Y-66660807D01*
X239590003Y-66640450D01*
X239589997Y-66640450D01*
X239383296Y-66660807D01*
X239383291Y-66660808D01*
X239184527Y-66721103D01*
X239184522Y-66721105D01*
X239001357Y-66819008D01*
X239001347Y-66819015D01*
X238840789Y-66950780D01*
X238840780Y-66950789D01*
X238709015Y-67111347D01*
X238709008Y-67111357D01*
X238611105Y-67294522D01*
X238611103Y-67294527D01*
X238550808Y-67493291D01*
X238550807Y-67493296D01*
X238530450Y-67699996D01*
X238530450Y-67700003D01*
X129319221Y-67700003D01*
X129299719Y-67576874D01*
X129238528Y-67456780D01*
X129143220Y-67361472D01*
X129143217Y-67361470D01*
X129023129Y-67300282D01*
X129023127Y-67300281D01*
X128890000Y-67279196D01*
X128756872Y-67300281D01*
X128756870Y-67300282D01*
X128636782Y-67361470D01*
X128541470Y-67456782D01*
X128480282Y-67576870D01*
X128480281Y-67576872D01*
X128459196Y-67709999D01*
X128459196Y-67710000D01*
X77680804Y-67710000D01*
X77659719Y-67576874D01*
X77598528Y-67456780D01*
X77503220Y-67361472D01*
X77503217Y-67361470D01*
X77383129Y-67300282D01*
X77383127Y-67300281D01*
X77250000Y-67279196D01*
X77116872Y-67300281D01*
X77116870Y-67300282D01*
X76996782Y-67361470D01*
X76901470Y-67456782D01*
X76840282Y-67576870D01*
X76840281Y-67576872D01*
X76819196Y-67709999D01*
X76819196Y-67710000D01*
X67489364Y-67710000D01*
X67469193Y-67505197D01*
X67469192Y-67505192D01*
X67419167Y-67340282D01*
X67408898Y-67306429D01*
X67408895Y-67306423D01*
X67310992Y-67123258D01*
X67310987Y-67123251D01*
X67310985Y-67123247D01*
X67240673Y-67037572D01*
X67179220Y-66962690D01*
X67179211Y-66962681D01*
X67061890Y-66866399D01*
X67018655Y-66830917D01*
X67018652Y-66830915D01*
X67018643Y-66830909D01*
X66835478Y-66733006D01*
X66835473Y-66733004D01*
X66636709Y-66672709D01*
X66636704Y-66672708D01*
X66430004Y-66652351D01*
X66429998Y-66652351D01*
X66223297Y-66672708D01*
X66223292Y-66672709D01*
X66024528Y-66733004D01*
X66024523Y-66733006D01*
X65841358Y-66830909D01*
X65841348Y-66830916D01*
X65680790Y-66962681D01*
X65680781Y-66962690D01*
X65549016Y-67123248D01*
X65549009Y-67123258D01*
X65451106Y-67306423D01*
X65451104Y-67306428D01*
X65390809Y-67505192D01*
X65390808Y-67505197D01*
X65370451Y-67711897D01*
X65370451Y-67711904D01*
X54989551Y-67711904D01*
X54989551Y-67711897D01*
X54969193Y-67505197D01*
X54969192Y-67505192D01*
X54919167Y-67340282D01*
X54908898Y-67306429D01*
X54908895Y-67306423D01*
X54810992Y-67123258D01*
X54810987Y-67123251D01*
X54810985Y-67123247D01*
X54740673Y-67037572D01*
X54679220Y-66962690D01*
X54679211Y-66962681D01*
X54561890Y-66866399D01*
X54518655Y-66830917D01*
X54518652Y-66830915D01*
X54518643Y-66830909D01*
X54335478Y-66733006D01*
X54335473Y-66733004D01*
X54136709Y-66672709D01*
X54136704Y-66672708D01*
X53930004Y-66652351D01*
X53929998Y-66652351D01*
X53723297Y-66672708D01*
X53723292Y-66672709D01*
X53524528Y-66733004D01*
X53524523Y-66733006D01*
X53341358Y-66830909D01*
X53341348Y-66830916D01*
X53180790Y-66962681D01*
X53180781Y-66962690D01*
X53049016Y-67123248D01*
X53049009Y-67123258D01*
X52951106Y-67306423D01*
X52951104Y-67306428D01*
X52890809Y-67505192D01*
X52890808Y-67505197D01*
X52870451Y-67711897D01*
X52870451Y-67711904D01*
X51250870Y-67711904D01*
X51250870Y-65802765D01*
X59025503Y-65802765D01*
X59053929Y-65982242D01*
X59110086Y-66155074D01*
X59186520Y-66305086D01*
X59192586Y-66316990D01*
X59299399Y-66464006D01*
X59427896Y-66592503D01*
X59574912Y-66699316D01*
X59736828Y-66781816D01*
X59909655Y-66837971D01*
X59909656Y-66837971D01*
X59909659Y-66837972D01*
X60089137Y-66866399D01*
X60089140Y-66866399D01*
X60270865Y-66866399D01*
X60450342Y-66837972D01*
X60450343Y-66837971D01*
X60450347Y-66837971D01*
X60623174Y-66781816D01*
X60785090Y-66699316D01*
X60932106Y-66592503D01*
X61060603Y-66464006D01*
X61167416Y-66316990D01*
X61221930Y-66210000D01*
X74699196Y-66210000D01*
X74720281Y-66343127D01*
X74720282Y-66343129D01*
X74775809Y-66452106D01*
X74781472Y-66463220D01*
X74876780Y-66558528D01*
X74996874Y-66619719D01*
X75130000Y-66640804D01*
X75263126Y-66619719D01*
X75383220Y-66558528D01*
X75478528Y-66463220D01*
X75539719Y-66343126D01*
X75560804Y-66210000D01*
X130319196Y-66210000D01*
X130340281Y-66343127D01*
X130340282Y-66343129D01*
X130395809Y-66452106D01*
X130401472Y-66463220D01*
X130496780Y-66558528D01*
X130616874Y-66619719D01*
X130750000Y-66640804D01*
X130883126Y-66619719D01*
X131003220Y-66558528D01*
X131098528Y-66463220D01*
X131159719Y-66343126D01*
X131180804Y-66210000D01*
X131159719Y-66076874D01*
X131098528Y-65956780D01*
X131003220Y-65861472D01*
X131003217Y-65861470D01*
X130954799Y-65836800D01*
X196415058Y-65836800D01*
X196435102Y-65963354D01*
X196435104Y-65963361D01*
X196492941Y-66076870D01*
X196493274Y-66077523D01*
X196583877Y-66168126D01*
X196583879Y-66168127D01*
X196583881Y-66168128D01*
X196698038Y-66226295D01*
X196698040Y-66226295D01*
X196698045Y-66226298D01*
X196824600Y-66246342D01*
X196951155Y-66226298D01*
X197065323Y-66168126D01*
X197155926Y-66077523D01*
X197214098Y-65963355D01*
X197234142Y-65836800D01*
X197226867Y-65790864D01*
X244685502Y-65790864D01*
X244713928Y-65970341D01*
X244770085Y-66143173D01*
X244812438Y-66226297D01*
X244852585Y-66305089D01*
X244959398Y-66452105D01*
X245087895Y-66580602D01*
X245234911Y-66687415D01*
X245396827Y-66769915D01*
X245569654Y-66826070D01*
X245569655Y-66826070D01*
X245569658Y-66826071D01*
X245749136Y-66854498D01*
X245749139Y-66854498D01*
X245930864Y-66854498D01*
X246110341Y-66826071D01*
X246110342Y-66826070D01*
X246110346Y-66826070D01*
X246283173Y-66769915D01*
X246445089Y-66687415D01*
X246592105Y-66580602D01*
X246720602Y-66452105D01*
X246827415Y-66305089D01*
X246909915Y-66143173D01*
X246966070Y-65970346D01*
X246966071Y-65970341D01*
X246994498Y-65790864D01*
X246994498Y-65609135D01*
X246966071Y-65429658D01*
X246965291Y-65427258D01*
X246909915Y-65256827D01*
X246827415Y-65094911D01*
X246720602Y-64947895D01*
X246592105Y-64819398D01*
X246445089Y-64712585D01*
X246445088Y-64712584D01*
X246445086Y-64712583D01*
X246283173Y-64630085D01*
X246110341Y-64573928D01*
X245930864Y-64545502D01*
X245930861Y-64545502D01*
X245749139Y-64545502D01*
X245749136Y-64545502D01*
X245569658Y-64573928D01*
X245396826Y-64630085D01*
X245234913Y-64712583D01*
X245161403Y-64765991D01*
X245087895Y-64819398D01*
X244959398Y-64947895D01*
X244932110Y-64985454D01*
X244852583Y-65094913D01*
X244770085Y-65256826D01*
X244713928Y-65429658D01*
X244685502Y-65609135D01*
X244685502Y-65790864D01*
X197226867Y-65790864D01*
X197214098Y-65710245D01*
X197214095Y-65710240D01*
X197214095Y-65710238D01*
X197155928Y-65596081D01*
X197155927Y-65596079D01*
X197155926Y-65596077D01*
X197065323Y-65505474D01*
X197065320Y-65505472D01*
X197065318Y-65505471D01*
X196951161Y-65447304D01*
X196951156Y-65447302D01*
X196951155Y-65447302D01*
X196824600Y-65427258D01*
X196698045Y-65447302D01*
X196698038Y-65447304D01*
X196583881Y-65505471D01*
X196583879Y-65505472D01*
X196493272Y-65596079D01*
X196493271Y-65596081D01*
X196435104Y-65710238D01*
X196435102Y-65710245D01*
X196415058Y-65836799D01*
X196415058Y-65836800D01*
X130954799Y-65836800D01*
X130883129Y-65800282D01*
X130883127Y-65800281D01*
X130750000Y-65779196D01*
X130616872Y-65800281D01*
X130616870Y-65800282D01*
X130496782Y-65861470D01*
X130401470Y-65956782D01*
X130340282Y-66076870D01*
X130340281Y-66076872D01*
X130319196Y-66209999D01*
X130319196Y-66210000D01*
X75560804Y-66210000D01*
X75539719Y-66076874D01*
X75478528Y-65956780D01*
X75383220Y-65861472D01*
X75383217Y-65861470D01*
X75263129Y-65800282D01*
X75263127Y-65800281D01*
X75130000Y-65779196D01*
X74996872Y-65800281D01*
X74996870Y-65800282D01*
X74876782Y-65861470D01*
X74781470Y-65956782D01*
X74720282Y-66076870D01*
X74720281Y-66076872D01*
X74699196Y-66209999D01*
X74699196Y-66210000D01*
X61221930Y-66210000D01*
X61249916Y-66155074D01*
X61306071Y-65982247D01*
X61307957Y-65970341D01*
X61334499Y-65802765D01*
X61334499Y-65621036D01*
X61306072Y-65441559D01*
X61302204Y-65429654D01*
X61249916Y-65268728D01*
X61167416Y-65106812D01*
X61060603Y-64959796D01*
X60959707Y-64858900D01*
X154212958Y-64858900D01*
X154233002Y-64985454D01*
X154233004Y-64985461D01*
X154288773Y-65094911D01*
X154291174Y-65099623D01*
X154381777Y-65190226D01*
X154381779Y-65190227D01*
X154381781Y-65190228D01*
X154495938Y-65248395D01*
X154495940Y-65248395D01*
X154495945Y-65248398D01*
X154622500Y-65268442D01*
X154749055Y-65248398D01*
X154863223Y-65190226D01*
X154953826Y-65099623D01*
X155011998Y-64985455D01*
X155032042Y-64858900D01*
X155011998Y-64732345D01*
X155011995Y-64732340D01*
X155011995Y-64732338D01*
X154953828Y-64618181D01*
X154953827Y-64618179D01*
X154953826Y-64618177D01*
X154863223Y-64527574D01*
X154863220Y-64527572D01*
X154863218Y-64527571D01*
X154749061Y-64469404D01*
X154749056Y-64469402D01*
X154749055Y-64469402D01*
X154622500Y-64449358D01*
X154495945Y-64469402D01*
X154495938Y-64469404D01*
X154381781Y-64527571D01*
X154381779Y-64527572D01*
X154291172Y-64618179D01*
X154291171Y-64618181D01*
X154233004Y-64732338D01*
X154233002Y-64732345D01*
X154212958Y-64858899D01*
X154212958Y-64858900D01*
X60959707Y-64858900D01*
X60932106Y-64831299D01*
X60785090Y-64724486D01*
X60785089Y-64724485D01*
X60785087Y-64724484D01*
X60623174Y-64641986D01*
X60450342Y-64585829D01*
X60270865Y-64557403D01*
X60270862Y-64557403D01*
X60089140Y-64557403D01*
X60089137Y-64557403D01*
X59909659Y-64585829D01*
X59736827Y-64641986D01*
X59574914Y-64724484D01*
X59501404Y-64777892D01*
X59427896Y-64831299D01*
X59299399Y-64959796D01*
X59245992Y-65033304D01*
X59192584Y-65106814D01*
X59110086Y-65268727D01*
X59053929Y-65441559D01*
X59025503Y-65621036D01*
X59025503Y-65802765D01*
X51250870Y-65802765D01*
X51250870Y-63754000D01*
X155698858Y-63754000D01*
X155718902Y-63880554D01*
X155718904Y-63880561D01*
X155777071Y-63994718D01*
X155777074Y-63994723D01*
X155867677Y-64085326D01*
X155867679Y-64085327D01*
X155867681Y-64085328D01*
X155981838Y-64143495D01*
X155981840Y-64143495D01*
X155981845Y-64143498D01*
X156108400Y-64163542D01*
X156234955Y-64143498D01*
X156349123Y-64085326D01*
X156439726Y-63994723D01*
X156497898Y-63880555D01*
X156517942Y-63754000D01*
X195068858Y-63754000D01*
X195088902Y-63880554D01*
X195088904Y-63880561D01*
X195147071Y-63994718D01*
X195147074Y-63994723D01*
X195237677Y-64085326D01*
X195237679Y-64085327D01*
X195237681Y-64085328D01*
X195351838Y-64143495D01*
X195351840Y-64143495D01*
X195351845Y-64143498D01*
X195478400Y-64163542D01*
X195604955Y-64143498D01*
X195719123Y-64085326D01*
X195809726Y-63994723D01*
X195867898Y-63880555D01*
X195887942Y-63754000D01*
X195867898Y-63627445D01*
X195867895Y-63627440D01*
X195867895Y-63627438D01*
X195809728Y-63513281D01*
X195809727Y-63513279D01*
X195809726Y-63513277D01*
X195719123Y-63422674D01*
X195719120Y-63422672D01*
X195719118Y-63422671D01*
X195604961Y-63364504D01*
X195604956Y-63364502D01*
X195604955Y-63364502D01*
X195478400Y-63344458D01*
X195351845Y-63364502D01*
X195351838Y-63364504D01*
X195237681Y-63422671D01*
X195237679Y-63422672D01*
X195147072Y-63513279D01*
X195147071Y-63513281D01*
X195088904Y-63627438D01*
X195088902Y-63627445D01*
X195068858Y-63753999D01*
X195068858Y-63754000D01*
X156517942Y-63754000D01*
X156497898Y-63627445D01*
X156497895Y-63627440D01*
X156497895Y-63627438D01*
X156439728Y-63513281D01*
X156439727Y-63513279D01*
X156439726Y-63513277D01*
X156349123Y-63422674D01*
X156349120Y-63422672D01*
X156349118Y-63422671D01*
X156234961Y-63364504D01*
X156234956Y-63364502D01*
X156234955Y-63364502D01*
X156108400Y-63344458D01*
X155981845Y-63364502D01*
X155981838Y-63364504D01*
X155867681Y-63422671D01*
X155867679Y-63422672D01*
X155777072Y-63513279D01*
X155777071Y-63513281D01*
X155718904Y-63627438D01*
X155718902Y-63627445D01*
X155698858Y-63753999D01*
X155698858Y-63754000D01*
X51250870Y-63754000D01*
X51250870Y-59065004D01*
X125802615Y-59065004D01*
X125822139Y-59412683D01*
X125822142Y-59412703D01*
X125880472Y-59756011D01*
X125976878Y-60090642D01*
X126110146Y-60412380D01*
X126278592Y-60717159D01*
X126278595Y-60717164D01*
X126480112Y-61001176D01*
X126712161Y-61260839D01*
X126971824Y-61492888D01*
X127255836Y-61694405D01*
X127255840Y-61694407D01*
X127560620Y-61862853D01*
X127560619Y-61862853D01*
X127560624Y-61862855D01*
X127882356Y-61996121D01*
X128216987Y-62092527D01*
X128560307Y-62150859D01*
X128560310Y-62150859D01*
X128560316Y-62150860D01*
X128907995Y-62170385D01*
X128908000Y-62170385D01*
X128908005Y-62170385D01*
X129255683Y-62150860D01*
X129255687Y-62150859D01*
X129255693Y-62150859D01*
X129599013Y-62092527D01*
X129933644Y-61996121D01*
X130255376Y-61862855D01*
X130560164Y-61694405D01*
X130844176Y-61492888D01*
X131103839Y-61260839D01*
X131335888Y-61001176D01*
X131537405Y-60717164D01*
X131705855Y-60412376D01*
X131839121Y-60090644D01*
X131935527Y-59756013D01*
X131993859Y-59412693D01*
X132013385Y-59065004D01*
X173802615Y-59065004D01*
X173822139Y-59412683D01*
X173822142Y-59412703D01*
X173880472Y-59756011D01*
X173976878Y-60090642D01*
X174110146Y-60412380D01*
X174278592Y-60717159D01*
X174278595Y-60717164D01*
X174480112Y-61001176D01*
X174712161Y-61260839D01*
X174971824Y-61492888D01*
X175255836Y-61694405D01*
X175255840Y-61694407D01*
X175560620Y-61862853D01*
X175560619Y-61862853D01*
X175560624Y-61862855D01*
X175882356Y-61996121D01*
X176216987Y-62092527D01*
X176560307Y-62150859D01*
X176560310Y-62150859D01*
X176560316Y-62150860D01*
X176907995Y-62170385D01*
X176908000Y-62170385D01*
X176908005Y-62170385D01*
X177255683Y-62150860D01*
X177255687Y-62150859D01*
X177255693Y-62150859D01*
X177599013Y-62092527D01*
X177933644Y-61996121D01*
X178255376Y-61862855D01*
X178560164Y-61694405D01*
X178844176Y-61492888D01*
X179103839Y-61260839D01*
X179335888Y-61001176D01*
X179537405Y-60717164D01*
X179705855Y-60412376D01*
X179839121Y-60090644D01*
X179935527Y-59756013D01*
X179993859Y-59412693D01*
X180013385Y-59065000D01*
X180003305Y-58885500D01*
X179993860Y-58717316D01*
X179993857Y-58717296D01*
X179966968Y-58559035D01*
X179935527Y-58373987D01*
X179839121Y-58039356D01*
X179705855Y-57717624D01*
X179705853Y-57717619D01*
X179537407Y-57412840D01*
X179537405Y-57412836D01*
X179335888Y-57128824D01*
X179103839Y-56869161D01*
X178844176Y-56637112D01*
X178560164Y-56435595D01*
X178560159Y-56435592D01*
X178255379Y-56267146D01*
X178255380Y-56267146D01*
X177933642Y-56133878D01*
X177599011Y-56037472D01*
X177255703Y-55979142D01*
X177255683Y-55979139D01*
X176908005Y-55959615D01*
X176907995Y-55959615D01*
X176560316Y-55979139D01*
X176560296Y-55979142D01*
X176216988Y-56037472D01*
X175882357Y-56133878D01*
X175560619Y-56267146D01*
X175255840Y-56435592D01*
X175170266Y-56496310D01*
X174971824Y-56637112D01*
X174847777Y-56747966D01*
X174712168Y-56869154D01*
X174712154Y-56869168D01*
X174590966Y-57004777D01*
X174480112Y-57128824D01*
X174480110Y-57128827D01*
X174278592Y-57412840D01*
X174110146Y-57717619D01*
X173976878Y-58039357D01*
X173880472Y-58373988D01*
X173822142Y-58717296D01*
X173822139Y-58717316D01*
X173802615Y-59064995D01*
X173802615Y-59065004D01*
X132013385Y-59065004D01*
X132013385Y-59065000D01*
X132003305Y-58885500D01*
X131993860Y-58717316D01*
X131993857Y-58717296D01*
X131966968Y-58559035D01*
X131935527Y-58373987D01*
X131839121Y-58039356D01*
X131705855Y-57717624D01*
X131705853Y-57717619D01*
X131537407Y-57412840D01*
X131537405Y-57412836D01*
X131335888Y-57128824D01*
X131103839Y-56869161D01*
X130844176Y-56637112D01*
X130560164Y-56435595D01*
X130560159Y-56435592D01*
X130255379Y-56267146D01*
X130255380Y-56267146D01*
X129933642Y-56133878D01*
X129669571Y-56057800D01*
X156206858Y-56057800D01*
X156226902Y-56184354D01*
X156226904Y-56184361D01*
X156285071Y-56298518D01*
X156285074Y-56298523D01*
X156375677Y-56389126D01*
X156375679Y-56389127D01*
X156375681Y-56389128D01*
X156489838Y-56447295D01*
X156489840Y-56447295D01*
X156489845Y-56447298D01*
X156616400Y-56467342D01*
X156742955Y-56447298D01*
X156857123Y-56389126D01*
X156947726Y-56298523D01*
X157005898Y-56184355D01*
X157025942Y-56057800D01*
X157005898Y-55931245D01*
X157005895Y-55931240D01*
X157005895Y-55931238D01*
X156979787Y-55880000D01*
X162658458Y-55880000D01*
X162678502Y-56006554D01*
X162678504Y-56006561D01*
X162736671Y-56120718D01*
X162736674Y-56120723D01*
X162827277Y-56211326D01*
X162827279Y-56211327D01*
X162827281Y-56211328D01*
X162941438Y-56269495D01*
X162941440Y-56269495D01*
X162941445Y-56269498D01*
X163068000Y-56289542D01*
X163194555Y-56269498D01*
X163308723Y-56211326D01*
X163399326Y-56120723D01*
X163457498Y-56006555D01*
X163477542Y-55880000D01*
X163457498Y-55753445D01*
X163457495Y-55753440D01*
X163457495Y-55753438D01*
X163399328Y-55639281D01*
X163399327Y-55639279D01*
X163399326Y-55639277D01*
X163308723Y-55548674D01*
X163308720Y-55548672D01*
X163308718Y-55548671D01*
X163194561Y-55490504D01*
X163194556Y-55490502D01*
X163194555Y-55490502D01*
X163068000Y-55470458D01*
X162941445Y-55490502D01*
X162941438Y-55490504D01*
X162827281Y-55548671D01*
X162827279Y-55548672D01*
X162736672Y-55639279D01*
X162736671Y-55639281D01*
X162678504Y-55753438D01*
X162678502Y-55753445D01*
X162658458Y-55879999D01*
X162658458Y-55880000D01*
X156979787Y-55880000D01*
X156947728Y-55817081D01*
X156947727Y-55817079D01*
X156947726Y-55817077D01*
X156857123Y-55726474D01*
X156857120Y-55726472D01*
X156857118Y-55726471D01*
X156742961Y-55668304D01*
X156742956Y-55668302D01*
X156742955Y-55668302D01*
X156616400Y-55648258D01*
X156489845Y-55668302D01*
X156489838Y-55668304D01*
X156375681Y-55726471D01*
X156375679Y-55726472D01*
X156285072Y-55817079D01*
X156285071Y-55817081D01*
X156226904Y-55931238D01*
X156226902Y-55931245D01*
X156206858Y-56057799D01*
X156206858Y-56057800D01*
X129669571Y-56057800D01*
X129599011Y-56037472D01*
X129255703Y-55979142D01*
X129255683Y-55979139D01*
X128908005Y-55959615D01*
X128907995Y-55959615D01*
X128560316Y-55979139D01*
X128560296Y-55979142D01*
X128216988Y-56037472D01*
X127882357Y-56133878D01*
X127560619Y-56267146D01*
X127255840Y-56435592D01*
X127170266Y-56496310D01*
X126971824Y-56637112D01*
X126847777Y-56747966D01*
X126712168Y-56869154D01*
X126712154Y-56869168D01*
X126590966Y-57004777D01*
X126480112Y-57128824D01*
X126480110Y-57128827D01*
X126278592Y-57412840D01*
X126110146Y-57717619D01*
X125976878Y-58039357D01*
X125880472Y-58373988D01*
X125822142Y-58717296D01*
X125822139Y-58717316D01*
X125802615Y-59064995D01*
X125802615Y-59065004D01*
X51250870Y-59065004D01*
X51250870Y-58073693D01*
X100954500Y-58073693D01*
X100989106Y-58247665D01*
X100989106Y-58247667D01*
X101056985Y-58411544D01*
X101056985Y-58411545D01*
X101155535Y-58559034D01*
X101155536Y-58559035D01*
X101280965Y-58684464D01*
X101428453Y-58783013D01*
X101592334Y-58850894D01*
X101766309Y-58885500D01*
X101766310Y-58885500D01*
X101943690Y-58885500D01*
X101943691Y-58885500D01*
X102117666Y-58850894D01*
X102281547Y-58783013D01*
X102429035Y-58684464D01*
X102554464Y-58559035D01*
X102653013Y-58411547D01*
X102720894Y-58247666D01*
X102755500Y-58073693D01*
X108104500Y-58073693D01*
X108139106Y-58247665D01*
X108139106Y-58247667D01*
X108206985Y-58411544D01*
X108206985Y-58411545D01*
X108305535Y-58559034D01*
X108305536Y-58559035D01*
X108430965Y-58684464D01*
X108578453Y-58783013D01*
X108742334Y-58850894D01*
X108916309Y-58885500D01*
X108916310Y-58885500D01*
X109093690Y-58885500D01*
X109093691Y-58885500D01*
X109267666Y-58850894D01*
X109431547Y-58783013D01*
X109579035Y-58684464D01*
X109704464Y-58559035D01*
X109803013Y-58411547D01*
X109870894Y-58247666D01*
X109905500Y-58073691D01*
X109905500Y-56496309D01*
X109870894Y-56322334D01*
X109824914Y-56211327D01*
X109803014Y-56158455D01*
X109803014Y-56158454D01*
X109704464Y-56010965D01*
X109579034Y-55885535D01*
X109431544Y-55786985D01*
X109267666Y-55719106D01*
X109093693Y-55684500D01*
X109093691Y-55684500D01*
X108916309Y-55684500D01*
X108916306Y-55684500D01*
X108742334Y-55719106D01*
X108742332Y-55719106D01*
X108578455Y-55786985D01*
X108578454Y-55786985D01*
X108430965Y-55885535D01*
X108305535Y-56010965D01*
X108206985Y-56158454D01*
X108206985Y-56158455D01*
X108139106Y-56322332D01*
X108139106Y-56322334D01*
X108104500Y-56496306D01*
X108104500Y-58073693D01*
X102755500Y-58073693D01*
X102755500Y-58073691D01*
X102755500Y-56496309D01*
X102720894Y-56322334D01*
X102674914Y-56211327D01*
X102653014Y-56158455D01*
X102653014Y-56158454D01*
X102554464Y-56010965D01*
X102429034Y-55885535D01*
X102281544Y-55786985D01*
X102117666Y-55719106D01*
X101943693Y-55684500D01*
X101943691Y-55684500D01*
X101766309Y-55684500D01*
X101766306Y-55684500D01*
X101592334Y-55719106D01*
X101592332Y-55719106D01*
X101428455Y-55786985D01*
X101428454Y-55786985D01*
X101280965Y-55885535D01*
X101155535Y-56010965D01*
X101056985Y-56158454D01*
X101056985Y-56158455D01*
X100989106Y-56322332D01*
X100989106Y-56322334D01*
X100954500Y-56496306D01*
X100954500Y-58073693D01*
X51250870Y-58073693D01*
X51250870Y-55220000D01*
X148619196Y-55220000D01*
X148640281Y-55353127D01*
X148640282Y-55353129D01*
X148701470Y-55473217D01*
X148701472Y-55473220D01*
X148796780Y-55568528D01*
X148916874Y-55629719D01*
X149050000Y-55650804D01*
X149183126Y-55629719D01*
X149303220Y-55568528D01*
X149398528Y-55473220D01*
X149459719Y-55353126D01*
X149480804Y-55220000D01*
X149459719Y-55086874D01*
X149398528Y-54966780D01*
X149351748Y-54920000D01*
X150109196Y-54920000D01*
X150130281Y-55053127D01*
X150130282Y-55053129D01*
X150147474Y-55086870D01*
X150191472Y-55173220D01*
X150286780Y-55268528D01*
X150406874Y-55329719D01*
X150540000Y-55350804D01*
X150673126Y-55329719D01*
X150793220Y-55268528D01*
X150888528Y-55173220D01*
X150949719Y-55053126D01*
X150970804Y-54920000D01*
X150949719Y-54786874D01*
X150888528Y-54666780D01*
X150793220Y-54571472D01*
X150793217Y-54571470D01*
X150673129Y-54510282D01*
X150673127Y-54510281D01*
X150540000Y-54489196D01*
X150406872Y-54510281D01*
X150406870Y-54510282D01*
X150286782Y-54571470D01*
X150191470Y-54666782D01*
X150130282Y-54786870D01*
X150130281Y-54786872D01*
X150109196Y-54919999D01*
X150109196Y-54920000D01*
X149351748Y-54920000D01*
X149303220Y-54871472D01*
X149303217Y-54871470D01*
X149183129Y-54810282D01*
X149183127Y-54810281D01*
X149050000Y-54789196D01*
X148916872Y-54810281D01*
X148916870Y-54810282D01*
X148796782Y-54871470D01*
X148701470Y-54966782D01*
X148640282Y-55086870D01*
X148640281Y-55086872D01*
X148619196Y-55219999D01*
X148619196Y-55220000D01*
X51250870Y-55220000D01*
X51250870Y-50330000D01*
X53724415Y-50330000D01*
X53744738Y-50678929D01*
X53805430Y-51023133D01*
X53805430Y-51023134D01*
X53905672Y-51357965D01*
X53905674Y-51357972D01*
X53966627Y-51499277D01*
X54044111Y-51678904D01*
X54218870Y-51981596D01*
X54427588Y-52261953D01*
X54667442Y-52516183D01*
X54935189Y-52740849D01*
X55227207Y-52932913D01*
X55539549Y-53089777D01*
X55867989Y-53209319D01*
X55867992Y-53209319D01*
X55867993Y-53209320D01*
X56208075Y-53289921D01*
X56208080Y-53289921D01*
X56208086Y-53289923D01*
X56555241Y-53330500D01*
X56555244Y-53330500D01*
X56904756Y-53330500D01*
X56904759Y-53330500D01*
X57251914Y-53289923D01*
X57251920Y-53289921D01*
X57251924Y-53289921D01*
X57484839Y-53234719D01*
X57592011Y-53209319D01*
X57920451Y-53089777D01*
X58232793Y-52932913D01*
X58524811Y-52740849D01*
X58792558Y-52516183D01*
X59032412Y-52261953D01*
X59241130Y-51981596D01*
X59395280Y-51714600D01*
X141853658Y-51714600D01*
X141873702Y-51841154D01*
X141873704Y-51841161D01*
X141931871Y-51955318D01*
X141931874Y-51955323D01*
X141996149Y-52019598D01*
X142023925Y-52074113D01*
X142014354Y-52134545D01*
X141996150Y-52159600D01*
X141970747Y-52185004D01*
X141946472Y-52209279D01*
X141946471Y-52209281D01*
X141888304Y-52323438D01*
X141888302Y-52323445D01*
X141868258Y-52449999D01*
X141868258Y-52450000D01*
X141888302Y-52576554D01*
X141888304Y-52576561D01*
X141946471Y-52690718D01*
X141946474Y-52690723D01*
X142005749Y-52749998D01*
X142033525Y-52804513D01*
X142023954Y-52864945D01*
X142005750Y-52890000D01*
X141962839Y-52932912D01*
X141946472Y-52949279D01*
X141946471Y-52949281D01*
X141888304Y-53063438D01*
X141888302Y-53063445D01*
X141868258Y-53189999D01*
X141868258Y-53190000D01*
X141888302Y-53316554D01*
X141888304Y-53316561D01*
X141908349Y-53355900D01*
X141946474Y-53430723D01*
X142037077Y-53521326D01*
X142037079Y-53521327D01*
X142037081Y-53521328D01*
X142151238Y-53579495D01*
X142151240Y-53579495D01*
X142151245Y-53579498D01*
X142277800Y-53599542D01*
X142404355Y-53579498D01*
X142518523Y-53521326D01*
X142609126Y-53430723D01*
X142667298Y-53316555D01*
X142687342Y-53190000D01*
X142667298Y-53063445D01*
X142667295Y-53063440D01*
X142667295Y-53063438D01*
X142609128Y-52949281D01*
X142609127Y-52949279D01*
X142609126Y-52949277D01*
X142549850Y-52890001D01*
X142522075Y-52835487D01*
X142531646Y-52775055D01*
X142549849Y-52749999D01*
X142609126Y-52690723D01*
X142667298Y-52576555D01*
X142687342Y-52450000D01*
X142667298Y-52323445D01*
X142667295Y-52323440D01*
X142667295Y-52323438D01*
X142609128Y-52209281D01*
X142609127Y-52209279D01*
X142609126Y-52209277D01*
X142544850Y-52145001D01*
X142517075Y-52090487D01*
X142526646Y-52030055D01*
X142544849Y-52004999D01*
X142594526Y-51955323D01*
X142652698Y-51841155D01*
X142668719Y-51740000D01*
X143022058Y-51740000D01*
X143042102Y-51866554D01*
X143042104Y-51866561D01*
X143100271Y-51980718D01*
X143100274Y-51980723D01*
X143151848Y-52032297D01*
X143179624Y-52086812D01*
X143170053Y-52147244D01*
X143151848Y-52172301D01*
X143114875Y-52209275D01*
X143114871Y-52209281D01*
X143056704Y-52323438D01*
X143056702Y-52323445D01*
X143036658Y-52449999D01*
X143036658Y-52450000D01*
X143056702Y-52576554D01*
X143056704Y-52576561D01*
X143114871Y-52690718D01*
X143114874Y-52690723D01*
X143174149Y-52749998D01*
X143201925Y-52804513D01*
X143192354Y-52864945D01*
X143174150Y-52890000D01*
X143131239Y-52932912D01*
X143114872Y-52949279D01*
X143114871Y-52949281D01*
X143056704Y-53063438D01*
X143056702Y-53063445D01*
X143036658Y-53189999D01*
X143036658Y-53190000D01*
X143056702Y-53316554D01*
X143056704Y-53316561D01*
X143076749Y-53355900D01*
X143114874Y-53430723D01*
X143205477Y-53521326D01*
X143205479Y-53521327D01*
X143205481Y-53521328D01*
X143319638Y-53579495D01*
X143319640Y-53579495D01*
X143319645Y-53579498D01*
X143446200Y-53599542D01*
X143572755Y-53579498D01*
X143686923Y-53521326D01*
X143777526Y-53430723D01*
X143835698Y-53316555D01*
X143855742Y-53190000D01*
X143835698Y-53063445D01*
X143835695Y-53063440D01*
X143835695Y-53063438D01*
X143777528Y-52949281D01*
X143777527Y-52949279D01*
X143777526Y-52949277D01*
X143718250Y-52890001D01*
X143690475Y-52835487D01*
X143700046Y-52775055D01*
X143718249Y-52749999D01*
X143777526Y-52690723D01*
X143835698Y-52576555D01*
X143855742Y-52450000D01*
X143835698Y-52323445D01*
X143835695Y-52323440D01*
X143835695Y-52323438D01*
X143777528Y-52209281D01*
X143777527Y-52209279D01*
X143777526Y-52209277D01*
X143725950Y-52157701D01*
X143698175Y-52103187D01*
X143707746Y-52042755D01*
X143725949Y-52017699D01*
X143762926Y-51980723D01*
X143821098Y-51866555D01*
X143841142Y-51740000D01*
X144190458Y-51740000D01*
X144210502Y-51866554D01*
X144210504Y-51866561D01*
X144268671Y-51980718D01*
X144268674Y-51980723D01*
X144332949Y-52044998D01*
X144360725Y-52099513D01*
X144351154Y-52159945D01*
X144332950Y-52185000D01*
X144308676Y-52209275D01*
X144308672Y-52209279D01*
X144308671Y-52209281D01*
X144250504Y-52323438D01*
X144250502Y-52323445D01*
X144230458Y-52449999D01*
X144230458Y-52450000D01*
X144250502Y-52576554D01*
X144250504Y-52576561D01*
X144308671Y-52690718D01*
X144308674Y-52690723D01*
X144367949Y-52749998D01*
X144395725Y-52804513D01*
X144386154Y-52864945D01*
X144367950Y-52890000D01*
X144325039Y-52932912D01*
X144308672Y-52949279D01*
X144308671Y-52949281D01*
X144250504Y-53063438D01*
X144250502Y-53063445D01*
X144230458Y-53189999D01*
X144230458Y-53190000D01*
X144250502Y-53316554D01*
X144250504Y-53316561D01*
X144270549Y-53355900D01*
X144308674Y-53430723D01*
X144399277Y-53521326D01*
X144399279Y-53521327D01*
X144399281Y-53521328D01*
X144513438Y-53579495D01*
X144513440Y-53579495D01*
X144513445Y-53579498D01*
X144640000Y-53599542D01*
X144766555Y-53579498D01*
X144880723Y-53521326D01*
X144971326Y-53430723D01*
X145029498Y-53316555D01*
X145049542Y-53190000D01*
X145029498Y-53063445D01*
X145029495Y-53063440D01*
X145029495Y-53063438D01*
X144971328Y-52949281D01*
X144971327Y-52949279D01*
X144971326Y-52949277D01*
X144912050Y-52890001D01*
X144884275Y-52835487D01*
X144893846Y-52775055D01*
X144912049Y-52749999D01*
X144971326Y-52690723D01*
X145029498Y-52576555D01*
X145049542Y-52450000D01*
X145029498Y-52323445D01*
X145029495Y-52323440D01*
X145029495Y-52323438D01*
X144971328Y-52209281D01*
X144971327Y-52209279D01*
X144971326Y-52209277D01*
X144907050Y-52145001D01*
X144879275Y-52090487D01*
X144888846Y-52030055D01*
X144907049Y-52004999D01*
X144931326Y-51980723D01*
X144989498Y-51866555D01*
X145009542Y-51740000D01*
X144989498Y-51613445D01*
X144989495Y-51613440D01*
X144989495Y-51613438D01*
X144931328Y-51499281D01*
X144931327Y-51499279D01*
X144931326Y-51499277D01*
X144840723Y-51408674D01*
X144840720Y-51408672D01*
X144840718Y-51408671D01*
X144726561Y-51350504D01*
X144726556Y-51350502D01*
X144726555Y-51350502D01*
X144600000Y-51330458D01*
X144473445Y-51350502D01*
X144473438Y-51350504D01*
X144359281Y-51408671D01*
X144359279Y-51408672D01*
X144268672Y-51499279D01*
X144268671Y-51499281D01*
X144210504Y-51613438D01*
X144210502Y-51613445D01*
X144190458Y-51739999D01*
X144190458Y-51740000D01*
X143841142Y-51740000D01*
X143821098Y-51613445D01*
X143821095Y-51613440D01*
X143821095Y-51613438D01*
X143762928Y-51499281D01*
X143762927Y-51499279D01*
X143762926Y-51499277D01*
X143672323Y-51408674D01*
X143672320Y-51408672D01*
X143672318Y-51408671D01*
X143558161Y-51350504D01*
X143558156Y-51350502D01*
X143558155Y-51350502D01*
X143431600Y-51330458D01*
X143305045Y-51350502D01*
X143305038Y-51350504D01*
X143190881Y-51408671D01*
X143190879Y-51408672D01*
X143100272Y-51499279D01*
X143100271Y-51499281D01*
X143042104Y-51613438D01*
X143042102Y-51613445D01*
X143022058Y-51739999D01*
X143022058Y-51740000D01*
X142668719Y-51740000D01*
X142672742Y-51714600D01*
X142652698Y-51588045D01*
X142652695Y-51588040D01*
X142652695Y-51588038D01*
X142594528Y-51473881D01*
X142594527Y-51473879D01*
X142594526Y-51473877D01*
X142503923Y-51383274D01*
X142503920Y-51383272D01*
X142503918Y-51383271D01*
X142389761Y-51325104D01*
X142389756Y-51325102D01*
X142389755Y-51325102D01*
X142263200Y-51305058D01*
X142136645Y-51325102D01*
X142136638Y-51325104D01*
X142022481Y-51383271D01*
X142022479Y-51383272D01*
X141931872Y-51473879D01*
X141931871Y-51473881D01*
X141873704Y-51588038D01*
X141873702Y-51588045D01*
X141853658Y-51714599D01*
X141853658Y-51714600D01*
X59395280Y-51714600D01*
X59415889Y-51678904D01*
X59554326Y-51357971D01*
X59654569Y-51023136D01*
X59715262Y-50678927D01*
X59734106Y-50355400D01*
X246296415Y-50355400D01*
X246316738Y-50704329D01*
X246377430Y-51048533D01*
X246377430Y-51048534D01*
X246477672Y-51383365D01*
X246477674Y-51383372D01*
X246610118Y-51690412D01*
X246616111Y-51704304D01*
X246790870Y-52006996D01*
X246999588Y-52287353D01*
X247239442Y-52541583D01*
X247507189Y-52766249D01*
X247695349Y-52890004D01*
X247785474Y-52949281D01*
X247799207Y-52958313D01*
X248111549Y-53115177D01*
X248439989Y-53234719D01*
X248439992Y-53234719D01*
X248439993Y-53234720D01*
X248780075Y-53315321D01*
X248780080Y-53315321D01*
X248780086Y-53315323D01*
X249127241Y-53355900D01*
X249127244Y-53355900D01*
X249476756Y-53355900D01*
X249476759Y-53355900D01*
X249823914Y-53315323D01*
X249823920Y-53315321D01*
X249823924Y-53315321D01*
X250050645Y-53261587D01*
X250164011Y-53234719D01*
X250492451Y-53115177D01*
X250804793Y-52958313D01*
X251096811Y-52766249D01*
X251364558Y-52541583D01*
X251604412Y-52287353D01*
X251813130Y-52006996D01*
X251987889Y-51704304D01*
X252126326Y-51383371D01*
X252226569Y-51048536D01*
X252287262Y-50704327D01*
X252307585Y-50355400D01*
X252287262Y-50006473D01*
X252226569Y-49662264D01*
X252126326Y-49327429D01*
X251987889Y-49006496D01*
X251813130Y-48703804D01*
X251604412Y-48423447D01*
X251364558Y-48169217D01*
X251334287Y-48143817D01*
X251278394Y-48096916D01*
X251096811Y-47944551D01*
X251002157Y-47882296D01*
X250804794Y-47752487D01*
X250492453Y-47595624D01*
X250492452Y-47595623D01*
X250492451Y-47595623D01*
X250164011Y-47476081D01*
X250164012Y-47476081D01*
X250164006Y-47476079D01*
X249823924Y-47395478D01*
X249711089Y-47382289D01*
X249476759Y-47354900D01*
X249127241Y-47354900D01*
X248935950Y-47377258D01*
X248780075Y-47395478D01*
X248439993Y-47476079D01*
X248243191Y-47547709D01*
X248111549Y-47595623D01*
X248111548Y-47595623D01*
X248111546Y-47595624D01*
X247799205Y-47752487D01*
X247507190Y-47944550D01*
X247239443Y-48169215D01*
X246999591Y-48423443D01*
X246790871Y-48703802D01*
X246790869Y-48703805D01*
X246616111Y-49006495D01*
X246616108Y-49006502D01*
X246477674Y-49327427D01*
X246477672Y-49327434D01*
X246377430Y-49662265D01*
X246377430Y-49662266D01*
X246316738Y-50006470D01*
X246296415Y-50355400D01*
X59734106Y-50355400D01*
X59735585Y-50330000D01*
X59715262Y-49981073D01*
X59654569Y-49636864D01*
X59554326Y-49302029D01*
X59415889Y-48981096D01*
X59241130Y-48678404D01*
X59032412Y-48398047D01*
X58792558Y-48143817D01*
X58524811Y-47919151D01*
X58271412Y-47752487D01*
X58232794Y-47727087D01*
X57920453Y-47570224D01*
X57920452Y-47570223D01*
X57920451Y-47570223D01*
X57592011Y-47450681D01*
X57592012Y-47450681D01*
X57592006Y-47450679D01*
X57251924Y-47370078D01*
X57122068Y-47354900D01*
X56904759Y-47329500D01*
X56555241Y-47329500D01*
X56363950Y-47351858D01*
X56208075Y-47370078D01*
X55867993Y-47450679D01*
X55671191Y-47522309D01*
X55539549Y-47570223D01*
X55539548Y-47570223D01*
X55539546Y-47570224D01*
X55227205Y-47727087D01*
X54935190Y-47919150D01*
X54667443Y-48143815D01*
X54427591Y-48398043D01*
X54218871Y-48678402D01*
X54218869Y-48678405D01*
X54044111Y-48981095D01*
X54044108Y-48981102D01*
X53905674Y-49302027D01*
X53905672Y-49302034D01*
X53805430Y-49636865D01*
X53805430Y-49636866D01*
X53744738Y-49981070D01*
X53724415Y-50330000D01*
X51250870Y-50330000D01*
X51250870Y-46023891D01*
X51251175Y-46016124D01*
X51259836Y-45906076D01*
X51264941Y-45841208D01*
X51267368Y-45825879D01*
X51307420Y-45659053D01*
X51312216Y-45644294D01*
X51377874Y-45485783D01*
X51384914Y-45471966D01*
X51474554Y-45325686D01*
X51483675Y-45313131D01*
X51595098Y-45182673D01*
X51606080Y-45171693D01*
X51736531Y-45060278D01*
X51749092Y-45051151D01*
X51895372Y-44961511D01*
X51909194Y-44954468D01*
X52067696Y-44888815D01*
X52082459Y-44884018D01*
X52249286Y-44843967D01*
X52264612Y-44841540D01*
X52439620Y-44827767D01*
X52447385Y-44827463D01*
X52472507Y-44827463D01*
X253560899Y-44827463D01*
X253586108Y-44827463D01*
X253593875Y-44827768D01*
G37*
%TD.AperFunction*%
%TD*%
%TA.AperFunction,Conductor*%
%TO.N,OSC_GND*%
G36*
X203571531Y-68142802D02*
G01*
X203592505Y-68159705D01*
X204179095Y-68746295D01*
X204213121Y-68808607D01*
X204216000Y-68835390D01*
X204216000Y-77722610D01*
X204195998Y-77790731D01*
X204179095Y-77811705D01*
X203694105Y-78296695D01*
X203631793Y-78330721D01*
X203605010Y-78333600D01*
X200511388Y-78333600D01*
X200443267Y-78313598D01*
X200419466Y-78293777D01*
X199728878Y-77557149D01*
X199696880Y-77493772D01*
X199694800Y-77470972D01*
X199694800Y-75488800D01*
X199694799Y-75488798D01*
X198221601Y-74015600D01*
X198221600Y-74015600D01*
X196163200Y-74015600D01*
X196095079Y-73995598D01*
X196048586Y-73941942D01*
X196037200Y-73889600D01*
X196037200Y-73074800D01*
X196057202Y-73006679D01*
X196110858Y-72960186D01*
X196163200Y-72948800D01*
X198323200Y-72948800D01*
X199694800Y-71577200D01*
X199694800Y-68784590D01*
X199714802Y-68716469D01*
X199731705Y-68695495D01*
X200267495Y-68159705D01*
X200329807Y-68125679D01*
X200356590Y-68122800D01*
X203503410Y-68122800D01*
X203571531Y-68142802D01*
G37*
%TD.AperFunction*%
%TD*%
M02*
