%TF.GenerationSoftware,KiCad,Pcbnew,8.0.1*%
%TF.CreationDate,2024-04-06T20:31:55-04:00*%
%TF.ProjectId,py_dash_pcb_7,70795f64-6173-4685-9f70-63625f372e6b,rev?*%
%TF.SameCoordinates,Original*%
%TF.FileFunction,Copper,L3,Inr*%
%TF.FilePolarity,Positive*%
%FSLAX46Y46*%
G04 Gerber Fmt 4.6, Leading zero omitted, Abs format (unit mm)*
G04 Created by KiCad (PCBNEW 8.0.1) date 2024-04-06 20:31:55*
%MOMM*%
%LPD*%
G01*
G04 APERTURE LIST*
%TA.AperFunction,ComponentPad*%
%ADD10C,5.600000*%
%TD*%
%TA.AperFunction,ComponentPad*%
%ADD11O,1.400000X2.800000*%
%TD*%
%TA.AperFunction,ComponentPad*%
%ADD12C,2.500000*%
%TD*%
%TA.AperFunction,ComponentPad*%
%ADD13C,4.000000*%
%TD*%
%TA.AperFunction,ComponentPad*%
%ADD14C,5.800000*%
%TD*%
%TA.AperFunction,ComponentPad*%
%ADD15C,1.707896*%
%TD*%
%TA.AperFunction,ViaPad*%
%ADD16C,0.450000*%
%TD*%
%TA.AperFunction,Conductor*%
%ADD17C,0.300000*%
%TD*%
%TA.AperFunction,Conductor*%
%ADD18C,0.200000*%
%TD*%
%TA.AperFunction,Conductor*%
%ADD19C,0.400000*%
%TD*%
G04 APERTURE END LIST*
D10*
%TO.N,N/C*%
%TO.C,H5*%
X56730000Y-50330000D03*
%TD*%
D11*
%TO.N,N/C*%
%TO.C,J3*%
X101855000Y-57285000D03*
X109005000Y-57285000D03*
%TD*%
D10*
%TO.N,N/C*%
%TO.C,H7*%
X249280000Y-141450000D03*
%TD*%
%TO.N,N/C*%
%TO.C,H8*%
X56740000Y-141462000D03*
%TD*%
%TO.N,N/C*%
%TO.C,H6*%
X249302000Y-50355400D03*
%TD*%
D12*
%TO.N,*%
%TO.C,J2*%
X138481200Y-118440200D03*
D13*
X160528000Y-118491000D03*
D12*
X167081200Y-118440200D03*
D13*
%TO.N,+12V*%
X149431200Y-113360200D03*
%TO.N,CAN_L*%
X156131200Y-113360200D03*
%TO.N,CAN_H*%
X156131200Y-123520200D03*
%TO.N,GND*%
X149431200Y-123520200D03*
%TD*%
D14*
%TO.N,N/C*%
%TO.C,U1*%
X128908000Y-59065000D03*
X176908000Y-59065000D03*
X128908000Y-92065000D03*
X176908000Y-92065000D03*
%TD*%
D15*
%TO.N,Net-(R23-Pad2)*%
%TO.C,SW6*%
X252080000Y-119070000D03*
%TO.N,N/C*%
X239580000Y-119070000D03*
%TO.N,GND*%
X252080000Y-124070000D03*
%TO.N,N/C*%
X239580000Y-124070000D03*
%TD*%
%TO.N,Net-(R15-Pad2)*%
%TO.C,SW1*%
X66430001Y-67711901D03*
%TO.N,N/C*%
X53930001Y-67711901D03*
%TO.N,GND*%
X66430001Y-72711901D03*
%TO.N,N/C*%
X53930001Y-72711901D03*
%TD*%
%TO.N,Net-(R22-Pad2)*%
%TO.C,SW5*%
X252080000Y-93360000D03*
%TO.N,N/C*%
X239580000Y-93360000D03*
%TO.N,GND*%
X252080000Y-98360000D03*
%TO.N,N/C*%
X239580000Y-98360000D03*
%TD*%
%TO.N,Net-(R16-Pad2)*%
%TO.C,SW2*%
X66400000Y-93370000D03*
%TO.N,N/C*%
X53900000Y-93370000D03*
%TO.N,GND*%
X66400000Y-98370000D03*
%TO.N,N/C*%
X53900000Y-98370000D03*
%TD*%
%TO.N,Net-(R17-Pad2)*%
%TO.C,SW3*%
X66360000Y-119080000D03*
%TO.N,N/C*%
X53860000Y-119080000D03*
%TO.N,GND*%
X66360000Y-124080000D03*
%TO.N,N/C*%
X53860000Y-124080000D03*
%TD*%
%TO.N,Net-(R21-Pad2)*%
%TO.C,SW4*%
X252090000Y-67700000D03*
%TO.N,N/C*%
X239590000Y-67700000D03*
%TO.N,GND*%
X252090000Y-72700000D03*
%TO.N,N/C*%
X239590000Y-72700000D03*
%TD*%
D16*
%TO.N,btn_L1*%
X75130000Y-66210000D03*
X130750000Y-66210000D03*
%TO.N,btn_L2*%
X128890000Y-67710000D03*
X77250000Y-67710000D03*
%TO.N,btn_L3*%
X126730000Y-69240000D03*
X79370000Y-69240000D03*
%TO.N,dispBL_en*%
X150540000Y-54920000D03*
X92560000Y-76240000D03*
%TO.N,GND*%
X145000000Y-109000000D03*
X80000000Y-47000000D03*
X116000000Y-117000000D03*
X116000000Y-130000000D03*
X223520000Y-106680000D03*
X111600000Y-74900000D03*
X92550000Y-75540000D03*
X217500000Y-142500000D03*
X142500000Y-135000000D03*
X161840000Y-89630000D03*
X112500000Y-107500000D03*
X55740000Y-72270000D03*
X88011000Y-111252000D03*
X75000000Y-61000000D03*
X239000000Y-80000000D03*
X185089800Y-77622400D03*
X167500000Y-125000000D03*
X210000000Y-135000000D03*
X64000000Y-126000000D03*
X129500000Y-107500000D03*
X168000000Y-80000000D03*
X142000000Y-95123000D03*
X129500000Y-104000000D03*
X139700000Y-121412000D03*
X146304000Y-127000000D03*
X116000000Y-63000000D03*
X59000000Y-130000000D03*
X99000000Y-47000000D03*
X70000000Y-113000000D03*
X124000000Y-126000000D03*
X93980000Y-97790000D03*
X229340000Y-60720000D03*
X140055600Y-92583000D03*
X94000000Y-50000000D03*
X156240000Y-61550000D03*
X124000000Y-104000000D03*
X213000000Y-62000000D03*
X144000000Y-63000000D03*
X233680000Y-86360000D03*
X173736000Y-107543600D03*
X144400000Y-97400000D03*
X91948000Y-109474000D03*
X80000000Y-72000000D03*
X195478400Y-62941200D03*
X88265000Y-115189000D03*
X76000000Y-77000000D03*
X218440000Y-86360000D03*
X115990000Y-68470000D03*
X152908000Y-121412000D03*
X70000000Y-104000000D03*
X91567000Y-120650000D03*
X170000000Y-92500000D03*
X152400000Y-50800000D03*
X76000000Y-134000000D03*
X175000000Y-120000000D03*
X92913200Y-105435400D03*
X238880000Y-102490000D03*
X227500000Y-135000000D03*
X237000000Y-48000000D03*
X104050000Y-74610000D03*
X66000000Y-92000000D03*
X128000000Y-112000000D03*
X90932000Y-111252000D03*
X189000000Y-59000000D03*
X99060000Y-111760000D03*
X141000000Y-90000000D03*
X247000000Y-58000000D03*
X154050000Y-61050000D03*
X154203400Y-65480000D03*
X147421600Y-55880000D03*
X157480000Y-118364000D03*
X244270000Y-118680000D03*
X87220000Y-79560000D03*
X160000000Y-109000000D03*
X244080000Y-93000000D03*
X82500000Y-135000000D03*
X122500000Y-92500000D03*
X128890000Y-68480000D03*
X223520000Y-81280000D03*
X118000000Y-107500000D03*
X137110000Y-74530000D03*
X59000000Y-104000000D03*
X56946800Y-88442800D03*
X84963000Y-119380000D03*
X227830000Y-69030000D03*
X225000000Y-55000000D03*
X133502400Y-93776800D03*
X160680400Y-92557600D03*
X64000000Y-134000000D03*
X139610000Y-73620000D03*
X90932000Y-114808000D03*
X73660000Y-73152000D03*
X118000000Y-104000000D03*
X133604000Y-127000000D03*
X171000000Y-60000000D03*
X150550000Y-54080000D03*
X150000000Y-104000000D03*
X192500000Y-135000000D03*
X113000000Y-102000000D03*
X151230000Y-65330000D03*
X58000000Y-85000000D03*
X76000000Y-92000000D03*
X84963000Y-120650000D03*
X244069999Y-67190000D03*
X127000000Y-46990000D03*
X89800000Y-92000000D03*
X116000000Y-122000000D03*
X159004000Y-127000000D03*
X237500000Y-127500000D03*
X155803600Y-55880000D03*
X130750000Y-67010000D03*
X93820000Y-78100000D03*
X99000000Y-63000000D03*
X80899000Y-111252000D03*
X208280000Y-86360000D03*
X198120000Y-127000000D03*
X112800000Y-70200000D03*
X76000000Y-85000000D03*
X182880000Y-127000000D03*
X81350000Y-61000000D03*
X120000000Y-57000000D03*
X74000000Y-96000000D03*
X128000000Y-126000000D03*
X245078000Y-135000000D03*
X213360000Y-76200000D03*
X122500000Y-137500000D03*
X102870000Y-129540000D03*
X123890000Y-84300000D03*
X162560000Y-50800000D03*
X55360000Y-121570000D03*
X78930000Y-90040000D03*
X90060000Y-77590000D03*
X150000000Y-109000000D03*
X194950000Y-78320000D03*
X237500000Y-142500000D03*
X213360000Y-96520000D03*
X92860000Y-81810000D03*
X158800800Y-89916000D03*
X193040000Y-50800000D03*
X167640000Y-46990000D03*
X120000000Y-126000000D03*
X155790000Y-64500000D03*
X84963000Y-118237000D03*
X142200000Y-90000000D03*
X55480000Y-97490000D03*
X64000000Y-67000000D03*
X78930000Y-87030000D03*
X157480000Y-46990000D03*
X233560000Y-66150000D03*
X84000000Y-51000000D03*
X113510000Y-72280000D03*
X223520000Y-76200000D03*
X90000000Y-63000000D03*
X187960000Y-46990000D03*
X170000000Y-112500000D03*
X188000000Y-72000000D03*
X237500000Y-87500000D03*
X149000000Y-72000000D03*
X146304000Y-118364000D03*
X81280000Y-80800000D03*
X103000000Y-50000000D03*
X90120000Y-82940000D03*
X148209000Y-90000000D03*
X87180000Y-81060000D03*
X112000000Y-130000000D03*
X107070000Y-58180000D03*
X95250000Y-129540000D03*
X208280000Y-106680000D03*
X92500000Y-137500000D03*
X78930000Y-92050000D03*
X200000000Y-142500000D03*
X247497600Y-62255400D03*
X152140000Y-55880000D03*
X90000000Y-47000000D03*
X187960000Y-116840000D03*
X198120000Y-96520000D03*
X132500000Y-142500000D03*
X155117800Y-61569600D03*
X206000000Y-62000000D03*
X155000000Y-104000000D03*
X223520000Y-50800000D03*
X70000000Y-57000000D03*
X97500000Y-142500000D03*
X82000000Y-95000000D03*
X208280000Y-46990000D03*
X95250000Y-125730000D03*
X133604000Y-121412000D03*
X126710000Y-70150000D03*
X128000000Y-122000000D03*
X76000000Y-100000000D03*
X149050000Y-55880000D03*
X78930000Y-85540000D03*
X215880000Y-58970000D03*
X160223200Y-55880000D03*
X59000000Y-57000000D03*
X106730000Y-54900000D03*
X147100000Y-84070000D03*
X147320000Y-46990000D03*
X120000000Y-112000000D03*
X104000000Y-97800000D03*
X206000000Y-55000000D03*
X143200000Y-96200000D03*
X146202400Y-55880000D03*
X183362600Y-73101200D03*
X76000000Y-108000000D03*
X180000000Y-97500000D03*
X113000000Y-50000000D03*
X154210000Y-90000000D03*
X162356800Y-115976400D03*
X218440000Y-46990000D03*
X78930000Y-83030000D03*
X124000000Y-122000000D03*
X99060000Y-97790000D03*
X92850000Y-78820000D03*
X168000000Y-67000000D03*
X159004000Y-55880000D03*
X177800000Y-46990000D03*
X180000000Y-80000000D03*
X56946800Y-65582800D03*
X143100000Y-70260000D03*
X153416000Y-55880000D03*
X124410000Y-74610000D03*
X167500000Y-97500000D03*
X236000000Y-58000000D03*
X160000000Y-135000000D03*
X124000000Y-130000000D03*
X193979800Y-83108800D03*
X77640000Y-69020000D03*
X237500000Y-115000000D03*
X213360000Y-50800000D03*
X95780000Y-79210000D03*
X59000000Y-77000000D03*
X135991600Y-89662000D03*
X116000000Y-126000000D03*
X99060000Y-129540000D03*
X228600000Y-96520000D03*
X228600000Y-127000000D03*
X92814500Y-89300000D03*
X99000000Y-92000000D03*
X78930000Y-88540000D03*
X145000000Y-104000000D03*
X111000000Y-99000000D03*
X172720000Y-50800000D03*
X155000000Y-97500000D03*
X99060000Y-125730000D03*
X113000000Y-57000000D03*
X87160000Y-77880000D03*
X152908000Y-127000000D03*
X115000000Y-142500000D03*
X132000000Y-50000000D03*
X203200000Y-116840000D03*
X162000000Y-72000000D03*
X141000000Y-95123000D03*
X248000000Y-80000000D03*
X152100000Y-61570000D03*
X137160000Y-46990000D03*
X91567000Y-119380000D03*
X185000000Y-92500000D03*
X150000000Y-142500000D03*
X95780000Y-80690000D03*
X74000000Y-81000000D03*
X80000000Y-57000000D03*
X152908000Y-115824000D03*
X128000000Y-117000000D03*
X108700000Y-63740000D03*
X160000000Y-104000000D03*
X120000000Y-130000000D03*
X202500000Y-80000000D03*
X193040000Y-106680000D03*
X87250000Y-82570000D03*
X116000000Y-112000000D03*
X65000000Y-61000000D03*
X102870000Y-125730000D03*
X225460000Y-72200000D03*
X81530000Y-77530000D03*
X118000000Y-47000000D03*
X157810200Y-90000000D03*
X70000000Y-69000000D03*
X145600000Y-99000000D03*
X202500000Y-95000000D03*
X108000000Y-47000000D03*
X182000000Y-59000000D03*
X91567000Y-118237000D03*
X202500000Y-87500000D03*
X64000000Y-100000000D03*
X175000000Y-135000000D03*
X76000000Y-126000000D03*
X124000000Y-107500000D03*
X85000000Y-142500000D03*
X143000000Y-80000000D03*
X213000000Y-55000000D03*
X104000000Y-103500000D03*
X128000000Y-130000000D03*
X202000000Y-59000000D03*
X149300000Y-90000000D03*
X155000000Y-80000000D03*
X70000000Y-139000000D03*
X90000000Y-57000000D03*
X135000000Y-104000000D03*
X138000000Y-60000000D03*
X155000000Y-109000000D03*
X78400000Y-91540000D03*
X70000000Y-49000000D03*
X153120000Y-61780000D03*
X213360000Y-127000000D03*
X66000000Y-81000000D03*
X198120000Y-46990000D03*
X163060000Y-56620000D03*
X213360000Y-71120000D03*
X189839600Y-53441600D03*
X175000000Y-105000000D03*
X182500000Y-142500000D03*
X162000000Y-60000000D03*
X78930000Y-91040000D03*
X187198000Y-74930000D03*
X99060000Y-106680000D03*
X135128000Y-118364000D03*
X135000000Y-107500000D03*
X89800000Y-97800000D03*
X178511200Y-107594400D03*
X203200000Y-50800000D03*
X76000000Y-118000000D03*
X90932000Y-101981000D03*
X104000000Y-92000000D03*
X124000000Y-112000000D03*
X121750000Y-50000000D03*
X75770000Y-67200000D03*
X130170000Y-79510000D03*
X149300000Y-61600000D03*
X185000000Y-107500000D03*
X150418800Y-61595000D03*
X175000000Y-72000000D03*
X167500000Y-142500000D03*
X218440000Y-116840000D03*
X133290000Y-82740000D03*
X78930000Y-78560000D03*
X138000000Y-63000000D03*
X99765800Y-100595200D03*
X94000000Y-92000000D03*
X70000000Y-121000000D03*
X196799200Y-65049400D03*
X116010000Y-66920000D03*
X157835600Y-55880000D03*
X139700000Y-127000000D03*
X233680000Y-116840000D03*
X74000000Y-89000000D03*
X87220000Y-84090000D03*
X93750000Y-74610000D03*
X197000000Y-55000000D03*
X193903600Y-92354400D03*
X182880000Y-50800000D03*
X183896000Y-76200000D03*
X117500000Y-90000000D03*
X70000000Y-130000000D03*
%TO.N,CEC*%
X123890000Y-83590000D03*
X133285000Y-83585000D03*
%TO.N,+3.3V*%
X108100000Y-114350000D03*
X91845500Y-78814500D03*
X192684400Y-87934800D03*
X190474600Y-80137000D03*
X184200800Y-73101200D03*
X186207400Y-77952600D03*
X91845500Y-86291000D03*
X56260000Y-97490000D03*
X109912500Y-109700000D03*
X91853500Y-89291000D03*
X111875000Y-74115000D03*
X91845500Y-81810000D03*
X108100000Y-115650000D03*
X109400000Y-114350000D03*
X244679999Y-67750000D03*
X109400000Y-113144200D03*
X108100000Y-113150000D03*
X244810000Y-93550000D03*
X109400000Y-115650000D03*
X56300000Y-121560000D03*
X244850000Y-119150000D03*
X56260000Y-72630000D03*
%TO.N,+5V*%
X99732300Y-101500000D03*
X143431600Y-51740000D03*
X85670000Y-101095000D03*
X143446200Y-53190000D03*
X84800000Y-73600000D03*
X84170000Y-97270000D03*
X85670000Y-97270000D03*
X85670000Y-99770000D03*
X85670000Y-96040000D03*
X142263200Y-51714600D03*
X144640000Y-52450000D03*
X144640000Y-53190000D03*
X144600000Y-51740000D03*
X142277800Y-53190000D03*
X143446200Y-52450000D03*
X142277800Y-52450000D03*
X84170000Y-96040000D03*
X85670000Y-98520000D03*
%TO.N,dispBL_PWM*%
X149050000Y-55220000D03*
X93830000Y-77350000D03*
%TO.N,USB_OTG*%
X139610000Y-72800000D03*
X160970000Y-89630000D03*
%TD*%
D17*
%TO.N,+3.3V*%
X56300000Y-112305200D02*
X58318400Y-110286800D01*
D18*
X184912000Y-73812400D02*
X184200800Y-73101200D01*
D17*
X56260000Y-72630000D02*
X56261000Y-72629000D01*
X187172600Y-88188800D02*
X187172600Y-91922600D01*
D18*
X186207400Y-77952600D02*
X184912000Y-76657200D01*
D17*
X111875000Y-74115000D02*
X112650000Y-74890000D01*
X58318400Y-110286800D02*
X56261000Y-108229400D01*
X56261000Y-108229400D02*
X56261000Y-97491000D01*
D19*
X91845500Y-86291000D02*
X91845500Y-89283000D01*
D17*
X56261000Y-89027000D02*
X56261000Y-72631000D01*
X250460000Y-68330001D02*
X249599999Y-67470000D01*
X244810000Y-93540000D02*
X244810000Y-93550000D01*
X244850000Y-119150000D02*
X244860000Y-119140000D01*
D19*
X91845500Y-81810000D02*
X91845500Y-86291000D01*
D17*
X187172600Y-91922600D02*
X199263000Y-104013000D01*
X244810000Y-93550000D02*
X244800000Y-93550000D01*
X244959999Y-67470000D02*
X244679999Y-67750000D01*
X245230000Y-118770000D02*
X244850000Y-119150000D01*
X250290000Y-102700000D02*
X250460000Y-102530000D01*
X248977000Y-104013000D02*
X250290000Y-102700000D01*
X248977000Y-104013000D02*
X250480000Y-105516000D01*
X245120000Y-93230000D02*
X244810000Y-93540000D01*
X248280000Y-118770000D02*
X245690000Y-118770000D01*
X56261000Y-97489000D02*
X56261000Y-89027000D01*
X56300000Y-121560000D02*
X56300000Y-112305200D01*
X102793800Y-110286800D02*
X107286800Y-110286800D01*
X250480000Y-107470000D02*
X250480000Y-116570000D01*
X56261000Y-72631000D02*
X56260000Y-72630000D01*
X112650000Y-74890000D02*
X112650000Y-85520000D01*
X250460000Y-93230000D02*
X245120000Y-93230000D01*
X58318400Y-110286800D02*
X102793800Y-110286800D01*
X250480000Y-105516000D02*
X250480000Y-107470000D01*
X250460000Y-102530000D02*
X250460000Y-68330001D01*
X56261000Y-97491000D02*
X56260000Y-97490000D01*
X199263000Y-104013000D02*
X248977000Y-104013000D01*
D19*
X91845500Y-89283000D02*
X91853500Y-89291000D01*
D17*
X245690000Y-118770000D02*
X245230000Y-118770000D01*
X91845500Y-81810000D02*
X91845500Y-78814500D01*
D18*
X184912000Y-76657200D02*
X184912000Y-73812400D01*
D17*
X56260000Y-97490000D02*
X56261000Y-97489000D01*
X244800000Y-93550000D02*
X244830000Y-93520000D01*
X250480000Y-116570000D02*
X248940000Y-118110000D01*
X249599999Y-67470000D02*
X244959999Y-67470000D01*
X248940000Y-118110000D02*
X248280000Y-118770000D01*
%TO.N,+5V*%
X97750000Y-101500000D02*
X99732300Y-101500000D01*
X97345000Y-101095000D02*
X97500000Y-101250000D01*
X97500000Y-101250000D02*
X97750000Y-101500000D01*
X85670000Y-101095000D02*
X97345000Y-101095000D01*
%TD*%
%TA.AperFunction,Conductor*%
%TO.N,GND*%
G36*
X253593875Y-44827768D02*
G01*
X253768790Y-44841533D01*
X253784123Y-44843962D01*
X253950943Y-44884012D01*
X253965710Y-44888810D01*
X254124206Y-44954462D01*
X254138035Y-44961508D01*
X254284317Y-45051148D01*
X254296877Y-45060274D01*
X254316455Y-45076995D01*
X254427326Y-45171689D01*
X254438310Y-45182673D01*
X254549722Y-45313118D01*
X254558852Y-45325685D01*
X254648488Y-45471958D01*
X254655540Y-45485799D01*
X254721187Y-45644285D01*
X254725988Y-45659060D01*
X254766036Y-45825870D01*
X254768466Y-45841214D01*
X254782230Y-46016123D01*
X254782535Y-46023890D01*
X254782500Y-145743172D01*
X254782195Y-145750939D01*
X254768467Y-145925379D01*
X254766037Y-145940723D01*
X254725989Y-146107537D01*
X254721188Y-146122311D01*
X254655543Y-146280794D01*
X254648491Y-146294636D01*
X254558853Y-146440913D01*
X254549721Y-146453481D01*
X254438315Y-146583921D01*
X254427331Y-146594906D01*
X254296879Y-146706323D01*
X254284311Y-146715454D01*
X254138051Y-146805083D01*
X254138049Y-146805084D01*
X254124207Y-146812137D01*
X253965715Y-146877787D01*
X253950940Y-146882588D01*
X253784129Y-146922636D01*
X253768786Y-146925066D01*
X253610284Y-146937540D01*
X253593963Y-146938825D01*
X253586197Y-146939130D01*
X52447297Y-146939130D01*
X52439530Y-146938825D01*
X52264620Y-146925060D01*
X52249276Y-146922630D01*
X52082466Y-146882583D01*
X52067692Y-146877782D01*
X51909205Y-146812135D01*
X51895363Y-146805083D01*
X51749092Y-146715449D01*
X51736523Y-146706317D01*
X51606078Y-146594905D01*
X51595094Y-146583921D01*
X51527918Y-146505269D01*
X51483679Y-146453472D01*
X51474553Y-146440912D01*
X51384913Y-146294630D01*
X51377864Y-146280794D01*
X51312217Y-146122307D01*
X51307416Y-146107533D01*
X51302141Y-146085559D01*
X51267367Y-145940716D01*
X51264940Y-145925384D01*
X51251175Y-145750468D01*
X51250870Y-145742702D01*
X51250870Y-141462000D01*
X53734415Y-141462000D01*
X53754738Y-141810929D01*
X53815430Y-142155133D01*
X53815430Y-142155134D01*
X53912081Y-142477971D01*
X53915674Y-142489971D01*
X54054111Y-142810904D01*
X54228870Y-143113596D01*
X54437588Y-143393953D01*
X54677442Y-143648183D01*
X54945189Y-143872849D01*
X55237207Y-144064913D01*
X55549549Y-144221777D01*
X55877989Y-144341319D01*
X55877992Y-144341319D01*
X55877993Y-144341320D01*
X56218075Y-144421921D01*
X56218080Y-144421921D01*
X56218086Y-144421923D01*
X56565241Y-144462500D01*
X56565244Y-144462500D01*
X56914756Y-144462500D01*
X56914759Y-144462500D01*
X57261914Y-144421923D01*
X57261920Y-144421921D01*
X57261924Y-144421921D01*
X57488645Y-144368187D01*
X57602011Y-144341319D01*
X57930451Y-144221777D01*
X58242793Y-144064913D01*
X58534811Y-143872849D01*
X58802558Y-143648183D01*
X59042412Y-143393953D01*
X59251130Y-143113596D01*
X59425889Y-142810904D01*
X59564326Y-142489971D01*
X59664569Y-142155136D01*
X59725262Y-141810927D01*
X59745585Y-141462000D01*
X59744886Y-141450000D01*
X246274415Y-141450000D01*
X246294738Y-141798929D01*
X246355430Y-142143133D01*
X246355430Y-142143134D01*
X246455672Y-142477965D01*
X246455674Y-142477972D01*
X246588118Y-142785012D01*
X246594111Y-142798904D01*
X246768870Y-143101596D01*
X246977588Y-143381953D01*
X247217442Y-143636183D01*
X247485189Y-143860849D01*
X247777207Y-144052913D01*
X248089549Y-144209777D01*
X248417989Y-144329319D01*
X248417992Y-144329319D01*
X248417993Y-144329320D01*
X248758075Y-144409921D01*
X248758080Y-144409921D01*
X248758086Y-144409923D01*
X249105241Y-144450500D01*
X249105244Y-144450500D01*
X249454756Y-144450500D01*
X249454759Y-144450500D01*
X249801914Y-144409923D01*
X249801920Y-144409921D01*
X249801924Y-144409921D01*
X250028645Y-144356187D01*
X250142011Y-144329319D01*
X250470451Y-144209777D01*
X250782793Y-144052913D01*
X251074811Y-143860849D01*
X251342558Y-143636183D01*
X251582412Y-143381953D01*
X251791130Y-143101596D01*
X251965889Y-142798904D01*
X252104326Y-142477971D01*
X252204569Y-142143136D01*
X252265262Y-141798927D01*
X252285585Y-141450000D01*
X252265262Y-141101073D01*
X252204569Y-140756864D01*
X252104326Y-140422029D01*
X251965889Y-140101096D01*
X251791130Y-139798404D01*
X251582412Y-139518047D01*
X251342558Y-139263817D01*
X251074811Y-139039151D01*
X250980157Y-138976896D01*
X250782794Y-138847087D01*
X250470453Y-138690224D01*
X250470452Y-138690223D01*
X250470451Y-138690223D01*
X250174981Y-138582681D01*
X250142006Y-138570679D01*
X249801924Y-138490078D01*
X249689089Y-138476889D01*
X249454759Y-138449500D01*
X249105241Y-138449500D01*
X248913950Y-138471858D01*
X248758075Y-138490078D01*
X248417993Y-138570679D01*
X248221191Y-138642309D01*
X248089549Y-138690223D01*
X248089548Y-138690223D01*
X248089546Y-138690224D01*
X247777205Y-138847087D01*
X247485190Y-139039150D01*
X247217443Y-139263815D01*
X246977591Y-139518043D01*
X246768871Y-139798402D01*
X246768869Y-139798405D01*
X246594111Y-140101095D01*
X246594108Y-140101102D01*
X246455674Y-140422027D01*
X246455672Y-140422034D01*
X246355430Y-140756865D01*
X246355430Y-140756866D01*
X246294738Y-141101070D01*
X246274415Y-141450000D01*
X59744886Y-141450000D01*
X59725262Y-141113073D01*
X59664569Y-140768864D01*
X59564326Y-140434029D01*
X59425889Y-140113096D01*
X59251130Y-139810404D01*
X59042412Y-139530047D01*
X58802558Y-139275817D01*
X58534811Y-139051151D01*
X58440157Y-138988896D01*
X58242794Y-138859087D01*
X57930453Y-138702224D01*
X57930452Y-138702223D01*
X57930451Y-138702223D01*
X57602011Y-138582681D01*
X57602012Y-138582681D01*
X57602006Y-138582679D01*
X57261924Y-138502078D01*
X57149089Y-138488889D01*
X56914759Y-138461500D01*
X56565241Y-138461500D01*
X56373950Y-138483858D01*
X56218075Y-138502078D01*
X55877993Y-138582679D01*
X55681191Y-138654309D01*
X55549549Y-138702223D01*
X55549548Y-138702223D01*
X55549546Y-138702224D01*
X55237205Y-138859087D01*
X54945190Y-139051150D01*
X54677443Y-139275815D01*
X54437591Y-139530043D01*
X54228871Y-139810402D01*
X54228869Y-139810405D01*
X54054111Y-140113095D01*
X54054108Y-140113102D01*
X53915674Y-140434027D01*
X53915672Y-140434034D01*
X53815430Y-140768865D01*
X53815430Y-140768866D01*
X53754738Y-141113070D01*
X53734415Y-141462000D01*
X51250870Y-141462000D01*
X51250870Y-126170864D01*
X58955502Y-126170864D01*
X58983928Y-126350341D01*
X59040085Y-126523173D01*
X59117489Y-126675089D01*
X59122585Y-126685089D01*
X59229398Y-126832105D01*
X59357895Y-126960602D01*
X59504911Y-127067415D01*
X59666827Y-127149915D01*
X59839654Y-127206070D01*
X59839655Y-127206070D01*
X59839658Y-127206071D01*
X60019136Y-127234498D01*
X60019139Y-127234498D01*
X60200864Y-127234498D01*
X60380341Y-127206071D01*
X60380342Y-127206070D01*
X60380346Y-127206070D01*
X60553173Y-127149915D01*
X60715089Y-127067415D01*
X60862105Y-126960602D01*
X60990602Y-126832105D01*
X61097415Y-126685089D01*
X61179915Y-126523173D01*
X61236070Y-126350346D01*
X61264498Y-126170861D01*
X61264498Y-126160864D01*
X244675502Y-126160864D01*
X244703928Y-126340341D01*
X244707179Y-126350346D01*
X244760085Y-126513173D01*
X244842585Y-126675089D01*
X244949398Y-126822105D01*
X245077895Y-126950602D01*
X245224911Y-127057415D01*
X245386827Y-127139915D01*
X245559654Y-127196070D01*
X245559655Y-127196070D01*
X245559658Y-127196071D01*
X245739136Y-127224498D01*
X245739139Y-127224498D01*
X245920864Y-127224498D01*
X246100341Y-127196071D01*
X246100342Y-127196070D01*
X246100346Y-127196070D01*
X246273173Y-127139915D01*
X246435089Y-127057415D01*
X246582105Y-126950602D01*
X246710602Y-126822105D01*
X246817415Y-126675089D01*
X246899915Y-126513173D01*
X246956070Y-126340346D01*
X246982914Y-126170864D01*
X246984498Y-126160864D01*
X246984498Y-125979135D01*
X246956071Y-125799658D01*
X246956070Y-125799654D01*
X246899915Y-125626827D01*
X246817415Y-125464911D01*
X246710602Y-125317895D01*
X246582105Y-125189398D01*
X246435089Y-125082585D01*
X246435088Y-125082584D01*
X246435086Y-125082583D01*
X246273173Y-125000085D01*
X246100341Y-124943928D01*
X245920864Y-124915502D01*
X245920861Y-124915502D01*
X245739139Y-124915502D01*
X245739136Y-124915502D01*
X245559658Y-124943928D01*
X245386826Y-125000085D01*
X245224913Y-125082583D01*
X245160269Y-125129550D01*
X245077895Y-125189398D01*
X244949398Y-125317895D01*
X244942133Y-125327895D01*
X244842583Y-125464913D01*
X244760085Y-125626826D01*
X244703928Y-125799658D01*
X244675502Y-125979135D01*
X244675502Y-126160864D01*
X61264498Y-126160864D01*
X61264498Y-125989139D01*
X61264498Y-125989135D01*
X61236071Y-125809658D01*
X61232822Y-125799658D01*
X61179915Y-125636827D01*
X61167831Y-125613110D01*
X148752501Y-125613110D01*
X148860568Y-125649793D01*
X149143428Y-125706058D01*
X149431200Y-125724920D01*
X149718971Y-125706058D01*
X150001830Y-125649794D01*
X150109896Y-125613110D01*
X149428429Y-124931643D01*
X149416099Y-124939881D01*
X149412293Y-124951596D01*
X149402204Y-124963409D01*
X148752502Y-125613110D01*
X148752501Y-125613110D01*
X61167831Y-125613110D01*
X61097415Y-125474911D01*
X60990602Y-125327895D01*
X60862105Y-125199398D01*
X60715089Y-125092585D01*
X60715088Y-125092584D01*
X60715086Y-125092583D01*
X60553173Y-125010085D01*
X60380341Y-124953928D01*
X60200864Y-124925502D01*
X60200861Y-124925502D01*
X60019139Y-124925502D01*
X60019136Y-124925502D01*
X59839658Y-124953928D01*
X59666826Y-125010085D01*
X59504913Y-125092583D01*
X59468289Y-125119192D01*
X59357895Y-125199398D01*
X59229398Y-125327895D01*
X59175991Y-125401403D01*
X59122583Y-125474913D01*
X59040085Y-125636826D01*
X58983928Y-125809658D01*
X58955502Y-125989135D01*
X58955502Y-126170864D01*
X51250870Y-126170864D01*
X51250870Y-124080003D01*
X52800450Y-124080003D01*
X52820807Y-124286703D01*
X52820808Y-124286708D01*
X52881103Y-124485472D01*
X52881105Y-124485477D01*
X52979008Y-124668642D01*
X52979014Y-124668651D01*
X52979016Y-124668654D01*
X53033963Y-124735607D01*
X53110780Y-124829210D01*
X53110789Y-124829219D01*
X53185671Y-124890672D01*
X53271346Y-124960984D01*
X53271350Y-124960986D01*
X53271357Y-124960991D01*
X53435817Y-125048896D01*
X53454528Y-125058897D01*
X53581812Y-125097508D01*
X53653291Y-125119191D01*
X53653296Y-125119192D01*
X53859997Y-125139550D01*
X53860000Y-125139550D01*
X53860003Y-125139550D01*
X54066703Y-125119192D01*
X54066708Y-125119191D01*
X54072629Y-125117395D01*
X54265472Y-125058897D01*
X54356793Y-125010085D01*
X54448642Y-124960991D01*
X54448645Y-124960988D01*
X54448654Y-124960984D01*
X54609215Y-124829215D01*
X54740984Y-124668654D01*
X54740988Y-124668645D01*
X54740991Y-124668642D01*
X54831857Y-124498642D01*
X54838897Y-124485472D01*
X54899191Y-124286708D01*
X54899192Y-124286703D01*
X54919550Y-124080003D01*
X54919550Y-124080000D01*
X65201108Y-124080000D01*
X65220840Y-124292945D01*
X65279366Y-124498642D01*
X65334884Y-124610139D01*
X65765543Y-124179479D01*
X65800937Y-124311571D01*
X65879922Y-124448377D01*
X65991623Y-124560078D01*
X66128429Y-124639063D01*
X66260517Y-124674455D01*
X65827465Y-125107508D01*
X65843432Y-125117395D01*
X65843436Y-125117397D01*
X66042856Y-125194652D01*
X66253071Y-125233948D01*
X66466929Y-125233948D01*
X66677143Y-125194652D01*
X66876562Y-125117397D01*
X66876564Y-125117397D01*
X66892533Y-125107508D01*
X66459481Y-124674456D01*
X66591571Y-124639063D01*
X66728377Y-124560078D01*
X66840078Y-124448377D01*
X66919063Y-124311571D01*
X66954456Y-124179481D01*
X67385114Y-124610139D01*
X67440633Y-124498642D01*
X67499159Y-124292945D01*
X67518891Y-124080000D01*
X67499159Y-123867054D01*
X67440633Y-123661357D01*
X67385114Y-123549859D01*
X66954455Y-123980517D01*
X66919063Y-123848429D01*
X66840078Y-123711623D01*
X66728377Y-123599922D01*
X66591571Y-123520937D01*
X66588820Y-123520200D01*
X147226480Y-123520200D01*
X147245341Y-123807971D01*
X147301604Y-124090824D01*
X147338288Y-124198896D01*
X147908769Y-123628415D01*
X148056200Y-123628415D01*
X148090057Y-123842180D01*
X148156937Y-124048017D01*
X148255194Y-124240857D01*
X148382409Y-124415953D01*
X148535447Y-124568991D01*
X148710543Y-124696206D01*
X148903383Y-124794463D01*
X149109220Y-124861343D01*
X149322985Y-124895200D01*
X149539415Y-124895200D01*
X149753180Y-124861343D01*
X149959017Y-124794463D01*
X150151857Y-124696206D01*
X150326953Y-124568991D01*
X150479991Y-124415953D01*
X150607206Y-124240857D01*
X150705463Y-124048017D01*
X150772343Y-123842180D01*
X150806200Y-123628415D01*
X150806200Y-123517429D01*
X150842643Y-123517429D01*
X151524110Y-124198896D01*
X151560794Y-124090830D01*
X151617058Y-123807971D01*
X151635920Y-123520200D01*
X153925978Y-123520200D01*
X153944843Y-123808036D01*
X154001120Y-124090959D01*
X154093840Y-124364100D01*
X154093845Y-124364111D01*
X154221422Y-124622811D01*
X154381677Y-124862650D01*
X154381687Y-124862663D01*
X154545010Y-125048896D01*
X154571873Y-125079527D01*
X154571881Y-125079534D01*
X154571882Y-125079535D01*
X154788736Y-125269712D01*
X154788743Y-125269717D01*
X154788746Y-125269720D01*
X155028589Y-125429978D01*
X155287298Y-125557559D01*
X155416859Y-125601539D01*
X155560440Y-125650279D01*
X155560442Y-125650279D01*
X155560447Y-125650281D01*
X155843361Y-125706556D01*
X156131200Y-125725422D01*
X156419039Y-125706556D01*
X156701953Y-125650281D01*
X156975102Y-125557559D01*
X157233811Y-125429978D01*
X157473654Y-125269720D01*
X157690527Y-125079527D01*
X157880720Y-124862654D01*
X158040978Y-124622811D01*
X158168559Y-124364102D01*
X158261281Y-124090953D01*
X158265448Y-124070003D01*
X238520450Y-124070003D01*
X238540807Y-124276703D01*
X238540808Y-124276708D01*
X238601103Y-124475472D01*
X238601105Y-124475477D01*
X238699008Y-124658642D01*
X238699014Y-124658651D01*
X238699016Y-124658654D01*
X238707223Y-124668654D01*
X238830780Y-124819210D01*
X238830789Y-124819219D01*
X238905671Y-124880672D01*
X238991346Y-124950984D01*
X238991350Y-124950986D01*
X238991357Y-124950991D01*
X239174522Y-125048894D01*
X239174528Y-125048897D01*
X239312997Y-125090900D01*
X239373291Y-125109191D01*
X239373296Y-125109192D01*
X239579997Y-125129550D01*
X239580000Y-125129550D01*
X239580003Y-125129550D01*
X239786703Y-125109192D01*
X239786708Y-125109191D01*
X239792629Y-125107395D01*
X239985472Y-125048897D01*
X240145409Y-124963409D01*
X240168642Y-124950991D01*
X240168645Y-124950988D01*
X240168654Y-124950984D01*
X240329215Y-124819215D01*
X240460984Y-124658654D01*
X240460988Y-124658645D01*
X240460991Y-124658642D01*
X240558894Y-124475477D01*
X240558897Y-124475472D01*
X240619191Y-124276708D01*
X240619192Y-124276703D01*
X240639550Y-124070003D01*
X240639550Y-124070000D01*
X250921108Y-124070000D01*
X250940840Y-124282945D01*
X250999366Y-124488642D01*
X251054884Y-124600139D01*
X251485543Y-124169479D01*
X251520937Y-124301571D01*
X251599922Y-124438377D01*
X251711623Y-124550078D01*
X251848429Y-124629063D01*
X251980517Y-124664455D01*
X251547465Y-125097508D01*
X251563432Y-125107395D01*
X251563436Y-125107397D01*
X251762856Y-125184652D01*
X251973071Y-125223948D01*
X252186929Y-125223948D01*
X252397143Y-125184652D01*
X252596562Y-125107397D01*
X252596564Y-125107397D01*
X252612533Y-125097508D01*
X252179481Y-124664456D01*
X252311571Y-124629063D01*
X252448377Y-124550078D01*
X252560078Y-124438377D01*
X252639063Y-124301571D01*
X252674456Y-124169481D01*
X253105114Y-124600139D01*
X253160633Y-124488642D01*
X253219159Y-124282945D01*
X253238891Y-124070000D01*
X253219159Y-123857054D01*
X253160633Y-123651357D01*
X253105114Y-123539859D01*
X252674455Y-123970517D01*
X252639063Y-123838429D01*
X252560078Y-123701623D01*
X252448377Y-123589922D01*
X252311571Y-123510937D01*
X252179479Y-123475543D01*
X252612533Y-123042490D01*
X252596566Y-123032603D01*
X252397143Y-122955347D01*
X252186929Y-122916052D01*
X251973071Y-122916052D01*
X251762856Y-122955347D01*
X251563437Y-123032601D01*
X251563429Y-123032605D01*
X251547465Y-123042490D01*
X251980518Y-123475543D01*
X251848429Y-123510937D01*
X251711623Y-123589922D01*
X251599922Y-123701623D01*
X251520937Y-123838429D01*
X251485543Y-123970518D01*
X251054884Y-123539859D01*
X251054883Y-123539859D01*
X250999367Y-123651352D01*
X250940840Y-123857054D01*
X250921108Y-124070000D01*
X240639550Y-124070000D01*
X240639550Y-124069996D01*
X240619192Y-123863296D01*
X240619191Y-123863291D01*
X240573183Y-123711623D01*
X240558897Y-123664528D01*
X240557202Y-123661357D01*
X240460991Y-123481357D01*
X240460986Y-123481350D01*
X240460984Y-123481346D01*
X240390672Y-123395671D01*
X240329219Y-123320789D01*
X240329210Y-123320780D01*
X240221470Y-123232361D01*
X240168654Y-123189016D01*
X240168651Y-123189014D01*
X240168642Y-123189008D01*
X239985477Y-123091105D01*
X239985472Y-123091103D01*
X239786708Y-123030808D01*
X239786703Y-123030807D01*
X239580003Y-123010450D01*
X239579997Y-123010450D01*
X239373296Y-123030807D01*
X239373291Y-123030808D01*
X239174527Y-123091103D01*
X239174522Y-123091105D01*
X238991357Y-123189008D01*
X238991347Y-123189015D01*
X238830789Y-123320780D01*
X238830780Y-123320789D01*
X238699015Y-123481347D01*
X238699008Y-123481357D01*
X238601105Y-123664522D01*
X238601103Y-123664527D01*
X238540808Y-123863291D01*
X238540807Y-123863296D01*
X238520450Y-124069996D01*
X238520450Y-124070003D01*
X158265448Y-124070003D01*
X158317556Y-123808039D01*
X158336422Y-123520200D01*
X158334521Y-123491204D01*
X158317556Y-123232363D01*
X158310923Y-123199015D01*
X158261281Y-122949447D01*
X158253339Y-122926052D01*
X158168559Y-122676299D01*
X158168554Y-122676288D01*
X158067519Y-122471409D01*
X158040978Y-122417589D01*
X157880720Y-122177746D01*
X157880717Y-122177743D01*
X157880712Y-122177736D01*
X157690535Y-121960882D01*
X157690534Y-121960881D01*
X157690527Y-121960873D01*
X157690517Y-121960864D01*
X157473663Y-121770687D01*
X157473650Y-121770677D01*
X157233811Y-121610422D01*
X156975111Y-121482845D01*
X156975100Y-121482840D01*
X156701959Y-121390120D01*
X156419036Y-121333843D01*
X156131200Y-121314978D01*
X155843363Y-121333843D01*
X155560440Y-121390120D01*
X155287299Y-121482840D01*
X155287288Y-121482845D01*
X155028588Y-121610422D01*
X154788749Y-121770677D01*
X154788736Y-121770687D01*
X154571882Y-121960864D01*
X154571864Y-121960882D01*
X154381687Y-122177736D01*
X154381677Y-122177749D01*
X154221422Y-122417588D01*
X154093845Y-122676288D01*
X154093840Y-122676299D01*
X154001120Y-122949440D01*
X153944843Y-123232363D01*
X153925978Y-123520199D01*
X153925978Y-123520200D01*
X151635920Y-123520200D01*
X151635920Y-123520199D01*
X151617058Y-123232428D01*
X151560793Y-122949568D01*
X151524110Y-122841502D01*
X150874409Y-123491204D01*
X150852814Y-123502206D01*
X150842643Y-123517429D01*
X150806200Y-123517429D01*
X150806200Y-123411985D01*
X150772343Y-123198220D01*
X150705463Y-122992383D01*
X150607206Y-122799543D01*
X150479991Y-122624447D01*
X150326953Y-122471409D01*
X150151857Y-122344194D01*
X149959017Y-122245937D01*
X149753180Y-122179057D01*
X149539415Y-122145200D01*
X149322985Y-122145200D01*
X149109220Y-122179057D01*
X148903383Y-122245937D01*
X148710543Y-122344194D01*
X148535447Y-122471409D01*
X148382409Y-122624447D01*
X148255194Y-122799543D01*
X148156937Y-122992383D01*
X148090057Y-123198220D01*
X148056200Y-123411985D01*
X148056200Y-123628415D01*
X147908769Y-123628415D01*
X148016985Y-123520199D01*
X147338288Y-122841502D01*
X147301604Y-122949575D01*
X147245341Y-123232428D01*
X147226480Y-123520199D01*
X147226480Y-123520200D01*
X66588820Y-123520200D01*
X66459479Y-123485543D01*
X66892533Y-123052490D01*
X66876566Y-123042603D01*
X66677143Y-122965347D01*
X66466929Y-122926052D01*
X66253071Y-122926052D01*
X66042856Y-122965347D01*
X65843437Y-123042601D01*
X65843429Y-123042605D01*
X65827465Y-123052490D01*
X66260518Y-123485543D01*
X66128429Y-123520937D01*
X65991623Y-123599922D01*
X65879922Y-123711623D01*
X65800937Y-123848429D01*
X65765543Y-123980518D01*
X65334884Y-123549859D01*
X65334883Y-123549859D01*
X65279367Y-123661352D01*
X65220840Y-123867054D01*
X65201108Y-124080000D01*
X54919550Y-124080000D01*
X54919550Y-124079996D01*
X54899192Y-123873296D01*
X54899191Y-123873291D01*
X54879376Y-123807971D01*
X54838897Y-123674528D01*
X54833552Y-123664528D01*
X54740991Y-123491357D01*
X54740986Y-123491350D01*
X54740984Y-123491346D01*
X54670672Y-123405671D01*
X54609219Y-123330789D01*
X54609210Y-123330780D01*
X54515607Y-123253963D01*
X54448654Y-123199016D01*
X54448651Y-123199014D01*
X54448642Y-123199008D01*
X54265477Y-123101105D01*
X54265472Y-123101103D01*
X54066708Y-123040808D01*
X54066703Y-123040807D01*
X53860003Y-123020450D01*
X53859997Y-123020450D01*
X53653296Y-123040807D01*
X53653291Y-123040808D01*
X53454527Y-123101103D01*
X53454522Y-123101105D01*
X53271357Y-123199008D01*
X53271347Y-123199015D01*
X53110789Y-123330780D01*
X53110780Y-123330789D01*
X52979015Y-123491347D01*
X52979008Y-123491357D01*
X52881105Y-123674522D01*
X52881103Y-123674527D01*
X52820808Y-123873291D01*
X52820807Y-123873296D01*
X52800450Y-124079996D01*
X52800450Y-124080003D01*
X51250870Y-124080003D01*
X51250870Y-119080001D01*
X52800450Y-119080001D01*
X52820807Y-119286703D01*
X52820808Y-119286708D01*
X52881103Y-119485472D01*
X52881105Y-119485477D01*
X52979008Y-119668642D01*
X52979014Y-119668651D01*
X52979016Y-119668654D01*
X53033963Y-119735607D01*
X53110780Y-119829210D01*
X53110789Y-119829219D01*
X53137493Y-119851134D01*
X53271346Y-119960984D01*
X53271350Y-119960986D01*
X53271357Y-119960991D01*
X53454522Y-120058894D01*
X53454528Y-120058897D01*
X53592997Y-120100900D01*
X53653291Y-120119191D01*
X53653296Y-120119192D01*
X53859997Y-120139550D01*
X53860000Y-120139550D01*
X53860003Y-120139550D01*
X54066703Y-120119192D01*
X54066708Y-120119191D01*
X54265472Y-120058897D01*
X54331146Y-120023793D01*
X54448642Y-119960991D01*
X54448645Y-119960988D01*
X54448654Y-119960984D01*
X54609215Y-119829215D01*
X54740984Y-119668654D01*
X54740988Y-119668645D01*
X54740991Y-119668642D01*
X54803793Y-119551146D01*
X54838897Y-119485472D01*
X54899191Y-119286708D01*
X54899192Y-119286703D01*
X54919550Y-119080001D01*
X54919550Y-119079996D01*
X54899192Y-118873296D01*
X54899191Y-118873291D01*
X54858843Y-118740282D01*
X54838897Y-118674528D01*
X54833552Y-118664528D01*
X54740991Y-118491357D01*
X54740986Y-118491350D01*
X54740984Y-118491346D01*
X54637660Y-118365445D01*
X54609219Y-118330789D01*
X54609210Y-118330780D01*
X54491889Y-118234498D01*
X54448654Y-118199016D01*
X54448651Y-118199014D01*
X54448642Y-118199008D01*
X54265477Y-118101105D01*
X54265472Y-118101103D01*
X54066708Y-118040808D01*
X54066703Y-118040807D01*
X53860003Y-118020450D01*
X53859997Y-118020450D01*
X53653296Y-118040807D01*
X53653291Y-118040808D01*
X53454527Y-118101103D01*
X53454522Y-118101105D01*
X53271357Y-118199008D01*
X53271347Y-118199015D01*
X53110789Y-118330780D01*
X53110780Y-118330789D01*
X52979015Y-118491347D01*
X52979008Y-118491357D01*
X52881105Y-118674522D01*
X52881103Y-118674527D01*
X52820808Y-118873291D01*
X52820807Y-118873296D01*
X52800450Y-119079996D01*
X52800450Y-119080001D01*
X51250870Y-119080001D01*
X51250870Y-98370003D01*
X52840450Y-98370003D01*
X52860807Y-98576703D01*
X52860808Y-98576708D01*
X52921103Y-98775472D01*
X52921105Y-98775477D01*
X53019008Y-98958642D01*
X53019014Y-98958651D01*
X53019016Y-98958654D01*
X53028285Y-98969948D01*
X53150780Y-99119210D01*
X53150789Y-99119219D01*
X53225671Y-99180672D01*
X53311346Y-99250984D01*
X53311350Y-99250986D01*
X53311357Y-99250991D01*
X53475817Y-99338896D01*
X53494528Y-99348897D01*
X53621812Y-99387508D01*
X53693291Y-99409191D01*
X53693296Y-99409192D01*
X53899997Y-99429550D01*
X53900000Y-99429550D01*
X53900003Y-99429550D01*
X54106703Y-99409192D01*
X54106708Y-99409191D01*
X54112629Y-99407395D01*
X54305472Y-99348897D01*
X54396793Y-99300085D01*
X54488642Y-99250991D01*
X54488645Y-99250988D01*
X54488654Y-99250984D01*
X54649215Y-99119215D01*
X54780984Y-98958654D01*
X54780988Y-98958645D01*
X54780991Y-98958642D01*
X54871857Y-98788642D01*
X54878897Y-98775472D01*
X54939191Y-98576708D01*
X54939192Y-98576703D01*
X54959550Y-98370003D01*
X54959550Y-98369996D01*
X54939192Y-98163296D01*
X54939191Y-98163291D01*
X54920900Y-98102997D01*
X54878897Y-97964528D01*
X54873552Y-97954528D01*
X54780991Y-97781357D01*
X54780986Y-97781350D01*
X54780984Y-97781346D01*
X54710672Y-97695671D01*
X54649219Y-97620789D01*
X54649210Y-97620780D01*
X54555607Y-97543963D01*
X54489853Y-97490000D01*
X55829196Y-97490000D01*
X55850281Y-97623126D01*
X55897710Y-97716210D01*
X55899710Y-97720135D01*
X55910500Y-97765080D01*
X55910500Y-108275544D01*
X55934386Y-108364688D01*
X55980530Y-108444612D01*
X57373218Y-109837300D01*
X57752714Y-110216796D01*
X57780491Y-110271313D01*
X57770920Y-110331745D01*
X57752714Y-110356804D01*
X56019530Y-112089988D01*
X55973386Y-112169912D01*
X55949894Y-112257588D01*
X55949500Y-112259057D01*
X55949500Y-121286881D01*
X55938710Y-121331826D01*
X55890281Y-121426872D01*
X55890281Y-121426874D01*
X55869196Y-121559999D01*
X55869196Y-121560000D01*
X55890281Y-121693127D01*
X55890282Y-121693129D01*
X55929800Y-121770687D01*
X55951472Y-121813220D01*
X56046780Y-121908528D01*
X56166874Y-121969719D01*
X56300000Y-121990804D01*
X56433126Y-121969719D01*
X56553220Y-121908528D01*
X56648528Y-121813220D01*
X56709719Y-121693126D01*
X56730804Y-121560000D01*
X56709785Y-121427288D01*
X148752502Y-121427288D01*
X149431199Y-122105985D01*
X150109896Y-121427288D01*
X150001824Y-121390604D01*
X149718971Y-121334341D01*
X149431200Y-121315480D01*
X149143428Y-121334341D01*
X148860575Y-121390604D01*
X148752502Y-121427288D01*
X56709785Y-121427288D01*
X56709719Y-121426874D01*
X56690992Y-121390120D01*
X56661290Y-121331826D01*
X56650500Y-121286881D01*
X56650500Y-119080001D01*
X65300450Y-119080001D01*
X65320807Y-119286703D01*
X65320808Y-119286708D01*
X65381103Y-119485472D01*
X65381105Y-119485477D01*
X65479008Y-119668642D01*
X65479014Y-119668651D01*
X65479016Y-119668654D01*
X65533963Y-119735607D01*
X65610780Y-119829210D01*
X65610789Y-119829219D01*
X65637493Y-119851134D01*
X65771346Y-119960984D01*
X65771350Y-119960986D01*
X65771357Y-119960991D01*
X65954522Y-120058894D01*
X65954528Y-120058897D01*
X66092997Y-120100900D01*
X66153291Y-120119191D01*
X66153296Y-120119192D01*
X66359997Y-120139550D01*
X66360000Y-120139550D01*
X66360003Y-120139550D01*
X66566703Y-120119192D01*
X66566708Y-120119191D01*
X66765472Y-120058897D01*
X66831146Y-120023793D01*
X66948642Y-119960991D01*
X66948645Y-119960988D01*
X66948654Y-119960984D01*
X67109215Y-119829215D01*
X67240984Y-119668654D01*
X67240988Y-119668645D01*
X67240991Y-119668642D01*
X67303793Y-119551146D01*
X67338897Y-119485472D01*
X67399191Y-119286708D01*
X67399192Y-119286703D01*
X67419550Y-119080001D01*
X67419550Y-119079996D01*
X67399192Y-118873296D01*
X67399191Y-118873291D01*
X67358843Y-118740282D01*
X67338897Y-118674528D01*
X67333552Y-118664528D01*
X67240991Y-118491357D01*
X67240986Y-118491350D01*
X67240984Y-118491346D01*
X67199010Y-118440200D01*
X137025729Y-118440200D01*
X137045579Y-118679761D01*
X137045579Y-118679762D01*
X137100536Y-118896782D01*
X137104590Y-118912791D01*
X137150243Y-119016870D01*
X137201150Y-119132927D01*
X137201153Y-119132932D01*
X137332625Y-119334164D01*
X137332627Y-119334166D01*
X137332629Y-119334169D01*
X137495436Y-119511025D01*
X137685133Y-119658672D01*
X137896544Y-119773082D01*
X138123903Y-119851134D01*
X138361008Y-119890700D01*
X138601392Y-119890700D01*
X138838497Y-119851134D01*
X139065856Y-119773082D01*
X139277267Y-119658672D01*
X139466964Y-119511025D01*
X139629771Y-119334169D01*
X139761249Y-119132928D01*
X139857810Y-118912791D01*
X139916820Y-118679763D01*
X139932462Y-118491000D01*
X158322778Y-118491000D01*
X158341643Y-118778836D01*
X158397920Y-119061759D01*
X158490640Y-119334900D01*
X158490645Y-119334911D01*
X158618222Y-119593611D01*
X158778477Y-119833450D01*
X158778487Y-119833463D01*
X158881551Y-119950984D01*
X158968673Y-120050327D01*
X158968681Y-120050334D01*
X158968682Y-120050335D01*
X159185536Y-120240512D01*
X159185543Y-120240517D01*
X159185546Y-120240520D01*
X159425389Y-120400778D01*
X159684098Y-120528359D01*
X159813659Y-120572339D01*
X159957240Y-120621079D01*
X159957242Y-120621079D01*
X159957247Y-120621081D01*
X160240161Y-120677356D01*
X160528000Y-120696222D01*
X160815839Y-120677356D01*
X161098753Y-120621081D01*
X161371902Y-120528359D01*
X161630611Y-120400778D01*
X161870454Y-120240520D01*
X162087327Y-120050327D01*
X162277520Y-119833454D01*
X162437778Y-119593611D01*
X162565359Y-119334902D01*
X162653319Y-119075779D01*
X162658079Y-119061759D01*
X162658079Y-119061758D01*
X162658081Y-119061753D01*
X162714356Y-118778839D01*
X162733222Y-118491000D01*
X162729892Y-118440200D01*
X165625729Y-118440200D01*
X165645579Y-118679761D01*
X165645579Y-118679762D01*
X165700536Y-118896782D01*
X165704590Y-118912791D01*
X165750243Y-119016870D01*
X165801150Y-119132927D01*
X165801153Y-119132932D01*
X165932625Y-119334164D01*
X165932627Y-119334166D01*
X165932629Y-119334169D01*
X166095436Y-119511025D01*
X166285133Y-119658672D01*
X166496544Y-119773082D01*
X166723903Y-119851134D01*
X166961008Y-119890700D01*
X167201392Y-119890700D01*
X167438497Y-119851134D01*
X167665856Y-119773082D01*
X167877267Y-119658672D01*
X168066964Y-119511025D01*
X168229771Y-119334169D01*
X168361249Y-119132928D01*
X168388850Y-119070003D01*
X238520450Y-119070003D01*
X238540807Y-119276703D01*
X238540808Y-119276708D01*
X238601103Y-119475472D01*
X238601105Y-119475477D01*
X238699008Y-119658642D01*
X238699014Y-119658651D01*
X238699016Y-119658654D01*
X238707223Y-119668654D01*
X238830780Y-119819210D01*
X238830789Y-119819219D01*
X238848130Y-119833450D01*
X238991346Y-119950984D01*
X238991350Y-119950986D01*
X238991357Y-119950991D01*
X239174522Y-120048894D01*
X239174528Y-120048897D01*
X239312997Y-120090900D01*
X239373291Y-120109191D01*
X239373296Y-120109192D01*
X239579997Y-120129550D01*
X239580000Y-120129550D01*
X239580003Y-120129550D01*
X239786703Y-120109192D01*
X239786708Y-120109191D01*
X239985472Y-120048897D01*
X240051146Y-120013793D01*
X240168642Y-119950991D01*
X240168645Y-119950988D01*
X240168654Y-119950984D01*
X240329215Y-119819215D01*
X240460984Y-119658654D01*
X240460988Y-119658645D01*
X240460991Y-119658642D01*
X240558894Y-119475477D01*
X240558897Y-119475472D01*
X240619191Y-119276708D01*
X240619192Y-119276703D01*
X240639550Y-119070003D01*
X240639550Y-119069996D01*
X240619192Y-118863296D01*
X240619191Y-118863291D01*
X240593572Y-118778836D01*
X240558897Y-118664528D01*
X240558894Y-118664522D01*
X240460991Y-118481357D01*
X240460986Y-118481350D01*
X240460984Y-118481346D01*
X240365867Y-118365445D01*
X240329219Y-118320789D01*
X240329210Y-118320780D01*
X240209721Y-118222719D01*
X240168654Y-118189016D01*
X240168651Y-118189014D01*
X240168642Y-118189008D01*
X239985477Y-118091105D01*
X239985472Y-118091103D01*
X239786708Y-118030808D01*
X239786703Y-118030807D01*
X239580003Y-118010450D01*
X239579997Y-118010450D01*
X239373296Y-118030807D01*
X239373291Y-118030808D01*
X239174527Y-118091103D01*
X239174522Y-118091105D01*
X238991357Y-118189008D01*
X238991347Y-118189015D01*
X238830789Y-118320780D01*
X238830780Y-118320789D01*
X238699015Y-118481347D01*
X238699008Y-118481357D01*
X238601105Y-118664522D01*
X238601103Y-118664527D01*
X238540808Y-118863291D01*
X238540807Y-118863296D01*
X238520450Y-119069996D01*
X238520450Y-119070003D01*
X168388850Y-119070003D01*
X168457810Y-118912791D01*
X168516820Y-118679763D01*
X168536671Y-118440200D01*
X168516820Y-118200637D01*
X168457810Y-117967609D01*
X168361249Y-117747472D01*
X168229771Y-117546231D01*
X168066964Y-117369375D01*
X167877267Y-117221728D01*
X167783279Y-117170864D01*
X167665859Y-117107319D01*
X167648996Y-117101530D01*
X167438497Y-117029266D01*
X167438494Y-117029265D01*
X167438493Y-117029265D01*
X167201392Y-116989700D01*
X166961008Y-116989700D01*
X166723906Y-117029265D01*
X166496540Y-117107319D01*
X166285132Y-117221728D01*
X166285129Y-117221730D01*
X166095439Y-117369372D01*
X166095436Y-117369374D01*
X166095436Y-117369375D01*
X166025661Y-117445170D01*
X165932625Y-117546235D01*
X165801153Y-117747467D01*
X165801150Y-117747472D01*
X165704588Y-117967614D01*
X165645579Y-118200637D01*
X165645579Y-118200638D01*
X165625729Y-118440200D01*
X162729892Y-118440200D01*
X162714356Y-118203161D01*
X162658081Y-117920247D01*
X162624766Y-117822106D01*
X162609339Y-117776659D01*
X162565359Y-117647098D01*
X162437778Y-117388389D01*
X162277520Y-117148546D01*
X162277517Y-117148543D01*
X162277512Y-117148536D01*
X162087335Y-116931682D01*
X162087334Y-116931681D01*
X162087327Y-116931673D01*
X162087317Y-116931664D01*
X161870463Y-116741487D01*
X161870450Y-116741477D01*
X161630611Y-116581222D01*
X161371911Y-116453645D01*
X161371900Y-116453640D01*
X161098759Y-116360920D01*
X160815836Y-116304643D01*
X160528000Y-116285778D01*
X160240163Y-116304643D01*
X159957240Y-116360920D01*
X159684099Y-116453640D01*
X159684088Y-116453645D01*
X159425388Y-116581222D01*
X159185549Y-116741477D01*
X159185536Y-116741487D01*
X158968682Y-116931664D01*
X158968664Y-116931682D01*
X158778487Y-117148536D01*
X158778477Y-117148549D01*
X158618222Y-117388388D01*
X158490645Y-117647088D01*
X158490640Y-117647099D01*
X158397920Y-117920240D01*
X158341643Y-118203163D01*
X158322778Y-118490999D01*
X158322778Y-118491000D01*
X139932462Y-118491000D01*
X139936671Y-118440200D01*
X139916820Y-118200637D01*
X139857810Y-117967609D01*
X139761249Y-117747472D01*
X139629771Y-117546231D01*
X139466964Y-117369375D01*
X139277267Y-117221728D01*
X139183279Y-117170864D01*
X139065859Y-117107319D01*
X139048996Y-117101530D01*
X138838497Y-117029266D01*
X138838494Y-117029265D01*
X138838493Y-117029265D01*
X138601392Y-116989700D01*
X138361008Y-116989700D01*
X138123906Y-117029265D01*
X137896540Y-117107319D01*
X137685132Y-117221728D01*
X137685129Y-117221730D01*
X137495439Y-117369372D01*
X137495436Y-117369374D01*
X137495436Y-117369375D01*
X137425661Y-117445170D01*
X137332625Y-117546235D01*
X137201153Y-117747467D01*
X137201150Y-117747472D01*
X137104588Y-117967614D01*
X137045579Y-118200637D01*
X137045579Y-118200638D01*
X137025729Y-118440200D01*
X67199010Y-118440200D01*
X67137660Y-118365445D01*
X67109219Y-118330789D01*
X67109210Y-118330780D01*
X66991889Y-118234498D01*
X66948654Y-118199016D01*
X66948651Y-118199014D01*
X66948642Y-118199008D01*
X66765477Y-118101105D01*
X66765472Y-118101103D01*
X66566708Y-118040808D01*
X66566703Y-118040807D01*
X66360003Y-118020450D01*
X66359997Y-118020450D01*
X66153296Y-118040807D01*
X66153291Y-118040808D01*
X65954527Y-118101103D01*
X65954522Y-118101105D01*
X65771357Y-118199008D01*
X65771347Y-118199015D01*
X65610789Y-118330780D01*
X65610780Y-118330789D01*
X65479015Y-118491347D01*
X65479008Y-118491357D01*
X65381105Y-118674522D01*
X65381103Y-118674527D01*
X65320808Y-118873291D01*
X65320807Y-118873296D01*
X65300450Y-119079996D01*
X65300450Y-119080001D01*
X56650500Y-119080001D01*
X56650500Y-117170864D01*
X58955502Y-117170864D01*
X58983928Y-117350341D01*
X59040085Y-117523173D01*
X59117489Y-117675089D01*
X59122585Y-117685089D01*
X59229398Y-117832105D01*
X59357895Y-117960602D01*
X59504911Y-118067415D01*
X59666827Y-118149915D01*
X59839654Y-118206070D01*
X59839655Y-118206070D01*
X59839658Y-118206071D01*
X60019136Y-118234498D01*
X60019139Y-118234498D01*
X60200864Y-118234498D01*
X60380341Y-118206071D01*
X60380342Y-118206070D01*
X60380346Y-118206070D01*
X60553173Y-118149915D01*
X60715089Y-118067415D01*
X60862105Y-117960602D01*
X60990602Y-117832105D01*
X61097415Y-117685089D01*
X61179915Y-117523173D01*
X61236070Y-117350346D01*
X61256441Y-117221730D01*
X61264498Y-117170864D01*
X61264498Y-116989135D01*
X61236071Y-116809658D01*
X61232822Y-116799658D01*
X61179915Y-116636827D01*
X61097415Y-116474911D01*
X60990602Y-116327895D01*
X60862105Y-116199398D01*
X60715089Y-116092585D01*
X60715088Y-116092584D01*
X60715086Y-116092583D01*
X60553173Y-116010085D01*
X60380341Y-115953928D01*
X60200864Y-115925502D01*
X60200861Y-115925502D01*
X60019139Y-115925502D01*
X60019136Y-115925502D01*
X59839658Y-115953928D01*
X59666826Y-116010085D01*
X59504913Y-116092583D01*
X59431403Y-116145991D01*
X59357895Y-116199398D01*
X59229398Y-116327895D01*
X59205405Y-116360919D01*
X59122583Y-116474913D01*
X59040085Y-116636826D01*
X58983928Y-116809658D01*
X58955502Y-116989135D01*
X58955502Y-117170864D01*
X56650500Y-117170864D01*
X56650500Y-112491390D01*
X56669407Y-112433199D01*
X56679496Y-112421386D01*
X58434586Y-110666296D01*
X58489103Y-110638519D01*
X58504590Y-110637300D01*
X102747656Y-110637300D01*
X106736100Y-110637300D01*
X106794291Y-110656207D01*
X106830255Y-110705707D01*
X106835100Y-110736300D01*
X106835100Y-115647705D01*
X106836007Y-115666983D01*
X106837760Y-115685551D01*
X106862252Y-115765202D01*
X106891719Y-115818824D01*
X106891721Y-115818827D01*
X106931117Y-115869633D01*
X107308118Y-116223786D01*
X107311557Y-116227016D01*
X107321250Y-116235564D01*
X107330842Y-116243501D01*
X107398348Y-116280618D01*
X107456539Y-116299525D01*
X107469239Y-116301536D01*
X107520037Y-116309582D01*
X107520041Y-116309582D01*
X109885923Y-116309582D01*
X109896539Y-116309206D01*
X109900404Y-116309070D01*
X109914337Y-116308085D01*
X109990222Y-116287657D01*
X110045173Y-116260748D01*
X110097782Y-116223786D01*
X110471470Y-115861775D01*
X110483683Y-115848875D01*
X110494892Y-115835960D01*
X110535136Y-115764764D01*
X110554043Y-115706573D01*
X110560313Y-115666983D01*
X110564100Y-115643074D01*
X110564100Y-113360200D01*
X147225978Y-113360200D01*
X147244843Y-113648036D01*
X147301120Y-113930959D01*
X147393840Y-114204100D01*
X147393845Y-114204111D01*
X147521422Y-114462811D01*
X147681677Y-114702650D01*
X147681687Y-114702663D01*
X147871864Y-114919517D01*
X147871873Y-114919527D01*
X147871881Y-114919534D01*
X147871882Y-114919535D01*
X148088736Y-115109712D01*
X148088743Y-115109717D01*
X148088746Y-115109720D01*
X148328589Y-115269978D01*
X148587298Y-115397559D01*
X148716859Y-115441539D01*
X148860440Y-115490279D01*
X148860442Y-115490279D01*
X148860447Y-115490281D01*
X149143361Y-115546556D01*
X149431200Y-115565422D01*
X149719039Y-115546556D01*
X150001953Y-115490281D01*
X150275102Y-115397559D01*
X150533811Y-115269978D01*
X150773654Y-115109720D01*
X150990527Y-114919527D01*
X151180720Y-114702654D01*
X151340978Y-114462811D01*
X151468559Y-114204102D01*
X151561281Y-113930953D01*
X151617556Y-113648039D01*
X151636422Y-113360200D01*
X153925978Y-113360200D01*
X153944843Y-113648036D01*
X154001120Y-113930959D01*
X154093840Y-114204100D01*
X154093845Y-114204111D01*
X154221422Y-114462811D01*
X154381677Y-114702650D01*
X154381687Y-114702663D01*
X154571864Y-114919517D01*
X154571873Y-114919527D01*
X154571881Y-114919534D01*
X154571882Y-114919535D01*
X154788736Y-115109712D01*
X154788743Y-115109717D01*
X154788746Y-115109720D01*
X155028589Y-115269978D01*
X155287298Y-115397559D01*
X155416859Y-115441539D01*
X155560440Y-115490279D01*
X155560442Y-115490279D01*
X155560447Y-115490281D01*
X155843361Y-115546556D01*
X156131200Y-115565422D01*
X156419039Y-115546556D01*
X156701953Y-115490281D01*
X156975102Y-115397559D01*
X157233811Y-115269978D01*
X157473654Y-115109720D01*
X157690527Y-114919527D01*
X157880720Y-114702654D01*
X158040978Y-114462811D01*
X158168559Y-114204102D01*
X158261281Y-113930953D01*
X158317556Y-113648039D01*
X158336422Y-113360200D01*
X158317556Y-113072361D01*
X158261281Y-112789447D01*
X158168559Y-112516298D01*
X158040978Y-112257589D01*
X157880720Y-112017746D01*
X157880717Y-112017743D01*
X157880712Y-112017736D01*
X157690535Y-111800882D01*
X157690534Y-111800881D01*
X157690527Y-111800873D01*
X157690517Y-111800864D01*
X157473663Y-111610687D01*
X157473650Y-111610677D01*
X157233811Y-111450422D01*
X156975111Y-111322845D01*
X156975100Y-111322840D01*
X156701959Y-111230120D01*
X156419036Y-111173843D01*
X156131200Y-111154978D01*
X155843363Y-111173843D01*
X155560440Y-111230120D01*
X155287299Y-111322840D01*
X155287288Y-111322845D01*
X155028588Y-111450422D01*
X154788749Y-111610677D01*
X154788736Y-111610687D01*
X154571882Y-111800864D01*
X154571864Y-111800882D01*
X154381687Y-112017736D01*
X154381677Y-112017749D01*
X154221422Y-112257588D01*
X154093845Y-112516288D01*
X154093840Y-112516299D01*
X154001120Y-112789440D01*
X153944843Y-113072363D01*
X153925978Y-113360199D01*
X153925978Y-113360200D01*
X151636422Y-113360200D01*
X151617556Y-113072361D01*
X151561281Y-112789447D01*
X151468559Y-112516298D01*
X151340978Y-112257589D01*
X151180720Y-112017746D01*
X151180717Y-112017743D01*
X151180712Y-112017736D01*
X150990535Y-111800882D01*
X150990534Y-111800881D01*
X150990527Y-111800873D01*
X150990517Y-111800864D01*
X150773663Y-111610687D01*
X150773650Y-111610677D01*
X150533811Y-111450422D01*
X150275111Y-111322845D01*
X150275100Y-111322840D01*
X150001959Y-111230120D01*
X149719036Y-111173843D01*
X149431200Y-111154978D01*
X149143363Y-111173843D01*
X148860440Y-111230120D01*
X148587299Y-111322840D01*
X148587288Y-111322845D01*
X148328588Y-111450422D01*
X148088749Y-111610677D01*
X148088736Y-111610687D01*
X147871882Y-111800864D01*
X147871864Y-111800882D01*
X147681687Y-112017736D01*
X147681677Y-112017749D01*
X147521422Y-112257588D01*
X147393845Y-112516288D01*
X147393840Y-112516299D01*
X147301120Y-112789440D01*
X147244843Y-113072363D01*
X147225978Y-113360199D01*
X147225978Y-113360200D01*
X110564100Y-113360200D01*
X110564100Y-90634554D01*
X110583007Y-90576363D01*
X110596451Y-90561349D01*
X110792799Y-90382585D01*
X111518575Y-89721804D01*
X112334557Y-88978895D01*
X112390314Y-88953701D01*
X112401206Y-88953100D01*
X127821089Y-88953100D01*
X127879280Y-88972007D01*
X127915244Y-89021507D01*
X127915244Y-89082693D01*
X127879280Y-89132193D01*
X127858976Y-89143563D01*
X127824427Y-89157874D01*
X127560619Y-89267146D01*
X127255840Y-89435592D01*
X127255836Y-89435595D01*
X126971824Y-89637112D01*
X126900650Y-89700717D01*
X126712168Y-89869154D01*
X126712154Y-89869168D01*
X126614425Y-89978528D01*
X126480112Y-90128824D01*
X126480110Y-90128827D01*
X126278592Y-90412840D01*
X126110146Y-90717619D01*
X125976878Y-91039357D01*
X125880472Y-91373988D01*
X125822142Y-91717296D01*
X125822139Y-91717316D01*
X125802615Y-92064995D01*
X125802615Y-92065004D01*
X125822139Y-92412683D01*
X125822142Y-92412703D01*
X125880472Y-92756011D01*
X125976878Y-93090642D01*
X126110146Y-93412380D01*
X126259786Y-93683132D01*
X126278595Y-93717164D01*
X126480112Y-94001176D01*
X126712161Y-94260839D01*
X126971824Y-94492888D01*
X127255836Y-94694405D01*
X127255840Y-94694407D01*
X127560620Y-94862853D01*
X127560619Y-94862853D01*
X127560624Y-94862855D01*
X127882356Y-94996121D01*
X128216987Y-95092527D01*
X128560307Y-95150859D01*
X128560310Y-95150859D01*
X128560316Y-95150860D01*
X128907995Y-95170385D01*
X128908000Y-95170385D01*
X128908005Y-95170385D01*
X129255683Y-95150860D01*
X129255687Y-95150859D01*
X129255693Y-95150859D01*
X129599013Y-95092527D01*
X129933644Y-94996121D01*
X130255376Y-94862855D01*
X130560164Y-94694405D01*
X130844176Y-94492888D01*
X131103839Y-94260839D01*
X131335888Y-94001176D01*
X131537405Y-93717164D01*
X131705855Y-93412376D01*
X131839121Y-93090644D01*
X131935527Y-92756013D01*
X131993859Y-92412693D01*
X131995072Y-92391105D01*
X132013385Y-92065004D01*
X132013385Y-92064995D01*
X131993860Y-91717316D01*
X131993857Y-91717296D01*
X131935527Y-91373988D01*
X131908202Y-91279139D01*
X131839121Y-91039356D01*
X131705855Y-90717624D01*
X131705853Y-90717619D01*
X131537407Y-90412840D01*
X131537405Y-90412836D01*
X131335888Y-90128824D01*
X131103839Y-89869161D01*
X130844176Y-89637112D01*
X130834153Y-89630000D01*
X160539196Y-89630000D01*
X160560281Y-89763127D01*
X160560282Y-89763129D01*
X160614312Y-89869168D01*
X160621472Y-89883220D01*
X160716780Y-89978528D01*
X160836874Y-90039719D01*
X160970000Y-90060804D01*
X161103126Y-90039719D01*
X161223220Y-89978528D01*
X161318528Y-89883220D01*
X161379719Y-89763126D01*
X161400804Y-89630000D01*
X161379719Y-89496874D01*
X161318528Y-89376780D01*
X161223220Y-89281472D01*
X161223217Y-89281470D01*
X161103129Y-89220282D01*
X161103127Y-89220281D01*
X160970000Y-89199196D01*
X160836872Y-89220281D01*
X160836870Y-89220282D01*
X160716782Y-89281470D01*
X160621470Y-89376782D01*
X160560282Y-89496870D01*
X160560281Y-89496872D01*
X160539196Y-89629999D01*
X160539196Y-89630000D01*
X130834153Y-89630000D01*
X130560164Y-89435595D01*
X130539418Y-89424129D01*
X130255379Y-89267146D01*
X130255380Y-89267146D01*
X129991573Y-89157874D01*
X129957024Y-89143563D01*
X129910500Y-89103827D01*
X129896216Y-89044333D01*
X129919631Y-88987805D01*
X129971800Y-88955835D01*
X129994911Y-88953100D01*
X149494657Y-88953100D01*
X149494659Y-88953100D01*
X149542634Y-88947422D01*
X149587580Y-88936631D01*
X149607480Y-88930776D01*
X149620863Y-88922366D01*
X149680191Y-88907415D01*
X149736979Y-88930192D01*
X149743527Y-88936176D01*
X149759277Y-88951926D01*
X149759279Y-88951927D01*
X149759281Y-88951928D01*
X149873438Y-89010095D01*
X149873440Y-89010095D01*
X149873445Y-89010098D01*
X150000000Y-89030142D01*
X150126555Y-89010098D01*
X150240723Y-88951926D01*
X150257021Y-88935628D01*
X150311537Y-88907849D01*
X150371969Y-88917419D01*
X150377807Y-88920646D01*
X150383647Y-88924136D01*
X150402287Y-88930192D01*
X150441839Y-88943043D01*
X150454539Y-88945054D01*
X150505337Y-88953100D01*
X150505341Y-88953100D01*
X175821089Y-88953100D01*
X175879280Y-88972007D01*
X175915244Y-89021507D01*
X175915244Y-89082693D01*
X175879280Y-89132193D01*
X175858976Y-89143563D01*
X175824427Y-89157874D01*
X175560619Y-89267146D01*
X175255840Y-89435592D01*
X175255836Y-89435595D01*
X174971824Y-89637112D01*
X174900650Y-89700717D01*
X174712168Y-89869154D01*
X174712154Y-89869168D01*
X174614425Y-89978528D01*
X174480112Y-90128824D01*
X174480110Y-90128827D01*
X174278592Y-90412840D01*
X174110146Y-90717619D01*
X173976878Y-91039357D01*
X173880472Y-91373988D01*
X173822142Y-91717296D01*
X173822139Y-91717316D01*
X173802615Y-92064995D01*
X173802615Y-92065004D01*
X173822139Y-92412683D01*
X173822142Y-92412703D01*
X173880472Y-92756011D01*
X173976878Y-93090642D01*
X174110146Y-93412380D01*
X174259786Y-93683132D01*
X174278595Y-93717164D01*
X174480112Y-94001176D01*
X174712161Y-94260839D01*
X174971824Y-94492888D01*
X175255836Y-94694405D01*
X175255840Y-94694407D01*
X175560620Y-94862853D01*
X175560619Y-94862853D01*
X175560624Y-94862855D01*
X175882356Y-94996121D01*
X176216987Y-95092527D01*
X176560307Y-95150859D01*
X176560310Y-95150859D01*
X176560316Y-95150860D01*
X176907995Y-95170385D01*
X176908000Y-95170385D01*
X176908005Y-95170385D01*
X177255683Y-95150860D01*
X177255687Y-95150859D01*
X177255693Y-95150859D01*
X177599013Y-95092527D01*
X177933644Y-94996121D01*
X178255376Y-94862855D01*
X178560164Y-94694405D01*
X178844176Y-94492888D01*
X179103839Y-94260839D01*
X179335888Y-94001176D01*
X179537405Y-93717164D01*
X179705855Y-93412376D01*
X179839121Y-93090644D01*
X179935527Y-92756013D01*
X179993859Y-92412693D01*
X179995072Y-92391105D01*
X180013385Y-92065004D01*
X180013385Y-92064995D01*
X179993860Y-91717316D01*
X179993857Y-91717296D01*
X179935527Y-91373988D01*
X179908202Y-91279139D01*
X179839121Y-91039356D01*
X179705855Y-90717624D01*
X179705853Y-90717619D01*
X179537407Y-90412840D01*
X179537405Y-90412836D01*
X179335888Y-90128824D01*
X179103839Y-89869161D01*
X178844176Y-89637112D01*
X178560164Y-89435595D01*
X178539418Y-89424129D01*
X178255379Y-89267146D01*
X178255380Y-89267146D01*
X177991573Y-89157874D01*
X177957024Y-89143563D01*
X177910500Y-89103827D01*
X177896216Y-89044333D01*
X177919631Y-88987805D01*
X177971800Y-88955835D01*
X177994911Y-88953100D01*
X186723100Y-88953100D01*
X186781291Y-88972007D01*
X186817255Y-89021507D01*
X186822100Y-89052100D01*
X186822100Y-91968744D01*
X186845986Y-92057888D01*
X186892130Y-92137812D01*
X199047788Y-104293470D01*
X199127712Y-104339614D01*
X199216856Y-104363500D01*
X199216857Y-104363500D01*
X199309144Y-104363500D01*
X248790810Y-104363500D01*
X248849001Y-104382407D01*
X248860814Y-104392496D01*
X250100504Y-105632186D01*
X250128281Y-105686703D01*
X250129500Y-105702190D01*
X250129500Y-116383810D01*
X250110593Y-116442001D01*
X250100504Y-116453814D01*
X248163814Y-118390504D01*
X248109297Y-118418281D01*
X248093810Y-118419500D01*
X245947583Y-118419500D01*
X245889392Y-118400593D01*
X245853428Y-118351093D01*
X245853428Y-118289907D01*
X245889392Y-118240407D01*
X245932096Y-118222719D01*
X246100341Y-118196071D01*
X246100342Y-118196070D01*
X246100346Y-118196070D01*
X246273173Y-118139915D01*
X246435089Y-118057415D01*
X246582105Y-117950602D01*
X246710602Y-117822105D01*
X246817415Y-117675089D01*
X246899915Y-117513173D01*
X246956070Y-117340346D01*
X246956071Y-117340341D01*
X246984498Y-117160864D01*
X246984498Y-116979135D01*
X246956071Y-116799658D01*
X246956070Y-116799654D01*
X246899915Y-116626827D01*
X246817415Y-116464911D01*
X246710602Y-116317895D01*
X246582105Y-116189398D01*
X246435089Y-116082585D01*
X246435088Y-116082584D01*
X246435086Y-116082583D01*
X246273173Y-116000085D01*
X246100341Y-115943928D01*
X245920864Y-115915502D01*
X245920861Y-115915502D01*
X245739139Y-115915502D01*
X245739136Y-115915502D01*
X245559658Y-115943928D01*
X245386826Y-116000085D01*
X245224913Y-116082583D01*
X245211147Y-116092585D01*
X245077895Y-116189398D01*
X244949398Y-116317895D01*
X244918139Y-116360920D01*
X244842583Y-116464913D01*
X244760085Y-116626826D01*
X244703928Y-116799658D01*
X244675502Y-116979135D01*
X244675502Y-117160864D01*
X244703928Y-117340341D01*
X244760085Y-117513173D01*
X244828317Y-117647088D01*
X244842585Y-117675089D01*
X244949398Y-117822105D01*
X245077895Y-117950602D01*
X245224911Y-118057415D01*
X245386827Y-118139915D01*
X245559654Y-118196070D01*
X245559655Y-118196070D01*
X245559658Y-118196071D01*
X245727904Y-118222719D01*
X245782421Y-118250497D01*
X245810198Y-118305013D01*
X245800627Y-118365445D01*
X245757362Y-118408710D01*
X245712417Y-118419500D01*
X245183856Y-118419500D01*
X245094712Y-118443386D01*
X245028962Y-118481347D01*
X245014785Y-118489532D01*
X244795656Y-118708660D01*
X244741142Y-118736437D01*
X244716871Y-118740281D01*
X244716870Y-118740282D01*
X244596782Y-118801470D01*
X244501470Y-118896782D01*
X244440282Y-119016870D01*
X244440281Y-119016872D01*
X244419196Y-119149999D01*
X244419196Y-119150000D01*
X244440281Y-119283127D01*
X244440282Y-119283129D01*
X244501470Y-119403217D01*
X244501472Y-119403220D01*
X244596780Y-119498528D01*
X244716874Y-119559719D01*
X244850000Y-119580804D01*
X244983126Y-119559719D01*
X245103220Y-119498528D01*
X245198528Y-119403220D01*
X245257894Y-119286708D01*
X245259718Y-119283129D01*
X245259719Y-119283126D01*
X245260736Y-119276703D01*
X245263562Y-119258859D01*
X245291334Y-119204346D01*
X245346187Y-119149495D01*
X245400704Y-119121719D01*
X245416189Y-119120500D01*
X248326142Y-119120500D01*
X248326144Y-119120500D01*
X248415288Y-119096614D01*
X248444064Y-119080000D01*
X248461379Y-119070003D01*
X251020450Y-119070003D01*
X251040807Y-119276703D01*
X251040808Y-119276708D01*
X251101103Y-119475472D01*
X251101105Y-119475477D01*
X251199008Y-119658642D01*
X251199014Y-119658651D01*
X251199016Y-119658654D01*
X251207223Y-119668654D01*
X251330780Y-119819210D01*
X251330789Y-119819219D01*
X251348130Y-119833450D01*
X251491346Y-119950984D01*
X251491350Y-119950986D01*
X251491357Y-119950991D01*
X251674522Y-120048894D01*
X251674528Y-120048897D01*
X251812997Y-120090900D01*
X251873291Y-120109191D01*
X251873296Y-120109192D01*
X252079997Y-120129550D01*
X252080000Y-120129550D01*
X252080003Y-120129550D01*
X252286703Y-120109192D01*
X252286708Y-120109191D01*
X252485472Y-120048897D01*
X252551146Y-120013793D01*
X252668642Y-119950991D01*
X252668645Y-119950988D01*
X252668654Y-119950984D01*
X252829215Y-119819215D01*
X252960984Y-119658654D01*
X252960988Y-119658645D01*
X252960991Y-119658642D01*
X253058894Y-119475477D01*
X253058897Y-119475472D01*
X253119191Y-119276708D01*
X253119192Y-119276703D01*
X253139550Y-119070003D01*
X253139550Y-119069996D01*
X253119192Y-118863296D01*
X253119191Y-118863291D01*
X253093572Y-118778836D01*
X253058897Y-118664528D01*
X253058894Y-118664522D01*
X252960991Y-118481357D01*
X252960986Y-118481350D01*
X252960984Y-118481346D01*
X252865867Y-118365445D01*
X252829219Y-118320789D01*
X252829210Y-118320780D01*
X252709721Y-118222719D01*
X252668654Y-118189016D01*
X252668651Y-118189014D01*
X252668642Y-118189008D01*
X252485477Y-118091105D01*
X252485472Y-118091103D01*
X252286708Y-118030808D01*
X252286703Y-118030807D01*
X252080003Y-118010450D01*
X252079997Y-118010450D01*
X251873296Y-118030807D01*
X251873291Y-118030808D01*
X251674527Y-118091103D01*
X251674522Y-118091105D01*
X251491357Y-118189008D01*
X251491347Y-118189015D01*
X251330789Y-118320780D01*
X251330780Y-118320789D01*
X251199015Y-118481347D01*
X251199008Y-118481357D01*
X251101105Y-118664522D01*
X251101103Y-118664527D01*
X251040808Y-118863291D01*
X251040807Y-118863296D01*
X251020450Y-119069996D01*
X251020450Y-119070003D01*
X248461379Y-119070003D01*
X248495212Y-119050470D01*
X249220470Y-118325212D01*
X250760470Y-116785212D01*
X250806614Y-116705288D01*
X250806616Y-116705282D01*
X250811648Y-116686502D01*
X250811648Y-116686500D01*
X250830500Y-116616143D01*
X250830500Y-105469857D01*
X250830500Y-105469856D01*
X250806614Y-105380712D01*
X250760470Y-105300788D01*
X249542682Y-104083000D01*
X249514907Y-104028486D01*
X249524478Y-103968054D01*
X249542681Y-103942998D01*
X250497061Y-102988618D01*
X250497065Y-102988616D01*
X250505210Y-102980470D01*
X250505212Y-102980470D01*
X250740469Y-102745212D01*
X250786614Y-102665288D01*
X250788242Y-102659211D01*
X250789677Y-102653858D01*
X250789677Y-102653856D01*
X250810500Y-102576144D01*
X250810500Y-98820269D01*
X250829407Y-98762078D01*
X250878907Y-98726114D01*
X250940093Y-98726114D01*
X250989593Y-98762078D01*
X250998121Y-98776141D01*
X251054884Y-98890139D01*
X251485543Y-98459479D01*
X251520937Y-98591571D01*
X251599922Y-98728377D01*
X251711623Y-98840078D01*
X251848429Y-98919063D01*
X251980517Y-98954455D01*
X251547465Y-99387508D01*
X251563432Y-99397395D01*
X251563436Y-99397397D01*
X251762856Y-99474652D01*
X251973071Y-99513948D01*
X252186929Y-99513948D01*
X252397143Y-99474652D01*
X252596562Y-99397397D01*
X252596564Y-99397397D01*
X252612533Y-99387508D01*
X252179481Y-98954456D01*
X252311571Y-98919063D01*
X252448377Y-98840078D01*
X252560078Y-98728377D01*
X252639063Y-98591571D01*
X252674456Y-98459481D01*
X253105114Y-98890139D01*
X253160633Y-98778642D01*
X253219159Y-98572945D01*
X253238891Y-98360000D01*
X253219159Y-98147054D01*
X253160633Y-97941357D01*
X253105114Y-97829859D01*
X252674455Y-98260517D01*
X252639063Y-98128429D01*
X252560078Y-97991623D01*
X252448377Y-97879922D01*
X252311571Y-97800937D01*
X252179479Y-97765543D01*
X252612533Y-97332490D01*
X252596566Y-97322603D01*
X252397143Y-97245347D01*
X252186929Y-97206052D01*
X251973071Y-97206052D01*
X251762856Y-97245347D01*
X251563437Y-97322601D01*
X251563429Y-97322605D01*
X251547465Y-97332490D01*
X251980518Y-97765543D01*
X251848429Y-97800937D01*
X251711623Y-97879922D01*
X251599922Y-97991623D01*
X251520937Y-98128429D01*
X251485543Y-98260518D01*
X251054884Y-97829859D01*
X250998121Y-97943857D01*
X250955259Y-97987519D01*
X250894918Y-97997649D01*
X250840147Y-97970377D01*
X250811866Y-97916119D01*
X250810500Y-97899729D01*
X250810500Y-93360003D01*
X251020450Y-93360003D01*
X251040807Y-93566703D01*
X251040808Y-93566708D01*
X251101103Y-93765472D01*
X251101105Y-93765477D01*
X251199008Y-93948642D01*
X251199014Y-93948651D01*
X251199016Y-93948654D01*
X251242120Y-94001176D01*
X251330780Y-94109210D01*
X251330789Y-94109219D01*
X251405671Y-94170672D01*
X251491346Y-94240984D01*
X251491350Y-94240986D01*
X251491357Y-94240991D01*
X251674522Y-94338894D01*
X251674528Y-94338897D01*
X251812997Y-94380900D01*
X251873291Y-94399191D01*
X251873296Y-94399192D01*
X252079997Y-94419550D01*
X252080000Y-94419550D01*
X252080003Y-94419550D01*
X252286703Y-94399192D01*
X252286708Y-94399191D01*
X252485472Y-94338897D01*
X252551146Y-94303793D01*
X252668642Y-94240991D01*
X252668645Y-94240988D01*
X252668654Y-94240984D01*
X252829215Y-94109215D01*
X252960984Y-93948654D01*
X252960988Y-93948645D01*
X252960991Y-93948642D01*
X253058894Y-93765477D01*
X253058897Y-93765472D01*
X253119191Y-93566708D01*
X253119192Y-93566703D01*
X253139550Y-93360003D01*
X253139550Y-93359996D01*
X253119192Y-93153296D01*
X253119191Y-93153291D01*
X253061930Y-92964528D01*
X253058897Y-92954528D01*
X253018794Y-92879500D01*
X252960991Y-92771357D01*
X252960986Y-92771350D01*
X252960984Y-92771346D01*
X252890672Y-92685671D01*
X252829219Y-92610789D01*
X252829210Y-92610780D01*
X252711889Y-92514498D01*
X252668654Y-92479016D01*
X252668651Y-92479014D01*
X252668642Y-92479008D01*
X252485477Y-92381105D01*
X252485472Y-92381103D01*
X252286708Y-92320808D01*
X252286703Y-92320807D01*
X252080003Y-92300450D01*
X252079997Y-92300450D01*
X251873296Y-92320807D01*
X251873291Y-92320808D01*
X251674527Y-92381103D01*
X251674522Y-92381105D01*
X251491357Y-92479008D01*
X251491347Y-92479015D01*
X251330789Y-92610780D01*
X251330780Y-92610789D01*
X251199015Y-92771347D01*
X251199008Y-92771357D01*
X251101105Y-92954522D01*
X251101103Y-92954527D01*
X251040808Y-93153291D01*
X251040807Y-93153296D01*
X251020450Y-93359996D01*
X251020450Y-93360003D01*
X250810500Y-93360003D01*
X250810500Y-73129409D01*
X250829407Y-73071218D01*
X250878907Y-73035254D01*
X250940093Y-73035254D01*
X250989593Y-73071218D01*
X251004721Y-73102317D01*
X251009365Y-73118640D01*
X251064884Y-73230139D01*
X251495543Y-72799479D01*
X251530937Y-72931571D01*
X251609922Y-73068377D01*
X251721623Y-73180078D01*
X251858429Y-73259063D01*
X251990517Y-73294455D01*
X251557465Y-73727508D01*
X251573432Y-73737395D01*
X251573436Y-73737397D01*
X251772856Y-73814652D01*
X251983071Y-73853948D01*
X252196929Y-73853948D01*
X252407143Y-73814652D01*
X252606562Y-73737397D01*
X252606564Y-73737397D01*
X252622533Y-73727508D01*
X252189481Y-73294456D01*
X252321571Y-73259063D01*
X252458377Y-73180078D01*
X252570078Y-73068377D01*
X252649063Y-72931571D01*
X252684456Y-72799481D01*
X253115114Y-73230139D01*
X253170633Y-73118642D01*
X253229159Y-72912945D01*
X253248891Y-72700000D01*
X253229159Y-72487054D01*
X253170633Y-72281357D01*
X253115114Y-72169859D01*
X252684455Y-72600517D01*
X252649063Y-72468429D01*
X252570078Y-72331623D01*
X252458377Y-72219922D01*
X252321571Y-72140937D01*
X252189479Y-72105543D01*
X252622533Y-71672490D01*
X252606566Y-71662603D01*
X252407143Y-71585347D01*
X252196929Y-71546052D01*
X251983071Y-71546052D01*
X251772856Y-71585347D01*
X251573437Y-71662601D01*
X251573429Y-71662605D01*
X251557465Y-71672490D01*
X251990518Y-72105543D01*
X251858429Y-72140937D01*
X251721623Y-72219922D01*
X251609922Y-72331623D01*
X251530937Y-72468429D01*
X251495543Y-72600518D01*
X251064884Y-72169859D01*
X251064883Y-72169859D01*
X251009365Y-72281356D01*
X251004720Y-72297684D01*
X250970610Y-72348478D01*
X250913157Y-72369522D01*
X250854308Y-72352778D01*
X250816540Y-72304640D01*
X250810500Y-72270590D01*
X250810500Y-68283858D01*
X250810500Y-68283857D01*
X250786614Y-68194713D01*
X250740470Y-68114789D01*
X250325684Y-67700003D01*
X251030450Y-67700003D01*
X251050807Y-67906703D01*
X251050808Y-67906708D01*
X251111103Y-68105472D01*
X251111105Y-68105477D01*
X251209008Y-68288642D01*
X251209014Y-68288651D01*
X251209016Y-68288654D01*
X251218783Y-68300555D01*
X251340780Y-68449210D01*
X251340789Y-68449219D01*
X251415671Y-68510672D01*
X251501346Y-68580984D01*
X251501350Y-68580986D01*
X251501357Y-68580991D01*
X251684522Y-68678894D01*
X251684528Y-68678897D01*
X251822997Y-68720900D01*
X251883291Y-68739191D01*
X251883296Y-68739192D01*
X252089997Y-68759550D01*
X252090000Y-68759550D01*
X252090003Y-68759550D01*
X252296703Y-68739192D01*
X252296708Y-68739191D01*
X252495472Y-68678897D01*
X252561146Y-68643793D01*
X252678642Y-68580991D01*
X252678645Y-68580988D01*
X252678654Y-68580984D01*
X252839215Y-68449215D01*
X252970984Y-68288654D01*
X252970988Y-68288645D01*
X252970991Y-68288642D01*
X253039902Y-68159717D01*
X253068897Y-68105472D01*
X253129191Y-67906708D01*
X253129192Y-67906703D01*
X253149550Y-67700003D01*
X253149550Y-67699996D01*
X253129192Y-67493296D01*
X253129191Y-67493291D01*
X253082776Y-67340282D01*
X253068897Y-67294528D01*
X253060702Y-67279196D01*
X252970991Y-67111357D01*
X252970986Y-67111350D01*
X252970984Y-67111346D01*
X252900672Y-67025671D01*
X252839219Y-66950789D01*
X252839210Y-66950780D01*
X252721889Y-66854498D01*
X252678654Y-66819016D01*
X252678651Y-66819014D01*
X252678642Y-66819008D01*
X252495477Y-66721105D01*
X252495472Y-66721103D01*
X252296708Y-66660808D01*
X252296703Y-66660807D01*
X252090003Y-66640450D01*
X252089997Y-66640450D01*
X251883296Y-66660807D01*
X251883291Y-66660808D01*
X251684527Y-66721103D01*
X251684522Y-66721105D01*
X251501357Y-66819008D01*
X251501347Y-66819015D01*
X251340789Y-66950780D01*
X251340780Y-66950789D01*
X251209015Y-67111347D01*
X251209008Y-67111357D01*
X251111105Y-67294522D01*
X251111103Y-67294527D01*
X251050808Y-67493291D01*
X251050807Y-67493296D01*
X251030450Y-67699996D01*
X251030450Y-67700003D01*
X250325684Y-67700003D01*
X249815211Y-67189530D01*
X249735287Y-67143386D01*
X249646143Y-67119500D01*
X245006143Y-67119500D01*
X244913855Y-67119500D01*
X244824711Y-67143386D01*
X244744784Y-67189532D01*
X244625655Y-67308660D01*
X244571141Y-67336437D01*
X244546870Y-67340281D01*
X244546869Y-67340282D01*
X244426781Y-67401470D01*
X244331469Y-67496782D01*
X244270281Y-67616870D01*
X244270280Y-67616872D01*
X244249195Y-67749999D01*
X244249195Y-67750000D01*
X244270280Y-67883127D01*
X244270281Y-67883129D01*
X244331469Y-68003217D01*
X244331471Y-68003220D01*
X244426779Y-68098528D01*
X244546873Y-68159719D01*
X244679999Y-68180804D01*
X244813125Y-68159719D01*
X244933219Y-68098528D01*
X245028527Y-68003220D01*
X245058192Y-67945000D01*
X245093256Y-67876184D01*
X245096051Y-67877608D01*
X245123790Y-67839417D01*
X245181978Y-67820500D01*
X249413809Y-67820500D01*
X249472000Y-67839407D01*
X249483813Y-67849496D01*
X250080504Y-68446187D01*
X250108281Y-68500704D01*
X250109500Y-68516191D01*
X250109500Y-92780500D01*
X250090593Y-92838691D01*
X250041093Y-92874655D01*
X250010500Y-92879500D01*
X245073856Y-92879500D01*
X244984712Y-92903386D01*
X244904785Y-92949532D01*
X244743774Y-93110542D01*
X244689261Y-93138319D01*
X244676871Y-93140281D01*
X244676870Y-93140282D01*
X244556782Y-93201470D01*
X244461470Y-93296782D01*
X244400282Y-93416870D01*
X244400281Y-93416872D01*
X244379196Y-93549999D01*
X244379196Y-93550000D01*
X244400281Y-93683127D01*
X244400282Y-93683129D01*
X244447336Y-93775477D01*
X244461472Y-93803220D01*
X244556780Y-93898528D01*
X244676874Y-93959719D01*
X244810000Y-93980804D01*
X244943126Y-93959719D01*
X245063220Y-93898528D01*
X245158528Y-93803220D01*
X245219719Y-93683126D01*
X245222746Y-93664012D01*
X245250524Y-93609496D01*
X245305040Y-93581719D01*
X245320527Y-93580500D01*
X250010500Y-93580500D01*
X250068691Y-93599407D01*
X250104655Y-93648907D01*
X250109500Y-93679500D01*
X250109500Y-102343810D01*
X250090593Y-102402001D01*
X250080504Y-102413814D01*
X248860814Y-103633504D01*
X248806297Y-103661281D01*
X248790810Y-103662500D01*
X199449190Y-103662500D01*
X199390999Y-103643593D01*
X199379186Y-103633504D01*
X196196546Y-100450864D01*
X244675502Y-100450864D01*
X244703928Y-100630341D01*
X244718794Y-100676093D01*
X244760085Y-100803173D01*
X244842585Y-100965089D01*
X244949398Y-101112105D01*
X245077895Y-101240602D01*
X245224911Y-101347415D01*
X245386827Y-101429915D01*
X245559654Y-101486070D01*
X245559655Y-101486070D01*
X245559658Y-101486071D01*
X245739136Y-101514498D01*
X245739139Y-101514498D01*
X245920864Y-101514498D01*
X246100341Y-101486071D01*
X246100342Y-101486070D01*
X246100346Y-101486070D01*
X246273173Y-101429915D01*
X246435089Y-101347415D01*
X246582105Y-101240602D01*
X246710602Y-101112105D01*
X246817415Y-100965089D01*
X246899915Y-100803173D01*
X246956070Y-100630346D01*
X246960722Y-100600975D01*
X246984498Y-100450864D01*
X246984498Y-100269135D01*
X246956071Y-100089658D01*
X246903164Y-99926827D01*
X246899915Y-99916827D01*
X246817415Y-99754911D01*
X246710602Y-99607895D01*
X246582105Y-99479398D01*
X246435089Y-99372585D01*
X246435088Y-99372584D01*
X246435086Y-99372583D01*
X246273173Y-99290085D01*
X246100341Y-99233928D01*
X245920864Y-99205502D01*
X245920861Y-99205502D01*
X245739139Y-99205502D01*
X245739136Y-99205502D01*
X245559658Y-99233928D01*
X245386826Y-99290085D01*
X245224913Y-99372583D01*
X245160269Y-99419550D01*
X245077895Y-99479398D01*
X244949398Y-99607895D01*
X244942133Y-99617895D01*
X244842583Y-99754913D01*
X244760085Y-99916826D01*
X244703928Y-100089658D01*
X244675502Y-100269135D01*
X244675502Y-100450864D01*
X196196546Y-100450864D01*
X194105685Y-98360003D01*
X238520450Y-98360003D01*
X238540807Y-98566703D01*
X238540808Y-98566708D01*
X238601103Y-98765472D01*
X238601105Y-98765477D01*
X238699008Y-98948642D01*
X238699014Y-98948651D01*
X238699016Y-98948654D01*
X238707223Y-98958654D01*
X238830780Y-99109210D01*
X238830789Y-99109219D01*
X238905671Y-99170672D01*
X238991346Y-99240984D01*
X238991350Y-99240986D01*
X238991357Y-99240991D01*
X239174522Y-99338894D01*
X239174528Y-99338897D01*
X239312997Y-99380900D01*
X239373291Y-99399191D01*
X239373296Y-99399192D01*
X239579997Y-99419550D01*
X239580000Y-99419550D01*
X239580003Y-99419550D01*
X239786703Y-99399192D01*
X239786708Y-99399191D01*
X239792629Y-99397395D01*
X239985472Y-99338897D01*
X240076793Y-99290085D01*
X240168642Y-99240991D01*
X240168645Y-99240988D01*
X240168654Y-99240984D01*
X240329215Y-99109215D01*
X240460984Y-98948654D01*
X240460988Y-98948645D01*
X240460991Y-98948642D01*
X240558894Y-98765477D01*
X240558897Y-98765472D01*
X240619191Y-98566708D01*
X240619192Y-98566703D01*
X240639550Y-98360003D01*
X240639550Y-98359996D01*
X240619192Y-98153296D01*
X240619191Y-98153291D01*
X240573183Y-98001623D01*
X240558897Y-97954528D01*
X240557202Y-97951357D01*
X240460991Y-97771357D01*
X240460986Y-97771350D01*
X240460984Y-97771346D01*
X240390672Y-97685671D01*
X240329219Y-97610789D01*
X240329210Y-97610780D01*
X240235607Y-97533963D01*
X240168654Y-97479016D01*
X240168651Y-97479014D01*
X240168642Y-97479008D01*
X239985477Y-97381105D01*
X239985472Y-97381103D01*
X239786708Y-97320808D01*
X239786703Y-97320807D01*
X239580003Y-97300450D01*
X239579997Y-97300450D01*
X239373296Y-97320807D01*
X239373291Y-97320808D01*
X239174527Y-97381103D01*
X239174522Y-97381105D01*
X238991357Y-97479008D01*
X238991347Y-97479015D01*
X238830789Y-97610780D01*
X238830780Y-97610789D01*
X238699015Y-97771347D01*
X238699008Y-97771357D01*
X238601105Y-97954522D01*
X238601103Y-97954527D01*
X238540808Y-98153291D01*
X238540807Y-98153296D01*
X238520450Y-98359996D01*
X238520450Y-98360003D01*
X194105685Y-98360003D01*
X189105685Y-93360003D01*
X238520450Y-93360003D01*
X238540807Y-93566703D01*
X238540808Y-93566708D01*
X238601103Y-93765472D01*
X238601105Y-93765477D01*
X238699008Y-93948642D01*
X238699014Y-93948651D01*
X238699016Y-93948654D01*
X238742120Y-94001176D01*
X238830780Y-94109210D01*
X238830789Y-94109219D01*
X238905671Y-94170672D01*
X238991346Y-94240984D01*
X238991350Y-94240986D01*
X238991357Y-94240991D01*
X239174522Y-94338894D01*
X239174528Y-94338897D01*
X239312997Y-94380900D01*
X239373291Y-94399191D01*
X239373296Y-94399192D01*
X239579997Y-94419550D01*
X239580000Y-94419550D01*
X239580003Y-94419550D01*
X239786703Y-94399192D01*
X239786708Y-94399191D01*
X239985472Y-94338897D01*
X240051146Y-94303793D01*
X240168642Y-94240991D01*
X240168645Y-94240988D01*
X240168654Y-94240984D01*
X240329215Y-94109215D01*
X240460984Y-93948654D01*
X240460988Y-93948645D01*
X240460991Y-93948642D01*
X240558894Y-93765477D01*
X240558897Y-93765472D01*
X240619191Y-93566708D01*
X240619192Y-93566703D01*
X240639550Y-93360003D01*
X240639550Y-93359996D01*
X240619192Y-93153296D01*
X240619191Y-93153291D01*
X240561930Y-92964528D01*
X240558897Y-92954528D01*
X240518794Y-92879500D01*
X240460991Y-92771357D01*
X240460986Y-92771350D01*
X240460984Y-92771346D01*
X240390672Y-92685671D01*
X240329219Y-92610789D01*
X240329210Y-92610780D01*
X240211889Y-92514498D01*
X240168654Y-92479016D01*
X240168651Y-92479014D01*
X240168642Y-92479008D01*
X239985477Y-92381105D01*
X239985472Y-92381103D01*
X239786708Y-92320808D01*
X239786703Y-92320807D01*
X239580003Y-92300450D01*
X239579997Y-92300450D01*
X239373296Y-92320807D01*
X239373291Y-92320808D01*
X239174527Y-92381103D01*
X239174522Y-92381105D01*
X238991357Y-92479008D01*
X238991347Y-92479015D01*
X238830789Y-92610780D01*
X238830780Y-92610789D01*
X238699015Y-92771347D01*
X238699008Y-92771357D01*
X238601105Y-92954522D01*
X238601103Y-92954527D01*
X238540808Y-93153291D01*
X238540807Y-93153296D01*
X238520450Y-93359996D01*
X238520450Y-93360003D01*
X189105685Y-93360003D01*
X187552096Y-91806414D01*
X187524319Y-91751897D01*
X187523100Y-91736410D01*
X187523100Y-91450864D01*
X244675502Y-91450864D01*
X244703928Y-91630341D01*
X244707179Y-91640346D01*
X244760085Y-91803173D01*
X244842585Y-91965089D01*
X244949398Y-92112105D01*
X245077895Y-92240602D01*
X245224911Y-92347415D01*
X245386827Y-92429915D01*
X245559654Y-92486070D01*
X245559655Y-92486070D01*
X245559658Y-92486071D01*
X245739136Y-92514498D01*
X245739139Y-92514498D01*
X245920864Y-92514498D01*
X246100341Y-92486071D01*
X246100342Y-92486070D01*
X246100346Y-92486070D01*
X246273173Y-92429915D01*
X246435089Y-92347415D01*
X246582105Y-92240602D01*
X246710602Y-92112105D01*
X246817415Y-91965089D01*
X246899915Y-91803173D01*
X246956070Y-91630346D01*
X246982914Y-91460864D01*
X246984498Y-91450864D01*
X246984498Y-91269135D01*
X246956071Y-91089658D01*
X246903164Y-90926827D01*
X246899915Y-90916827D01*
X246817415Y-90754911D01*
X246710602Y-90607895D01*
X246582105Y-90479398D01*
X246435089Y-90372585D01*
X246435088Y-90372584D01*
X246435086Y-90372583D01*
X246273173Y-90290085D01*
X246100341Y-90233928D01*
X245920864Y-90205502D01*
X245920861Y-90205502D01*
X245739139Y-90205502D01*
X245739136Y-90205502D01*
X245559658Y-90233928D01*
X245386826Y-90290085D01*
X245224913Y-90372583D01*
X245151403Y-90425991D01*
X245077895Y-90479398D01*
X244949398Y-90607895D01*
X244895991Y-90681403D01*
X244842583Y-90754913D01*
X244760085Y-90916826D01*
X244703928Y-91089658D01*
X244675502Y-91269135D01*
X244675502Y-91450864D01*
X187523100Y-91450864D01*
X187523100Y-89052100D01*
X187542007Y-88993909D01*
X187591507Y-88957945D01*
X187622100Y-88953100D01*
X193203083Y-88953100D01*
X193217627Y-88952585D01*
X193231608Y-88951593D01*
X193307533Y-88931123D01*
X193362470Y-88904187D01*
X193415059Y-88867200D01*
X194194376Y-88111498D01*
X194206544Y-88098637D01*
X194217719Y-88085756D01*
X194257936Y-88014591D01*
X194276843Y-87956400D01*
X194286900Y-87892898D01*
X194286900Y-84523073D01*
X194286015Y-84504026D01*
X194284314Y-84485753D01*
X194260061Y-84406313D01*
X194230738Y-84352613D01*
X194191477Y-84301699D01*
X194191476Y-84301698D01*
X194191473Y-84301694D01*
X192031924Y-82262120D01*
X192002601Y-82208419D01*
X192000900Y-82190146D01*
X192000900Y-81032649D01*
X191995222Y-80984677D01*
X191984432Y-80939732D01*
X191978578Y-80919832D01*
X191929920Y-80842394D01*
X191926962Y-80837686D01*
X191928885Y-80836477D01*
X191910663Y-80787917D01*
X191921355Y-80738534D01*
X191956296Y-80669958D01*
X191956298Y-80669955D01*
X191976342Y-80543400D01*
X191956298Y-80416845D01*
X191922058Y-80349647D01*
X191912487Y-80289217D01*
X191925279Y-80253932D01*
X191971936Y-80175843D01*
X191990843Y-80117652D01*
X192000900Y-80054150D01*
X192000900Y-78754153D01*
X192000453Y-78740607D01*
X191999593Y-78727589D01*
X191979936Y-78652486D01*
X191953542Y-78597287D01*
X191917072Y-78544334D01*
X190500395Y-77054381D01*
X190486891Y-77041415D01*
X190473336Y-77029539D01*
X190473335Y-77029538D01*
X190473334Y-77029537D01*
X190401422Y-76988666D01*
X190343220Y-76969755D01*
X190279726Y-76959700D01*
X190279723Y-76959700D01*
X186173420Y-76959700D01*
X186155170Y-76960512D01*
X186155159Y-76960513D01*
X186137639Y-76962076D01*
X186137637Y-76962076D01*
X186137633Y-76962077D01*
X186058814Y-76985642D01*
X186004885Y-77014550D01*
X186004884Y-77014551D01*
X185953672Y-77053414D01*
X185953668Y-77053417D01*
X185953668Y-77053418D01*
X185932274Y-77075723D01*
X185915698Y-77093004D01*
X185861772Y-77121910D01*
X185801154Y-77113600D01*
X185774248Y-77094477D01*
X185241496Y-76561725D01*
X185213719Y-76507208D01*
X185212500Y-76491721D01*
X185212500Y-75438000D01*
X186153458Y-75438000D01*
X186173502Y-75564554D01*
X186173504Y-75564561D01*
X186231671Y-75678718D01*
X186231674Y-75678723D01*
X186322277Y-75769326D01*
X186322279Y-75769327D01*
X186322281Y-75769328D01*
X186436438Y-75827495D01*
X186436440Y-75827495D01*
X186436445Y-75827498D01*
X186563000Y-75847542D01*
X186689555Y-75827498D01*
X186803723Y-75769326D01*
X186894326Y-75678723D01*
X186952498Y-75564555D01*
X186972542Y-75438000D01*
X186952498Y-75311445D01*
X186952495Y-75311440D01*
X186952495Y-75311438D01*
X186894328Y-75197281D01*
X186894327Y-75197279D01*
X186894326Y-75197277D01*
X186803723Y-75106674D01*
X186803720Y-75106672D01*
X186803718Y-75106671D01*
X186689561Y-75048504D01*
X186689556Y-75048502D01*
X186689555Y-75048502D01*
X186563000Y-75028458D01*
X186436445Y-75048502D01*
X186436438Y-75048504D01*
X186322281Y-75106671D01*
X186322279Y-75106672D01*
X186231672Y-75197279D01*
X186231671Y-75197281D01*
X186173504Y-75311438D01*
X186173502Y-75311445D01*
X186153458Y-75437999D01*
X186153458Y-75438000D01*
X185212500Y-75438000D01*
X185212500Y-74168000D01*
X195834000Y-74168000D01*
X198078992Y-74168000D01*
X198137183Y-74186907D01*
X198148996Y-74196996D01*
X199488004Y-75536004D01*
X199515781Y-75590521D01*
X199517000Y-75606008D01*
X199517000Y-77597000D01*
X200339000Y-78465972D01*
X200406000Y-78536800D01*
X200406001Y-78536800D01*
X203809599Y-78536800D01*
X203809600Y-78536800D01*
X204419200Y-77927200D01*
X204419200Y-74790864D01*
X244685502Y-74790864D01*
X244713928Y-74970341D01*
X244739324Y-75048502D01*
X244770085Y-75143173D01*
X244852585Y-75305089D01*
X244959398Y-75452105D01*
X245087895Y-75580602D01*
X245234911Y-75687415D01*
X245396827Y-75769915D01*
X245569654Y-75826070D01*
X245569655Y-75826070D01*
X245569658Y-75826071D01*
X245749136Y-75854498D01*
X245749139Y-75854498D01*
X245930864Y-75854498D01*
X246110341Y-75826071D01*
X246110342Y-75826070D01*
X246110346Y-75826070D01*
X246283173Y-75769915D01*
X246445089Y-75687415D01*
X246592105Y-75580602D01*
X246720602Y-75452105D01*
X246827415Y-75305089D01*
X246909915Y-75143173D01*
X246966070Y-74970346D01*
X246980592Y-74878658D01*
X246994498Y-74790864D01*
X246994498Y-74609135D01*
X246966071Y-74429658D01*
X246947305Y-74371902D01*
X246909915Y-74256827D01*
X246827415Y-74094911D01*
X246720602Y-73947895D01*
X246592105Y-73819398D01*
X246445089Y-73712585D01*
X246445088Y-73712584D01*
X246445086Y-73712583D01*
X246283173Y-73630085D01*
X246110341Y-73573928D01*
X245930864Y-73545502D01*
X245930861Y-73545502D01*
X245749139Y-73545502D01*
X245749136Y-73545502D01*
X245569658Y-73573928D01*
X245396826Y-73630085D01*
X245234913Y-73712583D01*
X245163453Y-73764502D01*
X245087895Y-73819398D01*
X244959398Y-73947895D01*
X244905991Y-74021403D01*
X244852583Y-74094913D01*
X244770085Y-74256826D01*
X244713928Y-74429658D01*
X244685502Y-74609135D01*
X244685502Y-74790864D01*
X204419200Y-74790864D01*
X204419200Y-72700003D01*
X238530450Y-72700003D01*
X238550807Y-72906703D01*
X238550808Y-72906708D01*
X238611103Y-73105472D01*
X238611105Y-73105477D01*
X238709008Y-73288642D01*
X238709014Y-73288651D01*
X238709016Y-73288654D01*
X238718783Y-73300555D01*
X238840780Y-73449210D01*
X238840789Y-73449219D01*
X238855280Y-73461111D01*
X239001346Y-73580984D01*
X239001350Y-73580986D01*
X239001357Y-73580991D01*
X239184522Y-73678894D01*
X239184528Y-73678897D01*
X239322997Y-73720900D01*
X239383291Y-73739191D01*
X239383296Y-73739192D01*
X239589997Y-73759550D01*
X239590000Y-73759550D01*
X239590003Y-73759550D01*
X239796703Y-73739192D01*
X239796708Y-73739191D01*
X239802629Y-73737395D01*
X239995472Y-73678897D01*
X240061146Y-73643793D01*
X240178642Y-73580991D01*
X240178645Y-73580988D01*
X240178654Y-73580984D01*
X240339215Y-73449215D01*
X240470984Y-73288654D01*
X240470988Y-73288645D01*
X240470991Y-73288642D01*
X240533793Y-73171146D01*
X240568897Y-73105472D01*
X240629191Y-72906708D01*
X240629192Y-72906703D01*
X240649550Y-72700003D01*
X240649550Y-72699996D01*
X240629192Y-72493296D01*
X240629191Y-72493291D01*
X240593848Y-72376782D01*
X240568897Y-72294528D01*
X240568218Y-72293258D01*
X240470991Y-72111357D01*
X240470986Y-72111350D01*
X240470984Y-72111346D01*
X240400672Y-72025671D01*
X240339219Y-71950789D01*
X240339210Y-71950780D01*
X240193154Y-71830916D01*
X240178654Y-71819016D01*
X240178651Y-71819014D01*
X240178642Y-71819008D01*
X239995477Y-71721105D01*
X239995472Y-71721103D01*
X239796708Y-71660808D01*
X239796703Y-71660807D01*
X239590003Y-71640450D01*
X239589997Y-71640450D01*
X239383296Y-71660807D01*
X239383291Y-71660808D01*
X239184527Y-71721103D01*
X239184522Y-71721105D01*
X239001357Y-71819008D01*
X239001347Y-71819015D01*
X238840789Y-71950780D01*
X238840780Y-71950789D01*
X238709015Y-72111347D01*
X238709008Y-72111357D01*
X238611105Y-72294522D01*
X238611103Y-72294527D01*
X238550808Y-72493291D01*
X238550807Y-72493296D01*
X238530450Y-72699996D01*
X238530450Y-72700003D01*
X204419200Y-72700003D01*
X204419200Y-68732400D01*
X203657200Y-67945000D01*
X200152000Y-67945000D01*
X199517000Y-68580000D01*
X199517000Y-68580001D01*
X199517000Y-71458915D01*
X199498093Y-71517106D01*
X199486694Y-71530203D01*
X198218097Y-72752672D01*
X198200646Y-72769488D01*
X198145625Y-72796251D01*
X198131951Y-72797200D01*
X195834000Y-72797200D01*
X195834000Y-74168000D01*
X185212500Y-74168000D01*
X185212500Y-73772837D01*
X185210794Y-73766472D01*
X185210267Y-73764504D01*
X185210267Y-73764501D01*
X185210266Y-73764502D01*
X185210266Y-73764501D01*
X185192022Y-73696412D01*
X185188781Y-73690798D01*
X185152463Y-73627893D01*
X185152462Y-73627892D01*
X185152461Y-73627891D01*
X185152460Y-73627889D01*
X184655446Y-73130875D01*
X184627669Y-73076358D01*
X184626405Y-73068377D01*
X184610519Y-72968074D01*
X184549328Y-72847980D01*
X184454020Y-72752672D01*
X184454017Y-72752670D01*
X184333929Y-72691482D01*
X184333927Y-72691481D01*
X184200800Y-72670396D01*
X184067672Y-72691481D01*
X184067670Y-72691482D01*
X183947582Y-72752670D01*
X183852270Y-72847982D01*
X183791082Y-72968070D01*
X183791081Y-72968072D01*
X183769996Y-73101199D01*
X183769996Y-73101200D01*
X183791081Y-73234327D01*
X183791082Y-73234329D01*
X183852270Y-73354417D01*
X183852272Y-73354420D01*
X183947580Y-73449728D01*
X184067674Y-73510919D01*
X184175959Y-73528069D01*
X184230474Y-73555846D01*
X184230475Y-73555846D01*
X184582504Y-73907875D01*
X184610281Y-73962392D01*
X184611500Y-73977879D01*
X184611500Y-76696764D01*
X184631977Y-76773185D01*
X184631979Y-76773190D01*
X184667660Y-76834993D01*
X184671537Y-76841707D01*
X184671538Y-76841708D01*
X184671540Y-76841711D01*
X185046699Y-77216870D01*
X185361046Y-77531217D01*
X185388823Y-77585734D01*
X185379252Y-77646166D01*
X185362489Y-77669751D01*
X184816634Y-78238835D01*
X184807320Y-78249231D01*
X184798675Y-78259568D01*
X184798670Y-78259574D01*
X184760864Y-78327908D01*
X184760863Y-78327910D01*
X184741957Y-78386096D01*
X184741956Y-78386102D01*
X184731900Y-78449599D01*
X184731900Y-83733620D01*
X184712993Y-83791811D01*
X184698495Y-83807771D01*
X183566767Y-84808914D01*
X183510655Y-84833308D01*
X183501227Y-84833763D01*
X113099555Y-84872698D01*
X113041354Y-84853823D01*
X113005362Y-84804343D01*
X113000500Y-84773698D01*
X113000500Y-83590000D01*
X123459196Y-83590000D01*
X123480281Y-83723127D01*
X123480282Y-83723129D01*
X123538924Y-83838220D01*
X123541472Y-83843220D01*
X123636780Y-83938528D01*
X123756874Y-83999719D01*
X123890000Y-84020804D01*
X124023126Y-83999719D01*
X124143220Y-83938528D01*
X124238528Y-83843220D01*
X124299719Y-83723126D01*
X124320804Y-83590000D01*
X124320012Y-83585000D01*
X132854196Y-83585000D01*
X132875281Y-83718127D01*
X132875282Y-83718129D01*
X132912825Y-83791811D01*
X132936472Y-83838220D01*
X133031780Y-83933528D01*
X133151874Y-83994719D01*
X133285000Y-84015804D01*
X133418126Y-83994719D01*
X133538220Y-83933528D01*
X133633528Y-83838220D01*
X133694719Y-83718126D01*
X133715804Y-83585000D01*
X133694719Y-83451874D01*
X133633528Y-83331780D01*
X133538220Y-83236472D01*
X133538217Y-83236470D01*
X133418129Y-83175282D01*
X133418127Y-83175281D01*
X133285000Y-83154196D01*
X133151872Y-83175281D01*
X133151870Y-83175282D01*
X133031782Y-83236470D01*
X132936470Y-83331782D01*
X132875282Y-83451870D01*
X132875281Y-83451872D01*
X132854196Y-83584999D01*
X132854196Y-83585000D01*
X124320012Y-83585000D01*
X124299719Y-83456874D01*
X124238528Y-83336780D01*
X124143220Y-83241472D01*
X124143217Y-83241470D01*
X124023129Y-83180282D01*
X124023127Y-83180281D01*
X123890000Y-83159196D01*
X123756872Y-83180281D01*
X123756870Y-83180282D01*
X123636782Y-83241470D01*
X123541470Y-83336782D01*
X123480282Y-83456870D01*
X123480281Y-83456872D01*
X123459196Y-83589999D01*
X123459196Y-83590000D01*
X113000500Y-83590000D01*
X113000500Y-76835000D01*
X182978458Y-76835000D01*
X182998502Y-76961554D01*
X182998504Y-76961561D01*
X183045802Y-77054386D01*
X183056674Y-77075723D01*
X183147277Y-77166326D01*
X183147279Y-77166327D01*
X183147281Y-77166328D01*
X183261438Y-77224495D01*
X183261440Y-77224495D01*
X183261445Y-77224498D01*
X183388000Y-77244542D01*
X183514555Y-77224498D01*
X183628723Y-77166326D01*
X183719326Y-77075723D01*
X183777498Y-76961555D01*
X183797542Y-76835000D01*
X183777498Y-76708445D01*
X183777495Y-76708440D01*
X183777495Y-76708438D01*
X183719328Y-76594281D01*
X183719327Y-76594279D01*
X183719326Y-76594277D01*
X183628723Y-76503674D01*
X183628720Y-76503672D01*
X183628718Y-76503671D01*
X183514561Y-76445504D01*
X183514556Y-76445502D01*
X183514555Y-76445502D01*
X183388000Y-76425458D01*
X183261445Y-76445502D01*
X183261438Y-76445504D01*
X183147281Y-76503671D01*
X183147279Y-76503672D01*
X183056672Y-76594279D01*
X183056671Y-76594281D01*
X182998504Y-76708438D01*
X182998502Y-76708445D01*
X182978458Y-76834999D01*
X182978458Y-76835000D01*
X113000500Y-76835000D01*
X113000500Y-74843857D01*
X112996787Y-74829999D01*
X112976614Y-74754712D01*
X112969592Y-74742549D01*
X112930470Y-74674788D01*
X112316338Y-74060656D01*
X112288562Y-74006141D01*
X112284719Y-73981874D01*
X112284717Y-73981870D01*
X112284716Y-73981867D01*
X112223529Y-73861782D01*
X112223528Y-73861780D01*
X112128220Y-73766472D01*
X112128217Y-73766470D01*
X112008129Y-73705282D01*
X112008127Y-73705281D01*
X111875000Y-73684196D01*
X111741872Y-73705281D01*
X111741870Y-73705282D01*
X111621782Y-73766470D01*
X111526470Y-73861782D01*
X111465282Y-73981870D01*
X111465281Y-73981872D01*
X111444196Y-74114999D01*
X111444196Y-74115000D01*
X111465281Y-74248127D01*
X111465282Y-74248129D01*
X111501565Y-74319338D01*
X111526472Y-74368220D01*
X111621780Y-74463528D01*
X111621782Y-74463529D01*
X111741867Y-74524716D01*
X111741870Y-74524717D01*
X111741874Y-74524719D01*
X111766140Y-74528562D01*
X111820654Y-74556336D01*
X112270504Y-75006186D01*
X112298281Y-75060703D01*
X112299500Y-75076190D01*
X112299500Y-84774194D01*
X112280593Y-84832385D01*
X112231093Y-84868349D01*
X112200555Y-84873194D01*
X92345055Y-84884176D01*
X92286854Y-84865301D01*
X92250862Y-84815821D01*
X92246000Y-84785176D01*
X92246000Y-81984987D01*
X92254165Y-81950978D01*
X92252811Y-81950538D01*
X92255218Y-81943127D01*
X92255219Y-81943126D01*
X92276304Y-81810000D01*
X92255219Y-81676874D01*
X92206790Y-81581826D01*
X92196000Y-81536881D01*
X92196000Y-79087617D01*
X92206791Y-79042672D01*
X92255217Y-78947629D01*
X92255218Y-78947627D01*
X92255219Y-78947626D01*
X92276304Y-78814500D01*
X92255219Y-78681374D01*
X92194028Y-78561280D01*
X92098720Y-78465972D01*
X92098717Y-78465970D01*
X91978629Y-78404782D01*
X91978627Y-78404781D01*
X91845500Y-78383696D01*
X91712372Y-78404781D01*
X91712370Y-78404782D01*
X91592282Y-78465970D01*
X91496970Y-78561282D01*
X91435782Y-78681370D01*
X91435781Y-78681372D01*
X91414696Y-78814499D01*
X91414696Y-78814500D01*
X91435781Y-78947627D01*
X91435782Y-78947629D01*
X91484209Y-79042672D01*
X91495000Y-79087617D01*
X91495000Y-81536881D01*
X91484210Y-81581826D01*
X91435781Y-81676872D01*
X91435781Y-81676874D01*
X91414696Y-81809999D01*
X91414696Y-81810000D01*
X91435781Y-81943127D01*
X91438189Y-81950538D01*
X91436834Y-81950978D01*
X91445000Y-81984987D01*
X91445000Y-85064597D01*
X91426093Y-85122788D01*
X91414426Y-85136144D01*
X91177919Y-85362333D01*
X91165320Y-85375502D01*
X91153752Y-85388723D01*
X91113080Y-85460195D01*
X91094069Y-85518355D01*
X91094067Y-85518364D01*
X91083899Y-85581845D01*
X91082652Y-86299536D01*
X91082652Y-86299606D01*
X91082651Y-86300015D01*
X91082454Y-86412802D01*
X91082903Y-86426734D01*
X91083787Y-86440097D01*
X91083789Y-86440110D01*
X91103618Y-86515557D01*
X91118413Y-86546342D01*
X91130123Y-86570707D01*
X91166694Y-86623585D01*
X91166695Y-86623587D01*
X91166698Y-86623590D01*
X91287269Y-86749902D01*
X91417612Y-86886451D01*
X91444115Y-86941597D01*
X91445000Y-86954807D01*
X91445000Y-89142384D01*
X91443781Y-89157871D01*
X91422696Y-89290999D01*
X91422696Y-89291000D01*
X91443781Y-89424127D01*
X91443782Y-89424129D01*
X91504970Y-89544217D01*
X91504972Y-89544220D01*
X91600280Y-89639528D01*
X91720374Y-89700719D01*
X91853500Y-89721804D01*
X91986626Y-89700719D01*
X92106720Y-89639528D01*
X92202028Y-89544220D01*
X92263219Y-89424126D01*
X92284304Y-89291000D01*
X92263219Y-89157874D01*
X92256790Y-89145256D01*
X92246000Y-89100312D01*
X92246000Y-87252100D01*
X92264907Y-87193909D01*
X92314407Y-87157945D01*
X92345000Y-87153100D01*
X105515071Y-87153100D01*
X105573262Y-87172007D01*
X105585075Y-87182096D01*
X106806104Y-88403124D01*
X106833881Y-88457641D01*
X106835100Y-88473128D01*
X106835100Y-109837300D01*
X106816193Y-109895491D01*
X106766693Y-109931455D01*
X106736100Y-109936300D01*
X58504590Y-109936300D01*
X58446399Y-109917393D01*
X58434586Y-109907304D01*
X56640496Y-108113214D01*
X56612719Y-108058697D01*
X56611500Y-108043210D01*
X56611500Y-100460864D01*
X58995502Y-100460864D01*
X59023928Y-100640341D01*
X59080085Y-100813173D01*
X59159752Y-100969530D01*
X59162585Y-100975089D01*
X59269398Y-101122105D01*
X59397895Y-101250602D01*
X59544911Y-101357415D01*
X59706827Y-101439915D01*
X59879654Y-101496070D01*
X59879655Y-101496070D01*
X59879658Y-101496071D01*
X60059136Y-101524498D01*
X60059139Y-101524498D01*
X60240864Y-101524498D01*
X60420341Y-101496071D01*
X60420342Y-101496070D01*
X60420346Y-101496070D01*
X60593173Y-101439915D01*
X60755089Y-101357415D01*
X60902105Y-101250602D01*
X61030602Y-101122105D01*
X61137415Y-100975089D01*
X61219915Y-100813173D01*
X61276070Y-100640346D01*
X61290933Y-100546505D01*
X61304498Y-100460864D01*
X61304498Y-100437195D01*
X82712100Y-100437195D01*
X82712747Y-100453501D01*
X82713995Y-100469177D01*
X82713996Y-100469180D01*
X82735921Y-100546505D01*
X82763804Y-100600973D01*
X82763805Y-100600975D01*
X82801686Y-100652906D01*
X82801695Y-100652917D01*
X84200990Y-102046927D01*
X84206843Y-102052322D01*
X84212702Y-102057723D01*
X84224382Y-102067680D01*
X84294197Y-102106736D01*
X84352388Y-102125643D01*
X84352389Y-102125643D01*
X84352392Y-102125644D01*
X84415886Y-102135700D01*
X84415890Y-102135700D01*
X86751029Y-102135700D01*
X86765727Y-102134543D01*
X86783149Y-102133173D01*
X86813721Y-102128334D01*
X86818240Y-102127567D01*
X86902345Y-102091642D01*
X86951853Y-102055690D01*
X86979606Y-102031454D01*
X87026530Y-101952954D01*
X87045450Y-101894767D01*
X87055522Y-101831268D01*
X87055586Y-101544478D01*
X87074506Y-101486291D01*
X87124014Y-101450339D01*
X87154586Y-101445500D01*
X97158810Y-101445500D01*
X97217001Y-101464407D01*
X97228813Y-101474496D01*
X97469530Y-101715211D01*
X97469531Y-101715213D01*
X97534787Y-101780468D01*
X97534789Y-101780470D01*
X97583702Y-101808710D01*
X97614712Y-101826614D01*
X97703856Y-101850500D01*
X99459182Y-101850500D01*
X99504126Y-101861289D01*
X99599174Y-101909719D01*
X99732300Y-101930804D01*
X99865426Y-101909719D01*
X99985520Y-101848528D01*
X100080828Y-101753220D01*
X100142019Y-101633126D01*
X100163104Y-101500000D01*
X100142019Y-101366874D01*
X100080828Y-101246780D01*
X99985520Y-101151472D01*
X99985517Y-101151470D01*
X99865429Y-101090282D01*
X99865427Y-101090281D01*
X99732300Y-101069196D01*
X99599174Y-101090281D01*
X99599172Y-101090281D01*
X99504127Y-101138710D01*
X99459182Y-101149500D01*
X97936188Y-101149500D01*
X97877997Y-101130593D01*
X97866184Y-101120503D01*
X97715212Y-100969530D01*
X97560212Y-100814530D01*
X97480288Y-100768386D01*
X97391144Y-100744500D01*
X97391142Y-100744500D01*
X87154787Y-100744500D01*
X87096596Y-100725593D01*
X87060632Y-100676093D01*
X87055787Y-100645478D01*
X87055831Y-100450864D01*
X87059429Y-84332628D01*
X87053756Y-84284632D01*
X87042966Y-84239666D01*
X87026242Y-84194323D01*
X87015276Y-84172800D01*
X87005706Y-84143348D01*
X86999709Y-84105481D01*
X86999709Y-84074518D01*
X87005706Y-84036648D01*
X87015276Y-84007197D01*
X87026351Y-83985463D01*
X87043065Y-83940165D01*
X87053855Y-83895243D01*
X87059538Y-83847294D01*
X87059782Y-82754441D01*
X87054110Y-82706447D01*
X87043321Y-82661483D01*
X87043318Y-82661476D01*
X87042472Y-82658684D01*
X87042751Y-82658599D01*
X87039037Y-82644378D01*
X87029709Y-82585481D01*
X87029709Y-82554518D01*
X87039015Y-82495757D01*
X87042801Y-82481271D01*
X87042545Y-82481194D01*
X87043391Y-82478404D01*
X87043395Y-82478394D01*
X87054183Y-82433475D01*
X87059865Y-82385532D01*
X87060089Y-81377255D01*
X87050034Y-81313714D01*
X87031129Y-81255522D01*
X87031123Y-81255510D01*
X87029640Y-81251928D01*
X87030666Y-81251502D01*
X86975277Y-81142801D01*
X86965706Y-81113346D01*
X86959709Y-81075480D01*
X86959709Y-81044517D01*
X86965706Y-81006648D01*
X86975275Y-80977198D01*
X87014576Y-80900068D01*
X87014575Y-80900067D01*
X87026638Y-80876395D01*
X87026638Y-80876077D01*
X87029992Y-80867990D01*
X87029773Y-80867900D01*
X87031257Y-80864316D01*
X87031257Y-80864315D01*
X87031261Y-80864308D01*
X87050167Y-80806142D01*
X87060232Y-80742665D01*
X87060441Y-79804613D01*
X87054769Y-79756618D01*
X87043979Y-79711651D01*
X87027253Y-79666305D01*
X87015275Y-79642798D01*
X87005706Y-79613348D01*
X86999709Y-79575480D01*
X86999709Y-79544518D01*
X87005707Y-79506646D01*
X87015276Y-79477196D01*
X87027364Y-79453474D01*
X87044079Y-79408174D01*
X87054868Y-79363253D01*
X87060550Y-79315307D01*
X87060795Y-78218119D01*
X87060164Y-78201982D01*
X87058946Y-78186475D01*
X87037180Y-78109273D01*
X87009403Y-78054756D01*
X86989634Y-78027545D01*
X86981521Y-78014307D01*
X86955277Y-77962801D01*
X86945707Y-77933346D01*
X86939710Y-77895486D01*
X86939710Y-77864513D01*
X86941409Y-77853778D01*
X86945706Y-77826653D01*
X86955274Y-77797202D01*
X86974978Y-77758530D01*
X86987914Y-77739175D01*
X86992772Y-77733489D01*
X87031955Y-77663551D01*
X87050875Y-77605364D01*
X87060947Y-77541865D01*
X87060990Y-77350000D01*
X93399196Y-77350000D01*
X93420281Y-77483127D01*
X93420282Y-77483129D01*
X93479718Y-77599778D01*
X93481472Y-77603220D01*
X93576780Y-77698528D01*
X93696874Y-77759719D01*
X93830000Y-77780804D01*
X93963126Y-77759719D01*
X94083220Y-77698528D01*
X94178528Y-77603220D01*
X94239719Y-77483126D01*
X94260804Y-77350000D01*
X94239719Y-77216874D01*
X94213963Y-77166326D01*
X94178529Y-77096782D01*
X94178528Y-77096780D01*
X94083220Y-77001472D01*
X94083217Y-77001470D01*
X93963129Y-76940282D01*
X93963127Y-76940281D01*
X93830000Y-76919196D01*
X93696872Y-76940281D01*
X93696870Y-76940282D01*
X93576782Y-77001470D01*
X93481470Y-77096782D01*
X93420282Y-77216870D01*
X93420281Y-77216872D01*
X93399196Y-77349999D01*
X93399196Y-77350000D01*
X87060990Y-77350000D01*
X87061238Y-76240000D01*
X92129196Y-76240000D01*
X92150281Y-76373127D01*
X92150282Y-76373129D01*
X92187158Y-76445502D01*
X92211472Y-76493220D01*
X92306780Y-76588528D01*
X92426874Y-76649719D01*
X92560000Y-76670804D01*
X92693126Y-76649719D01*
X92813220Y-76588528D01*
X92908528Y-76493220D01*
X92969719Y-76373126D01*
X92990804Y-76240000D01*
X92969719Y-76106874D01*
X92908528Y-75986780D01*
X92813220Y-75891472D01*
X92813217Y-75891470D01*
X92693129Y-75830282D01*
X92693127Y-75830281D01*
X92560000Y-75809196D01*
X92426872Y-75830281D01*
X92426870Y-75830282D01*
X92306782Y-75891470D01*
X92211470Y-75986782D01*
X92150282Y-76106870D01*
X92150281Y-76106872D01*
X92129196Y-76239999D01*
X92129196Y-76240000D01*
X87061238Y-76240000D01*
X87062006Y-72800000D01*
X139179196Y-72800000D01*
X139200281Y-72933127D01*
X139200282Y-72933129D01*
X139261470Y-73053217D01*
X139261472Y-73053220D01*
X139356780Y-73148528D01*
X139476874Y-73209719D01*
X139610000Y-73230804D01*
X139743126Y-73209719D01*
X139863220Y-73148528D01*
X139958528Y-73053220D01*
X140019719Y-72933126D01*
X140040804Y-72800000D01*
X140039360Y-72790886D01*
X140026851Y-72711904D01*
X140019719Y-72666874D01*
X139958528Y-72546780D01*
X139863220Y-72451472D01*
X139863217Y-72451470D01*
X139743129Y-72390282D01*
X139743127Y-72390281D01*
X139610000Y-72369196D01*
X139476872Y-72390281D01*
X139476870Y-72390282D01*
X139356782Y-72451470D01*
X139261470Y-72546782D01*
X139200282Y-72666870D01*
X139200281Y-72666872D01*
X139179196Y-72799999D01*
X139179196Y-72800000D01*
X87062006Y-72800000D01*
X87062801Y-69240000D01*
X126299196Y-69240000D01*
X126320281Y-69373127D01*
X126320282Y-69373129D01*
X126381470Y-69493217D01*
X126381472Y-69493220D01*
X126476780Y-69588528D01*
X126596874Y-69649719D01*
X126730000Y-69670804D01*
X126863126Y-69649719D01*
X126983220Y-69588528D01*
X127078528Y-69493220D01*
X127139719Y-69373126D01*
X127160804Y-69240000D01*
X127139719Y-69106874D01*
X127078528Y-68986780D01*
X126983220Y-68891472D01*
X126983217Y-68891470D01*
X126863129Y-68830282D01*
X126863127Y-68830281D01*
X126730000Y-68809196D01*
X126596872Y-68830281D01*
X126596870Y-68830282D01*
X126476782Y-68891470D01*
X126381470Y-68986782D01*
X126320282Y-69106870D01*
X126320281Y-69106872D01*
X126299196Y-69239999D01*
X126299196Y-69240000D01*
X87062801Y-69240000D01*
X87063142Y-67710000D01*
X128459196Y-67710000D01*
X128480281Y-67843127D01*
X128480282Y-67843129D01*
X128532188Y-67945000D01*
X128541472Y-67963220D01*
X128636780Y-68058528D01*
X128636782Y-68058529D01*
X128752279Y-68117378D01*
X128756874Y-68119719D01*
X128890000Y-68140804D01*
X129023126Y-68119719D01*
X129143220Y-68058528D01*
X129238528Y-67963220D01*
X129299719Y-67843126D01*
X129320804Y-67710000D01*
X129319221Y-67700003D01*
X238530450Y-67700003D01*
X238550807Y-67906703D01*
X238550808Y-67906708D01*
X238611103Y-68105472D01*
X238611105Y-68105477D01*
X238709008Y-68288642D01*
X238709014Y-68288651D01*
X238709016Y-68288654D01*
X238718783Y-68300555D01*
X238840780Y-68449210D01*
X238840789Y-68449219D01*
X238915671Y-68510672D01*
X239001346Y-68580984D01*
X239001350Y-68580986D01*
X239001357Y-68580991D01*
X239184522Y-68678894D01*
X239184528Y-68678897D01*
X239322997Y-68720900D01*
X239383291Y-68739191D01*
X239383296Y-68739192D01*
X239589997Y-68759550D01*
X239590000Y-68759550D01*
X239590003Y-68759550D01*
X239796703Y-68739192D01*
X239796708Y-68739191D01*
X239995472Y-68678897D01*
X240061146Y-68643793D01*
X240178642Y-68580991D01*
X240178645Y-68580988D01*
X240178654Y-68580984D01*
X240339215Y-68449215D01*
X240470984Y-68288654D01*
X240470988Y-68288645D01*
X240470991Y-68288642D01*
X240539902Y-68159717D01*
X240568897Y-68105472D01*
X240629191Y-67906708D01*
X240629192Y-67906703D01*
X240649550Y-67700003D01*
X240649550Y-67699996D01*
X240629192Y-67493296D01*
X240629191Y-67493291D01*
X240582776Y-67340282D01*
X240568897Y-67294528D01*
X240560702Y-67279196D01*
X240470991Y-67111357D01*
X240470986Y-67111350D01*
X240470984Y-67111346D01*
X240400672Y-67025671D01*
X240339219Y-66950789D01*
X240339210Y-66950780D01*
X240221889Y-66854498D01*
X240178654Y-66819016D01*
X240178651Y-66819014D01*
X240178642Y-66819008D01*
X239995477Y-66721105D01*
X239995472Y-66721103D01*
X239796708Y-66660808D01*
X239796703Y-66660807D01*
X239590003Y-66640450D01*
X239589997Y-66640450D01*
X239383296Y-66660807D01*
X239383291Y-66660808D01*
X239184527Y-66721103D01*
X239184522Y-66721105D01*
X239001357Y-66819008D01*
X239001347Y-66819015D01*
X238840789Y-66950780D01*
X238840780Y-66950789D01*
X238709015Y-67111347D01*
X238709008Y-67111357D01*
X238611105Y-67294522D01*
X238611103Y-67294527D01*
X238550808Y-67493291D01*
X238550807Y-67493296D01*
X238530450Y-67699996D01*
X238530450Y-67700003D01*
X129319221Y-67700003D01*
X129299719Y-67576874D01*
X129238528Y-67456780D01*
X129143220Y-67361472D01*
X129143217Y-67361470D01*
X129023129Y-67300282D01*
X129023127Y-67300281D01*
X128890000Y-67279196D01*
X128756872Y-67300281D01*
X128756870Y-67300282D01*
X128636782Y-67361470D01*
X128541470Y-67456782D01*
X128480282Y-67576870D01*
X128480281Y-67576872D01*
X128459196Y-67709999D01*
X128459196Y-67710000D01*
X87063142Y-67710000D01*
X87063477Y-66210000D01*
X130319196Y-66210000D01*
X130340281Y-66343127D01*
X130340282Y-66343129D01*
X130395809Y-66452106D01*
X130401472Y-66463220D01*
X130496780Y-66558528D01*
X130616874Y-66619719D01*
X130750000Y-66640804D01*
X130883126Y-66619719D01*
X131003220Y-66558528D01*
X131098528Y-66463220D01*
X131159719Y-66343126D01*
X131180804Y-66210000D01*
X131159719Y-66076874D01*
X131098528Y-65956780D01*
X131003220Y-65861472D01*
X131003217Y-65861470D01*
X130954799Y-65836800D01*
X196415058Y-65836800D01*
X196435102Y-65963354D01*
X196435104Y-65963361D01*
X196492941Y-66076870D01*
X196493274Y-66077523D01*
X196583877Y-66168126D01*
X196583879Y-66168127D01*
X196583881Y-66168128D01*
X196698038Y-66226295D01*
X196698040Y-66226295D01*
X196698045Y-66226298D01*
X196824600Y-66246342D01*
X196951155Y-66226298D01*
X197065323Y-66168126D01*
X197155926Y-66077523D01*
X197214098Y-65963355D01*
X197234142Y-65836800D01*
X197226867Y-65790864D01*
X244685502Y-65790864D01*
X244713928Y-65970341D01*
X244770085Y-66143173D01*
X244812438Y-66226297D01*
X244852585Y-66305089D01*
X244959398Y-66452105D01*
X245087895Y-66580602D01*
X245234911Y-66687415D01*
X245396827Y-66769915D01*
X245569654Y-66826070D01*
X245569655Y-66826070D01*
X245569658Y-66826071D01*
X245749136Y-66854498D01*
X245749139Y-66854498D01*
X245930864Y-66854498D01*
X246110341Y-66826071D01*
X246110342Y-66826070D01*
X246110346Y-66826070D01*
X246283173Y-66769915D01*
X246445089Y-66687415D01*
X246592105Y-66580602D01*
X246720602Y-66452105D01*
X246827415Y-66305089D01*
X246909915Y-66143173D01*
X246966070Y-65970346D01*
X246966071Y-65970341D01*
X246994498Y-65790864D01*
X246994498Y-65609135D01*
X246966071Y-65429658D01*
X246965291Y-65427258D01*
X246909915Y-65256827D01*
X246827415Y-65094911D01*
X246720602Y-64947895D01*
X246592105Y-64819398D01*
X246445089Y-64712585D01*
X246445088Y-64712584D01*
X246445086Y-64712583D01*
X246283173Y-64630085D01*
X246110341Y-64573928D01*
X245930864Y-64545502D01*
X245930861Y-64545502D01*
X245749139Y-64545502D01*
X245749136Y-64545502D01*
X245569658Y-64573928D01*
X245396826Y-64630085D01*
X245234913Y-64712583D01*
X245161403Y-64765991D01*
X245087895Y-64819398D01*
X244959398Y-64947895D01*
X244932110Y-64985454D01*
X244852583Y-65094913D01*
X244770085Y-65256826D01*
X244713928Y-65429658D01*
X244685502Y-65609135D01*
X244685502Y-65790864D01*
X197226867Y-65790864D01*
X197214098Y-65710245D01*
X197214095Y-65710240D01*
X197214095Y-65710238D01*
X197155928Y-65596081D01*
X197155927Y-65596079D01*
X197155926Y-65596077D01*
X197065323Y-65505474D01*
X197065320Y-65505472D01*
X197065318Y-65505471D01*
X196951161Y-65447304D01*
X196951156Y-65447302D01*
X196951155Y-65447302D01*
X196824600Y-65427258D01*
X196698045Y-65447302D01*
X196698038Y-65447304D01*
X196583881Y-65505471D01*
X196583879Y-65505472D01*
X196493272Y-65596079D01*
X196493271Y-65596081D01*
X196435104Y-65710238D01*
X196435102Y-65710245D01*
X196415058Y-65836799D01*
X196415058Y-65836800D01*
X130954799Y-65836800D01*
X130883129Y-65800282D01*
X130883127Y-65800281D01*
X130750000Y-65779196D01*
X130616872Y-65800281D01*
X130616870Y-65800282D01*
X130496782Y-65861470D01*
X130401470Y-65956782D01*
X130340282Y-66076870D01*
X130340281Y-66076872D01*
X130319196Y-66209999D01*
X130319196Y-66210000D01*
X87063477Y-66210000D01*
X87063779Y-64858900D01*
X154212958Y-64858900D01*
X154233002Y-64985454D01*
X154233004Y-64985461D01*
X154288773Y-65094911D01*
X154291174Y-65099623D01*
X154381777Y-65190226D01*
X154381779Y-65190227D01*
X154381781Y-65190228D01*
X154495938Y-65248395D01*
X154495940Y-65248395D01*
X154495945Y-65248398D01*
X154622500Y-65268442D01*
X154749055Y-65248398D01*
X154863223Y-65190226D01*
X154953826Y-65099623D01*
X155011998Y-64985455D01*
X155032042Y-64858900D01*
X155011998Y-64732345D01*
X155011995Y-64732340D01*
X155011995Y-64732338D01*
X154953828Y-64618181D01*
X154953827Y-64618179D01*
X154953826Y-64618177D01*
X154863223Y-64527574D01*
X154863220Y-64527572D01*
X154863218Y-64527571D01*
X154749061Y-64469404D01*
X154749056Y-64469402D01*
X154749055Y-64469402D01*
X154622500Y-64449358D01*
X154495945Y-64469402D01*
X154495938Y-64469404D01*
X154381781Y-64527571D01*
X154381779Y-64527572D01*
X154291172Y-64618179D01*
X154291171Y-64618181D01*
X154233004Y-64732338D01*
X154233002Y-64732345D01*
X154212958Y-64858899D01*
X154212958Y-64858900D01*
X87063779Y-64858900D01*
X87064026Y-63754000D01*
X155698858Y-63754000D01*
X155718902Y-63880554D01*
X155718904Y-63880561D01*
X155777071Y-63994718D01*
X155777074Y-63994723D01*
X155867677Y-64085326D01*
X155867679Y-64085327D01*
X155867681Y-64085328D01*
X155981838Y-64143495D01*
X155981840Y-64143495D01*
X155981845Y-64143498D01*
X156108400Y-64163542D01*
X156234955Y-64143498D01*
X156349123Y-64085326D01*
X156439726Y-63994723D01*
X156497898Y-63880555D01*
X156517942Y-63754000D01*
X195068858Y-63754000D01*
X195088902Y-63880554D01*
X195088904Y-63880561D01*
X195147071Y-63994718D01*
X195147074Y-63994723D01*
X195237677Y-64085326D01*
X195237679Y-64085327D01*
X195237681Y-64085328D01*
X195351838Y-64143495D01*
X195351840Y-64143495D01*
X195351845Y-64143498D01*
X195478400Y-64163542D01*
X195604955Y-64143498D01*
X195719123Y-64085326D01*
X195809726Y-63994723D01*
X195867898Y-63880555D01*
X195887942Y-63754000D01*
X195867898Y-63627445D01*
X195867895Y-63627440D01*
X195867895Y-63627438D01*
X195809728Y-63513281D01*
X195809727Y-63513279D01*
X195809726Y-63513277D01*
X195719123Y-63422674D01*
X195719120Y-63422672D01*
X195719118Y-63422671D01*
X195604961Y-63364504D01*
X195604956Y-63364502D01*
X195604955Y-63364502D01*
X195478400Y-63344458D01*
X195351845Y-63364502D01*
X195351838Y-63364504D01*
X195237681Y-63422671D01*
X195237679Y-63422672D01*
X195147072Y-63513279D01*
X195147071Y-63513281D01*
X195088904Y-63627438D01*
X195088902Y-63627445D01*
X195068858Y-63753999D01*
X195068858Y-63754000D01*
X156517942Y-63754000D01*
X156497898Y-63627445D01*
X156497895Y-63627440D01*
X156497895Y-63627438D01*
X156439728Y-63513281D01*
X156439727Y-63513279D01*
X156439726Y-63513277D01*
X156349123Y-63422674D01*
X156349120Y-63422672D01*
X156349118Y-63422671D01*
X156234961Y-63364504D01*
X156234956Y-63364502D01*
X156234955Y-63364502D01*
X156108400Y-63344458D01*
X155981845Y-63364502D01*
X155981838Y-63364504D01*
X155867681Y-63422671D01*
X155867679Y-63422672D01*
X155777072Y-63513279D01*
X155777071Y-63513281D01*
X155718904Y-63627438D01*
X155718902Y-63627445D01*
X155698858Y-63753999D01*
X155698858Y-63754000D01*
X87064026Y-63754000D01*
X87065072Y-59065004D01*
X125802615Y-59065004D01*
X125822139Y-59412683D01*
X125822142Y-59412703D01*
X125880472Y-59756011D01*
X125976878Y-60090642D01*
X126110146Y-60412380D01*
X126278592Y-60717159D01*
X126278595Y-60717164D01*
X126480112Y-61001176D01*
X126712161Y-61260839D01*
X126971824Y-61492888D01*
X127255836Y-61694405D01*
X127255840Y-61694407D01*
X127560620Y-61862853D01*
X127560619Y-61862853D01*
X127560624Y-61862855D01*
X127882356Y-61996121D01*
X128216987Y-62092527D01*
X128560307Y-62150859D01*
X128560310Y-62150859D01*
X128560316Y-62150860D01*
X128907995Y-62170385D01*
X128908000Y-62170385D01*
X128908005Y-62170385D01*
X129255683Y-62150860D01*
X129255687Y-62150859D01*
X129255693Y-62150859D01*
X129599013Y-62092527D01*
X129933644Y-61996121D01*
X130255376Y-61862855D01*
X130560164Y-61694405D01*
X130844176Y-61492888D01*
X131103839Y-61260839D01*
X131335888Y-61001176D01*
X131537405Y-60717164D01*
X131705855Y-60412376D01*
X131839121Y-60090644D01*
X131935527Y-59756013D01*
X131993859Y-59412693D01*
X132013385Y-59065004D01*
X173802615Y-59065004D01*
X173822139Y-59412683D01*
X173822142Y-59412703D01*
X173880472Y-59756011D01*
X173976878Y-60090642D01*
X174110146Y-60412380D01*
X174278592Y-60717159D01*
X174278595Y-60717164D01*
X174480112Y-61001176D01*
X174712161Y-61260839D01*
X174971824Y-61492888D01*
X175255836Y-61694405D01*
X175255840Y-61694407D01*
X175560620Y-61862853D01*
X175560619Y-61862853D01*
X175560624Y-61862855D01*
X175882356Y-61996121D01*
X176216987Y-62092527D01*
X176560307Y-62150859D01*
X176560310Y-62150859D01*
X176560316Y-62150860D01*
X176907995Y-62170385D01*
X176908000Y-62170385D01*
X176908005Y-62170385D01*
X177255683Y-62150860D01*
X177255687Y-62150859D01*
X177255693Y-62150859D01*
X177599013Y-62092527D01*
X177933644Y-61996121D01*
X178255376Y-61862855D01*
X178560164Y-61694405D01*
X178844176Y-61492888D01*
X179103839Y-61260839D01*
X179335888Y-61001176D01*
X179537405Y-60717164D01*
X179705855Y-60412376D01*
X179839121Y-60090644D01*
X179935527Y-59756013D01*
X179993859Y-59412693D01*
X180013385Y-59065000D01*
X180003305Y-58885500D01*
X179993860Y-58717316D01*
X179993857Y-58717296D01*
X179966968Y-58559035D01*
X179935527Y-58373987D01*
X179839121Y-58039356D01*
X179705855Y-57717624D01*
X179705853Y-57717619D01*
X179537407Y-57412840D01*
X179537405Y-57412836D01*
X179335888Y-57128824D01*
X179103839Y-56869161D01*
X178844176Y-56637112D01*
X178560164Y-56435595D01*
X178560159Y-56435592D01*
X178255379Y-56267146D01*
X178255380Y-56267146D01*
X177933642Y-56133878D01*
X177599011Y-56037472D01*
X177255703Y-55979142D01*
X177255683Y-55979139D01*
X176908005Y-55959615D01*
X176907995Y-55959615D01*
X176560316Y-55979139D01*
X176560296Y-55979142D01*
X176216988Y-56037472D01*
X175882357Y-56133878D01*
X175560619Y-56267146D01*
X175255840Y-56435592D01*
X175170266Y-56496310D01*
X174971824Y-56637112D01*
X174847777Y-56747966D01*
X174712168Y-56869154D01*
X174712154Y-56869168D01*
X174590966Y-57004777D01*
X174480112Y-57128824D01*
X174480110Y-57128827D01*
X174278592Y-57412840D01*
X174110146Y-57717619D01*
X173976878Y-58039357D01*
X173880472Y-58373988D01*
X173822142Y-58717296D01*
X173822139Y-58717316D01*
X173802615Y-59064995D01*
X173802615Y-59065004D01*
X132013385Y-59065004D01*
X132013385Y-59065000D01*
X132003305Y-58885500D01*
X131993860Y-58717316D01*
X131993857Y-58717296D01*
X131966968Y-58559035D01*
X131935527Y-58373987D01*
X131839121Y-58039356D01*
X131705855Y-57717624D01*
X131705853Y-57717619D01*
X131537407Y-57412840D01*
X131537405Y-57412836D01*
X131335888Y-57128824D01*
X131103839Y-56869161D01*
X130844176Y-56637112D01*
X130560164Y-56435595D01*
X130560159Y-56435592D01*
X130255379Y-56267146D01*
X130255380Y-56267146D01*
X129933642Y-56133878D01*
X129669571Y-56057800D01*
X156206858Y-56057800D01*
X156226902Y-56184354D01*
X156226904Y-56184361D01*
X156285071Y-56298518D01*
X156285074Y-56298523D01*
X156375677Y-56389126D01*
X156375679Y-56389127D01*
X156375681Y-56389128D01*
X156489838Y-56447295D01*
X156489840Y-56447295D01*
X156489845Y-56447298D01*
X156616400Y-56467342D01*
X156742955Y-56447298D01*
X156857123Y-56389126D01*
X156947726Y-56298523D01*
X157005898Y-56184355D01*
X157025942Y-56057800D01*
X157005898Y-55931245D01*
X157005895Y-55931240D01*
X157005895Y-55931238D01*
X156979787Y-55880000D01*
X162658458Y-55880000D01*
X162678502Y-56006554D01*
X162678504Y-56006561D01*
X162736671Y-56120718D01*
X162736674Y-56120723D01*
X162827277Y-56211326D01*
X162827279Y-56211327D01*
X162827281Y-56211328D01*
X162941438Y-56269495D01*
X162941440Y-56269495D01*
X162941445Y-56269498D01*
X163068000Y-56289542D01*
X163194555Y-56269498D01*
X163308723Y-56211326D01*
X163399326Y-56120723D01*
X163457498Y-56006555D01*
X163477542Y-55880000D01*
X163457498Y-55753445D01*
X163457495Y-55753440D01*
X163457495Y-55753438D01*
X163399328Y-55639281D01*
X163399327Y-55639279D01*
X163399326Y-55639277D01*
X163308723Y-55548674D01*
X163308720Y-55548672D01*
X163308718Y-55548671D01*
X163194561Y-55490504D01*
X163194556Y-55490502D01*
X163194555Y-55490502D01*
X163068000Y-55470458D01*
X162941445Y-55490502D01*
X162941438Y-55490504D01*
X162827281Y-55548671D01*
X162827279Y-55548672D01*
X162736672Y-55639279D01*
X162736671Y-55639281D01*
X162678504Y-55753438D01*
X162678502Y-55753445D01*
X162658458Y-55879999D01*
X162658458Y-55880000D01*
X156979787Y-55880000D01*
X156947728Y-55817081D01*
X156947727Y-55817079D01*
X156947726Y-55817077D01*
X156857123Y-55726474D01*
X156857120Y-55726472D01*
X156857118Y-55726471D01*
X156742961Y-55668304D01*
X156742956Y-55668302D01*
X156742955Y-55668302D01*
X156616400Y-55648258D01*
X156489845Y-55668302D01*
X156489838Y-55668304D01*
X156375681Y-55726471D01*
X156375679Y-55726472D01*
X156285072Y-55817079D01*
X156285071Y-55817081D01*
X156226904Y-55931238D01*
X156226902Y-55931245D01*
X156206858Y-56057799D01*
X156206858Y-56057800D01*
X129669571Y-56057800D01*
X129599011Y-56037472D01*
X129255703Y-55979142D01*
X129255683Y-55979139D01*
X128908005Y-55959615D01*
X128907995Y-55959615D01*
X128560316Y-55979139D01*
X128560296Y-55979142D01*
X128216988Y-56037472D01*
X127882357Y-56133878D01*
X127560619Y-56267146D01*
X127255840Y-56435592D01*
X127170266Y-56496310D01*
X126971824Y-56637112D01*
X126847777Y-56747966D01*
X126712168Y-56869154D01*
X126712154Y-56869168D01*
X126590966Y-57004777D01*
X126480112Y-57128824D01*
X126480110Y-57128827D01*
X126278592Y-57412840D01*
X126110146Y-57717619D01*
X125976878Y-58039357D01*
X125880472Y-58373988D01*
X125822142Y-58717296D01*
X125822139Y-58717316D01*
X125802615Y-59064995D01*
X125802615Y-59065004D01*
X87065072Y-59065004D01*
X87065293Y-58073693D01*
X100954500Y-58073693D01*
X100989106Y-58247665D01*
X100989106Y-58247667D01*
X101056985Y-58411544D01*
X101056985Y-58411545D01*
X101155535Y-58559034D01*
X101155536Y-58559035D01*
X101280965Y-58684464D01*
X101428453Y-58783013D01*
X101592334Y-58850894D01*
X101766309Y-58885500D01*
X101766310Y-58885500D01*
X101943690Y-58885500D01*
X101943691Y-58885500D01*
X102117666Y-58850894D01*
X102281547Y-58783013D01*
X102429035Y-58684464D01*
X102554464Y-58559035D01*
X102653013Y-58411547D01*
X102720894Y-58247666D01*
X102755500Y-58073693D01*
X108104500Y-58073693D01*
X108139106Y-58247665D01*
X108139106Y-58247667D01*
X108206985Y-58411544D01*
X108206985Y-58411545D01*
X108305535Y-58559034D01*
X108305536Y-58559035D01*
X108430965Y-58684464D01*
X108578453Y-58783013D01*
X108742334Y-58850894D01*
X108916309Y-58885500D01*
X108916310Y-58885500D01*
X109093690Y-58885500D01*
X109093691Y-58885500D01*
X109267666Y-58850894D01*
X109431547Y-58783013D01*
X109579035Y-58684464D01*
X109704464Y-58559035D01*
X109803013Y-58411547D01*
X109870894Y-58247666D01*
X109905500Y-58073691D01*
X109905500Y-56496309D01*
X109870894Y-56322334D01*
X109824914Y-56211327D01*
X109803014Y-56158455D01*
X109803014Y-56158454D01*
X109704464Y-56010965D01*
X109579034Y-55885535D01*
X109431544Y-55786985D01*
X109267666Y-55719106D01*
X109093693Y-55684500D01*
X109093691Y-55684500D01*
X108916309Y-55684500D01*
X108916306Y-55684500D01*
X108742334Y-55719106D01*
X108742332Y-55719106D01*
X108578455Y-55786985D01*
X108578454Y-55786985D01*
X108430965Y-55885535D01*
X108305535Y-56010965D01*
X108206985Y-56158454D01*
X108206985Y-56158455D01*
X108139106Y-56322332D01*
X108139106Y-56322334D01*
X108104500Y-56496306D01*
X108104500Y-58073693D01*
X102755500Y-58073693D01*
X102755500Y-58073691D01*
X102755500Y-56496309D01*
X102720894Y-56322334D01*
X102674914Y-56211327D01*
X102653014Y-56158455D01*
X102653014Y-56158454D01*
X102554464Y-56010965D01*
X102429034Y-55885535D01*
X102281544Y-55786985D01*
X102117666Y-55719106D01*
X101943693Y-55684500D01*
X101943691Y-55684500D01*
X101766309Y-55684500D01*
X101766306Y-55684500D01*
X101592334Y-55719106D01*
X101592332Y-55719106D01*
X101428455Y-55786985D01*
X101428454Y-55786985D01*
X101280965Y-55885535D01*
X101155535Y-56010965D01*
X101056985Y-56158454D01*
X101056985Y-56158455D01*
X100989106Y-56322332D01*
X100989106Y-56322334D01*
X100954500Y-56496306D01*
X100954500Y-58073693D01*
X87065293Y-58073693D01*
X87065469Y-57285532D01*
X87084389Y-57227348D01*
X87094459Y-57215559D01*
X89090020Y-55220000D01*
X148619196Y-55220000D01*
X148640281Y-55353127D01*
X148640282Y-55353129D01*
X148701470Y-55473217D01*
X148701472Y-55473220D01*
X148796780Y-55568528D01*
X148916874Y-55629719D01*
X149050000Y-55650804D01*
X149183126Y-55629719D01*
X149303220Y-55568528D01*
X149398528Y-55473220D01*
X149459719Y-55353126D01*
X149480804Y-55220000D01*
X149459719Y-55086874D01*
X149398528Y-54966780D01*
X149351748Y-54920000D01*
X150109196Y-54920000D01*
X150130281Y-55053127D01*
X150130282Y-55053129D01*
X150191470Y-55173217D01*
X150191472Y-55173220D01*
X150286780Y-55268528D01*
X150406874Y-55329719D01*
X150540000Y-55350804D01*
X150673126Y-55329719D01*
X150793220Y-55268528D01*
X150888528Y-55173220D01*
X150949719Y-55053126D01*
X150970804Y-54920000D01*
X150969498Y-54911757D01*
X150963118Y-54871472D01*
X150949719Y-54786874D01*
X150888528Y-54666780D01*
X150793220Y-54571472D01*
X150793217Y-54571470D01*
X150673129Y-54510282D01*
X150673127Y-54510281D01*
X150540000Y-54489196D01*
X150406872Y-54510281D01*
X150406870Y-54510282D01*
X150286782Y-54571470D01*
X150191470Y-54666782D01*
X150130282Y-54786870D01*
X150130281Y-54786872D01*
X150109196Y-54919999D01*
X150109196Y-54920000D01*
X149351748Y-54920000D01*
X149303220Y-54871472D01*
X149303217Y-54871470D01*
X149183129Y-54810282D01*
X149183127Y-54810281D01*
X149050000Y-54789196D01*
X148916872Y-54810281D01*
X148916870Y-54810282D01*
X148796782Y-54871470D01*
X148701470Y-54966782D01*
X148640282Y-55086870D01*
X148640281Y-55086872D01*
X148619196Y-55219999D01*
X148619196Y-55220000D01*
X89090020Y-55220000D01*
X89143324Y-55166696D01*
X89197841Y-55138919D01*
X89213328Y-55137700D01*
X106209528Y-55137700D01*
X106209542Y-55137700D01*
X106225667Y-55137066D01*
X106241154Y-55135847D01*
X106318323Y-55114083D01*
X106372839Y-55086306D01*
X106404034Y-55066705D01*
X106415369Y-55053129D01*
X106462643Y-54996505D01*
X106462643Y-54996503D01*
X106462647Y-54996500D01*
X106490425Y-54941983D01*
X106510293Y-54880834D01*
X106515706Y-54846651D01*
X106525277Y-54817196D01*
X106528800Y-54810281D01*
X106542677Y-54783046D01*
X106560881Y-54757990D01*
X106587991Y-54730879D01*
X106613044Y-54712678D01*
X106647196Y-54695276D01*
X106676648Y-54685707D01*
X106707410Y-54680835D01*
X106714514Y-54679710D01*
X106745485Y-54679710D01*
X106763302Y-54682531D01*
X106783343Y-54685705D01*
X106812802Y-54695277D01*
X106846949Y-54712676D01*
X106872007Y-54730881D01*
X106899116Y-54757990D01*
X106917322Y-54783050D01*
X106934721Y-54817198D01*
X106944292Y-54846651D01*
X106949708Y-54880843D01*
X106952855Y-54896661D01*
X106956478Y-54911756D01*
X106956478Y-54911757D01*
X106990048Y-54984581D01*
X106990049Y-54984582D01*
X106998708Y-54996500D01*
X107026014Y-55034083D01*
X107050255Y-55061828D01*
X107128765Y-55108736D01*
X107186956Y-55127643D01*
X107199010Y-55129552D01*
X107250454Y-55137700D01*
X107250458Y-55137700D01*
X145112793Y-55137700D01*
X145112800Y-55137700D01*
X145144944Y-55135170D01*
X145175537Y-55130325D01*
X145175548Y-55130323D01*
X145175593Y-55130316D01*
X145180081Y-55129553D01*
X145180080Y-55129553D01*
X145180087Y-55129552D01*
X145264183Y-55093608D01*
X145313683Y-55057644D01*
X145341428Y-55033403D01*
X145388336Y-54954893D01*
X145407243Y-54896702D01*
X145417300Y-54833200D01*
X145417300Y-51364200D01*
X145414770Y-51332056D01*
X145409925Y-51301463D01*
X145409916Y-51301406D01*
X145409153Y-51296918D01*
X145409152Y-51296913D01*
X145373208Y-51212817D01*
X145337244Y-51163317D01*
X145313003Y-51135572D01*
X145234493Y-51088664D01*
X145234491Y-51088663D01*
X145234489Y-51088662D01*
X145176299Y-51069756D01*
X145176300Y-51069756D01*
X145112803Y-51059700D01*
X145112800Y-51059700D01*
X86786008Y-51059700D01*
X86775258Y-51060122D01*
X86769876Y-51060334D01*
X86756331Y-51061400D01*
X86754396Y-51061553D01*
X86754393Y-51061553D01*
X86754392Y-51061554D01*
X86677230Y-51083315D01*
X86677224Y-51083317D01*
X86622708Y-51111094D01*
X86570699Y-51148881D01*
X82801266Y-54918314D01*
X82790339Y-54930134D01*
X82780245Y-54941953D01*
X82780239Y-54941962D01*
X82741064Y-55011914D01*
X82722156Y-55070107D01*
X82712100Y-55133604D01*
X82712100Y-100437195D01*
X61304498Y-100437195D01*
X61304498Y-100279135D01*
X61276071Y-100099658D01*
X61272822Y-100089658D01*
X61219915Y-99926827D01*
X61137415Y-99764911D01*
X61030602Y-99617895D01*
X60902105Y-99489398D01*
X60755089Y-99382585D01*
X60755088Y-99382584D01*
X60755086Y-99382583D01*
X60593173Y-99300085D01*
X60420341Y-99243928D01*
X60240864Y-99215502D01*
X60240861Y-99215502D01*
X60059139Y-99215502D01*
X60059136Y-99215502D01*
X59879658Y-99243928D01*
X59706826Y-99300085D01*
X59544913Y-99382583D01*
X59508289Y-99409192D01*
X59397895Y-99489398D01*
X59269398Y-99617895D01*
X59215991Y-99691403D01*
X59162583Y-99764913D01*
X59080085Y-99926826D01*
X59023928Y-100099658D01*
X58995502Y-100279135D01*
X58995502Y-100460864D01*
X56611500Y-100460864D01*
X56611500Y-98370000D01*
X65241108Y-98370000D01*
X65260840Y-98582945D01*
X65319366Y-98788642D01*
X65374884Y-98900139D01*
X65805543Y-98469479D01*
X65840937Y-98601571D01*
X65919922Y-98738377D01*
X66031623Y-98850078D01*
X66168429Y-98929063D01*
X66300517Y-98964455D01*
X65867465Y-99397508D01*
X65883432Y-99407395D01*
X65883436Y-99407397D01*
X66082856Y-99484652D01*
X66293071Y-99523948D01*
X66506929Y-99523948D01*
X66717143Y-99484652D01*
X66916562Y-99407397D01*
X66916564Y-99407397D01*
X66932533Y-99397508D01*
X66499481Y-98964456D01*
X66631571Y-98929063D01*
X66768377Y-98850078D01*
X66880078Y-98738377D01*
X66959063Y-98601571D01*
X66994456Y-98469481D01*
X67425114Y-98900139D01*
X67480633Y-98788642D01*
X67539159Y-98582945D01*
X67558891Y-98370000D01*
X67539159Y-98157054D01*
X67480633Y-97951357D01*
X67425114Y-97839859D01*
X66994455Y-98270517D01*
X66959063Y-98138429D01*
X66880078Y-98001623D01*
X66768377Y-97889922D01*
X66631571Y-97810937D01*
X66499479Y-97775543D01*
X66932533Y-97342490D01*
X66916566Y-97332603D01*
X66717143Y-97255347D01*
X66506929Y-97216052D01*
X66293071Y-97216052D01*
X66082856Y-97255347D01*
X65883437Y-97332601D01*
X65883429Y-97332605D01*
X65867465Y-97342490D01*
X66300518Y-97775543D01*
X66168429Y-97810937D01*
X66031623Y-97889922D01*
X65919922Y-98001623D01*
X65840937Y-98138429D01*
X65805543Y-98270518D01*
X65374884Y-97839859D01*
X65374883Y-97839859D01*
X65319367Y-97951352D01*
X65260840Y-98157054D01*
X65241108Y-98370000D01*
X56611500Y-98370000D01*
X56611500Y-97761155D01*
X56622290Y-97716210D01*
X56669719Y-97623126D01*
X56690804Y-97490000D01*
X56669719Y-97356874D01*
X56669717Y-97356870D01*
X56669717Y-97356869D01*
X56622290Y-97263787D01*
X56611500Y-97218843D01*
X56611500Y-96750579D01*
X68522378Y-96750579D01*
X68549336Y-96868687D01*
X68549338Y-96868693D01*
X68601898Y-96977836D01*
X68601900Y-96977839D01*
X68601901Y-96977840D01*
X68601902Y-96977842D01*
X68677438Y-97072562D01*
X68772158Y-97148098D01*
X68772159Y-97148098D01*
X68772160Y-97148099D01*
X68772163Y-97148101D01*
X68869225Y-97194843D01*
X68881310Y-97200663D01*
X68999423Y-97227622D01*
X68999426Y-97227622D01*
X69100107Y-97227622D01*
X69100665Y-97227557D01*
X71918949Y-97227440D01*
X71920558Y-97227622D01*
X71930898Y-97227622D01*
X72000983Y-97227622D01*
X72001008Y-97227620D01*
X72020574Y-97227620D01*
X72138687Y-97200662D01*
X72247840Y-97148097D01*
X72342559Y-97072561D01*
X72342560Y-97072559D01*
X72342562Y-97072558D01*
X72342563Y-97072556D01*
X72418094Y-96977844D01*
X72418096Y-96977842D01*
X72470661Y-96868689D01*
X72497620Y-96750577D01*
X72497620Y-96690001D01*
X72497620Y-96660900D01*
X72497620Y-74878673D01*
X72497622Y-74878658D01*
X72497622Y-74870911D01*
X72497641Y-74870849D01*
X72497639Y-74829875D01*
X72497640Y-74829875D01*
X72497637Y-74769299D01*
X72470674Y-74651187D01*
X72418105Y-74542035D01*
X72342566Y-74447317D01*
X72247844Y-74371782D01*
X72193267Y-74345500D01*
X72138691Y-74319218D01*
X72020576Y-74292260D01*
X71996884Y-74292260D01*
X71996875Y-74292259D01*
X71985356Y-74292259D01*
X71960769Y-74292259D01*
X71960766Y-74292260D01*
X71922931Y-74292260D01*
X71922913Y-74292261D01*
X69059222Y-74292378D01*
X68999420Y-74292378D01*
X68881312Y-74319336D01*
X68881306Y-74319338D01*
X68772163Y-74371898D01*
X68772160Y-74371900D01*
X68677440Y-74447436D01*
X68677436Y-74447440D01*
X68601900Y-74542160D01*
X68601898Y-74542163D01*
X68549338Y-74651306D01*
X68549336Y-74651312D01*
X68522378Y-74769420D01*
X68522378Y-96750579D01*
X56611500Y-96750579D01*
X56611500Y-93370003D01*
X65340450Y-93370003D01*
X65360807Y-93576703D01*
X65360808Y-93576708D01*
X65421103Y-93775472D01*
X65421105Y-93775477D01*
X65519008Y-93958642D01*
X65519014Y-93958651D01*
X65519016Y-93958654D01*
X65537194Y-93980804D01*
X65650780Y-94119210D01*
X65650789Y-94119219D01*
X65725671Y-94180672D01*
X65811346Y-94250984D01*
X65811350Y-94250986D01*
X65811357Y-94250991D01*
X65975817Y-94338896D01*
X65994528Y-94348897D01*
X66132997Y-94390900D01*
X66193291Y-94409191D01*
X66193296Y-94409192D01*
X66399997Y-94429550D01*
X66400000Y-94429550D01*
X66400003Y-94429550D01*
X66606703Y-94409192D01*
X66606708Y-94409191D01*
X66805472Y-94348897D01*
X66871146Y-94313793D01*
X66988642Y-94250991D01*
X66988645Y-94250988D01*
X66988654Y-94250984D01*
X67149215Y-94119215D01*
X67280984Y-93958654D01*
X67280988Y-93958645D01*
X67280991Y-93958642D01*
X67378894Y-93775477D01*
X67378897Y-93775472D01*
X67439191Y-93576708D01*
X67439192Y-93576703D01*
X67459550Y-93370003D01*
X67459550Y-93369996D01*
X67439192Y-93163296D01*
X67439191Y-93163291D01*
X67417153Y-93090642D01*
X67378897Y-92964528D01*
X67373552Y-92954528D01*
X67280991Y-92781357D01*
X67280986Y-92781350D01*
X67280984Y-92781346D01*
X67210672Y-92695671D01*
X67149219Y-92620789D01*
X67149210Y-92620780D01*
X67031889Y-92524498D01*
X66988654Y-92489016D01*
X66988651Y-92489014D01*
X66988642Y-92489008D01*
X66805477Y-92391105D01*
X66805472Y-92391103D01*
X66606708Y-92330808D01*
X66606703Y-92330807D01*
X66400003Y-92310450D01*
X66399997Y-92310450D01*
X66193296Y-92330807D01*
X66193291Y-92330808D01*
X65994527Y-92391103D01*
X65994522Y-92391105D01*
X65811357Y-92489008D01*
X65811347Y-92489015D01*
X65650789Y-92620780D01*
X65650780Y-92620789D01*
X65519015Y-92781347D01*
X65519008Y-92781357D01*
X65421105Y-92964522D01*
X65421103Y-92964527D01*
X65360808Y-93163291D01*
X65360807Y-93163296D01*
X65340450Y-93369996D01*
X65340450Y-93370003D01*
X56611500Y-93370003D01*
X56611500Y-91460864D01*
X58995502Y-91460864D01*
X59023928Y-91640341D01*
X59080085Y-91813173D01*
X59157489Y-91965089D01*
X59162585Y-91975089D01*
X59269398Y-92122105D01*
X59397895Y-92250602D01*
X59544911Y-92357415D01*
X59706827Y-92439915D01*
X59879654Y-92496070D01*
X59879655Y-92496070D01*
X59879658Y-92496071D01*
X60059136Y-92524498D01*
X60059139Y-92524498D01*
X60240864Y-92524498D01*
X60420341Y-92496071D01*
X60420342Y-92496070D01*
X60420346Y-92496070D01*
X60593173Y-92439915D01*
X60755089Y-92357415D01*
X60902105Y-92250602D01*
X61030602Y-92122105D01*
X61137415Y-91975089D01*
X61219915Y-91813173D01*
X61276070Y-91640346D01*
X61304498Y-91460861D01*
X61304498Y-91279139D01*
X61304498Y-91279135D01*
X61276071Y-91099658D01*
X61272822Y-91089658D01*
X61219915Y-90926827D01*
X61137415Y-90764911D01*
X61030602Y-90617895D01*
X60902105Y-90489398D01*
X60755089Y-90382585D01*
X60755088Y-90382584D01*
X60755086Y-90382583D01*
X60593173Y-90300085D01*
X60420341Y-90243928D01*
X60240864Y-90215502D01*
X60240861Y-90215502D01*
X60059139Y-90215502D01*
X60059136Y-90215502D01*
X59879658Y-90243928D01*
X59706826Y-90300085D01*
X59544913Y-90382583D01*
X59503274Y-90412836D01*
X59397895Y-90489398D01*
X59269398Y-90617895D01*
X59257295Y-90634554D01*
X59162583Y-90764913D01*
X59080085Y-90926826D01*
X59023928Y-91099658D01*
X58995502Y-91279135D01*
X58995502Y-91460864D01*
X56611500Y-91460864D01*
X56611500Y-74802765D01*
X59025503Y-74802765D01*
X59053929Y-74982242D01*
X59110086Y-75155074D01*
X59189760Y-75311445D01*
X59192586Y-75316990D01*
X59299399Y-75464006D01*
X59427896Y-75592503D01*
X59574912Y-75699316D01*
X59736828Y-75781816D01*
X59909655Y-75837971D01*
X59909656Y-75837971D01*
X59909659Y-75837972D01*
X60089137Y-75866399D01*
X60089140Y-75866399D01*
X60270865Y-75866399D01*
X60450342Y-75837972D01*
X60450343Y-75837971D01*
X60450347Y-75837971D01*
X60623174Y-75781816D01*
X60785090Y-75699316D01*
X60932106Y-75592503D01*
X61060603Y-75464006D01*
X61167416Y-75316990D01*
X61249916Y-75155074D01*
X61306071Y-74982247D01*
X61323715Y-74870849D01*
X61334499Y-74802765D01*
X61334499Y-74621036D01*
X61306072Y-74441559D01*
X61283439Y-74371902D01*
X61249916Y-74268728D01*
X61167416Y-74106812D01*
X61060603Y-73959796D01*
X60932106Y-73831299D01*
X60785090Y-73724486D01*
X60785089Y-73724485D01*
X60785087Y-73724484D01*
X60623174Y-73641986D01*
X60450342Y-73585829D01*
X60270865Y-73557403D01*
X60270862Y-73557403D01*
X60089140Y-73557403D01*
X60089137Y-73557403D01*
X59909659Y-73585829D01*
X59736827Y-73641986D01*
X59574914Y-73724484D01*
X59519829Y-73764506D01*
X59427896Y-73831299D01*
X59299399Y-73959796D01*
X59265731Y-74006136D01*
X59192584Y-74106814D01*
X59110086Y-74268727D01*
X59053929Y-74441559D01*
X59025503Y-74621036D01*
X59025503Y-74802765D01*
X56611500Y-74802765D01*
X56611500Y-72901155D01*
X56622290Y-72856210D01*
X56669719Y-72763126D01*
X56677832Y-72711901D01*
X65271109Y-72711901D01*
X65290841Y-72924846D01*
X65349367Y-73130543D01*
X65404885Y-73242040D01*
X65835544Y-72811380D01*
X65870938Y-72943472D01*
X65949923Y-73080278D01*
X66061624Y-73191979D01*
X66198430Y-73270964D01*
X66330518Y-73306356D01*
X65897466Y-73739409D01*
X65913433Y-73749296D01*
X65913437Y-73749298D01*
X66112857Y-73826553D01*
X66323072Y-73865849D01*
X66536930Y-73865849D01*
X66747144Y-73826553D01*
X66946563Y-73749298D01*
X66946565Y-73749298D01*
X66962534Y-73739409D01*
X66529482Y-73306357D01*
X66661572Y-73270964D01*
X66798378Y-73191979D01*
X66910079Y-73080278D01*
X66989064Y-72943472D01*
X67024457Y-72811382D01*
X67455115Y-73242040D01*
X67510634Y-73130543D01*
X67569160Y-72924846D01*
X67588892Y-72711901D01*
X67569160Y-72498955D01*
X67510634Y-72293258D01*
X67455115Y-72181760D01*
X67024456Y-72612418D01*
X66989064Y-72480330D01*
X66910079Y-72343524D01*
X66798378Y-72231823D01*
X66661572Y-72152838D01*
X66529480Y-72117444D01*
X66962534Y-71684391D01*
X66946567Y-71674504D01*
X66747144Y-71597248D01*
X66536930Y-71557953D01*
X66323072Y-71557953D01*
X66112857Y-71597248D01*
X65913438Y-71674502D01*
X65913430Y-71674506D01*
X65897466Y-71684391D01*
X66330519Y-72117444D01*
X66198430Y-72152838D01*
X66061624Y-72231823D01*
X65949923Y-72343524D01*
X65870938Y-72480330D01*
X65835544Y-72612419D01*
X65404885Y-72181760D01*
X65404884Y-72181760D01*
X65349368Y-72293253D01*
X65290841Y-72498955D01*
X65271109Y-72711901D01*
X56677832Y-72711901D01*
X56690804Y-72630000D01*
X56669719Y-72496874D01*
X56646584Y-72451470D01*
X56608529Y-72376782D01*
X56608528Y-72376780D01*
X56513220Y-72281472D01*
X56513217Y-72281470D01*
X56393129Y-72220282D01*
X56393127Y-72220281D01*
X56260000Y-72199196D01*
X56126872Y-72220281D01*
X56126870Y-72220282D01*
X56006782Y-72281470D01*
X55911470Y-72376782D01*
X55850282Y-72496870D01*
X55850281Y-72496872D01*
X55842376Y-72546782D01*
X55829196Y-72630000D01*
X55850281Y-72763126D01*
X55897710Y-72856210D01*
X55899710Y-72860135D01*
X55910500Y-72905080D01*
X55910500Y-97214918D01*
X55899710Y-97259863D01*
X55850281Y-97356872D01*
X55850281Y-97356874D01*
X55846444Y-97381103D01*
X55829196Y-97490000D01*
X54489853Y-97490000D01*
X54488654Y-97489016D01*
X54488651Y-97489014D01*
X54488642Y-97489008D01*
X54305477Y-97391105D01*
X54305472Y-97391103D01*
X54106708Y-97330808D01*
X54106703Y-97330807D01*
X53900003Y-97310450D01*
X53899997Y-97310450D01*
X53693296Y-97330807D01*
X53693291Y-97330808D01*
X53494527Y-97391103D01*
X53494522Y-97391105D01*
X53311357Y-97489008D01*
X53311347Y-97489015D01*
X53150789Y-97620780D01*
X53150780Y-97620789D01*
X53019015Y-97781347D01*
X53019008Y-97781357D01*
X52921105Y-97964522D01*
X52921103Y-97964527D01*
X52860808Y-98163291D01*
X52860807Y-98163296D01*
X52840450Y-98369996D01*
X52840450Y-98370003D01*
X51250870Y-98370003D01*
X51250870Y-93370003D01*
X52840450Y-93370003D01*
X52860807Y-93576703D01*
X52860808Y-93576708D01*
X52921103Y-93775472D01*
X52921105Y-93775477D01*
X53019008Y-93958642D01*
X53019014Y-93958651D01*
X53019016Y-93958654D01*
X53037194Y-93980804D01*
X53150780Y-94119210D01*
X53150789Y-94119219D01*
X53225671Y-94180672D01*
X53311346Y-94250984D01*
X53311350Y-94250986D01*
X53311357Y-94250991D01*
X53475817Y-94338896D01*
X53494528Y-94348897D01*
X53632997Y-94390900D01*
X53693291Y-94409191D01*
X53693296Y-94409192D01*
X53899997Y-94429550D01*
X53900000Y-94429550D01*
X53900003Y-94429550D01*
X54106703Y-94409192D01*
X54106708Y-94409191D01*
X54305472Y-94348897D01*
X54371146Y-94313793D01*
X54488642Y-94250991D01*
X54488645Y-94250988D01*
X54488654Y-94250984D01*
X54649215Y-94119215D01*
X54780984Y-93958654D01*
X54780988Y-93958645D01*
X54780991Y-93958642D01*
X54878894Y-93775477D01*
X54878897Y-93775472D01*
X54939191Y-93576708D01*
X54939192Y-93576703D01*
X54959550Y-93370003D01*
X54959550Y-93369996D01*
X54939192Y-93163296D01*
X54939191Y-93163291D01*
X54917153Y-93090642D01*
X54878897Y-92964528D01*
X54873552Y-92954528D01*
X54780991Y-92781357D01*
X54780986Y-92781350D01*
X54780984Y-92781346D01*
X54710672Y-92695671D01*
X54649219Y-92620789D01*
X54649210Y-92620780D01*
X54531889Y-92524498D01*
X54488654Y-92489016D01*
X54488651Y-92489014D01*
X54488642Y-92489008D01*
X54305477Y-92391105D01*
X54305472Y-92391103D01*
X54106708Y-92330808D01*
X54106703Y-92330807D01*
X53900003Y-92310450D01*
X53899997Y-92310450D01*
X53693296Y-92330807D01*
X53693291Y-92330808D01*
X53494527Y-92391103D01*
X53494522Y-92391105D01*
X53311357Y-92489008D01*
X53311347Y-92489015D01*
X53150789Y-92620780D01*
X53150780Y-92620789D01*
X53019015Y-92781347D01*
X53019008Y-92781357D01*
X52921105Y-92964522D01*
X52921103Y-92964527D01*
X52860808Y-93163291D01*
X52860807Y-93163296D01*
X52840450Y-93369996D01*
X52840450Y-93370003D01*
X51250870Y-93370003D01*
X51250870Y-72711904D01*
X52870451Y-72711904D01*
X52890808Y-72918604D01*
X52890809Y-72918609D01*
X52951104Y-73117373D01*
X52951106Y-73117378D01*
X53049009Y-73300543D01*
X53049015Y-73300552D01*
X53049017Y-73300555D01*
X53093223Y-73354420D01*
X53180781Y-73461111D01*
X53180790Y-73461120D01*
X53241469Y-73510917D01*
X53341347Y-73592885D01*
X53341351Y-73592887D01*
X53341358Y-73592892D01*
X53524523Y-73690795D01*
X53524529Y-73690798D01*
X53662998Y-73732801D01*
X53723292Y-73751092D01*
X53723297Y-73751093D01*
X53929998Y-73771451D01*
X53930001Y-73771451D01*
X53930004Y-73771451D01*
X54136704Y-73751093D01*
X54136709Y-73751092D01*
X54142630Y-73749296D01*
X54335473Y-73690798D01*
X54453162Y-73627892D01*
X54518643Y-73592892D01*
X54518646Y-73592889D01*
X54518655Y-73592885D01*
X54679216Y-73461116D01*
X54810985Y-73300555D01*
X54810989Y-73300546D01*
X54810992Y-73300543D01*
X54901858Y-73130543D01*
X54908898Y-73117373D01*
X54969192Y-72918609D01*
X54969193Y-72918604D01*
X54989551Y-72711904D01*
X54989551Y-72711897D01*
X54969193Y-72505197D01*
X54969192Y-72505192D01*
X54930239Y-72376782D01*
X54908898Y-72306429D01*
X54902537Y-72294528D01*
X54810992Y-72123258D01*
X54810987Y-72123251D01*
X54810985Y-72123247D01*
X54740673Y-72037572D01*
X54679220Y-71962690D01*
X54679211Y-71962681D01*
X54585608Y-71885864D01*
X54518655Y-71830917D01*
X54518652Y-71830915D01*
X54518643Y-71830909D01*
X54335478Y-71733006D01*
X54335473Y-71733004D01*
X54136709Y-71672709D01*
X54136704Y-71672708D01*
X53930004Y-71652351D01*
X53929998Y-71652351D01*
X53723297Y-71672708D01*
X53723292Y-71672709D01*
X53524528Y-71733004D01*
X53524523Y-71733006D01*
X53341358Y-71830909D01*
X53341348Y-71830916D01*
X53180790Y-71962681D01*
X53180781Y-71962690D01*
X53049016Y-72123248D01*
X53049009Y-72123258D01*
X52951106Y-72306423D01*
X52951104Y-72306428D01*
X52890809Y-72505192D01*
X52890808Y-72505197D01*
X52870451Y-72711897D01*
X52870451Y-72711904D01*
X51250870Y-72711904D01*
X51250870Y-69240000D01*
X78939196Y-69240000D01*
X78960281Y-69373127D01*
X78960282Y-69373129D01*
X79021470Y-69493217D01*
X79021472Y-69493220D01*
X79116780Y-69588528D01*
X79236874Y-69649719D01*
X79370000Y-69670804D01*
X79503126Y-69649719D01*
X79623220Y-69588528D01*
X79718528Y-69493220D01*
X79779719Y-69373126D01*
X79800804Y-69240000D01*
X79779719Y-69106874D01*
X79718528Y-68986780D01*
X79623220Y-68891472D01*
X79623217Y-68891470D01*
X79503129Y-68830282D01*
X79503127Y-68830281D01*
X79370000Y-68809196D01*
X79236872Y-68830281D01*
X79236870Y-68830282D01*
X79116782Y-68891470D01*
X79021470Y-68986782D01*
X78960282Y-69106870D01*
X78960281Y-69106872D01*
X78939196Y-69239999D01*
X78939196Y-69240000D01*
X51250870Y-69240000D01*
X51250870Y-67711904D01*
X52870451Y-67711904D01*
X52890808Y-67918604D01*
X52890809Y-67918609D01*
X52951104Y-68117373D01*
X52951106Y-68117378D01*
X53049009Y-68300543D01*
X53049015Y-68300552D01*
X53049017Y-68300555D01*
X53103964Y-68367508D01*
X53180781Y-68461111D01*
X53180790Y-68461120D01*
X53229024Y-68500704D01*
X53341347Y-68592885D01*
X53341351Y-68592887D01*
X53341358Y-68592892D01*
X53524523Y-68690795D01*
X53524529Y-68690798D01*
X53661670Y-68732399D01*
X53723292Y-68751092D01*
X53723297Y-68751093D01*
X53929998Y-68771451D01*
X53930001Y-68771451D01*
X53930004Y-68771451D01*
X54136704Y-68751093D01*
X54136709Y-68751092D01*
X54175938Y-68739192D01*
X54335473Y-68690798D01*
X54401147Y-68655694D01*
X54518643Y-68592892D01*
X54518646Y-68592889D01*
X54518655Y-68592885D01*
X54679216Y-68461116D01*
X54810985Y-68300555D01*
X54810989Y-68300546D01*
X54810992Y-68300543D01*
X54874993Y-68180804D01*
X54908898Y-68117373D01*
X54969192Y-67918609D01*
X54969193Y-67918604D01*
X54989551Y-67711904D01*
X65370451Y-67711904D01*
X65390808Y-67918604D01*
X65390809Y-67918609D01*
X65451104Y-68117373D01*
X65451106Y-68117378D01*
X65549009Y-68300543D01*
X65549015Y-68300552D01*
X65549017Y-68300555D01*
X65603964Y-68367508D01*
X65680781Y-68461111D01*
X65680790Y-68461120D01*
X65729024Y-68500704D01*
X65841347Y-68592885D01*
X65841351Y-68592887D01*
X65841358Y-68592892D01*
X66024523Y-68690795D01*
X66024529Y-68690798D01*
X66161670Y-68732399D01*
X66223292Y-68751092D01*
X66223297Y-68751093D01*
X66429998Y-68771451D01*
X66430001Y-68771451D01*
X66430004Y-68771451D01*
X66636704Y-68751093D01*
X66636709Y-68751092D01*
X66675938Y-68739192D01*
X66835473Y-68690798D01*
X66901147Y-68655694D01*
X67018643Y-68592892D01*
X67018646Y-68592889D01*
X67018655Y-68592885D01*
X67179216Y-68461116D01*
X67310985Y-68300555D01*
X67310989Y-68300546D01*
X67310992Y-68300543D01*
X67374993Y-68180804D01*
X67408898Y-68117373D01*
X67469192Y-67918609D01*
X67469193Y-67918604D01*
X67489551Y-67711904D01*
X67489551Y-67711897D01*
X67489364Y-67710000D01*
X76819196Y-67710000D01*
X76840281Y-67843127D01*
X76840282Y-67843129D01*
X76892188Y-67945000D01*
X76901472Y-67963220D01*
X76996780Y-68058528D01*
X76996782Y-68058529D01*
X77112279Y-68117378D01*
X77116874Y-68119719D01*
X77250000Y-68140804D01*
X77383126Y-68119719D01*
X77503220Y-68058528D01*
X77598528Y-67963220D01*
X77659719Y-67843126D01*
X77680804Y-67710000D01*
X77659719Y-67576874D01*
X77598528Y-67456780D01*
X77503220Y-67361472D01*
X77503217Y-67361470D01*
X77383129Y-67300282D01*
X77383127Y-67300281D01*
X77250000Y-67279196D01*
X77116872Y-67300281D01*
X77116870Y-67300282D01*
X76996782Y-67361470D01*
X76901470Y-67456782D01*
X76840282Y-67576870D01*
X76840281Y-67576872D01*
X76819196Y-67709999D01*
X76819196Y-67710000D01*
X67489364Y-67710000D01*
X67469193Y-67505197D01*
X67469192Y-67505192D01*
X67419167Y-67340282D01*
X67408898Y-67306429D01*
X67408895Y-67306423D01*
X67310992Y-67123258D01*
X67310987Y-67123251D01*
X67310985Y-67123247D01*
X67240673Y-67037572D01*
X67179220Y-66962690D01*
X67179211Y-66962681D01*
X67061890Y-66866399D01*
X67018655Y-66830917D01*
X67018652Y-66830915D01*
X67018643Y-66830909D01*
X66835478Y-66733006D01*
X66835473Y-66733004D01*
X66636709Y-66672709D01*
X66636704Y-66672708D01*
X66430004Y-66652351D01*
X66429998Y-66652351D01*
X66223297Y-66672708D01*
X66223292Y-66672709D01*
X66024528Y-66733004D01*
X66024523Y-66733006D01*
X65841358Y-66830909D01*
X65841348Y-66830916D01*
X65680790Y-66962681D01*
X65680781Y-66962690D01*
X65549016Y-67123248D01*
X65549009Y-67123258D01*
X65451106Y-67306423D01*
X65451104Y-67306428D01*
X65390809Y-67505192D01*
X65390808Y-67505197D01*
X65370451Y-67711897D01*
X65370451Y-67711904D01*
X54989551Y-67711904D01*
X54989551Y-67711897D01*
X54969193Y-67505197D01*
X54969192Y-67505192D01*
X54919167Y-67340282D01*
X54908898Y-67306429D01*
X54908895Y-67306423D01*
X54810992Y-67123258D01*
X54810987Y-67123251D01*
X54810985Y-67123247D01*
X54740673Y-67037572D01*
X54679220Y-66962690D01*
X54679211Y-66962681D01*
X54561890Y-66866399D01*
X54518655Y-66830917D01*
X54518652Y-66830915D01*
X54518643Y-66830909D01*
X54335478Y-66733006D01*
X54335473Y-66733004D01*
X54136709Y-66672709D01*
X54136704Y-66672708D01*
X53930004Y-66652351D01*
X53929998Y-66652351D01*
X53723297Y-66672708D01*
X53723292Y-66672709D01*
X53524528Y-66733004D01*
X53524523Y-66733006D01*
X53341358Y-66830909D01*
X53341348Y-66830916D01*
X53180790Y-66962681D01*
X53180781Y-66962690D01*
X53049016Y-67123248D01*
X53049009Y-67123258D01*
X52951106Y-67306423D01*
X52951104Y-67306428D01*
X52890809Y-67505192D01*
X52890808Y-67505197D01*
X52870451Y-67711897D01*
X52870451Y-67711904D01*
X51250870Y-67711904D01*
X51250870Y-65802765D01*
X59025503Y-65802765D01*
X59053929Y-65982242D01*
X59110086Y-66155074D01*
X59186520Y-66305086D01*
X59192586Y-66316990D01*
X59299399Y-66464006D01*
X59427896Y-66592503D01*
X59574912Y-66699316D01*
X59736828Y-66781816D01*
X59909655Y-66837971D01*
X59909656Y-66837971D01*
X59909659Y-66837972D01*
X60089137Y-66866399D01*
X60089140Y-66866399D01*
X60270865Y-66866399D01*
X60450342Y-66837972D01*
X60450343Y-66837971D01*
X60450347Y-66837971D01*
X60623174Y-66781816D01*
X60785090Y-66699316D01*
X60932106Y-66592503D01*
X61060603Y-66464006D01*
X61167416Y-66316990D01*
X61221930Y-66210000D01*
X74699196Y-66210000D01*
X74720281Y-66343127D01*
X74720282Y-66343129D01*
X74775809Y-66452106D01*
X74781472Y-66463220D01*
X74876780Y-66558528D01*
X74996874Y-66619719D01*
X75130000Y-66640804D01*
X75263126Y-66619719D01*
X75383220Y-66558528D01*
X75478528Y-66463220D01*
X75539719Y-66343126D01*
X75560804Y-66210000D01*
X75539719Y-66076874D01*
X75478528Y-65956780D01*
X75383220Y-65861472D01*
X75383217Y-65861470D01*
X75263129Y-65800282D01*
X75263127Y-65800281D01*
X75130000Y-65779196D01*
X74996872Y-65800281D01*
X74996870Y-65800282D01*
X74876782Y-65861470D01*
X74781470Y-65956782D01*
X74720282Y-66076870D01*
X74720281Y-66076872D01*
X74699196Y-66209999D01*
X74699196Y-66210000D01*
X61221930Y-66210000D01*
X61249916Y-66155074D01*
X61306071Y-65982247D01*
X61307957Y-65970341D01*
X61334499Y-65802765D01*
X61334499Y-65621036D01*
X61306072Y-65441559D01*
X61302204Y-65429654D01*
X61249916Y-65268728D01*
X61167416Y-65106812D01*
X61060603Y-64959796D01*
X60932106Y-64831299D01*
X60785090Y-64724486D01*
X60785089Y-64724485D01*
X60785087Y-64724484D01*
X60623174Y-64641986D01*
X60450342Y-64585829D01*
X60270865Y-64557403D01*
X60270862Y-64557403D01*
X60089140Y-64557403D01*
X60089137Y-64557403D01*
X59909659Y-64585829D01*
X59736827Y-64641986D01*
X59574914Y-64724484D01*
X59501404Y-64777892D01*
X59427896Y-64831299D01*
X59299399Y-64959796D01*
X59245992Y-65033304D01*
X59192584Y-65106814D01*
X59110086Y-65268727D01*
X59053929Y-65441559D01*
X59025503Y-65621036D01*
X59025503Y-65802765D01*
X51250870Y-65802765D01*
X51250870Y-50330000D01*
X53724415Y-50330000D01*
X53744738Y-50678929D01*
X53805430Y-51023133D01*
X53805430Y-51023134D01*
X53905672Y-51357965D01*
X53905674Y-51357972D01*
X53916628Y-51383365D01*
X54044111Y-51678904D01*
X54218870Y-51981596D01*
X54427588Y-52261953D01*
X54667442Y-52516183D01*
X54935189Y-52740849D01*
X55227207Y-52932913D01*
X55539549Y-53089777D01*
X55867989Y-53209319D01*
X55867992Y-53209319D01*
X55867993Y-53209320D01*
X56208075Y-53289921D01*
X56208080Y-53289921D01*
X56208086Y-53289923D01*
X56555241Y-53330500D01*
X56555244Y-53330500D01*
X56904756Y-53330500D01*
X56904759Y-53330500D01*
X57251914Y-53289923D01*
X57251920Y-53289921D01*
X57251924Y-53289921D01*
X57484839Y-53234719D01*
X57592011Y-53209319D01*
X57920451Y-53089777D01*
X58232793Y-52932913D01*
X58524811Y-52740849D01*
X58792558Y-52516183D01*
X59032412Y-52261953D01*
X59241130Y-51981596D01*
X59415889Y-51678904D01*
X59554326Y-51357971D01*
X59654569Y-51023136D01*
X59715262Y-50678927D01*
X59734106Y-50355400D01*
X246296415Y-50355400D01*
X246316738Y-50704329D01*
X246377430Y-51048533D01*
X246377430Y-51048534D01*
X246477672Y-51383365D01*
X246477674Y-51383372D01*
X246610118Y-51690412D01*
X246616111Y-51704304D01*
X246790870Y-52006996D01*
X246999588Y-52287353D01*
X247239442Y-52541583D01*
X247507189Y-52766249D01*
X247799207Y-52958313D01*
X248111549Y-53115177D01*
X248439989Y-53234719D01*
X248439992Y-53234719D01*
X248439993Y-53234720D01*
X248780075Y-53315321D01*
X248780080Y-53315321D01*
X248780086Y-53315323D01*
X249127241Y-53355900D01*
X249127244Y-53355900D01*
X249476756Y-53355900D01*
X249476759Y-53355900D01*
X249823914Y-53315323D01*
X249823920Y-53315321D01*
X249823924Y-53315321D01*
X250050645Y-53261587D01*
X250164011Y-53234719D01*
X250492451Y-53115177D01*
X250804793Y-52958313D01*
X251096811Y-52766249D01*
X251364558Y-52541583D01*
X251604412Y-52287353D01*
X251813130Y-52006996D01*
X251987889Y-51704304D01*
X252126326Y-51383371D01*
X252226569Y-51048536D01*
X252287262Y-50704327D01*
X252307585Y-50355400D01*
X252287262Y-50006473D01*
X252226569Y-49662264D01*
X252126326Y-49327429D01*
X251987889Y-49006496D01*
X251813130Y-48703804D01*
X251604412Y-48423447D01*
X251364558Y-48169217D01*
X251334287Y-48143817D01*
X251278394Y-48096916D01*
X251096811Y-47944551D01*
X251002157Y-47882296D01*
X250804794Y-47752487D01*
X250492453Y-47595624D01*
X250492452Y-47595623D01*
X250492451Y-47595623D01*
X250164011Y-47476081D01*
X250164012Y-47476081D01*
X250164006Y-47476079D01*
X249823924Y-47395478D01*
X249711089Y-47382289D01*
X249476759Y-47354900D01*
X249127241Y-47354900D01*
X248935950Y-47377258D01*
X248780075Y-47395478D01*
X248439993Y-47476079D01*
X248243191Y-47547709D01*
X248111549Y-47595623D01*
X248111548Y-47595623D01*
X248111546Y-47595624D01*
X247799205Y-47752487D01*
X247507190Y-47944550D01*
X247239443Y-48169215D01*
X246999591Y-48423443D01*
X246790871Y-48703802D01*
X246790869Y-48703805D01*
X246616111Y-49006495D01*
X246616108Y-49006502D01*
X246477674Y-49327427D01*
X246477672Y-49327434D01*
X246377430Y-49662265D01*
X246377430Y-49662266D01*
X246316738Y-50006470D01*
X246296415Y-50355400D01*
X59734106Y-50355400D01*
X59735585Y-50330000D01*
X59715262Y-49981073D01*
X59654569Y-49636864D01*
X59554326Y-49302029D01*
X59415889Y-48981096D01*
X59241130Y-48678404D01*
X59032412Y-48398047D01*
X58792558Y-48143817D01*
X58524811Y-47919151D01*
X58271412Y-47752487D01*
X58232794Y-47727087D01*
X57920453Y-47570224D01*
X57920452Y-47570223D01*
X57920451Y-47570223D01*
X57592011Y-47450681D01*
X57592012Y-47450681D01*
X57592006Y-47450679D01*
X57251924Y-47370078D01*
X57122068Y-47354900D01*
X56904759Y-47329500D01*
X56555241Y-47329500D01*
X56363950Y-47351858D01*
X56208075Y-47370078D01*
X55867993Y-47450679D01*
X55671191Y-47522309D01*
X55539549Y-47570223D01*
X55539548Y-47570223D01*
X55539546Y-47570224D01*
X55227205Y-47727087D01*
X54935190Y-47919150D01*
X54667443Y-48143815D01*
X54427591Y-48398043D01*
X54218871Y-48678402D01*
X54218869Y-48678405D01*
X54044111Y-48981095D01*
X54044108Y-48981102D01*
X53905674Y-49302027D01*
X53905672Y-49302034D01*
X53805430Y-49636865D01*
X53805430Y-49636866D01*
X53744738Y-49981070D01*
X53724415Y-50330000D01*
X51250870Y-50330000D01*
X51250870Y-46023891D01*
X51251175Y-46016124D01*
X51259836Y-45906076D01*
X51264941Y-45841208D01*
X51267368Y-45825879D01*
X51307420Y-45659053D01*
X51312216Y-45644294D01*
X51377874Y-45485783D01*
X51384914Y-45471966D01*
X51474554Y-45325686D01*
X51483675Y-45313131D01*
X51595098Y-45182673D01*
X51606080Y-45171693D01*
X51736531Y-45060278D01*
X51749092Y-45051151D01*
X51895372Y-44961511D01*
X51909194Y-44954468D01*
X52067696Y-44888815D01*
X52082459Y-44884018D01*
X52249286Y-44843967D01*
X52264612Y-44841540D01*
X52439620Y-44827767D01*
X52447385Y-44827463D01*
X52472507Y-44827463D01*
X253560899Y-44827463D01*
X253586108Y-44827463D01*
X253593875Y-44827768D01*
G37*
%TD.AperFunction*%
%TD*%
%TA.AperFunction,Conductor*%
%TO.N,+5V*%
G36*
X145170991Y-51284107D02*
G01*
X145206955Y-51333607D01*
X145211800Y-51364200D01*
X145211800Y-54833200D01*
X145192893Y-54891391D01*
X145143393Y-54927355D01*
X145112800Y-54932200D01*
X107250458Y-54932200D01*
X107192267Y-54913293D01*
X107156303Y-54863793D01*
X107152677Y-54848687D01*
X107150224Y-54833200D01*
X107139719Y-54766874D01*
X107078528Y-54646780D01*
X106983220Y-54551472D01*
X106983217Y-54551470D01*
X106863129Y-54490282D01*
X106863127Y-54490281D01*
X106730000Y-54469196D01*
X106596872Y-54490281D01*
X106596870Y-54490282D01*
X106476782Y-54551470D01*
X106381470Y-54646782D01*
X106320282Y-54766870D01*
X106320281Y-54766872D01*
X106307323Y-54848687D01*
X106279545Y-54903204D01*
X106225029Y-54930981D01*
X106209542Y-54932200D01*
X89087200Y-54932200D01*
X86860000Y-57159400D01*
X86859999Y-57159401D01*
X86855447Y-77541819D01*
X86836527Y-77600006D01*
X86826452Y-77611799D01*
X86811472Y-77626779D01*
X86750281Y-77746874D01*
X86729196Y-77879999D01*
X86729196Y-77880000D01*
X86750281Y-78013127D01*
X86750282Y-78013129D01*
X86811470Y-78133217D01*
X86811474Y-78133222D01*
X86826300Y-78148049D01*
X86854077Y-78202566D01*
X86855295Y-78218073D01*
X86855050Y-79315261D01*
X86844261Y-79360182D01*
X86810281Y-79426874D01*
X86789196Y-79560000D01*
X86810281Y-79693126D01*
X86833847Y-79739377D01*
X86844151Y-79759600D01*
X86854941Y-79804567D01*
X86854732Y-80742619D01*
X86835826Y-80800785D01*
X86831474Y-80806774D01*
X86770281Y-80926874D01*
X86749196Y-81059999D01*
X86749196Y-81060000D01*
X86770281Y-81193127D01*
X86770282Y-81193129D01*
X86827355Y-81305141D01*
X86831472Y-81313220D01*
X86831475Y-81313223D01*
X86835684Y-81319017D01*
X86854589Y-81377209D01*
X86854589Y-81377227D01*
X86854365Y-82385486D01*
X86843577Y-82430405D01*
X86840281Y-82436874D01*
X86819196Y-82569999D01*
X86819196Y-82570000D01*
X86840281Y-82703126D01*
X86840281Y-82703128D01*
X86843493Y-82709431D01*
X86854282Y-82754395D01*
X86854038Y-83847248D01*
X86843248Y-83892170D01*
X86810281Y-83956872D01*
X86810281Y-83956873D01*
X86789196Y-84089999D01*
X86789196Y-84090000D01*
X86810281Y-84223126D01*
X86810281Y-84223127D01*
X86843139Y-84287616D01*
X86853929Y-84332582D01*
X86850022Y-101831222D01*
X86831102Y-101889409D01*
X86781594Y-101925361D01*
X86751022Y-101930200D01*
X84415890Y-101930200D01*
X84357699Y-101911293D01*
X84346019Y-101901336D01*
X82946729Y-100507331D01*
X82918848Y-100452867D01*
X82917600Y-100437195D01*
X82917600Y-55133608D01*
X82936507Y-55075417D01*
X82946596Y-55063604D01*
X86716004Y-51294196D01*
X86770521Y-51266419D01*
X86786008Y-51265200D01*
X145112800Y-51265200D01*
X145170991Y-51284107D01*
G37*
%TD.AperFunction*%
%TD*%
%TA.AperFunction,Conductor*%
%TO.N,+3.3V*%
G36*
X190337914Y-77184107D02*
G01*
X190351469Y-77195983D01*
X191488106Y-78391412D01*
X191768146Y-78685936D01*
X191794540Y-78741135D01*
X191795400Y-78754153D01*
X191795400Y-80054150D01*
X191776493Y-80112341D01*
X191726993Y-80148305D01*
X191680913Y-80151931D01*
X191566801Y-80133858D01*
X191566800Y-80133858D01*
X191440245Y-80153902D01*
X191440238Y-80153904D01*
X191326081Y-80212071D01*
X191326079Y-80212072D01*
X191235472Y-80302679D01*
X191235471Y-80302681D01*
X191177304Y-80416838D01*
X191177302Y-80416845D01*
X191157258Y-80543399D01*
X191157258Y-80543400D01*
X191177302Y-80669954D01*
X191177304Y-80669961D01*
X191235471Y-80784118D01*
X191235474Y-80784123D01*
X191326077Y-80874726D01*
X191326079Y-80874727D01*
X191326081Y-80874728D01*
X191440238Y-80932895D01*
X191440240Y-80932895D01*
X191440245Y-80932898D01*
X191549495Y-80950201D01*
X191566799Y-80952942D01*
X191566799Y-80952941D01*
X191566800Y-80952942D01*
X191680914Y-80934868D01*
X191741345Y-80944439D01*
X191784610Y-80987704D01*
X191795400Y-81032649D01*
X191795400Y-82321400D01*
X194050376Y-84451100D01*
X194079699Y-84504800D01*
X194081400Y-84523073D01*
X194081400Y-87892898D01*
X194062493Y-87951089D01*
X194051318Y-87963970D01*
X193272001Y-88719672D01*
X193217064Y-88746608D01*
X193203083Y-88747600D01*
X150505341Y-88747600D01*
X150447150Y-88728693D01*
X150411186Y-88679193D01*
X150407560Y-88633112D01*
X150409542Y-88620600D01*
X150389498Y-88494045D01*
X150389495Y-88494040D01*
X150389495Y-88494038D01*
X150331328Y-88379881D01*
X150331327Y-88379879D01*
X150331326Y-88379877D01*
X150240723Y-88289274D01*
X150240720Y-88289272D01*
X150240718Y-88289271D01*
X150126561Y-88231104D01*
X150126556Y-88231102D01*
X150126555Y-88231102D01*
X150000000Y-88211058D01*
X149873445Y-88231102D01*
X149873438Y-88231104D01*
X149759281Y-88289271D01*
X149759279Y-88289272D01*
X149668672Y-88379879D01*
X149668671Y-88379881D01*
X149610504Y-88494038D01*
X149610502Y-88494045D01*
X149590458Y-88620599D01*
X149592440Y-88633112D01*
X149582869Y-88693544D01*
X149539605Y-88736809D01*
X149494659Y-88747600D01*
X112283354Y-88747600D01*
X110358600Y-90499988D01*
X110358600Y-115643071D01*
X110339693Y-115701262D01*
X110328484Y-115714177D01*
X109954796Y-116076188D01*
X109899845Y-116103097D01*
X109885912Y-116104082D01*
X107520041Y-116104082D01*
X107461850Y-116085175D01*
X107452258Y-116077238D01*
X107071817Y-115719854D01*
X107042350Y-115666232D01*
X107040600Y-115647698D01*
X107040600Y-88347001D01*
X107040600Y-88347000D01*
X105641200Y-86947600D01*
X105641199Y-86947600D01*
X91802436Y-86947600D01*
X91744245Y-86928693D01*
X91730824Y-86916957D01*
X91315343Y-86481692D01*
X91288840Y-86426545D01*
X91287955Y-86413163D01*
X91288152Y-86300000D01*
X92479958Y-86300000D01*
X92500000Y-86426545D01*
X92500002Y-86426554D01*
X92500004Y-86426561D01*
X92558171Y-86540718D01*
X92558174Y-86540723D01*
X92648777Y-86631326D01*
X92648779Y-86631327D01*
X92648781Y-86631328D01*
X92762938Y-86689495D01*
X92762940Y-86689495D01*
X92762945Y-86689498D01*
X92889500Y-86709542D01*
X93016055Y-86689498D01*
X93130223Y-86631326D01*
X93220826Y-86540723D01*
X93278998Y-86426555D01*
X93299042Y-86300000D01*
X93278998Y-86173445D01*
X93278995Y-86173440D01*
X93278995Y-86173438D01*
X93220828Y-86059281D01*
X93220827Y-86059279D01*
X93220826Y-86059277D01*
X93130223Y-85968674D01*
X93130220Y-85968672D01*
X93130218Y-85968671D01*
X93016061Y-85910504D01*
X93016056Y-85910502D01*
X93016055Y-85910502D01*
X92889500Y-85890458D01*
X92762945Y-85910502D01*
X92762938Y-85910504D01*
X92648781Y-85968671D01*
X92648779Y-85968672D01*
X92558172Y-86059279D01*
X92558171Y-86059281D01*
X92500004Y-86173438D01*
X92500002Y-86173445D01*
X92479958Y-86300000D01*
X91288152Y-86300000D01*
X91288570Y-86059279D01*
X91289399Y-85582202D01*
X91308408Y-85524046D01*
X91319970Y-85510832D01*
X91731318Y-85117431D01*
X91786440Y-85090876D01*
X91799687Y-85089978D01*
X183616600Y-85039200D01*
X184937400Y-83870800D01*
X184937400Y-78449603D01*
X184956307Y-78391412D01*
X184964954Y-78381073D01*
X186101974Y-77195670D01*
X186155900Y-77166763D01*
X186173420Y-77165200D01*
X190279723Y-77165200D01*
X190337914Y-77184107D01*
G37*
%TD.AperFunction*%
%TD*%
M02*
